<svg xmlns="http://www.w3.org/2000/svg">
<defs>
<font id="GTAmerica-BoldItalic" horiz-adv-x="620" >
  <font-face 
    font-family="GT America Bold"
    font-weight="700"
    font-style="italic"
    font-stretch="normal"
    units-per-em="1000"
    panose-1="0 0 8 0 0 0 0 0 0 0"
    ascent="800"
    descent="-200"
    x-height="500"
    cap-height="710"
    bbox="-487 -241 1327 979"
    underline-thickness="50"
    underline-position="-200"
    slope="-10"
    unicode-range="U+000D-FB02"
  />
<missing-glyph horiz-adv-x="1018" 
d="M1071 663h-552l-8 -47h552l-9 -48h-552l-8 -47h552l-9 -48h-552l-8 -47h552l-8 -47h-552l-9 -48h552l-8 -47h-978l75 426h978zM141 667l14 9h-16l-2 15l-7 -15h-16l12 -9l-8 -15l14 9l11 -9zM217 676h-16l12 -9l-8 -15l14 10l11 -10l-2 15l13 9h-15l-2 15zM304 676h-16
l12 -9l-8 -15l14 10l11 -10l-2 15l13 9h-15l-2 15zM390 676h-15l12 -9l-8 -15l14 10l11 -10l-2 15l13 9h-15l-2 15zM489 667l13 9h-15l-2 15l-8 -15h-15l11 -9l-7 -15l14 10l11 -10zM165 632h-15l11 -9l-7 -14l14 9l10 -9l-1 14l13 9h-15l-2 15zM437 623l14 9h-16l-1 15
l-8 -15h-15l11 -9l-8 -14l15 9l10 -9zM293 364l17 93h94l14 80h-94l16 94h-80l-16 -94h-93l-14 -80h93l-17 -93h80zM125 580l15 9h-16l-3 14l-6 -14h-16l11 -9l-7 -15l13 9l12 -9zM202 589h-16l11 -9l-7 -15l13 9l12 -9l-3 15l14 9h-15l-3 14zM375 589h-15l11 -9l-7 -15
l13 9l12 -9l-3 15l14 9h-15l-3 14zM473 580l14 9h-15l-3 14l-7 -14h-15l10 -9l-6 -15l13 9l12 -9zM110 492l15 10h-16l-3 14l-6 -14h-16l11 -10l-8 -14l14 9l11 -9zM458 492l14 10h-15l-3 14l-7 -14h-15l10 -10l-7 -14l14 9l11 -9zM94 405l15 9h-16l-2 15l-7 -15h-16l11 -9
l-7 -14l14 9l11 -9zM181 405l14 9h-15l-2 15l-7 -15h-16l11 -9l-7 -14l14 9l11 -9zM355 405l14 9h-15l-2 15l-8 -15h-15l11 -9l-7 -14l14 9l11 -9zM442 405l14 9h-15l-2 15l-8 -15h-15l10 -9l-6 -14l14 9l11 -9zM132 347l-1 15l13 9h-15l-2 14l-8 -14h-15l11 -9l-7 -15l14 9
zM393 347l-2 15l14 9h-16l-1 14l-8 -14h-15l11 -9l-8 -15l15 9zM81 303l-2 15l15 9h-16l-3 15l-6 -15h-16l11 -9l-8 -15l14 9zM168 303l-2 15l14 9h-15l-3 15l-6 -15h-16l11 -9l-8 -15l14 9zM255 303l-2 15l14 9h-15l-3 15l-6 -15h-16l11 -9l-8 -15l14 9zM342 303l-2 15

<glyph glyph-name="fi" unicode="fi" horiz-adv-x="690" 
d="M417 500l-19 -107h-115l-70 -393h-160l70 393h-81l19 107h81l8 51q14 83 62.5 131.5t135.5 48.5q59 0 108 -16l-21 -113q-26 10 -55 10q-59 0 -70 -65l-8 -47h115zM516 572l26 146h167l-26 -146h-167zM415 0l92 500h159l-92 -500h-159z" />
    <glyph glyph-name="fl" unicode="fl" horiz-adv-x="697" 
d="M417 500l-19 -107h-115l-70 -393h-160l70 393h-81l19 107h81l8 51q14 83 62.5 131.5t135.5 48.5q59 0 108 -16l-21 -113q-26 10 -55 10q-59 0 -70 -65l-8 -47h115zM709 725l-128 -725h-161l128 725h161z" />
    <glyph glyph-name="g_g.liga" unicode="gg" horiz-adv-x="1109" 
d="M168 194q-26 -12 -26 -35q0 -19 15.5 -27t52.5 -10l90 -2q88 -3 134.5 -31t46.5 -108q0 -188 -285 -188q-234 0 -234 116q0 78 111 100q-62 26 -62 88q0 84 116 117q-60 40 -60 115q0 33 12 63t37.5 58t74.5 45t115 17q75 0 129 -22q15 45 49.5 70t83.5 25q35 0 53 -6
l-19 -108q-22 11 -61 11q-42 0 -58 -20q46 -39 46 -105q0 -73 -56.5 -127.5t-183.5 -54.5q-69 0 -121 19zM1101 585q35 0 53 -6l-18 -108q-22 11 -62 11q-41 0 -57 -20q46 -39 46 -105q0 -73 -56.5 -127.5t-183.5 -54.5q-71 0 -121 19q-26 -12 -26 -35q0 -36 68 -37l113 -2
q91 -3 139.5 -31t48.5 -108q0 -188 -312 -188q-218 0 -218 116q0 75 94 99q-64 25 -64 89q0 84 116 117q-61 40 -61 115q0 73 56.5 128t183.5 55q75 0 129 -22q15 45 49.5 70t82.5 25zM302 430q-42 0 -62.5 -28t-20.5 -67q0 -41 21 -59.5t54 -18.5q42 0 63 28.5t21 66.5
q0 40 -21.5 59t-54.5 19zM828 257q42 0 62.5 28t20.5 67q0 40 -21.5 59t-54.5 19q-42 0 -62.5 -28t-20.5 -67q0 -40 21.5 -59t54.5 -19zM186 -9q-38 0 -67 6q-33 -19 -33 -52q0 -64 131 -64q121 0 121 64q0 24 -15 33t-45 10zM720 -9q-30 0 -60 5q-20 -19 -20 -51
q0 -64 114 -64q148 0 148 64q0 24 -17 33t-51 10z" />
    <glyph glyph-name=".notdef" horiz-adv-x="1018" 
d="M1071 663h-552l-8 -47h552l-9 -48h-552l-8 -47h552l-9 -48h-552l-8 -47h552l-8 -47h-552l-9 -48h552l-8 -47h-978l75 426h978zM141 667l14 9h-16l-2 15l-7 -15h-16l12 -9l-8 -15l14 9l11 -9zM217 676h-16l12 -9l-8 -15l14 10l11 -10l-2 15l13 9h-15l-2 15zM304 676h-16
l12 -9l-8 -15l14 10l11 -10l-2 15l13 9h-15l-2 15zM390 676h-15l12 -9l-8 -15l14 10l11 -10l-2 15l13 9h-15l-2 15zM489 667l13 9h-15l-2 15l-8 -15h-15l11 -9l-7 -15l14 10l11 -10zM165 632h-15l11 -9l-7 -14l14 9l10 -9l-1 14l13 9h-15l-2 15zM437 623l14 9h-16l-1 15
l-8 -15h-15l11 -9l-8 -14l15 9l10 -9zM293 364l17 93h94l14 80h-94l16 94h-80l-16 -94h-93l-14 -80h93l-17 -93h80zM125 580l15 9h-16l-3 14l-6 -14h-16l11 -9l-7 -15l13 9l12 -9zM202 589h-16l11 -9l-7 -15l13 9l12 -9l-3 15l14 9h-15l-3 14zM375 589h-15l11 -9l-7 -15
l13 9l12 -9l-3 15l14 9h-15l-3 14zM473 580l14 9h-15l-3 14l-7 -14h-15l10 -9l-6 -15l13 9l12 -9zM110 492l15 10h-16l-3 14l-6 -14h-16l11 -10l-8 -14l14 9l11 -9zM458 492l14 10h-15l-3 14l-7 -14h-15l10 -10l-7 -14l14 9l11 -9zM94 405l15 9h-16l-2 15l-7 -15h-16l11 -9
l-7 -14l14 9l11 -9zM181 405l14 9h-15l-2 15l-7 -15h-16l11 -9l-7 -14l14 9l11 -9zM355 405l14 9h-15l-2 15l-8 -15h-15l11 -9l-7 -14l14 9l11 -9zM442 405l14 9h-15l-2 15l-8 -15h-15l10 -9l-6 -14l14 9l11 -9zM132 347l-1 15l13 9h-15l-2 14l-8 -14h-15l11 -9l-7 -15l14 9
zM393 347l-2 15l14 9h-16l-1 14l-8 -14h-15l11 -9l-8 -15l15 9zM81 303l-2 15l15 9h-16l-3 15l-6 -15h-16l11 -9l-8 -15l14 9zM168 303l-2 15l14 9h-15l-3 15l-6 -15h-16l11 -9l-8 -15l14 9zM255 303l-2 15l14 9h-15l-3 15l-6 -15h-16l11 -9l-8 -15l14 9zM342 303l-2 15
l14 9h-15l-3 15l-7 -15h-15l11 -9l-8 -15l14 9zM429 303l-2 15l14 9h-15l-3 15l-7 -15h-15l10 -9l-7 -15l14 9zM9 189l9 48h977l-9 -48h-977zM-7 95l8 47h978l-8 -47h-978zM-24 0l8 47h978l-8 -47h-978z" />
    <glyph glyph-name=".null" horiz-adv-x="0" 
 />
    <glyph glyph-name=".null" horiz-adv-x="0" 
 />
    <glyph glyph-name="nonmarkingreturn" horiz-adv-x="333" 
 />
    <glyph glyph-name="CR" unicode="&#xd;" horiz-adv-x="0" 
 />
    <glyph glyph-name="space" unicode=" " horiz-adv-x="247" 
 />
    <glyph glyph-name="exclam" unicode="!" horiz-adv-x="330" 
d="M98 232l60 493h182l-114 -493h-128zM235 153l-27 -153h-174l28 153h173z" />
    <glyph glyph-name="quotedbl" unicode="&#x22;" horiz-adv-x="458" 
d="M104 410l34 300h143l-70 -300h-107zM305 410l34 300h143l-70 -300h-107z" />
    <glyph glyph-name="numbersign" unicode="#" horiz-adv-x="640" 
d="M651 410h-128l-23 -125h117v-109h-137l-33 -176h-123l33 176h-114l-33 -176h-122l33 176h-103v109h123l23 125h-106v109h127l32 173h122l-32 -173h114l32 173h123l-32 -173h107v-109zM377 285l23 125h-114l-23 -125h114z" />
    <glyph glyph-name="dollar" unicode="$" horiz-adv-x="612" 
d="M411 411q170 -41 170 -195q0 -45 -15.5 -84.5t-48 -73.5t-90.5 -53.5t-136 -19.5h-6l-16 -92h-65l17 96q-89 12 -151.5 53t-88.5 108l125 73q35 -100 136 -117l34 197l-16 3q-185 42 -185 196q0 41 14 76t44.5 65.5t85.5 48.5t129 18l16 90h65l-17 -94q155 -19 215 -135
l-117 -77q-39 78 -118 97l-30 -168zM219 518q0 -30 19 -48t62 -31l28 158q-56 -1 -82.5 -23t-26.5 -56zM306 102q126 5 126 94q0 39 -23.5 60.5t-69.5 32.5z" />
    <glyph glyph-name="percent" unicode="%" horiz-adv-x="925" 
d="M130 -14l598 737h104l-596 -737h-106zM244 337q-77 0 -131 39t-54 125q0 39 12.5 75.5t37 69t67.5 52.5t99 20q77 0 131 -39t54 -125q0 -39 -12.5 -75.5t-37 -69t-67.5 -52.5t-99 -20zM245 428q51 0 75 38.5t24 84.5q0 76 -70 76q-51 0 -75 -38.5t-24 -84.5q0 -76 70 -76
zM686 -17q-77 0 -131 39t-54 125q0 39 12.5 75.5t37 69t67.5 52.5t99 20q77 0 131 -39t54 -125q0 -39 -12.5 -75.5t-37 -69t-67.5 -52.5t-99 -20zM687 74q51 0 75 38.5t24 84.5q0 76 -70 76q-51 0 -75 -38.5t-24 -84.5q0 -76 70 -76z" />
    <glyph glyph-name="ampersand" unicode="&#x26;" horiz-adv-x="706" 
d="M567 131q24 -15 57 -15q27 0 47 4l-21 -116q-33 -13 -78 -13q-67 0 -117 42q-85 -50 -198 -50q-48 0 -89 9t-80 29.5t-61.5 61.5t-22.5 99q0 136 179 210q-49 78 -49 150q0 78 55 136.5t167 58.5q50 0 93.5 -12.5t78 -49.5t34.5 -94q0 -141 -185 -215l111 -145
q47 75 71 184l120 -27q-32 -146 -112 -247zM355 639q-42 0 -58 -26t-16 -58q0 -49 39 -112q102 42 102 120q0 41 -19.5 58.5t-47.5 17.5zM168 199q0 -101 117 -101q55 0 99 23l-144 190q-72 -41 -72 -112z" />
    <glyph glyph-name="quotesingle" unicode="'" horiz-adv-x="258" 
d="M104 410l34 300h143l-70 -300h-107z" />
    <glyph glyph-name="parenleft" unicode="(" horiz-adv-x="363" 
d="M175 -140q-110 186 -110 392q0 97 21.5 179t63 147t82 110t97.5 94l110 -72q-54 -53 -88 -93t-68.5 -95.5t-51 -120.5t-16.5 -142q0 -154 85 -344z" />
    <glyph glyph-name="parenright" unicode=")" horiz-adv-x="363" 
d="M213 782q110 -186 110 -392q0 -97 -21.5 -179t-63 -147t-82 -110t-97.5 -94l-110 72q54 53 88 93t68.5 95.5t51 120.5t16.5 142q0 154 -85 344z" />
    <glyph glyph-name="asterisk" unicode="*" horiz-adv-x="381" 
d="M430 549l-139 -18l84 -93l-104 -69l-37 122l-79 -122l-83 70l116 92l-131 19l56 110l105 -67l-2 132h116l-49 -132l129 67z" />
    <glyph glyph-name="plus" unicode="+" horiz-adv-x="562" 
d="M542 381l-19 -104h-180l-34 -190h-114l33 190h-180l19 104h180l31 179h115l-32 -179h181z" />
    <glyph glyph-name="comma" unicode="," horiz-adv-x="285" 
d="M26 -155l-21 66q75 18 89 81l1 8h-82l29 164h171l-29 -162q-23 -129 -158 -157z" />
    <glyph glyph-name="hyphen" unicode="-" horiz-adv-x="415" 
d="M61 346h327l-23 -136h-328z" />
    <glyph glyph-name="period" unicode="." horiz-adv-x="285" 
d="M212 164l-28 -164h-171l29 164h170z" />
    <glyph glyph-name="slash" unicode="/" horiz-adv-x="506" 
d="M117 -117h-140l437 877h140z" />
    <glyph glyph-name="zero" unicode="0" horiz-adv-x="684" 
d="M326 -15q-53 0 -99 14t-87.5 46t-65.5 93.5t-24 147.5q0 55 9 109.5t33.5 112.5t61.5 102t98.5 72t139.5 28q53 0 99 -14t87.5 -46t65.5 -93.5t24 -147.5q0 -55 -9 -109.5t-33.5 -112.5t-61.5 -102t-98.5 -72t-139.5 -28zM326 110q50 0 86.5 31.5t55 82t27 100.5t8.5 99
q0 162 -111 162q-50 0 -86.5 -31.5t-55 -82t-27 -100.5t-8.5 -99q0 -162 111 -162z" />
    <glyph glyph-name="one" unicode="1" horiz-adv-x="430" 
d="M127 0l84 477q-32 -38 -109 -38h-46l25 145h32q120 0 167 111h130l-122 -695h-161z" />
    <glyph glyph-name="two" unicode="2" horiz-adv-x="591" 
d="M-12 0l21 118q197 102 289 170q124 92 124 199q0 96 -88 96q-53 0 -77 -33t-24 -82q0 -26 3 -42l-161 16q-4 20 -4 40q0 41 13.5 78.5t43.5 72.5t86.5 56t132.5 21q49 0 91 -9.5t79.5 -31t59 -63t21.5 -98.5q0 -84 -44.5 -150t-124.5 -125q-60 -44 -180 -105h287
l-23 -128h-525z" />
    <glyph glyph-name="three" unicode="3" horiz-adv-x="607" 
d="M294 -15q-52 0 -97.5 11t-87.5 35t-67.5 70.5t-26.5 109.5l165 15q6 -117 108 -117q55 0 79 29t24 70q0 90 -111 90h-32l19 110h48q60 0 87 27t27 71q0 82 -90 82q-104 0 -113 -122l-156 21q12 105 82 164t195 59q41 0 79.5 -7t80 -24.5t67 -54.5t25.5 -90
q0 -74 -49.5 -123t-127.5 -60q62 -11 100 -48t38 -105q0 -87 -66.5 -150t-199.5 -63z" />
    <glyph glyph-name="four" unicode="4" horiz-adv-x="601" 
d="M576 153h-104l-27 -153h-159l27 153h-320l20 109l388 433h167l-76 -424h104zM385 488q4 16 8.5 39.5t7.5 36.5h-2q-24 -41 -50 -70l-138 -163q-34 -39 -56 -60h185z" />
    <glyph glyph-name="five" unicode="5" horiz-adv-x="601" 
d="M279 -15q-45 0 -85.5 9t-79 30t-64.5 60.5t-32 93.5l161 25q13 -92 103 -92q65 0 93 41.5t28 97.5q0 53 -25 81.5t-72 28.5q-80 0 -112 -83l-140 14l113 404h437l-22 -128h-325l-49 -166q22 37 64.5 56.5t90.5 19.5q36 0 68.5 -9.5t64.5 -31.5t51 -64.5t19 -101.5
q0 -51 -15 -99t-46.5 -91t-89.5 -69t-136 -26z" />
    <glyph glyph-name="six" unicode="6" horiz-adv-x="625" 
d="M378 469q39 0 74.5 -11t67.5 -35t51 -69t19 -106q0 -110 -74.5 -186.5t-201.5 -76.5q-52 0 -96 14.5t-83.5 47t-62 94.5t-22.5 147q0 63 10.5 121t35.5 113.5t62 96.5t95.5 66t130.5 25q95 0 162 -43t79 -139l-154 -24q-14 85 -98 85q-64 -1 -103 -55t-56 -140
q65 75 164 75zM312 107q63 0 92 40.5t29 96.5t-29.5 82t-74.5 26q-84 0 -126 -77q0 -168 109 -168z" />
    <glyph glyph-name="seven" unicode="7" horiz-adv-x="528" 
d="M70 0l2 18q19 150 108.5 295.5t232.5 247.5h-339l24 134h499l-23 -124q-286 -213 -324 -537l-4 -34h-176z" />
    <glyph glyph-name="eight" unicode="8" horiz-adv-x="628" 
d="M483 376q110 -53 110 -169q0 -98 -77 -160t-215 -62q-125 0 -205.5 50t-80.5 145q0 64 40.5 110t125.5 66q-88 52 -88 151q0 87 67.5 145t197.5 58q70 0 126.5 -16.5t96 -58t39.5 -103.5q0 -119 -137 -156zM356 601q-60 0 -83 -26.5t-23 -61.5q0 -39 25 -59.5t69 -32.5
l39 -11q79 30 79 100q0 91 -106 91zM308 103q63 0 91 28.5t28 69.5q0 72 -97 101l-50 16q-96 -31 -96 -117q0 -53 35.5 -75.5t88.5 -22.5z" />
    <glyph glyph-name="nine" unicode="9" horiz-adv-x="632" 
d="M344 710q54 0 98.5 -14t85 -46.5t63.5 -96t23 -153.5q0 -49 -6 -96.5t-26.5 -108t-54 -104.5t-95 -75t-143.5 -31q-99 0 -170.5 44.5t-83.5 141.5l154 24q5 -48 37 -68.5t71 -20.5q68 0 105.5 58t51.5 147q-69 -64 -147 -64q-42 0 -82.5 13t-75 38.5t-55.5 69.5t-21 99
q0 43 14.5 83.5t44 77.5t84.5 59.5t128 22.5zM338 364q78 0 124 68q-1 88 -31.5 124t-83.5 36q-63 0 -90.5 -36.5t-27.5 -84.5q0 -53 29 -80t80 -27z" />
    <glyph glyph-name="colon" unicode=":" horiz-adv-x="285" 
d="M271 500l-28 -164h-171l29 164h170zM212 164l-28 -164h-171l29 164h170z" />
    <glyph glyph-name="semicolon" unicode=";" horiz-adv-x="291" 
d="M271 500l-28 -164h-171l29 164h170zM32 -155l-21 66q75 18 89 81l1 8h-82l29 164h171l-29 -162q-23 -129 -158 -157z" />
    <glyph glyph-name="less" unicode="&#x3c;" horiz-adv-x="674" 
d="M582 73l-438 198l20 110l507 198l-21 -126l-360 -133l313 -133z" />
    <glyph glyph-name="equal" unicode="=" horiz-adv-x="562" 
d="M65 372l19 106h475l-20 -106h-474zM31 180l19 106h475l-20 -106h-474z" />
    <glyph glyph-name="greater" unicode="&#x3e;" horiz-adv-x="674" 
d="M119 579l438 -198l-20 -110l-507 -198l21 126l360 133l-313 133z" />
    <glyph glyph-name="question" unicode="?" horiz-adv-x="541" 
d="M175 214l7 43q7 45 26.5 73t62.5 52l62 34q74 42 74 114q0 87 -89 87q-58 0 -81.5 -33.5t-23.5 -80.5q0 -19 4 -41l-150 13q-5 22 -5 49q0 30 7.5 58t27 57t49 50t78 34.5t109.5 13.5q46 0 86 -8.5t76.5 -28.5t58 -58.5t21.5 -92.5q0 -66 -33 -110t-99 -84l-50 -31
q-30 -18 -41.5 -36.5t-16.5 -48.5l-4 -25h-156zM131 0l26 153h172l-26 -153h-172z" />
    <glyph glyph-name="at" unicode="@" horiz-adv-x="860" 
d="M418 -102q-80 0 -148 21.5t-121 64t-83 111t-30 156.5q0 61 14.5 118.5t47.5 110.5t81 92.5t121 63.5t162 24q77 0 142.5 -18.5t119 -56.5t84 -104t30.5 -154q0 -112 -50.5 -187t-152.5 -75q-56 0 -87 23t-37 62q-53 -87 -156 -87q-57 0 -99.5 29t-42.5 91q0 53 40 92.5
t137 47.5l125 10l3 22q5 39 -9 55t-45 16q-38 0 -54.5 -19.5t-17.5 -44.5h-133q9 59 57.5 106t147.5 47q40 0 71.5 -9t58.5 -30.5t37.5 -62t1.5 -97.5l-15 -106q-6 -36 2 -54.5t38 -18.5q37 0 61 30.5t32 69t8 84.5q0 63 -17.5 112t-45.5 79t-67.5 49t-79.5 26.5t-86 7.5
q-78 0 -140 -22t-100 -56.5t-63 -80.5t-34.5 -90t-9.5 -90q0 -144 84.5 -217.5t211.5 -73.5q93 0 183 30l18 -60q-89 -37 -195 -37zM402 153q37 0 63.5 23t33.5 64l4 24l-75 -6q-77 -6 -77 -61q0 -44 51 -44z" />
    <glyph glyph-name="A" unicode="A" horiz-adv-x="736" 
d="M517 0l-25 166h-261l-84 -166h-177l383 710h193l133 -710h-162zM290 285h184l-30 198q-8 48 -8 100h-2q-14 -37 -44 -100z" />
    <glyph glyph-name="B" unicode="B" horiz-adv-x="686" 
d="M513 364q58 -8 94 -47t36 -106q0 -91 -67.5 -151t-207.5 -60h-338l126 710h312q95 0 154.5 -40.5t59.5 -126.5q0 -79 -49 -123.5t-120 -55.5zM378 418q122 0 122 96q0 77 -89 77h-107l-31 -173h105zM339 119q128 0 128 102q0 46 -27 65.5t-80 19.5h-107l-33 -187h119z
" />
    <glyph glyph-name="C" unicode="C" horiz-adv-x="727" 
d="M370 -17q-146 0 -234.5 77.5t-88.5 244.5q0 58 12 114.5t41 113t71.5 99t109.5 69t150 26.5q63 0 115.5 -14t95.5 -43t69 -79.5t29 -118.5l-173 -30q-2 78 -41 113.5t-101 35.5q-56 0 -98 -27.5t-63.5 -71.5t-31.5 -90t-10 -93q0 -189 150 -189q128 0 162 146l166 -37
q-75 -246 -330 -246z" />
    <glyph glyph-name="D" unicode="D" horiz-adv-x="744" 
d="M30 0l125 710h255q143 0 233.5 -80.5t90.5 -233.5q0 -79 -25.5 -148.5t-75 -125.5t-132 -89t-187.5 -33h-284zM220 124h96q67 0 117 24.5t76 65t38 85t12 92.5q0 100 -45 147.5t-109 47.5h-103z" />
    <glyph glyph-name="E" unicode="E" horiz-adv-x="616" 
d="M619 585h-317l-29 -160h301l-22 -124h-301l-31 -176h325l-22 -125h-493l125 710h486z" />
    <glyph glyph-name="F" unicode="F" horiz-adv-x="587" 
d="M619 582h-318l-29 -164h300l-22 -126h-300l-51 -292h-169l125 710h486z" />
    <glyph glyph-name="G" unicode="G" horiz-adv-x="750" 
d="M327 -17q-126 0 -203.5 79t-77.5 232q0 62 13 121.5t43 116.5t74 100t112 69t152 26q126 0 205 -56.5t96 -161.5l-170 -31q-16 122 -139 122q-56 0 -99 -28.5t-66 -75t-34 -97t-11 -103.5q0 -98 37.5 -140.5t110.5 -42.5q81 0 123.5 42.5t53.5 98.5l4 20h-174l21 121h328
l-70 -395h-119l10 103q-63 -120 -220 -120z" />
    <glyph glyph-name="H" unicode="H" horiz-adv-x="759" 
d="M766 710l-125 -710h-169l52 295h-274l-51 -295h-169l125 710h169l-51 -285h274l50 285h169z" />
    <glyph glyph-name="I" unicode="I" horiz-adv-x="317" 
d="M199 0h-169l125 710h169z" />
    <glyph glyph-name="J" unicode="J" horiz-adv-x="420" 
d="M347 191q-37 -205 -247 -205q-77 0 -127 16l25 135q42 -9 76 -9q94 0 113 100l84 482h168z" />
    <glyph glyph-name="K" unicode="K" horiz-adv-x="714" 
d="M768 710l-298 -286l187 -424h-189l-127 311l-105 -102l-37 -209h-169l125 710h169l-52 -298l303 298h193z" />
    <glyph glyph-name="L" unicode="L" horiz-adv-x="548" 
d="M30 0l125 710h169l-101 -573h289l-25 -137h-457z" />
    <glyph glyph-name="M" unicode="M" horiz-adv-x="908" 
d="M30 0l125 710h225l51 -443q6 -50 3 -86h2q11 41 33 88l205 441h241l-125 -710h-154l86 484q9 51 17 80h-2q-8 -27 -28 -69l-230 -495h-142l-63 495q-4 35 -2 68h-3q-4 -43 -10 -79l-85 -484h-144z" />
    <glyph glyph-name="N" unicode="N" horiz-adv-x="762" 
d="M30 0l125 710h185l154 -406q21 -53 30 -91h3q1 7 6.5 38.5t9.5 51.5l72 407h154l-125 -710h-177l-162 410q-23 57 -30 87h-3l-16 -94l-71 -403h-155z" />
    <glyph glyph-name="O" unicode="O" horiz-adv-x="773" 
d="M377 -17q-151 0 -240.5 81.5t-89.5 239.5q0 80 22.5 153t67 134.5t121 98.5t175.5 37q151 0 241 -81.5t90 -239.5q0 -63 -13.5 -122.5t-44 -114.5t-74.5 -96t-109.5 -65.5t-145.5 -24.5zM379 115q57 0 99.5 25.5t65.5 68t34 90t11 99.5q0 106 -44.5 151.5t-113.5 45.5
q-57 0 -99 -25.5t-65.5 -68t-34.5 -90t-11 -99.5q0 -106 44.5 -151.5t113.5 -45.5z" />
    <glyph glyph-name="P" unicode="P" horiz-adv-x="664" 
d="M426 710q53 0 98 -10t84 -32.5t61 -64t22 -98.5q0 -47 -16 -88.5t-50.5 -78.5t-98.5 -58.5t-151 -21.5h-130l-46 -258h-169l126 710h270zM359 376q81 0 116.5 35.5t35.5 85.5q0 91 -112 91h-96l-37 -212h93z" />
    <glyph glyph-name="Q" unicode="Q" horiz-adv-x="775" 
d="M533 12q33 -37 93 -37q27 0 72 8l-23 -131q-34 -6 -67 -6q-173 0 -215 137h-16q-151 0 -240.5 81.5t-89.5 239.5q0 80 22.5 153t67 134.5t121 98.5t175.5 37q151 0 241 -81.5t90 -239.5q0 -83 -23 -158.5t-76.5 -140t-131.5 -95.5zM221 312q0 -106 44.5 -151.5
t113.5 -45.5q57 0 99.5 25.5t65.5 68t34 90t11 99.5q0 106 -44.5 151.5t-113.5 45.5q-57 0 -99 -25.5t-65.5 -68t-34.5 -90t-11 -99.5z" />
    <glyph glyph-name="R" unicode="R" horiz-adv-x="693" 
d="M693 513q0 -81 -42.5 -139t-134.5 -81l104 -293h-183l-87 272h-103l-48 -272h-169l126 710h282q52 0 95.5 -10t80.5 -31.5t58 -61.5t21 -94zM304 591l-36 -203h105q76 0 109 34t33 81q0 88 -104 88h-107z" />
    <glyph glyph-name="S" unicode="S" horiz-adv-x="625" 
d="M299 -17q-118 0 -202.5 43.5t-114.5 127.5l135 85q43 -125 185 -125q123 0 123 87q0 36 -20.5 51.5t-65.5 25.5l-74 18q-183 42 -183 203q0 96 68 162t215 66q98 0 174 -36t114 -111l-123 -89q-46 111 -169 111q-61 0 -89.5 -23.5t-28.5 -59.5q0 -31 22 -49.5t69 -30.5
l85 -20q86 -21 130 -70t44 -134q0 -48 -15 -88t-48 -73t-92 -52t-139 -19z" />
    <glyph glyph-name="T" unicode="T" horiz-adv-x="594" 
d="M669 710l-24 -134h-206l-102 -576h-168l102 576h-207l24 134h581z" />
    <glyph glyph-name="U" unicode="U" horiz-adv-x="727" 
d="M144 710h168l-76 -433q-15 -81 18 -119t98 -38q122 0 145 137l80 453h168l-86 -489q-8 -46 -27.5 -85t-55 -75t-95.5 -57t-139 -21q-69 0 -122.5 17t-93.5 52.5t-55 97t0 144.5z" />
    <glyph glyph-name="V" unicode="V" horiz-adv-x="677" 
d="M197 0l-114 710h174l51 -458q7 -55 5 -98h4q14 43 40 98l212 458h187l-364 -710h-195z" />
    <glyph glyph-name="W" unicode="W" horiz-adv-x="963" 
d="M144 0l-44 710h167l9 -461q1 -15 -4 -59h3q7 31 18 59l182 461h170l19 -461q1 -21 -3 -59h3q6 29 17 59l172 461h173l-294 -710h-187l-13 482q0 14 4 52h-4q-7 -34 -15 -52l-183 -482h-190z" />
    <glyph glyph-name="X" unicode="X" horiz-adv-x="699" 
d="M-35 0l300 369l-161 341h183l81 -199q9 -20 14 -45h2q8 21 28 45l156 199h187l-281 -351l173 -359h-185l-93 210q-15 36 -18 52h-2q-11 -22 -35 -51l-161 -211h-188z" />
    <glyph glyph-name="Y" unicode="Y" horiz-adv-x="636" 
d="M189 0l45 257l-156 453h172l78 -262q8 -29 8 -52h2q10 26 27 52l170 262h185l-317 -453l-44 -257h-170z" />
    <glyph glyph-name="Z" unicode="Z" horiz-adv-x="608" 
d="M13 122l420 457h-326l23 131h521l-22 -122l-419 -458h354l-23 -130h-550z" />
    <glyph glyph-name="bracketleft" unicode="[" horiz-adv-x="360" 
d="M10 -114l154 871h264l-20 -112h-117l-114 -647h117l-20 -112h-264z" />
    <glyph glyph-name="backslash" unicode="\" horiz-adv-x="816" 
d="M569 -117l-437 877h140l437 -877h-140z" />
    <glyph glyph-name="bracketright" unicode="]" horiz-adv-x="360" 
d="M375 757l-154 -871h-264l20 112h117l114 647h-117l20 112h264z" />
    <glyph glyph-name="asciicircum" unicode="^" horiz-adv-x="466" 
d="M254 709h120l107 -262h-117l-58 164l-118 -164h-133z" />
    <glyph glyph-name="underscore" unicode="_" horiz-adv-x="469" 
d="M-60 -89h469l-16 -89h-469z" />
    <glyph glyph-name="grave" unicode="`" horiz-adv-x="600" 
d="M349 567h-123l-166 156h151z" />
    <glyph glyph-name="a" unicode="a" horiz-adv-x="577" 
d="M173 -12q-76 0 -121 37.5t-45 103.5q0 69 49 111q57 48 184 57l129 9l3 24q10 79 -67 79t-87 -74h-158q10 79 70 128t178 49q257 0 217 -224l-25 -150q-15 -83 -11 -138h-156q-1 39 6 79q-44 -91 -166 -91zM241 90q42 0 73 27t39 75l6 37l-76 -6q-109 -7 -109 -76
q0 -29 19 -43t48 -14z" />
    <glyph glyph-name="b" unicode="b" horiz-adv-x="618" 
d="M346 -12q-118 0 -152 88l-23 -76h-143l128 725h160l-51 -290q55 77 145 77q32 0 61 -10t57 -32.5t44.5 -65.5t16.5 -101q0 -51 -13 -103t-39.5 -101t-76 -80t-114.5 -31zM302 99q33 0 58 20t38 51.5t19 63t6 60.5q0 107 -80 107q-41 0 -70.5 -30.5t-38.5 -78.5l-9 -46
q-12 -58 7 -102.5t70 -44.5z" />
    <glyph glyph-name="c" unicode="c" horiz-adv-x="563" 
d="M277 -12q-35 0 -67.5 6t-66.5 22t-58.5 41t-40 66t-15.5 94q0 41 8.5 80.5t30 79t53 69t82 48t113.5 18.5q98 0 163.5 -43.5t71.5 -133.5l-154 -31q-3 90 -83 90q-62 0 -91 -53t-29 -120q0 -61 25 -87.5t63 -26.5q39 0 63 25.5t32 68.5l146 -34q-20 -82 -82.5 -130.5
t-163.5 -48.5z" />
    <glyph glyph-name="d" unicode="d" horiz-adv-x="619" 
d="M206 -12q-72 0 -124 50.5t-52 161.5q0 53 13.5 105.5t40.5 100t76.5 77t112.5 29.5q112 0 145 -82l52 295h161l-128 -725h-152l14 83q-24 -44 -65.5 -69.5t-93.5 -25.5zM277 99q47 0 72.5 34.5t34.5 85.5l8 44q12 73 -11 105.5t-66 32.5q-42 0 -70.5 -33.5t-38 -73.5
t-9.5 -83q0 -112 80 -112z" />
    <glyph glyph-name="e" unicode="e" horiz-adv-x="570" 
d="M541 310q0 -53 -14 -96h-345q1 -57 30.5 -84t76.5 -27q71 0 108 70l110 -54q-66 -131 -229 -131q-46 0 -86.5 10.5t-79 34.5t-61 71t-22.5 112q0 54 16 104.5t48 94.5t88 70.5t130 26.5q99 0 164.5 -49t65.5 -153zM390 304q4 14 4 32q0 41 -24.5 61.5t-63.5 20.5
q-48 0 -78.5 -31t-39.5 -83h202z" />
    <glyph glyph-name="f" unicode="f" horiz-adv-x="392" 
d="M417 500l-19 -107h-115l-70 -393h-160l70 393h-81l19 107h81l8 51q14 83 62.5 131.5t135.5 48.5q59 0 108 -16l-21 -113q-26 10 -55 10q-59 0 -70 -65l-8 -47h115z" />
    <glyph glyph-name="g" unicode="g" horiz-adv-x="575" 
d="M568 585q35 0 53 -6l-19 -108q-22 11 -61 11q-42 0 -58 -20q46 -39 46 -105q0 -73 -56.5 -127.5t-183.5 -54.5q-69 0 -121 19q-26 -12 -26 -35q0 -19 15.5 -27t52.5 -10l113 -2q91 -3 139.5 -31t48.5 -108q0 -188 -311 -188q-238 0 -238 116q0 78 111 100q-62 26 -62 88
q0 84 116 117q-60 40 -60 115q0 33 12 63t37.5 58t74.5 45t115 17q75 0 129 -22q15 45 49.5 70t83.5 25zM294 257q42 0 63 28.5t21 66.5q0 40 -21.5 59t-54.5 19q-42 0 -62.5 -28t-20.5 -67q0 -41 21 -59.5t54 -18.5zM186 -9q-38 0 -67 6q-33 -19 -33 -52q0 -64 135 -64
q147 0 147 64q0 24 -16.5 33t-50.5 10z" />
    <glyph glyph-name="h" unicode="h" horiz-adv-x="615" 
d="M28 0l128 725h161l-54 -307q55 95 162 95q62 0 103 -36t41 -117q0 -35 -7 -73l-51 -287h-160l52 293q2 16 2 28q0 70 -65 70q-83 0 -104 -122l-47 -269h-161z" />
    <glyph glyph-name="i" unicode="i" horiz-adv-x="298" 
d="M124 572l26 146h167l-26 -146h-167zM23 0l92 500h159l-92 -500h-159z" />
    <glyph glyph-name="j" unicode="j" horiz-adv-x="305" 
d="M132 572l26 146h167l-26 -146h-167zM-22 -202q-56 0 -90 12l20 114q22 -7 49 -7q34 0 49.5 16.5t22.5 54.5l93 512h159l-94 -523q-15 -86 -62 -132.5t-147 -46.5z" />
    <glyph glyph-name="k" unicode="k" horiz-adv-x="594" 
d="M625 500l-220 -202l137 -298h-167l-89 208l-72 -64l-25 -144h-161l128 725h161l-72 -409l199 184h181z" />
    <glyph glyph-name="l" unicode="l" horiz-adv-x="305" 
d="M317 725l-128 -725h-161l128 725h161z" />
    <glyph glyph-name="m" unicode="m" horiz-adv-x="890" 
d="M23 0l89 500h154l-16 -90q52 103 154 103q50 0 89 -25t49 -79q60 104 162 104q24 0 45.5 -5.5t45 -20t37.5 -46t14 -77.5q0 -28 -6 -62l-53 -302h-160l50 282q4 20 4 40q0 68 -57 68q-22 0 -38.5 -10.5t-26.5 -30t-15.5 -37.5t-10.5 -44l-48 -268h-160l50 282q4 20 4 40
q0 68 -57 68q-42 0 -61.5 -34t-29.5 -88l-47 -268h-161z" />
    <glyph glyph-name="n" unicode="n" horiz-adv-x="609" 
d="M23 0l89 500h154l-16 -91q59 103 166 103q63 0 105.5 -35t42.5 -120q0 -33 -7 -68l-51 -289h-160l48 275q5 27 5 41q0 73 -67 73q-35 0 -57.5 -21.5t-31 -46t-15.5 -64.5l-44 -257h-161z" />
    <glyph glyph-name="o" unicode="o" horiz-adv-x="587" 
d="M271 -12q-34 0 -65.5 5.5t-64.5 21.5t-57 40.5t-39.5 65.5t-15.5 94q0 55 16 106t49 94.5t90 70t132 26.5q34 0 65.5 -5.5t65 -21.5t57.5 -40.5t39.5 -65.5t15.5 -94q0 -55 -16.5 -106t-49 -94.5t-90 -70t-132.5 -26.5zM276 99q33 0 58 19t38 49t19.5 61.5t6.5 61.5
q0 61 -25 86t-61 25q-44 0 -73 -33.5t-39.5 -74.5t-10.5 -83q0 -61 25 -86t62 -25z" />
    <glyph glyph-name="p" unicode="p" horiz-adv-x="615" 
d="M-11 -195l123 695h154l-15 -81q45 93 159 93q29 0 57.5 -10t56 -32.5t44.5 -65.5t17 -102q0 -40 -7.5 -81t-26 -83.5t-45 -75.5t-69.5 -53.5t-95 -20.5q-117 0 -146 78l-46 -261h-161zM298 99q33 0 58 20t38 51.5t19 63t6 60.5q0 107 -80 107q-44 0 -72.5 -34t-37.5 -83
l-8 -44q-12 -57 7 -99t70 -42z" />
    <glyph glyph-name="q" unicode="q" horiz-adv-x="615" 
d="M308 -195l49 274q-18 -43 -59.5 -67t-91.5 -24q-72 0 -124 50.5t-52 161.5q0 54 13.5 106t40.5 99.5t76.5 77t113.5 29.5q55 0 95 -22t57 -65l26 75h139l-122 -695h-161zM277 99q47 0 72.5 34.5t34.5 85.5l8 44q12 73 -11 105.5t-66 32.5q-42 0 -70.5 -33.5t-38 -73.5
t-9.5 -83q0 -112 80 -112z" />
    <glyph glyph-name="r" unicode="r" horiz-adv-x="413" 
d="M236 355q19 66 60.5 111.5t107.5 45.5q19 0 37 -4l-27 -154q-17 6 -51 6q-53 0 -83 -23q-42 -34 -59 -127l-37 -210h-161l89 500h150z" />
    <glyph glyph-name="s" unicode="s" horiz-adv-x="497" 
d="M231 -12q-185 0 -241 121l101 75q38 -82 155 -82q71 0 71 46q0 18 -11.5 27t-40.5 14l-63 11q-145 28 -145 143q0 73 56 121t167 48q155 0 225 -101l-97 -79q-38 71 -141 71q-67 0 -67 -42q0 -17 11.5 -26.5t39.5 -15.5l70 -14q73 -15 105 -49.5t32 -92.5
q0 -76 -53 -125.5t-174 -49.5z" />
    <glyph glyph-name="t" unicode="t" horiz-adv-x="398" 
d="M31 393l19 107h87l21 120l171 62l-32 -182h119l-20 -107h-118l-34 -192q-13 -79 62 -79q23 0 44 5l-22 -126q-48 -11 -93 -11q-186 4 -150 212l33 191h-87z" />
    <glyph glyph-name="u" unicode="u" horiz-adv-x="604" 
d="M193 -12q-148 0 -148 150q0 26 7 73l51 289h160l-48 -275q-5 -28 -5 -44q0 -70 66 -70q47 0 67 34t31 98l45 257h161l-89 -500h-153l17 93q-47 -105 -162 -105z" />
    <glyph glyph-name="v" unicode="v" horiz-adv-x="532" 
d="M134 0l-86 500h160l30 -295q3 -36 1 -71h3q11 37 27 71l133 295h170l-263 -500h-175z" />
    <glyph glyph-name="w" unicode="w" horiz-adv-x="778" 
d="M105 0l-46 500h148l8 -307q0 -32 -1 -48h2q5 19 16 48l127 307h139l19 -307q2 -22 0 -48h2q3 12 15 48l116 307h156l-221 -500h-154l-24 292q-2 25 1 46l-3 1q-2 -9 -15 -43l-128 -296h-157z" />
    <glyph glyph-name="x" unicode="x" horiz-adv-x="564" 
d="M-35 0l228 262l-129 238h172l44 -100q13 -26 16 -51h2q8 18 33 51l75 100h176l-211 -240l140 -260h-169l-55 112q-15 31 -17 52h-1q-7 -13 -38 -52l-89 -112h-177z" />
    <glyph glyph-name="y" unicode="y" horiz-adv-x="537" 
d="M54 -202q-53 0 -97 14l21 116q33 -11 74 -11q60 0 86 59l12 27l-102 497h168l34 -304q5 -32 2 -58h3q6 27 20 58l135 304h167l-278 -539q-22 -44 -47 -75t-46.5 -48t-49.5 -26t-49.5 -11.5t-52.5 -2.5z" />
    <glyph glyph-name="z" unicode="z" horiz-adv-x="482" 
d="M-5 94l293 293h-230l20 113h414l-16 -91l-288 -294h250l-20 -115h-440z" />
    <glyph glyph-name="braceleft" unicode="{" horiz-adv-x="383" 
d="M255 -115q-44 0 -76.5 7.5t-59.5 26.5t-37.5 54.5t-1.5 87.5l22 118q9 51 -3.5 73.5t-59.5 23.5l19 106q48 1 67 21t28 72l23 133q28 154 198 154h76l-20 -112h-27q-73 0 -85 -76l-17 -95q-11 -64 -39 -100t-85 -49q52 -16 66.5 -54t2.5 -102l-19 -106q-13 -70 54 -70h37
l-20 -113h-43z" />
    <glyph glyph-name="bar" unicode="|" horiz-adv-x="245" 
d="M7 -117l155 877h100l-155 -877h-100z" />
    <glyph glyph-name="braceright" unicode="}" horiz-adv-x="383" 
d="M154 762q44 0 76.5 -7.5t59.5 -26.5t37.5 -54.5t1.5 -87.5l-22 -118q-9 -51 3.5 -73.5t59.5 -23.5l-19 -106q-48 -1 -67 -21t-28 -72l-23 -133q-28 -154 -198 -154h-76l20 112h27q73 0 85 76l17 95q11 64 39 100t85 49q-52 16 -66.5 54t-2.5 102l19 106q13 70 -54 70h-37
l20 113h43z" />
    <glyph glyph-name="asciitilde" unicode="~" 
d="M418 201q-36 0 -66 12.5t-47.5 27.5t-41 27.5t-47.5 12.5q-61 0 -88 -70l-86 22q23 69 69.5 107.5t104.5 38.5q35 0 65 -12.5t47.5 -28t41.5 -28t48 -12.5q59 0 88 70l86 -21q-23 -69 -70 -107.5t-104 -38.5z" />
    <glyph glyph-name="uni00A0" unicode="&#xa0;" horiz-adv-x="247" 
 />
    <glyph glyph-name="exclamdown" unicode="&#xa1;" horiz-adv-x="330" 
d="M109 427l27 153h174l-28 -153h-173zM246 348l-60 -493h-182l114 493h128z" />
    <glyph glyph-name="cent" unicode="&#xa2;" horiz-adv-x="566" 
d="M296 93q81 5 103 103l127 -28q-20 -82 -83.5 -131t-164.5 -49l-16 -89h-59l17 93q-83 14 -137 66.5t-54 156.5q0 52 15.5 101.5t47 94t88.5 72t131 29.5l15 82h59l-15 -85q79 -10 128.5 -53.5t54.5 -123.5l-134 -23q-3 81 -67 100zM166 226q0 -105 72 -127l56 313
q-46 -6 -76 -36.5t-41 -68.5t-11 -81z" />
    <glyph glyph-name="sterling" unicode="&#xa3;" horiz-adv-x="656" 
d="M404 111q72 0 91 86l141 -23q-6 -33 -20 -63t-39 -60t-66.5 -48t-94.5 -18q-42 0 -109.5 13t-132.5 13q-76 0 -180 -19l-16 92q84 21 128 74t44 152v9h-99l14 76h85v36q0 42 7 80t25.5 75.5t47 64t74.5 43t104 16.5q115 0 177 -45.5t68 -133.5l-157 -33q-3 51 -24.5 73
t-64.5 22q-35 0 -57 -13.5t-31.5 -40t-12 -49t-2.5 -58.5v-37h176l-14 -76h-162q-4 -155 -131 -203q45 9 91 9q34 0 76.5 -7t63.5 -7z" />
    <glyph glyph-name="currency" unicode="&#xa4;" horiz-adv-x="606" 
d="M525 436q26 -47 26 -111q0 -100 -55 -171l52 -68l-84 -68l-54 70q-52 -21 -110 -21q-81 0 -141 35l-67 -59l-60 68l62 56q-27 48 -27 114q0 105 59 176l-49 65l84 68l54 -69q47 18 103 18q85 0 144 -37l71 63l60 -68zM191 288q0 -53 32.5 -80t79.5 -27q61 0 92.5 41.5
t31.5 95.5q0 53 -32.5 80t-79.5 27q-61 0 -92.5 -41.5t-31.5 -95.5z" />
    <glyph glyph-name="yen" unicode="&#xa5;" horiz-adv-x="604" 
d="M685 695l-283 -378h158l-12 -69h-167l-10 -54h168l-13 -69h-167l-22 -125h-159l22 125h-167l12 69h167l10 54h-167l12 69h158l-150 378h172l55 -170q19 -59 23 -105h3q20 43 61 105l115 170h181z" />
    <glyph glyph-name="brokenbar" unicode="&#xa6;" horiz-adv-x="244" 
d="M262 760l-67 -375h-99l66 375h100zM174 264l-67 -381h-100l68 381h99z" />
    <glyph glyph-name="section" unicode="&#xa7;" horiz-adv-x="496" 
d="M376 477q111 -39 111 -143q0 -94 -85 -146q33 -39 33 -105q0 -33 -10.5 -61.5t-35.5 -55t-74.5 -42t-119.5 -15.5q-178 0 -237 116l103 76q16 -42 55 -62.5t88 -20.5q81 0 81 52q0 17 -13.5 28.5t-48.5 25.5l-100 37q-106 41 -106 141q0 97 105 136q-42 41 -42 103
q0 32 11 60.5t35 55t70.5 42.5t109.5 16q158 0 221 -95l-101 -79q-31 69 -122 69q-75 0 -75 -50q0 -17 12 -28.5t42 -23.5zM154 337q0 -23 16 -37t60 -32l96 -32l4 -1q27 20 27 52q0 23 -15 37t-56 32l-95 39q-37 -19 -37 -58z" />
    <glyph glyph-name="dieresis" unicode="&#xa8;" horiz-adv-x="600" 
d="M50 573l23 133h140l-24 -133h-139zM270 573l23 133h139l-23 -133h-139z" />
    <glyph glyph-name="copyright" unicode="&#xa9;" horiz-adv-x="819" 
d="M414 -18q-52 0 -102 11t-98 37t-84.5 64t-58.5 96.5t-22 130.5q0 56 12.5 110.5t42 109t73 95.5t112.5 66.5t153 25.5q52 0 102 -11t98.5 -37t84.5 -64t58.5 -96.5t22.5 -130.5q0 -55 -12.5 -110t-42 -109t-73.5 -95.5t-113 -67t-153 -25.5zM411 41q87 0 153.5 33.5
t103 87t54 110.5t17.5 115q0 70 -26 125.5t-68.5 89t-93.5 50.5t-106 17q-87 0 -154 -33.5t-103.5 -87t-54 -110.5t-17.5 -115q0 -136 88.5 -209t206.5 -73zM407 143q-35 0 -66 8.5t-60 28t-46.5 58t-17.5 91.5q0 34 6.5 66t23 64t41 56t63.5 39t88 15q78 0 129 -36.5
t55 -108.5l-113 -24q-3 80 -74 80q-54 0 -79.5 -45.5t-24.5 -102.5q1 -99 78 -99q69 0 85 83l105 -26q-16 -67 -65.5 -107t-127.5 -40z" />
    <glyph glyph-name="ordfeminine" unicode="&#xaa;" horiz-adv-x="463" 
d="M190 301q-56 0 -90 26.5t-34 74.5q0 113 181 125l91 6l2 17q6 51 -46 51q-49 0 -56 -48h-133q6 56 51.5 93.5t142.5 37.5q99 0 143 -42.5t30 -122.5l-20 -115q-10 -59 -8 -94h-132q-1 22 5 57q-30 -66 -127 -66zM255 383q27 0 47 14.5t24 43.5l6 33l-46 -3
q-79 -4 -79 -52q0 -36 48 -36z" />
    <glyph glyph-name="guillemotleft" unicode="&#xab;" horiz-adv-x="577" 
d="M147 67l-125 209l202 206h146l-209 -212l125 -203h-139zM378 67l-125 209l202 206h146l-209 -212l125 -203h-139z" />
    <glyph glyph-name="logicalnot" unicode="&#xac;" horiz-adv-x="666" 
d="M120 386h474l-46 -264h-108l28 160h-366z" />
    <glyph glyph-name="registered" unicode="&#xae;" horiz-adv-x="819" 
d="M442 728q52 0 102 -11t98.5 -37t84.5 -64t58.5 -96.5t22.5 -130.5q0 -55 -12.5 -110t-42 -109t-73.5 -95.5t-113 -67t-153 -25.5q-52 0 -102 11t-98 37t-84.5 64t-58.5 96.5t-22 130.5q0 56 12.5 110.5t42 109t73 95.5t112.5 66.5t153 25.5zM411 41q87 0 153.5 33.5
t103 87t54 110.5t17.5 115q0 70 -26 125.5t-68.5 89t-93.5 50.5t-106 17q-87 0 -154 -33.5t-103.5 -87t-54 -110.5t-17.5 -115q0 -136 88.5 -209t206.5 -73zM467 562q65 0 107 -27t42 -88q0 -102 -108 -128l63 -164h-106l-54 155h-44l-28 -155h-102l72 407h158zM435 380
q39 0 56.5 17.5t17.5 42.5q0 47 -59 47h-52l-19 -107h56z" />
    <glyph glyph-name="macron" unicode="&#xaf;" horiz-adv-x="600" 
d="M50 592l17 96h343l-17 -96h-343z" />
    <glyph glyph-name="degree" unicode="&#xb0;" horiz-adv-x="423" 
d="M248 344q-78 0 -130 43.5t-52 120.5q0 80 54 144.5t153 64.5q77 0 130 -42.5t53 -120.5q0 -80 -54 -145t-154 -65zM249 431q53 0 82 36t29 82q0 41 -25 61.5t-62 20.5q-53 0 -82 -36t-29 -82q0 -42 24.5 -62t62.5 -20z" />
    <glyph glyph-name="plusminus" unicode="&#xb1;" horiz-adv-x="689" 
d="M425 389h182l-18 -104h-182l-26 -145h-115l26 145h-181l19 104h180l27 154h115zM61 0l19 106h477l-18 -106h-478z" />
    <glyph glyph-name="acute" unicode="&#xb4;" horiz-adv-x="600" 
d="M49 567l138 156h151l-166 -156h-123z" />
    <glyph glyph-name="uni00B5" unicode="&#xb5;" horiz-adv-x="612" 
d="M428 500h161l-89 -500h-153l17 93q-47 -105 -162 -105q-18 0 -36 3l-32 -186h-144l121 695h161l-48 -275q-5 -28 -5 -44q0 -70 66 -70q47 0 67 34t31 98z" />
    <glyph glyph-name="paragraph" unicode="&#xb6;" horiz-adv-x="713" 
d="M308 348q-31 0 -62 7t-64.5 23.5t-54.5 51.5t-21 84q0 206 272 206h332l-13 -75h-73l-131 -744h-85l132 744h-96l-131 -744h-84z" />
    <glyph glyph-name="periodcentered" unicode="&#xb7;" horiz-adv-x="285" 
d="M256 418l-28 -164h-171l29 164h170z" />
    <glyph glyph-name="cedilla" unicode="&#xb8;" horiz-adv-x="600" 
d="M149 7h75l-41 -53q18 15 47 15q87 0 87 -69q0 -58 -37.5 -85.5t-100.5 -27.5q-107 0 -127 65l88 21q6 -24 39 -24q18 0 30 11t12 32q0 30 -33 30q-23 0 -35 -15l-58 14z" />
    <glyph glyph-name="ordmasculine" unicode="&#xba;" horiz-adv-x="482" 
d="M268 301q-26 0 -50 4t-50 15.5t-45 29.5t-31.5 48.5t-12.5 70.5q0 41 12.5 78t38 68.5t69.5 50t101 18.5q26 0 50 -4t50 -15.5t45 -29.5t31.5 -48.5t12.5 -70.5q0 -41 -12.5 -78t-38 -68.5t-69.5 -50t-101 -18.5zM271 391q41 0 61.5 42t20.5 89q0 72 -56 72
q-41 0 -62.5 -42t-21.5 -89q0 -72 58 -72z" />
    <glyph glyph-name="guillemotright" unicode="&#xbb;" horiz-adv-x="577" 
d="M208 482l125 -209l-202 -206h-146l209 212l-125 203h139zM439 482l125 -209l-202 -206h-146l209 212l-125 203h139z" />
    <glyph glyph-name="onequarter" unicode="&#xbc;" horiz-adv-x="816" 
d="M57 -17l575 744h106l-573 -744h-108zM121 319l47 257q-16 -15 -59 -15h-30l15 90h18q71 0 95 59h81l-69 -391h-98zM770 83h-62l-15 -83h-98l15 83h-186l11 67l223 241h104l-43 -235h62zM660 309l-133 -153h98z" />
    <glyph glyph-name="onehalf" unicode="&#xbd;" horiz-adv-x="854" 
d="M57 -17l575 744h106l-573 -744h-108zM121 319l47 257q-16 -15 -59 -15h-30l15 90h18q71 0 95 59h81l-69 -391h-98zM468 0l13 74q119 55 177 98t58 99q0 48 -47 48q-32 0 -46 -23.5t-6 -57.5l-100 10q-7 72 35.5 112t123.5 40q62 0 105 -26.5t43 -88.5q0 -116 -192 -204
h157l-14 -81h-307z" />
    <glyph glyph-name="threequarters" unicode="&#xbe;" horiz-adv-x="920" 
d="M161 -17l575 744h106l-573 -744h-108zM221 310q-66 0 -114.5 30t-51.5 98l102 10q7 -59 61 -59q56 0 56 47q0 46 -64 46h-17l12 70h29q59 0 59 49q0 40 -49 40q-56 0 -61 -65l-96 16q5 60 47 93.5t115 33.5q24 0 47 -4t48 -14t40 -31.5t15 -51.5q0 -41 -28 -68t-72 -33
q79 -18 79 -86q0 -49 -39.5 -85t-117.5 -36zM874 83h-62l-15 -83h-98l15 83h-186l11 67l223 241h104l-43 -235h62zM764 309l-133 -153h98z" />
    <glyph glyph-name="questiondown" unicode="&#xbf;" horiz-adv-x="541" 
d="M424 580l-26 -153h-172l26 153h172zM380 366l-7 -43q-7 -45 -26.5 -73t-62.5 -52l-62 -34q-74 -42 -74 -114q0 -87 89 -87q58 0 81.5 33.5t23.5 80.5q0 19 -4 41l150 -13q5 -22 5 -49q0 -30 -7.5 -58t-27 -57t-49 -50t-78 -34.5t-109.5 -13.5q-46 0 -86 8.5t-76.5 28.5
t-58 58.5t-21.5 92.5q0 66 33 110t99 84l50 31q30 18 41.5 36.5t16.5 48.5l4 25h156z" />
    <glyph glyph-name="Agrave" unicode="&#xc0;" horiz-adv-x="736" 
d="M531 753h-122l-137 118h139zM517 0l-25 166h-261l-84 -166h-177l383 710h193l133 -710h-162zM290 285h184l-30 198q-8 48 -8 100h-2q-14 -37 -44 -100z" />
    <glyph glyph-name="Aacute" unicode="&#xc1;" horiz-adv-x="736" 
d="M654 871l-137 -118h-122l120 118h139zM517 0l-25 166h-261l-84 -166h-177l383 710h193l133 -710h-162zM290 285h184l-30 198q-8 48 -8 100h-2q-14 -37 -44 -100z" />
    <glyph glyph-name="Acircumflex" unicode="&#xc2;" horiz-adv-x="736" 
d="M474 827l-80 -74h-128l127 118h169l85 -118h-119zM517 0l-25 166h-261l-84 -166h-177l383 710h193l133 -710h-162zM290 285h184l-30 198q-8 48 -8 100h-2q-14 -37 -44 -100z" />
    <glyph glyph-name="Atilde" unicode="&#xc3;" horiz-adv-x="736" 
d="M395 803q-22 0 -35 -10.5t-25 -43.5l-73 27q18 55 52.5 85.5t78.5 30.5q36 0 62 -15.5t46 -31t43 -15.5q41 0 57 54l73 -27q-18 -55 -52.5 -85t-77.5 -30q-29 0 -51.5 9.5t-35 21t-29 21t-33.5 9.5zM517 0l-25 166h-261l-84 -166h-177l383 710h193l133 -710h-162z
M290 285h184l-30 198q-8 48 -8 100h-2q-14 -37 -44 -100z" />
    <glyph glyph-name="Adieresis" unicode="&#xc4;" horiz-adv-x="736" 
d="M430 868l-20 -115h-133l20 115h133zM657 868l-20 -115h-133l20 115h133zM517 0l-25 166h-261l-84 -166h-177l383 710h193l133 -710h-162zM290 285h184l-30 198q-8 48 -8 100h-2q-14 -37 -44 -100z" />
    <glyph glyph-name="Aring" unicode="&#xc5;" horiz-adv-x="736" 
d="M470 744q-58 0 -91 30t-33 79q0 55 39 90.5t97 35.5q57 0 90 -29.5t33 -78.5q0 -55 -39 -91t-96 -36zM482 915q-59 0 -59 -62q0 -20 12 -32t35 -12q59 0 59 62q0 20 -12 32t-35 12zM517 0l-25 166h-261l-84 -166h-177l383 710h193l133 -710h-162zM290 285h184l-30 198
q-8 48 -8 100h-2q-14 -37 -44 -100z" />
    <glyph glyph-name="AE" unicode="&#xc6;" horiz-adv-x="1041" 
d="M1044 585h-299l-28 -160h282l-22 -124h-282l-32 -176h307l-22 -125h-474l27 156h-236l-110 -156h-168l533 710h546zM350 276h173l57 325z" />
    <glyph glyph-name="Ccedilla" unicode="&#xc7;" horiz-adv-x="727" 
d="M372 120q128 0 162 146l166 -37q-75 -246 -330 -246h-12l-23 -29q18 15 47 15q87 0 87 -69q0 -58 -37.5 -85.5t-100.5 -27.5q-107 0 -127 65l88 21q6 -24 39 -24q18 0 30 11t12 32q0 30 -33 30q-23 0 -35 -15l-58 14l43 68q-113 19 -178 96t-65 220q0 58 12 114.5t41 113
t71.5 99t109.5 69t150 26.5q63 0 115.5 -14t95.5 -43t69 -79.5t29 -118.5l-173 -30q-2 78 -41 113.5t-101 35.5q-56 0 -98 -27.5t-63.5 -71.5t-31.5 -90t-10 -93q0 -189 150 -189z" />
    <glyph glyph-name="Egrave" unicode="&#xc8;" horiz-adv-x="616" 
d="M494 753h-122l-137 118h139zM619 585h-317l-29 -160h301l-22 -124h-301l-31 -176h325l-22 -125h-493l125 710h486z" />
    <glyph glyph-name="Eacute" unicode="&#xc9;" horiz-adv-x="616" 
d="M617 871l-137 -118h-122l120 118h139zM619 585h-317l-29 -160h301l-22 -124h-301l-31 -176h325l-22 -125h-493l125 710h486z" />
    <glyph glyph-name="Ecircumflex" unicode="&#xca;" horiz-adv-x="616" 
d="M437 827l-80 -74h-128l127 118h169l85 -118h-119zM619 585h-317l-29 -160h301l-22 -124h-301l-31 -176h325l-22 -125h-493l125 710h486z" />
    <glyph glyph-name="Edieresis" unicode="&#xcb;" horiz-adv-x="616" 
d="M393 868l-20 -115h-133l20 115h133zM620 868l-20 -115h-133l20 115h133zM619 585h-317l-29 -160h301l-22 -124h-301l-31 -176h325l-22 -125h-493l125 710h486z" />
    <glyph glyph-name="Igrave" unicode="&#xcc;" horiz-adv-x="317" 
d="M305 753h-120l-113 118h137zM199 0h-169l125 710h169z" />
    <glyph glyph-name="Iacute" unicode="&#xcd;" horiz-adv-x="317" 
d="M187 753l96 118h137l-113 -118h-120zM199 0h-169l125 710h169z" />
    <glyph glyph-name="Icircumflex" unicode="&#xce;" horiz-adv-x="317" 
d="M404 753h-111l-28 74l-54 -74h-119l92 118h169zM199 0h-169l125 710h169z" />
    <glyph glyph-name="Idieresis" unicode="&#xcf;" horiz-adv-x="317" 
d="M100 753l20 115h127l-20 -115h-127zM270 753l20 115h127l-20 -115h-127zM199 0h-169l125 710h169z" />
    <glyph glyph-name="Eth" unicode="&#xd0;" horiz-adv-x="744" 
d="M410 710q143 0 233.5 -80.5t90.5 -233.5q0 -79 -25.5 -148.5t-75 -125.5t-132 -89t-187.5 -33h-284l57 322h-74l16 94h74l52 294h255zM316 124q67 0 117 24.5t76 65t38 85t12 92.5q0 100 -45 147.5t-109 47.5h-103l-30 -170h143l-16 -94h-144l-35 -198h96z" />
    <glyph glyph-name="Ntilde" unicode="&#xd1;" horiz-adv-x="762" 
d="M557 742q-29 0 -51.5 9.5t-35 21t-29 21t-33.5 9.5q-22 0 -35 -10.5t-25 -43.5l-73 27q18 55 52.5 85.5t78.5 30.5q36 0 62 -15.5t46 -31t43 -15.5q41 0 57 54l73 -27q-18 -55 -52.5 -85t-77.5 -30zM30 0l125 710h185l154 -406q21 -53 30 -91h3q1 7 6.5 38.5t9.5 51.5
l72 407h154l-125 -710h-177l-162 410q-23 57 -30 87h-3l-16 -94l-71 -403h-155z" />
    <glyph glyph-name="Ograve" unicode="&#xd2;" horiz-adv-x="773" 
d="M528 753h-122l-137 118h139zM377 -17q-151 0 -240.5 81.5t-89.5 239.5q0 80 22.5 153t67 134.5t121 98.5t175.5 37q151 0 241 -81.5t90 -239.5q0 -63 -13.5 -122.5t-44 -114.5t-74.5 -96t-109.5 -65.5t-145.5 -24.5zM379 115q57 0 99.5 25.5t65.5 68t34 90t11 99.5
q0 106 -44.5 151.5t-113.5 45.5q-57 0 -99 -25.5t-65.5 -68t-34.5 -90t-11 -99.5q0 -106 44.5 -151.5t113.5 -45.5z" />
    <glyph glyph-name="Oacute" unicode="&#xd3;" horiz-adv-x="773" 
d="M392 753l120 118h139l-137 -118h-122zM377 -17q-151 0 -240.5 81.5t-89.5 239.5q0 80 22.5 153t67 134.5t121 98.5t175.5 37q151 0 241 -81.5t90 -239.5q0 -63 -13.5 -122.5t-44 -114.5t-74.5 -96t-109.5 -65.5t-145.5 -24.5zM379 115q57 0 99.5 25.5t65.5 68t34 90
t11 99.5q0 106 -44.5 151.5t-113.5 45.5q-57 0 -99 -25.5t-65.5 -68t-34.5 -90t-11 -99.5q0 -106 44.5 -151.5t113.5 -45.5z" />
    <glyph glyph-name="Ocircumflex" unicode="&#xd4;" horiz-adv-x="773" 
d="M644 753h-119l-54 74l-80 -74h-128l127 118h169zM377 -17q-151 0 -240.5 81.5t-89.5 239.5q0 80 22.5 153t67 134.5t121 98.5t175.5 37q151 0 241 -81.5t90 -239.5q0 -63 -13.5 -122.5t-44 -114.5t-74.5 -96t-109.5 -65.5t-145.5 -24.5zM379 115q57 0 99.5 25.5t65.5 68
t34 90t11 99.5q0 106 -44.5 151.5t-113.5 45.5q-57 0 -99 -25.5t-65.5 -68t-34.5 -90t-11 -99.5q0 -106 44.5 -151.5t113.5 -45.5z" />
    <glyph glyph-name="Otilde" unicode="&#xd5;" horiz-adv-x="773" 
d="M541 742q-29 0 -51.5 9.5t-35 21t-29 21t-33.5 9.5q-22 0 -35 -10.5t-25 -43.5l-73 27q18 55 52.5 85.5t78.5 30.5q36 0 62 -15.5t46 -31t43 -15.5q41 0 57 54l73 -27q-18 -55 -52.5 -85t-77.5 -30zM377 -17q-151 0 -240.5 81.5t-89.5 239.5q0 80 22.5 153t67 134.5
t121 98.5t175.5 37q151 0 241 -81.5t90 -239.5q0 -63 -13.5 -122.5t-44 -114.5t-74.5 -96t-109.5 -65.5t-145.5 -24.5zM379 115q57 0 99.5 25.5t65.5 68t34 90t11 99.5q0 106 -44.5 151.5t-113.5 45.5q-57 0 -99 -25.5t-65.5 -68t-34.5 -90t-11 -99.5q0 -106 44.5 -151.5
t113.5 -45.5z" />
    <glyph glyph-name="Odieresis" unicode="&#xd6;" horiz-adv-x="773" 
d="M274 753l20 115h133l-20 -115h-133zM501 753l20 115h133l-20 -115h-133zM377 -17q-151 0 -240.5 81.5t-89.5 239.5q0 80 22.5 153t67 134.5t121 98.5t175.5 37q151 0 241 -81.5t90 -239.5q0 -63 -13.5 -122.5t-44 -114.5t-74.5 -96t-109.5 -65.5t-145.5 -24.5zM379 115
q57 0 99.5 25.5t65.5 68t34 90t11 99.5q0 106 -44.5 151.5t-113.5 45.5q-57 0 -99 -25.5t-65.5 -68t-34.5 -90t-11 -99.5q0 -106 44.5 -151.5t113.5 -45.5z" />
    <glyph glyph-name="multiply" unicode="&#xd7;" horiz-adv-x="682" 
d="M643 504l-208 -177l145 -176l-95 -82l-145 177l-208 -176l-67 80l208 177l-145 177l94 80l146 -176l207 176z" />
    <glyph glyph-name="Oslash" unicode="&#xd8;" horiz-adv-x="773" 
d="M771 692l-71 -74q64 -81 64 -212q0 -63 -13.5 -122.5t-44 -114.5t-74.5 -96t-109.5 -65.5t-145.5 -24.5q-138 0 -223 67l-68 -71l-47 39l72 75q-64 80 -64 211q0 80 22.5 153t67 134.5t121 98.5t175.5 37q138 0 223 -67l68 71zM221 312q0 -54 12 -92l314 327
q-41 48 -116 48q-57 0 -99 -25.5t-65.5 -68t-34.5 -90t-11 -99.5zM589 398q0 54 -12 92l-314 -327q41 -48 116 -48q57 0 99.5 25.5t65.5 68t34 90t11 99.5z" />
    <glyph glyph-name="Ugrave" unicode="&#xd9;" horiz-adv-x="727" 
d="M527 753h-122l-137 118h139zM144 710h168l-76 -433q-15 -81 18 -119t98 -38q122 0 145 137l80 453h168l-86 -489q-8 -46 -27.5 -85t-55 -75t-95.5 -57t-139 -21q-69 0 -122.5 17t-93.5 52.5t-55 97t0 144.5z" />
    <glyph glyph-name="Uacute" unicode="&#xda;" horiz-adv-x="727" 
d="M391 753l120 118h139l-137 -118h-122zM144 710h168l-76 -433q-15 -81 18 -119t98 -38q122 0 145 137l80 453h168l-86 -489q-8 -46 -27.5 -85t-55 -75t-95.5 -57t-139 -21q-69 0 -122.5 17t-93.5 52.5t-55 97t0 144.5z" />
    <glyph glyph-name="Ucircumflex" unicode="&#xdb;" horiz-adv-x="727" 
d="M643 753h-119l-54 74l-80 -74h-128l127 118h169zM144 710h168l-76 -433q-15 -81 18 -119t98 -38q122 0 145 137l80 453h168l-86 -489q-8 -46 -27.5 -85t-55 -75t-95.5 -57t-139 -21q-69 0 -122.5 17t-93.5 52.5t-55 97t0 144.5z" />
    <glyph glyph-name="Udieresis" unicode="&#xdc;" horiz-adv-x="727" 
d="M273 753l20 115h133l-20 -115h-133zM500 753l20 115h133l-20 -115h-133zM144 710h168l-76 -433q-15 -81 18 -119t98 -38q122 0 145 137l80 453h168l-86 -489q-8 -46 -27.5 -85t-55 -75t-95.5 -57t-139 -21q-69 0 -122.5 17t-93.5 52.5t-55 97t0 144.5z" />
    <glyph glyph-name="Yacute" unicode="&#xdd;" horiz-adv-x="636" 
d="M345 753l120 118h139l-137 -118h-122zM189 0l45 257l-156 453h172l78 -262q8 -29 8 -52h2q10 26 27 52l170 262h185l-317 -453l-44 -257h-170z" />
    <glyph glyph-name="Thorn" unicode="&#xde;" horiz-adv-x="631" 
d="M370 593q268 0 268 -197q0 -110 -77 -177t-239 -67h-96l-27 -152h-169l125 710h169l-21 -117h67zM306 270q85 0 120 29.5t35 84.5q0 87 -112 87h-67l-35 -201h59z" />
    <glyph glyph-name="germandbls" unicode="&#xdf;" horiz-adv-x="635" 
d="M329 -10q-54 0 -91 11l19 112q22 -8 57 -8q58 0 89.5 31.5t31.5 94.5q0 52 -31.5 79t-82.5 27h-27l19 109h28q107 0 107 110q0 36 -19.5 54.5t-53.5 18.5q-39 0 -62.5 -22.5t-34.5 -82.5l-93 -524h-160l88 496q24 134 89 187.5t178 53.5q231 0 231 -172
q0 -64 -46.5 -115.5t-137.5 -55.5q73 -6 120 -50t47 -124q0 -111 -71 -170.5t-194 -59.5z" />
    <glyph glyph-name="agrave" unicode="&#xe0;" horiz-adv-x="577" 
d="M393 567h-123l-166 156h151zM173 -12q-76 0 -121 37.5t-45 103.5q0 69 49 111q57 48 184 57l129 9l3 24q10 79 -67 79t-87 -74h-158q10 79 70 128t178 49q257 0 217 -224l-25 -150q-15 -83 -11 -138h-156q-1 39 6 79q-44 -91 -166 -91zM241 90q42 0 73 27t39 75l6 37
l-76 -6q-109 -7 -109 -76q0 -29 19 -43t48 -14z" />
    <glyph glyph-name="aacute" unicode="&#xe1;" horiz-adv-x="577" 
d="M268 567l138 156h151l-166 -156h-123zM173 -12q-76 0 -121 37.5t-45 103.5q0 69 49 111q57 48 184 57l129 9l3 24q10 79 -67 79t-87 -74h-158q10 79 70 128t178 49q257 0 217 -224l-25 -150q-15 -83 -11 -138h-156q-1 39 6 79q-44 -91 -166 -91zM241 90q42 0 73 27t39 75
l6 37l-76 -6q-109 -7 -109 -76q0 -29 19 -43t48 -14z" />
    <glyph glyph-name="acircumflex" unicode="&#xe2;" horiz-adv-x="577" 
d="M515 567h-112l-51 105l-88 -105h-121l134 156h159zM173 -12q-76 0 -121 37.5t-45 103.5q0 69 49 111q57 48 184 57l129 9l3 24q10 79 -67 79t-87 -74h-158q10 79 70 128t178 49q257 0 217 -224l-25 -150q-15 -83 -11 -138h-156q-1 39 6 79q-44 -91 -166 -91zM241 90
q42 0 73 27t39 75l6 37l-76 -6q-109 -7 -109 -76q0 -29 19 -43t48 -14z" />
    <glyph glyph-name="atilde" unicode="&#xe3;" horiz-adv-x="577" 
d="M424 568q-37 0 -64.5 17t-49.5 34t-44 17q-37 0 -59 -58l-73 27q42 127 132 127q34 0 63 -17t52 -33.5t43 -16.5q37 0 60 57l73 -27q-18 -60 -52.5 -93.5t-80.5 -33.5zM173 -12q-76 0 -121 37.5t-45 103.5q0 69 49 111q57 48 184 57l129 9l3 24q10 79 -67 79t-87 -74
h-158q10 79 70 128t178 49q257 0 217 -224l-25 -150q-15 -83 -11 -138h-156q-1 39 6 79q-44 -91 -166 -91zM241 90q42 0 73 27t39 75l6 37l-76 -6q-109 -7 -109 -76q0 -29 19 -43t48 -14z" />
    <glyph glyph-name="adieresis" unicode="&#xe4;" horiz-adv-x="577" 
d="M151 573l23 133h140l-24 -133h-139zM371 573l23 133h139l-23 -133h-139zM173 -12q-76 0 -121 37.5t-45 103.5q0 69 49 111q57 48 184 57l129 9l3 24q10 79 -67 79t-87 -74h-158q10 79 70 128t178 49q257 0 217 -224l-25 -150q-15 -83 -11 -138h-156q-1 39 6 79
q-44 -91 -166 -91zM241 90q42 0 73 27t39 75l6 37l-76 -6q-109 -7 -109 -76q0 -29 19 -43t48 -14z" />
    <glyph glyph-name="aring" unicode="&#xe5;" horiz-adv-x="577" 
d="M327 548q-56 0 -89.5 29.5t-33.5 78.5q0 55 39 91t98 36q55 0 89 -30t34 -79q0 -55 -39 -90.5t-98 -35.5zM327 612q26 0 43 16.5t17 45.5q0 20 -12.5 32t-33.5 12q-26 0 -43 -16.5t-17 -45.5q0 -20 12.5 -32t33.5 -12zM173 -12q-76 0 -121 37.5t-45 103.5q0 69 49 111
q57 48 184 57l129 9l3 24q10 79 -67 79t-87 -74h-158q10 79 70 128t178 49q257 0 217 -224l-25 -150q-15 -83 -11 -138h-156q-1 39 6 79q-44 -91 -166 -91zM241 90q42 0 73 27t39 75l6 37l-76 -6q-109 -7 -109 -76q0 -29 19 -43t48 -14z" />
    <glyph glyph-name="ae" unicode="&#xe6;" horiz-adv-x="870" 
d="M827 214h-324q-2 -56 25 -83.5t67 -27.5q67 0 102 70l111 -54q-66 -131 -224 -131q-138 0 -195 98q-28 -48 -84.5 -73t-126.5 -25q-79 0 -125.5 36.5t-46.5 100.5q0 73 50 114q52 44 184 55l127 9l3 27q10 79 -69 79q-74 0 -84 -74h-158q10 79 70 128t178 49
q116 0 158 -56q64 56 152 56q97 0 161 -49t64 -153q0 -54 -15 -96zM619 418q-86 0 -105 -114h176q5 12 5 38q0 40 -21.5 58t-54.5 18zM351 188l6 37l-77 -5q-107 -7 -107 -77q0 -27 19.5 -40t48.5 -13q42 0 73 25.5t37 72.5z" />
    <glyph glyph-name="ccedilla" unicode="&#xe7;" horiz-adv-x="563" 
d="M282 107q39 0 63 25.5t32 68.5l146 -34q-19 -78 -77.5 -126.5t-152.5 -52.5l-27 -34q18 15 47 15q87 0 87 -69q0 -58 -37.5 -85.5t-100.5 -27.5q-108 0 -127 65l88 21q6 -24 39 -24q18 0 30 11t12 32q0 30 -33 30q-23 0 -35 -15l-58 14l45 71q-83 12 -138.5 65.5
t-55.5 159.5q0 41 8.5 80.5t30 79t53 69t82 48t113.5 18.5q98 0 163.5 -43.5t71.5 -133.5l-154 -31q-3 90 -83 90q-62 0 -91 -53t-29 -120q0 -61 25 -87.5t63 -26.5z" />
    <glyph glyph-name="egrave" unicode="&#xe8;" horiz-adv-x="570" 
d="M407 567h-123l-166 156h151zM541 310q0 -53 -14 -96h-345q1 -57 30.5 -84t76.5 -27q71 0 108 70l110 -54q-66 -131 -229 -131q-46 0 -86.5 10.5t-79 34.5t-61 71t-22.5 112q0 54 16 104.5t48 94.5t88 70.5t130 26.5q99 0 164.5 -49t65.5 -153zM390 304q4 14 4 32
q0 41 -24.5 61.5t-63.5 20.5q-48 0 -78.5 -31t-39.5 -83h202z" />
    <glyph glyph-name="eacute" unicode="&#xe9;" horiz-adv-x="570" 
d="M571 723l-166 -156h-123l138 156h151zM311 512q99 0 164.5 -49t65.5 -153q0 -53 -14 -96h-345q1 -57 30.5 -84t76.5 -27q71 0 108 70l110 -54q-66 -131 -229 -131q-46 0 -86.5 10.5t-79 34.5t-61 71t-22.5 112q0 54 16 104.5t48 94.5t88 70.5t130 26.5zM390 304
q4 14 4 32q0 41 -24.5 61.5t-63.5 20.5q-48 0 -78.5 -31t-39.5 -83h202z" />
    <glyph glyph-name="ecircumflex" unicode="&#xea;" horiz-adv-x="570" 
d="M366 672l-88 -105h-121l134 156h159l79 -156h-112zM541 310q0 -53 -14 -96h-345q1 -57 30.5 -84t76.5 -27q71 0 108 70l110 -54q-66 -131 -229 -131q-46 0 -86.5 10.5t-79 34.5t-61 71t-22.5 112q0 54 16 104.5t48 94.5t88 70.5t130 26.5q99 0 164.5 -49t65.5 -153z
M390 304q4 14 4 32q0 41 -24.5 61.5t-63.5 20.5q-48 0 -78.5 -31t-39.5 -83h202z" />
    <glyph glyph-name="edieresis" unicode="&#xeb;" horiz-adv-x="570" 
d="M328 706l-24 -133h-139l23 133h140zM547 706l-23 -133h-139l23 133h139zM311 512q99 0 164.5 -49t65.5 -153q0 -53 -14 -96h-345q1 -57 30.5 -84t76.5 -27q71 0 108 70l110 -54q-66 -131 -229 -131q-46 0 -86.5 10.5t-79 34.5t-61 71t-22.5 112q0 54 16 104.5t48 94.5
t88 70.5t130 26.5zM390 304q4 14 4 32q0 41 -24.5 61.5t-63.5 20.5q-48 0 -78.5 -31t-39.5 -83h202z" />
    <glyph glyph-name="igrave" unicode="&#xec;" horiz-adv-x="298" 
d="M265 567h-123l-129 156h142zM23 0l92 500h159l-92 -500h-159z" />
    <glyph glyph-name="iacute" unicode="&#xed;" horiz-adv-x="298" 
d="M146 567l110 156h142l-129 -156h-123zM23 0l92 500h159l-92 -500h-159z" />
    <glyph glyph-name="icircumflex" unicode="&#xee;" horiz-adv-x="298" 
d="M363 567h-107l-26 106l-62 -106h-117l104 156h159zM23 0l92 500h159l-92 -500h-159z" />
    <glyph glyph-name="idieresis" unicode="&#xef;" horiz-adv-x="298" 
d="M59 573l23 133h127l-23 -133h-127zM230 573l24 133h127l-23 -133h-128zM23 0l92 500h159l-92 -500h-159z" />
    <glyph glyph-name="eth" unicode="&#xf0;" horiz-adv-x="590" 
d="M517 635q61 -101 61 -245q0 -53 -7.5 -103t-29 -106t-55 -97.5t-91.5 -68.5t-133 -27q-34 0 -63.5 5t-61 20t-54 39t-37 65t-14.5 95q0 51 12.5 101t39.5 96t77 74.5t116 28.5q106 0 139 -82h2q-6 82 -55 156l-107 -34l-8 44l86 27q-21 26 -60 58l147 59q40 -31 69 -67
l78 25l7 -44zM283 99q35 0 60.5 19.5t38 50.5t18.5 61t6 59q0 113 -87 113q-47 0 -76.5 -34t-38 -72t-8.5 -79q0 -118 87 -118z" />
    <glyph glyph-name="ntilde" unicode="&#xf1;" horiz-adv-x="609" 
d="M470 568q-37 0 -64.5 17t-49.5 34t-44 17q-37 0 -59 -58l-73 27q42 127 132 127q34 0 63 -17t52 -33.5t43 -16.5q37 0 60 57l73 -27q-18 -60 -52.5 -93.5t-80.5 -33.5zM23 0l89 500h154l-16 -91q59 103 166 103q63 0 105.5 -35t42.5 -120q0 -33 -7 -68l-51 -289h-160
l48 275q5 27 5 41q0 73 -67 73q-35 0 -57.5 -21.5t-31 -46t-15.5 -64.5l-44 -257h-161z" />
    <glyph glyph-name="ograve" unicode="&#xf2;" horiz-adv-x="587" 
d="M407 567h-123l-166 156h151zM271 -12q-34 0 -65.5 5.5t-64.5 21.5t-57 40.5t-39.5 65.5t-15.5 94q0 55 16 106t49 94.5t90 70t132 26.5q34 0 65.5 -5.5t65 -21.5t57.5 -40.5t39.5 -65.5t15.5 -94q0 -55 -16.5 -106t-49 -94.5t-90 -70t-132.5 -26.5zM276 99q33 0 58 19
t38 49t19.5 61.5t6.5 61.5q0 61 -25 86t-61 25q-44 0 -73 -33.5t-39.5 -74.5t-10.5 -83q0 -61 25 -86t62 -25z" />
    <glyph glyph-name="oacute" unicode="&#xf3;" horiz-adv-x="587" 
d="M282 567l138 156h151l-166 -156h-123zM271 -12q-34 0 -65.5 5.5t-64.5 21.5t-57 40.5t-39.5 65.5t-15.5 94q0 55 16 106t49 94.5t90 70t132 26.5q34 0 65.5 -5.5t65 -21.5t57.5 -40.5t39.5 -65.5t15.5 -94q0 -55 -16.5 -106t-49 -94.5t-90 -70t-132.5 -26.5zM276 99
q33 0 58 19t38 49t19.5 61.5t6.5 61.5q0 61 -25 86t-61 25q-44 0 -73 -33.5t-39.5 -74.5t-10.5 -83q0 -61 25 -86t62 -25z" />
    <glyph glyph-name="ocircumflex" unicode="&#xf4;" horiz-adv-x="587" 
d="M529 567h-112l-51 105l-88 -105h-121l134 156h159zM271 -12q-34 0 -65.5 5.5t-64.5 21.5t-57 40.5t-39.5 65.5t-15.5 94q0 55 16 106t49 94.5t90 70t132 26.5q34 0 65.5 -5.5t65 -21.5t57.5 -40.5t39.5 -65.5t15.5 -94q0 -55 -16.5 -106t-49 -94.5t-90 -70t-132.5 -26.5z
M276 99q33 0 58 19t38 49t19.5 61.5t6.5 61.5q0 61 -25 86t-61 25q-44 0 -73 -33.5t-39.5 -74.5t-10.5 -83q0 -61 25 -86t62 -25z" />
    <glyph glyph-name="otilde" unicode="&#xf5;" horiz-adv-x="587" 
d="M438 568q-37 0 -64.5 17t-49.5 34t-44 17q-37 0 -59 -58l-73 27q42 127 132 127q34 0 63 -17t52 -33.5t43 -16.5q37 0 60 57l73 -27q-18 -60 -52.5 -93.5t-80.5 -33.5zM271 -12q-34 0 -65.5 5.5t-64.5 21.5t-57 40.5t-39.5 65.5t-15.5 94q0 55 16 106t49 94.5t90 70
t132 26.5q34 0 65.5 -5.5t65 -21.5t57.5 -40.5t39.5 -65.5t15.5 -94q0 -55 -16.5 -106t-49 -94.5t-90 -70t-132.5 -26.5zM276 99q33 0 58 19t38 49t19.5 61.5t6.5 61.5q0 61 -25 86t-61 25q-44 0 -73 -33.5t-39.5 -74.5t-10.5 -83q0 -61 25 -86t62 -25z" />
    <glyph glyph-name="odieresis" unicode="&#xf6;" horiz-adv-x="587" 
d="M165 573l23 133h140l-24 -133h-139zM385 573l23 133h139l-23 -133h-139zM271 -12q-34 0 -65.5 5.5t-64.5 21.5t-57 40.5t-39.5 65.5t-15.5 94q0 55 16 106t49 94.5t90 70t132 26.5q34 0 65.5 -5.5t65 -21.5t57.5 -40.5t39.5 -65.5t15.5 -94q0 -55 -16.5 -106t-49 -94.5
t-90 -70t-132.5 -26.5zM276 99q33 0 58 19t38 49t19.5 61.5t6.5 61.5q0 61 -25 86t-61 25q-44 0 -73 -33.5t-39.5 -74.5t-10.5 -83q0 -61 25 -86t62 -25z" />
    <glyph glyph-name="divide" unicode="&#xf7;" horiz-adv-x="562" 
d="M319 442q-30 0 -49.5 19t-19.5 49t19.5 49.5t49.5 19.5t49 -19t19 -50q0 -30 -19.5 -49t-48.5 -19zM48 275l19 105h474l-19 -105h-474zM262 80q-29 0 -48.5 19t-19.5 49q0 31 19 50t49 19t49.5 -18.5t19.5 -50.5q0 -30 -19.5 -49t-49.5 -19z" />
    <glyph glyph-name="oslash" unicode="&#xf8;" horiz-adv-x="587" 
d="M508 440q51 -58 51 -155q0 -55 -16.5 -106t-49 -94.5t-90 -70t-132.5 -26.5q-100 0 -163 46l-50 -51l-32 26l52 53q-49 56 -49 153q0 55 16 106t49 94.5t90 70t132 26.5q98 0 162 -45l49 50l31 -27zM189 210q0 -18 3 -33l187 190q-22 34 -67 34q-44 0 -73 -33.5
t-39.5 -74.5t-10.5 -83zM276 99q33 0 58 19t38 49t19.5 61.5t6.5 61.5q0 20 -3 35l-188 -191q22 -35 69 -35z" />
    <glyph glyph-name="ugrave" unicode="&#xf9;" horiz-adv-x="604" 
d="M417 567h-123l-166 156h151zM193 -12q-148 0 -148 150q0 26 7 73l51 289h160l-48 -275q-5 -28 -5 -44q0 -70 66 -70q47 0 67 34t31 98l45 257h161l-89 -500h-153l17 93q-47 -105 -162 -105z" />
    <glyph glyph-name="uacute" unicode="&#xfa;" horiz-adv-x="604" 
d="M292 567l138 156h151l-166 -156h-123zM193 -12q-148 0 -148 150q0 26 7 73l51 289h160l-48 -275q-5 -28 -5 -44q0 -70 66 -70q47 0 67 34t31 98l45 257h161l-89 -500h-153l17 93q-47 -105 -162 -105z" />
    <glyph glyph-name="ucircumflex" unicode="&#xfb;" horiz-adv-x="604" 
d="M539 567h-112l-51 105l-88 -105h-121l134 156h159zM193 -12q-148 0 -148 150q0 26 7 73l51 289h160l-48 -275q-5 -28 -5 -44q0 -70 66 -70q47 0 67 34t31 98l45 257h161l-89 -500h-153l17 93q-47 -105 -162 -105z" />
    <glyph glyph-name="udieresis" unicode="&#xfc;" horiz-adv-x="604" 
d="M175 573l23 133h140l-24 -133h-139zM395 573l23 133h139l-23 -133h-139zM193 -12q-148 0 -148 150q0 26 7 73l51 289h160l-48 -275q-5 -28 -5 -44q0 -70 66 -70q47 0 67 34t31 98l45 257h161l-89 -500h-153l17 93q-47 -105 -162 -105z" />
    <glyph glyph-name="yacute" unicode="&#xfd;" horiz-adv-x="537" 
d="M271 567l138 156h151l-166 -156h-123zM54 -202q-53 0 -97 14l21 116q33 -11 74 -11q60 0 86 59l12 27l-102 497h168l34 -304q5 -32 2 -58h3q6 27 20 58l135 304h167l-278 -539q-22 -44 -47 -75t-46.5 -48t-49.5 -26t-49.5 -11.5t-52.5 -2.5z" />
    <glyph glyph-name="thorn" unicode="&#xfe;" horiz-adv-x="618" 
d="M410 512q32 0 61 -10t57 -32.5t44.5 -65.5t16.5 -101q0 -51 -13 -103t-39.5 -101t-76 -80t-114.5 -31q-108 0 -146 75l-45 -258h-161l34 195l128 725h161l-51 -288q55 75 144 75zM302 99q33 0 58 20t38 51.5t19 63t6 60.5q0 107 -80 107q-41 0 -70.5 -30.5t-38.5 -78.5
l-9 -46q-12 -58 7 -102.5t70 -44.5z" />
    <glyph glyph-name="ydieresis" unicode="&#xff;" horiz-adv-x="537" 
d="M154 573l23 133h140l-24 -133h-139zM374 573l23 133h139l-23 -133h-139zM54 -202q-53 0 -97 14l21 116q33 -11 74 -11q60 0 86 59l12 27l-102 497h168l34 -304q5 -32 2 -58h3q6 27 20 58l135 304h167l-278 -539q-22 -44 -47 -75t-46.5 -48t-49.5 -26t-49.5 -11.5
t-52.5 -2.5z" />
    <glyph glyph-name="Amacron" unicode="&#x100;" horiz-adv-x="736" 
d="M655 855l-18 -97h-360l17 97h361zM517 0l-25 166h-261l-84 -166h-177l383 710h193l133 -710h-162zM290 285h184l-30 198q-8 48 -8 100h-2q-14 -37 -44 -100z" />
    <glyph glyph-name="amacron" unicode="&#x101;" horiz-adv-x="577" 
d="M158 592l17 96h343l-17 -96h-343zM173 -12q-76 0 -121 37.5t-45 103.5q0 69 49 111q57 48 184 57l129 9l3 24q10 79 -67 79t-87 -74h-158q10 79 70 128t178 49q257 0 217 -224l-25 -150q-15 -83 -11 -138h-156q-1 39 6 79q-44 -91 -166 -91zM241 90q42 0 73 27t39 75
l6 37l-76 -6q-109 -7 -109 -76q0 -29 19 -43t48 -14z" />
    <glyph glyph-name="Abreve" unicode="&#x102;" horiz-adv-x="736" 
d="M471 748q-84 0 -126 33.5t-41 89.5h101q5 -47 65 -47q64 0 80 47h101q-15 -59 -61.5 -91t-118.5 -32zM517 0l-25 166h-261l-84 -166h-177l383 710h193l133 -710h-162zM290 285h184l-30 198q-8 48 -8 100h-2q-14 -37 -44 -100z" />
    <glyph glyph-name="abreve" unicode="&#x103;" horiz-adv-x="577" 
d="M282 723q-6 -81 66 -81q70 0 80 81h101q-15 -90 -63.5 -125.5t-122.5 -35.5q-82 0 -126 39t-35 122h100zM173 -12q-76 0 -121 37.5t-45 103.5q0 69 49 111q57 48 184 57l129 9l3 24q10 79 -67 79t-87 -74h-158q10 79 70 128t178 49q257 0 217 -224l-25 -150
q-15 -83 -11 -138h-156q-1 39 6 79q-44 -91 -166 -91zM241 90q42 0 73 27t39 75l6 37l-76 -6q-109 -7 -109 -76q0 -29 19 -43t48 -14z" />
    <glyph glyph-name="Aogonek" unicode="&#x104;" horiz-adv-x="736" 
d="M535 -131q37 0 60 41l61 -35q-47 -78 -130 -78q-123 0 -123 87q0 39 27.5 67t85.5 49h1l-25 166h-261l-84 -166h-177l383 710h193l133 -710h-50q-129 -45 -129 -97q0 -34 35 -34zM290 285h184l-30 198q-8 48 -8 100h-2q-14 -37 -44 -100z" />
    <glyph glyph-name="aogonek" unicode="&#x105;" horiz-adv-x="577" 
d="M308 512q257 0 217 -224l-25 -150q-15 -83 -11 -138h-43q-129 -45 -129 -97q0 -34 35 -34q37 0 60 41l61 -35q-47 -78 -130 -78q-123 0 -123 87q0 39 27.5 67t85.5 49q-1 39 6 79q-44 -91 -166 -91q-76 0 -121 37.5t-45 103.5q0 69 49 111q57 48 184 57l129 9l3 24
q10 79 -67 79t-87 -74h-158q10 79 70 128t178 49zM241 90q42 0 73 27t39 75l6 37l-76 -6q-109 -7 -109 -76q0 -29 19 -43t48 -14z" />
    <glyph glyph-name="Cacute" unicode="&#x106;" horiz-adv-x="727" 
d="M389 753l120 118h139l-137 -118h-122zM370 -17q-146 0 -234.5 77.5t-88.5 244.5q0 58 12 114.5t41 113t71.5 99t109.5 69t150 26.5q63 0 115.5 -14t95.5 -43t69 -79.5t29 -118.5l-173 -30q-2 78 -41 113.5t-101 35.5q-56 0 -98 -27.5t-63.5 -71.5t-31.5 -90t-10 -93
q0 -189 150 -189q128 0 162 146l166 -37q-75 -246 -330 -246z" />
    <glyph glyph-name="cacute" unicode="&#x107;" horiz-adv-x="563" 
d="M277 567l138 156h151l-166 -156h-123zM277 -12q-35 0 -67.5 6t-66.5 22t-58.5 41t-40 66t-15.5 94q0 41 8.5 80.5t30 79t53 69t82 48t113.5 18.5q98 0 163.5 -43.5t71.5 -133.5l-154 -31q-3 90 -83 90q-62 0 -91 -53t-29 -120q0 -61 25 -87.5t63 -26.5q39 0 63 25.5
t32 68.5l146 -34q-20 -82 -82.5 -130.5t-163.5 -48.5z" />
    <glyph glyph-name="Ccircumflex" unicode="&#x108;" horiz-adv-x="727" 
d="M641 753h-119l-54 74l-80 -74h-128l127 118h169zM370 -17q-146 0 -234.5 77.5t-88.5 244.5q0 58 12 114.5t41 113t71.5 99t109.5 69t150 26.5q63 0 115.5 -14t95.5 -43t69 -79.5t29 -118.5l-173 -30q-2 78 -41 113.5t-101 35.5q-56 0 -98 -27.5t-63.5 -71.5t-31.5 -90
t-10 -93q0 -189 150 -189q128 0 162 146l166 -37q-75 -246 -330 -246z" />
    <glyph glyph-name="ccircumflex" unicode="&#x109;" horiz-adv-x="563" 
d="M524 567h-112l-51 105l-88 -105h-121l134 156h159zM277 -12q-35 0 -67.5 6t-66.5 22t-58.5 41t-40 66t-15.5 94q0 41 8.5 80.5t30 79t53 69t82 48t113.5 18.5q98 0 163.5 -43.5t71.5 -133.5l-154 -31q-3 90 -83 90q-62 0 -91 -53t-29 -120q0 -61 25 -87.5t63 -26.5
q39 0 63 25.5t32 68.5l146 -34q-20 -82 -82.5 -130.5t-163.5 -48.5z" />
    <glyph glyph-name="Cdotaccent" unicode="&#x10a;" horiz-adv-x="727" 
d="M369 753l21 118h164l-21 -118h-164zM370 -17q-146 0 -234.5 77.5t-88.5 244.5q0 58 12 114.5t41 113t71.5 99t109.5 69t150 26.5q63 0 115.5 -14t95.5 -43t69 -79.5t29 -118.5l-173 -30q-2 78 -41 113.5t-101 35.5q-56 0 -98 -27.5t-63.5 -71.5t-31.5 -90t-10 -93
q0 -189 150 -189q128 0 162 146l166 -37q-75 -246 -330 -246z" />
    <glyph glyph-name="cdotaccent" unicode="&#x10b;" horiz-adv-x="563" 
d="M255 572l26 146h167l-26 -146h-167zM277 -12q-35 0 -67.5 6t-66.5 22t-58.5 41t-40 66t-15.5 94q0 41 8.5 80.5t30 79t53 69t82 48t113.5 18.5q98 0 163.5 -43.5t71.5 -133.5l-154 -31q-3 90 -83 90q-62 0 -91 -53t-29 -120q0 -61 25 -87.5t63 -26.5q39 0 63 25.5
t32 68.5l146 -34q-20 -82 -82.5 -130.5t-163.5 -48.5z" />
    <glyph glyph-name="Ccaron" unicode="&#x10c;" horiz-adv-x="727" 
d="M270 866h119l54 -74l80 74h128l-127 -118h-169zM370 -17q-146 0 -234.5 77.5t-88.5 244.5q0 58 12 114.5t41 113t71.5 99t109.5 69t150 26.5q63 0 115.5 -14t95.5 -43t69 -79.5t29 -118.5l-173 -30q-2 78 -41 113.5t-101 35.5q-56 0 -98 -27.5t-63.5 -71.5t-31.5 -90
t-10 -93q0 -189 150 -189q128 0 162 146l166 -37q-75 -246 -330 -246z" />
    <glyph glyph-name="ccaron" unicode="&#x10d;" horiz-adv-x="563" 
d="M165 718h112l51 -105l88 105h121l-134 -156h-159zM277 -12q-35 0 -67.5 6t-66.5 22t-58.5 41t-40 66t-15.5 94q0 41 8.5 80.5t30 79t53 69t82 48t113.5 18.5q98 0 163.5 -43.5t71.5 -133.5l-154 -31q-3 90 -83 90q-62 0 -91 -53t-29 -120q0 -61 25 -87.5t63 -26.5
q39 0 63 25.5t32 68.5l146 -34q-20 -82 -82.5 -130.5t-163.5 -48.5z" />
    <glyph glyph-name="Dcaron" unicode="&#x10e;" horiz-adv-x="744" 
d="M257 866h119l54 -74l80 74h128l-127 -118h-169zM30 0l125 710h255q143 0 233.5 -80.5t90.5 -233.5q0 -79 -25.5 -148.5t-75 -125.5t-132 -89t-187.5 -33h-284zM220 124h96q67 0 117 24.5t76 65t38 85t12 92.5q0 100 -45 147.5t-109 47.5h-103z" />
    <glyph glyph-name="dcaron" unicode="&#x10f;" horiz-adv-x="696" 
d="M206 -12q-72 0 -124 50.5t-52 161.5q0 53 13.5 105.5t40.5 100t76.5 77t112.5 29.5q112 0 145 -82l52 295h161l-128 -725h-152l14 83q-24 -44 -65.5 -69.5t-93.5 -25.5zM680 521l-16 48q51 10 56 39h-65l17 102h133l-16 -89q-15 -84 -109 -100zM277 99q47 0 72.5 34.5
t34.5 85.5l8 44q12 73 -11 105.5t-66 32.5q-42 0 -70.5 -33.5t-38 -73.5t-9.5 -83q0 -112 80 -112z" />
    <glyph glyph-name="Dcroat" unicode="&#x110;" horiz-adv-x="744" 
d="M410 710q143 0 233.5 -80.5t90.5 -233.5q0 -79 -25.5 -148.5t-75 -125.5t-132 -89t-187.5 -33h-284l57 322h-74l16 94h74l52 294h255zM316 124q67 0 117 24.5t76 65t38 85t12 92.5q0 100 -45 147.5t-109 47.5h-103l-30 -170h143l-16 -94h-144l-35 -198h96z" />
    <glyph glyph-name="dcroat" unicode="&#x111;" horiz-adv-x="619" 
d="M654 639l-11 -57h-37l-103 -582h-152l14 83q-24 -44 -65.5 -69.5t-93.5 -25.5q-72 0 -124 50.5t-52 161.5q0 53 13.5 105.5t40.5 100t76.5 77t112.5 29.5q112 0 145 -82l27 152h-195l10 57h195l15 86h161l-15 -86h38zM392 263q12 73 -11 105.5t-66 32.5
q-42 0 -70.5 -33.5t-38 -73.5t-9.5 -83q0 -112 80 -112q47 0 72.5 34.5t34.5 85.5z" />
    <glyph glyph-name="Emacron" unicode="&#x112;" horiz-adv-x="616" 
d="M618 855l-18 -97h-360l17 97h361zM619 585h-317l-29 -160h301l-22 -124h-301l-31 -176h325l-22 -125h-493l125 710h486z" />
    <glyph glyph-name="emacron" unicode="&#x113;" horiz-adv-x="570" 
d="M532 688l-17 -96h-343l17 96h343zM541 310q0 -53 -14 -96h-345q1 -57 30.5 -84t76.5 -27q71 0 108 70l110 -54q-66 -131 -229 -131q-46 0 -86.5 10.5t-79 34.5t-61 71t-22.5 112q0 54 16 104.5t48 94.5t88 70.5t130 26.5q99 0 164.5 -49t65.5 -153zM390 304q4 14 4 32
q0 41 -24.5 61.5t-63.5 20.5q-48 0 -78.5 -31t-39.5 -83h202z" />
    <glyph glyph-name="Ebreve" unicode="&#x114;" horiz-adv-x="616" 
d="M434 748q-84 0 -126 33.5t-41 89.5h101q5 -47 65 -47q64 0 80 47h101q-15 -59 -61.5 -91t-118.5 -32zM619 585h-317l-29 -160h301l-22 -124h-301l-31 -176h325l-22 -125h-493l125 710h486z" />
    <glyph glyph-name="ebreve" unicode="&#x115;" horiz-adv-x="570" 
d="M357 562q-82 0 -126 39t-35 122h100q-6 -81 66 -81q70 0 80 81h101q-15 -90 -63.5 -125.5t-122.5 -35.5zM311 512q99 0 164.5 -49t65.5 -153q0 -53 -14 -96h-345q1 -57 30.5 -84t76.5 -27q71 0 108 70l110 -54q-66 -131 -229 -131q-46 0 -86.5 10.5t-79 34.5t-61 71
t-22.5 112q0 54 16 104.5t48 94.5t88 70.5t130 26.5zM390 304q4 14 4 32q0 41 -24.5 61.5t-63.5 20.5q-48 0 -78.5 -31t-39.5 -83h202z" />
    <glyph glyph-name="Edotaccent" unicode="&#x116;" horiz-adv-x="616" 
d="M523 871l-21 -118h-164l21 118h164zM619 585h-317l-29 -160h301l-22 -124h-301l-31 -176h325l-22 -125h-493l125 710h486z" />
    <glyph glyph-name="edotaccent" unicode="&#x117;" horiz-adv-x="570" 
d="M453 718l-26 -146h-167l26 146h167zM541 310q0 -53 -14 -96h-345q1 -57 30.5 -84t76.5 -27q71 0 108 70l110 -54q-66 -131 -229 -131q-46 0 -86.5 10.5t-79 34.5t-61 71t-22.5 112q0 54 16 104.5t48 94.5t88 70.5t130 26.5q99 0 164.5 -49t65.5 -153zM390 304q4 14 4 32
q0 41 -24.5 61.5t-63.5 20.5q-48 0 -78.5 -31t-39.5 -83h202z" />
    <glyph glyph-name="Eogonek" unicode="&#x118;" horiz-adv-x="616" 
d="M619 585h-317l-29 -160h301l-22 -124h-301l-31 -176h325l-22 -125q-129 -45 -129 -97q0 -34 35 -34q37 0 60 41l61 -35q-47 -78 -130 -78q-123 0 -123 87q0 39 27.5 67t85.5 49h-380l125 710h486z" />
    <glyph glyph-name="eogonek" unicode="&#x119;" horiz-adv-x="570" 
d="M541 310q0 -53 -14 -96h-345q1 -57 30.5 -84t76.5 -27q71 0 108 70l110 -54q-59 -117 -194 -129q-101 -41 -101 -87q0 -34 35 -34q37 0 60 41l61 -35q-47 -78 -130 -78q-123 0 -123 87q0 71 97 110q-80 15 -131.5 67.5t-51.5 154.5q0 54 16 104.5t48 94.5t88 70.5
t130 26.5q99 0 164.5 -49t65.5 -153zM390 304q4 14 4 32q0 41 -24.5 61.5t-63.5 20.5q-48 0 -78.5 -31t-39.5 -83h202z" />
    <glyph glyph-name="Ecaron" unicode="&#x11a;" horiz-adv-x="616" 
d="M493 748h-169l-85 118h119l54 -74l80 74h128zM619 585h-317l-29 -160h301l-22 -124h-301l-31 -176h325l-22 -125h-493l125 710h486z" />
    <glyph glyph-name="ecaron" unicode="&#x11b;" horiz-adv-x="570" 
d="M408 562h-159l-79 156h112l51 -105l88 105h121zM311 512q99 0 164.5 -49t65.5 -153q0 -53 -14 -96h-345q1 -57 30.5 -84t76.5 -27q71 0 108 70l110 -54q-66 -131 -229 -131q-46 0 -86.5 10.5t-79 34.5t-61 71t-22.5 112q0 54 16 104.5t48 94.5t88 70.5t130 26.5zM390 304
q4 14 4 32q0 41 -24.5 61.5t-63.5 20.5q-48 0 -78.5 -31t-39.5 -83h202z" />
    <glyph glyph-name="Gcircumflex" unicode="&#x11c;" horiz-adv-x="750" 
d="M655 753h-119l-54 74l-80 -74h-128l127 118h169zM327 -17q-126 0 -203.5 79t-77.5 232q0 62 13 121.5t43 116.5t74 100t112 69t152 26q126 0 205 -56.5t96 -161.5l-170 -31q-16 122 -139 122q-56 0 -99 -28.5t-66 -75t-34 -97t-11 -103.5q0 -98 37.5 -140.5t110.5 -42.5
q81 0 123.5 42.5t53.5 98.5l4 20h-174l21 121h328l-70 -395h-119l10 103q-63 -120 -220 -120z" />
    <glyph glyph-name="gcircumflex" unicode="&#x11d;" horiz-adv-x="575" 
d="M342 679l-84 -88h-121l129 132h160l83 -132h-112zM568 585q35 0 53 -6l-19 -108q-22 11 -61 11q-42 0 -58 -20q46 -39 46 -105q0 -73 -56.5 -127.5t-183.5 -54.5q-69 0 -121 19q-26 -12 -26 -35q0 -19 15.5 -27t52.5 -10l113 -2q91 -3 139.5 -31t48.5 -108
q0 -188 -311 -188q-238 0 -238 116q0 78 111 100q-62 26 -62 88q0 84 116 117q-60 40 -60 115q0 33 12 63t37.5 58t74.5 45t115 17q75 0 129 -22q15 45 49.5 70t83.5 25zM294 257q42 0 63 28.5t21 66.5q0 40 -21.5 59t-54.5 19q-42 0 -62.5 -28t-20.5 -67q0 -41 21 -59.5
t54 -18.5zM186 -9q-38 0 -67 6q-33 -19 -33 -52q0 -64 135 -64q147 0 147 64q0 24 -16.5 33t-50.5 10z" />
    <glyph glyph-name="Gbreve" unicode="&#x11e;" horiz-adv-x="750" 
d="M413 871q5 -47 65 -47q64 0 80 47h101q-15 -59 -61.5 -91t-118.5 -32q-84 0 -126 33.5t-41 89.5h101zM327 -17q-126 0 -203.5 79t-77.5 232q0 62 13 121.5t43 116.5t74 100t112 69t152 26q126 0 205 -56.5t96 -161.5l-170 -31q-16 122 -139 122q-56 0 -99 -28.5t-66 -75
t-34 -97t-11 -103.5q0 -98 37.5 -140.5t110.5 -42.5q81 0 123.5 42.5t53.5 98.5l4 20h-174l21 121h328l-70 -395h-119l10 103q-63 -120 -220 -120z" />
    <glyph glyph-name="gbreve" unicode="&#x11f;" horiz-adv-x="575" 
d="M333 562q-82 0 -126 39t-35 122h100q-6 -81 66 -81q70 0 80 81h101q-15 -90 -63.5 -125.5t-122.5 -35.5zM568 585q35 0 53 -6l-19 -108q-22 11 -61 11q-42 0 -58 -20q46 -39 46 -105q0 -73 -56.5 -127.5t-183.5 -54.5q-69 0 -121 19q-26 -12 -26 -35q0 -19 15.5 -27
t52.5 -10l113 -2q91 -3 139.5 -31t48.5 -108q0 -188 -311 -188q-238 0 -238 116q0 78 111 100q-62 26 -62 88q0 84 116 117q-60 40 -60 115q0 33 12 63t37.5 58t74.5 45t115 17q75 0 129 -22q15 45 49.5 70t83.5 25zM294 257q42 0 63 28.5t21 66.5q0 40 -21.5 59t-54.5 19
q-42 0 -62.5 -28t-20.5 -67q0 -41 21 -59.5t54 -18.5zM186 -9q-38 0 -67 6q-33 -19 -33 -52q0 -64 135 -64q147 0 147 64q0 24 -16.5 33t-50.5 10z" />
    <glyph glyph-name="Gdotaccent" unicode="&#x120;" horiz-adv-x="750" 
d="M383 753l21 118h164l-21 -118h-164zM327 -17q-126 0 -203.5 79t-77.5 232q0 62 13 121.5t43 116.5t74 100t112 69t152 26q126 0 205 -56.5t96 -161.5l-170 -31q-16 122 -139 122q-56 0 -99 -28.5t-66 -75t-34 -97t-11 -103.5q0 -98 37.5 -140.5t110.5 -42.5
q81 0 123.5 42.5t53.5 98.5l4 20h-174l21 121h328l-70 -395h-119l10 103q-63 -120 -220 -120z" />
    <glyph glyph-name="gdotaccent" unicode="&#x121;" horiz-adv-x="575" 
d="M429 718l-26 -146h-167l26 146h167zM568 585q35 0 53 -6l-19 -108q-22 11 -61 11q-42 0 -58 -20q46 -39 46 -105q0 -73 -56.5 -127.5t-183.5 -54.5q-69 0 -121 19q-26 -12 -26 -35q0 -19 15.5 -27t52.5 -10l113 -2q91 -3 139.5 -31t48.5 -108q0 -188 -311 -188
q-238 0 -238 116q0 78 111 100q-62 26 -62 88q0 84 116 117q-60 40 -60 115q0 33 12 63t37.5 58t74.5 45t115 17q75 0 129 -22q15 45 49.5 70t83.5 25zM294 257q42 0 63 28.5t21 66.5q0 40 -21.5 59t-54.5 19q-42 0 -62.5 -28t-20.5 -67q0 -41 21 -59.5t54 -18.5zM186 -9
q-38 0 -67 6q-33 -19 -33 -52q0 -64 135 -64q147 0 147 64q0 24 -16.5 33t-50.5 10z" />
    <glyph glyph-name="Gcommaaccent" unicode="&#x122;" horiz-adv-x="750" 
d="M327 -17q-126 0 -203.5 79t-77.5 232q0 62 13 121.5t43 116.5t74 100t112 69t152 26q126 0 205 -56.5t96 -161.5l-170 -31q-16 122 -139 122q-56 0 -99 -28.5t-66 -75t-34 -97t-11 -103.5q0 -98 37.5 -140.5t110.5 -42.5q81 0 123.5 42.5t53.5 98.5l4 20h-174l21 121h328
l-70 -395h-119l10 103q-63 -120 -220 -120zM270 -240l-18 51q29 7 41.5 17t16.5 30h-66l18 102h133l-16 -89q-15 -93 -109 -111z" />
    <glyph glyph-name="gcommaaccent" unicode="&#x123;" horiz-adv-x="575" 
d="M400 670l-18 -102h-133l16 89q15 93 109 111l18 -51q-29 -7 -41.5 -17t-16.5 -30h66zM568 585q35 0 53 -6l-19 -108q-22 11 -61 11q-42 0 -58 -20q46 -39 46 -105q0 -73 -56.5 -127.5t-183.5 -54.5q-69 0 -121 19q-26 -12 -26 -35q0 -19 15.5 -27t52.5 -10l113 -2
q91 -3 139.5 -31t48.5 -108q0 -188 -311 -188q-238 0 -238 116q0 78 111 100q-62 26 -62 88q0 84 116 117q-60 40 -60 115q0 33 12 63t37.5 58t74.5 45t115 17q75 0 129 -22q15 45 49.5 70t83.5 25zM294 257q42 0 63 28.5t21 66.5q0 40 -21.5 59t-54.5 19q-42 0 -62.5 -28
t-20.5 -67q0 -41 21 -59.5t54 -18.5zM186 -9q-38 0 -67 6q-33 -19 -33 -52q0 -64 135 -64q147 0 147 64q0 24 -16.5 33t-50.5 10z" />
    <glyph glyph-name="Hcircumflex" unicode="&#x124;" horiz-adv-x="759" 
d="M659 753h-119l-54 74l-80 -74h-128l127 118h169zM766 710l-125 -710h-169l52 295h-274l-51 -295h-169l125 710h169l-51 -285h274l50 285h169z" />
    <glyph glyph-name="hcircumflex" unicode="&#x125;" horiz-adv-x="615" 
d="M432 753h-119l-54 74l-80 -74h-128l127 118h169zM28 0l128 725h161l-54 -307q55 95 162 95q62 0 103 -36t41 -117q0 -35 -7 -73l-51 -287h-160l52 293q2 16 2 28q0 70 -65 70q-83 0 -104 -122l-47 -269h-161z" />
    <glyph glyph-name="Hbar" unicode="&#x126;" horiz-adv-x="759" 
d="M815 597l-12 -69h-69l-93 -528h-169l52 295h-274l-51 -295h-169l93 528h-68l12 69h68l20 113h169l-20 -113h273l20 113h169l-20 -113h69zM547 425l18 103h-274l-18 -103h274z" />
    <glyph glyph-name="hbar" unicode="&#x127;" horiz-adv-x="605" 
d="M425 513q62 0 103 -36t41 -117q0 -35 -7 -73l-51 -287h-160l52 293q2 16 2 28q0 70 -65 70q-83 0 -104 -122l-47 -269h-161l102 579h-71l9 57h72l16 89h161l-16 -89h181l-9 -57h-182l-28 -161q55 95 162 95z" />
    <glyph glyph-name="Itilde" unicode="&#x128;" horiz-adv-x="317" 
d="M325 748q-33 0 -54.5 15.5t-37.5 31t-34 15.5t-29 -10.5t-14 -38.5l-71 27q10 52 39.5 81t71.5 29q27 0 47.5 -9.5t30 -21.5t23 -21.5t28.5 -9.5q32 0 41 49l69 -27q-10 -53 -39.5 -81.5t-70.5 -28.5zM199 0h-169l125 710h169z" />
    <glyph glyph-name="itilde" unicode="&#x129;" horiz-adv-x="298" 
d="M285 568q-24 0 -43 10.5t-28.5 23.5t-22 23.5t-24.5 10.5q-29 0 -41 -56l-73 27q12 62 41 93.5t70 31.5q30 0 52.5 -17t38 -33.5t27.5 -16.5q28 0 40 56l73 -28q-15 -60 -44.5 -92.5t-65.5 -32.5zM23 0l92 500h159l-92 -500h-159z" />
    <glyph glyph-name="Imacron" unicode="&#x12a;" horiz-adv-x="317" 
d="M113 758l17 97h271l-17 -97h-271zM199 0h-169l125 710h169z" />
    <glyph glyph-name="imacron" unicode="&#x12b;" horiz-adv-x="298" 
d="M83 592l17 96h256l-17 -96h-256zM23 0l92 500h159l-92 -500h-159z" />
    <glyph glyph-name="Ibreve" unicode="&#x12c;" horiz-adv-x="317" 
d="M218 871q0 -47 46 -47q48 0 55 47h101q-24 -123 -156 -123q-77 0 -113 34t-34 89h101zM199 0h-169l125 710h169z" />
    <glyph glyph-name="ibreve" unicode="&#x12d;" horiz-adv-x="298" 
d="M193 723q-14 -81 30 -81q20 0 32.5 16.5t18.5 64.5h99q-27 -161 -151 -161q-154 0 -128 161h99zM23 0l92 500h159l-92 -500h-159z" />
    <glyph glyph-name="Iogonek" unicode="&#x12e;" horiz-adv-x="317" 
d="M143 0q-129 -45 -129 -97q0 -34 35 -34q37 0 60 41l61 -35q-47 -78 -130 -78q-123 0 -123 87q0 39 27.5 67t85.5 49l125 710h169l-125 -710h-56z" />
    <glyph glyph-name="iogonek" unicode="&#x12f;" horiz-adv-x="298" 
d="M150 718h167l-26 -146h-167zM23 0l92 500h159l-92 -500h-45q-129 -45 -129 -97q0 -34 35 -34q37 0 60 41l61 -35q-47 -78 -130 -78q-123 0 -123 87q0 39 27.5 67t85.5 49h-1z" />
    <glyph glyph-name="Idotaccent" unicode="&#x130;" horiz-adv-x="317" 
d="M166 753l21 118h164l-21 -118h-164zM199 0h-169l125 710h169z" />
    <glyph glyph-name="dotlessi" unicode="&#x131;" horiz-adv-x="298" 
d="M23 0l92 500h159l-92 -500h-159z" />
    <glyph glyph-name="IJ" unicode="&#x132;" horiz-adv-x="737" 
d="M199 0h-169l125 710h169zM664 191q-37 -205 -247 -205q-77 0 -127 16l25 135q42 -9 76 -9q94 0 113 100l84 482h168z" />
    <glyph glyph-name="ij" unicode="&#x133;" horiz-adv-x="603" 
d="M124 572l26 146h167l-26 -146h-167zM430 572l26 146h167l-26 -146h-167zM23 0l92 500h159l-92 -500h-159zM276 -202q-56 0 -90 12l20 114q22 -7 49 -7q34 0 49.5 16.5t22.5 54.5l93 512h159l-94 -523q-15 -86 -62 -132.5t-147 -46.5z" />
    <glyph glyph-name="Jcircumflex" unicode="&#x134;" horiz-adv-x="420" 
d="M520 753h-111l-28 74l-54 -74h-119l92 118h169zM347 191q-37 -205 -247 -205q-77 0 -127 16l25 135q42 -9 76 -9q94 0 113 100l84 482h168z" />
    <glyph glyph-name="jcircumflex" unicode="&#x135;" horiz-adv-x="305" 
d="M371 567h-107l-26 106l-62 -106h-117l104 156h159zM-22 -202q-56 0 -90 12l20 114q22 -7 49 -7q34 0 49.5 16.5t22.5 54.5l93 512h159l-94 -523q-15 -86 -62 -132.5t-147 -46.5z" />
    <glyph glyph-name="Kcommaaccent" unicode="&#x136;" horiz-adv-x="714" 
d="M768 710l-298 -286l187 -424h-189l-127 311l-105 -102l-37 -209h-169l125 710h169l-52 -298l303 298h193zM223 -142l18 102h133l-16 -89q-15 -93 -109 -111l-18 51q29 7 41.5 17t16.5 30h-66z" />
    <glyph glyph-name="kcommaaccent" unicode="&#x137;" horiz-adv-x="594" 
d="M625 500l-220 -202l137 -298h-167l-89 208l-72 -64l-25 -144h-161l128 725h161l-72 -409l199 184h181zM191 -142l18 102h133l-16 -89q-15 -93 -109 -111l-18 51q29 7 41.5 17t16.5 30h-66z" />
    <glyph glyph-name="kgreenlandic" unicode="&#x138;" horiz-adv-x="589" 
d="M620 500l-220 -202l137 -298h-167l-89 209l-72 -65l-25 -144h-161l88 500h161l-32 -184l199 184h181z" />
    <glyph glyph-name="Lacute" unicode="&#x139;" horiz-adv-x="548" 
d="M186 753l120 118h139l-137 -118h-122zM30 0l125 710h169l-101 -573h289l-25 -137h-457z" />
    <glyph glyph-name="lacute" unicode="&#x13a;" horiz-adv-x="305" 
d="M180 753l120 118h139l-137 -118h-122zM317 725l-128 -725h-161l128 725h161z" />
    <glyph glyph-name="Lcommaaccent" unicode="&#x13b;" horiz-adv-x="548" 
d="M30 0l125 710h169l-101 -573h289l-25 -137h-457zM202 -240l-18 51q29 7 41.5 17t16.5 30h-66l18 102h133l-16 -89q-15 -93 -109 -111z" />
    <glyph glyph-name="lcommaaccent" unicode="&#x13c;" horiz-adv-x="305" 
d="M317 725l-128 -725h-161l128 725h161zM43 -240l-18 51q29 7 41.5 17t16.5 30h-66l18 102h133l-16 -89q-15 -93 -109 -111z" />
    <glyph glyph-name="Lcaron" unicode="&#x13d;" horiz-adv-x="548" 
d="M30 0l125 710h169l-101 -573h289l-25 -137h-457zM389 521l-16 48q51 10 56 39h-65l17 102h133l-16 -89q-15 -84 -109 -100z" />
    <glyph glyph-name="lcaron" unicode="&#x13e;" horiz-adv-x="382" 
d="M317 725l-128 -725h-161l128 725h161zM366 521l-16 48q51 10 56 39h-65l17 102h133l-16 -89q-15 -84 -109 -100z" />
    <glyph glyph-name="Ldot" unicode="&#x13f;" horiz-adv-x="548" 
d="M30 0l125 710h169l-101 -573h289l-25 -137h-457zM538 500l-28 -164h-171l29 164h170z" />
    <glyph glyph-name="ldot" unicode="&#x140;" horiz-adv-x="459" 
d="M317 725l-128 -725h-161l128 725h161zM511 500l-28 -164h-171l29 164h170z" />
    <glyph glyph-name="Lslash" unicode="&#x141;" horiz-adv-x="548" 
d="M223 137h289l-25 -137h-457l43 243l-85 -41l17 96l85 41l65 371h169l-49 -281l194 95l-17 -96l-194 -95z" />
    <glyph glyph-name="lslash" unicode="&#x142;" horiz-adv-x="305" 
d="M340 554l-14 -78l-61 -48l-76 -428h-161l50 281l-64 -50l14 78l63 50l65 366h161l-39 -219z" />
    <glyph glyph-name="Nacute" unicode="&#x143;" horiz-adv-x="762" 
d="M408 753l120 118h139l-137 -118h-122zM30 0l125 710h185l154 -406q21 -53 30 -91h3q1 7 6.5 38.5t9.5 51.5l72 407h154l-125 -710h-177l-162 410q-23 57 -30 87h-3l-16 -94l-71 -403h-155z" />
    <glyph glyph-name="nacute" unicode="&#x144;" horiz-adv-x="609" 
d="M314 567l138 156h151l-166 -156h-123zM23 0l89 500h154l-16 -91q59 103 166 103q63 0 105.5 -35t42.5 -120q0 -33 -7 -68l-51 -289h-160l48 275q5 27 5 41q0 73 -67 73q-35 0 -57.5 -21.5t-31 -46t-15.5 -64.5l-44 -257h-161z" />
    <glyph glyph-name="Ncommaaccent" unicode="&#x145;" horiz-adv-x="762" 
d="M30 0l125 710h185l154 -406q21 -53 30 -91h3q1 7 6.5 38.5t9.5 51.5l72 407h154l-125 -710h-177l-162 410q-23 57 -30 87h-3l-16 -94l-71 -403h-155zM271 -240l-18 51q29 7 41.5 17t16.5 30h-66l18 102h133l-16 -89q-15 -93 -109 -111z" />
    <glyph glyph-name="ncommaaccent" unicode="&#x146;" horiz-adv-x="609" 
d="M23 0l89 500h154l-16 -91q59 103 166 103q63 0 105.5 -35t42.5 -120q0 -33 -7 -68l-51 -289h-160l48 275q5 27 5 41q0 73 -67 73q-35 0 -57.5 -21.5t-31 -46t-15.5 -64.5l-44 -257h-161zM195 -240l-18 51q29 7 41.5 17t16.5 30h-66l18 102h133l-16 -89q-15 -93 -109 -111
z" />
    <glyph glyph-name="Ncaron" unicode="&#x147;" horiz-adv-x="762" 
d="M289 866h119l54 -74l80 74h128l-127 -118h-169zM30 0l125 710h185l154 -406q21 -53 30 -91h3q1 7 6.5 38.5t9.5 51.5l72 407h154l-125 -710h-177l-162 410q-23 57 -30 87h-3l-16 -94l-71 -403h-155z" />
    <glyph glyph-name="ncaron" unicode="&#x148;" horiz-adv-x="609" 
d="M202 718h112l51 -105l88 105h121l-134 -156h-159zM23 0l89 500h154l-16 -91q59 103 166 103q63 0 105.5 -35t42.5 -120q0 -33 -7 -68l-51 -289h-160l48 275q5 27 5 41q0 73 -67 73q-35 0 -57.5 -21.5t-31 -46t-15.5 -64.5l-44 -257h-161z" />
    <glyph glyph-name="napostrophe" unicode="&#x149;" 
d="M102 521l-16 48q51 10 56 39h-65l17 102h133l-16 -89q-15 -84 -109 -100zM33 0l89 500h154l-16 -91q59 103 166 103q63 0 105.5 -35t42.5 -120q0 -33 -7 -68l-51 -289h-160l48 275q5 27 5 41q0 73 -67 73q-35 0 -57.5 -21.5t-31 -46t-15.5 -64.5l-44 -257h-161z" />
    <glyph glyph-name="Eng" unicode="&#x14a;" horiz-adv-x="762" 
d="M769 710l-114 -649l-12 -69q-36 -200 -245 -200q-54 0 -103 9l23 129q34 -6 86 -6q70 0 83 67l2 9h-22l-162 410q-23 57 -30 87h-3l-16 -94l-71 -403h-155l125 710h185l154 -406q21 -53 30 -91h3q1 7 6.5 38.5t9.5 51.5l72 407h154z" />
    <glyph glyph-name="eng" unicode="&#x14b;" horiz-adv-x="609" 
d="M416 512q63 0 105.5 -35t42.5 -120q0 -33 -7 -68l-51 -289l-3 -20q-15 -88 -65.5 -135t-151.5 -47q-50 0 -81 6l20 115q23 -2 47 -2q60 0 70 62l4 21l48 275q5 27 5 41q0 73 -67 73q-35 0 -57.5 -21.5t-31 -46t-15.5 -64.5l-44 -257h-161l89 500h154l-16 -91
q59 103 166 103z" />
    <glyph glyph-name="Omacron" unicode="&#x14c;" horiz-adv-x="773" 
d="M274 758l17 97h361l-18 -97h-360zM377 -17q-151 0 -240.5 81.5t-89.5 239.5q0 80 22.5 153t67 134.5t121 98.5t175.5 37q151 0 241 -81.5t90 -239.5q0 -63 -13.5 -122.5t-44 -114.5t-74.5 -96t-109.5 -65.5t-145.5 -24.5zM379 115q57 0 99.5 25.5t65.5 68t34 90t11 99.5
q0 106 -44.5 151.5t-113.5 45.5q-57 0 -99 -25.5t-65.5 -68t-34.5 -90t-11 -99.5q0 -106 44.5 -151.5t113.5 -45.5z" />
    <glyph glyph-name="omacron" unicode="&#x14d;" horiz-adv-x="587" 
d="M172 592l17 96h343l-17 -96h-343zM271 -12q-34 0 -65.5 5.5t-64.5 21.5t-57 40.5t-39.5 65.5t-15.5 94q0 55 16 106t49 94.5t90 70t132 26.5q34 0 65.5 -5.5t65 -21.5t57.5 -40.5t39.5 -65.5t15.5 -94q0 -55 -16.5 -106t-49 -94.5t-90 -70t-132.5 -26.5zM276 99
q33 0 58 19t38 49t19.5 61.5t6.5 61.5q0 61 -25 86t-61 25q-44 0 -73 -33.5t-39.5 -74.5t-10.5 -83q0 -61 25 -86t62 -25z" />
    <glyph glyph-name="Obreve" unicode="&#x14e;" horiz-adv-x="773" 
d="M402 871q5 -47 65 -47q64 0 80 47h101q-15 -59 -61.5 -91t-118.5 -32q-84 0 -126 33.5t-41 89.5h101zM377 -17q-151 0 -240.5 81.5t-89.5 239.5q0 80 22.5 153t67 134.5t121 98.5t175.5 37q151 0 241 -81.5t90 -239.5q0 -63 -13.5 -122.5t-44 -114.5t-74.5 -96
t-109.5 -65.5t-145.5 -24.5zM379 115q57 0 99.5 25.5t65.5 68t34 90t11 99.5q0 106 -44.5 151.5t-113.5 45.5q-57 0 -99 -25.5t-65.5 -68t-34.5 -90t-11 -99.5q0 -106 44.5 -151.5t113.5 -45.5z" />
    <glyph glyph-name="obreve" unicode="&#x14f;" horiz-adv-x="587" 
d="M296 723q-6 -81 66 -81q70 0 80 81h101q-15 -90 -63.5 -125.5t-122.5 -35.5q-82 0 -126 39t-35 122h100zM271 -12q-34 0 -65.5 5.5t-64.5 21.5t-57 40.5t-39.5 65.5t-15.5 94q0 55 16 106t49 94.5t90 70t132 26.5q34 0 65.5 -5.5t65 -21.5t57.5 -40.5t39.5 -65.5
t15.5 -94q0 -55 -16.5 -106t-49 -94.5t-90 -70t-132.5 -26.5zM276 99q33 0 58 19t38 49t19.5 61.5t6.5 61.5q0 61 -25 86t-61 25q-44 0 -73 -33.5t-39.5 -74.5t-10.5 -83q0 -61 25 -86t62 -25z" />
    <glyph glyph-name="Ohungarumlaut" unicode="&#x150;" horiz-adv-x="773" 
d="M298 754l118 117h131l-122 -117h-127zM483 754l118 117h131l-123 -117h-126zM377 -17q-151 0 -240.5 81.5t-89.5 239.5q0 80 22.5 153t67 134.5t121 98.5t175.5 37q151 0 241 -81.5t90 -239.5q0 -63 -13.5 -122.5t-44 -114.5t-74.5 -96t-109.5 -65.5t-145.5 -24.5z
M379 115q57 0 99.5 25.5t65.5 68t34 90t11 99.5q0 106 -44.5 151.5t-113.5 45.5q-57 0 -99 -25.5t-65.5 -68t-34.5 -90t-11 -99.5q0 -106 44.5 -151.5t113.5 -45.5z" />
    <glyph glyph-name="ohungarumlaut" unicode="&#x151;" horiz-adv-x="587" 
d="M201 567l115 156h116l-120 -156h-111zM373 567l115 156h116l-120 -156h-111zM271 -12q-34 0 -65.5 5.5t-64.5 21.5t-57 40.5t-39.5 65.5t-15.5 94q0 55 16 106t49 94.5t90 70t132 26.5q34 0 65.5 -5.5t65 -21.5t57.5 -40.5t39.5 -65.5t15.5 -94q0 -55 -16.5 -106
t-49 -94.5t-90 -70t-132.5 -26.5zM276 99q33 0 58 19t38 49t19.5 61.5t6.5 61.5q0 61 -25 86t-61 25q-44 0 -73 -33.5t-39.5 -74.5t-10.5 -83q0 -61 25 -86t62 -25z" />
    <glyph glyph-name="OE" unicode="&#x152;" horiz-adv-x="954" 
d="M958 585h-317l-29 -160h301l-22 -124h-301l-31 -176h325l-22 -125h-493q-65 1 -119.5 16.5t-102 48.5t-75 94t-27.5 144q0 52 12 104.5t43 108.5t78 98t124 69t173 27h505zM219 303q0 -171 172 -179l81 462q-59 -1 -105 -21t-73 -49.5t-45 -69t-24 -74t-6 -69.5z" />
    <glyph glyph-name="oe" unicode="&#x153;" horiz-adv-x="936" 
d="M907 310q0 -53 -14 -96h-345q1 -57 30.5 -84t76.5 -27q70 0 108 70l110 -54q-66 -131 -229 -131q-130 0 -190 79q-67 -79 -183 -79q-34 0 -65.5 5.5t-64.5 21.5t-57 40.5t-39.5 65.5t-15.5 94q0 55 16 106t49 94.5t90 70t132 26.5q115 0 170 -78q70 78 191 78
q99 0 164.5 -49t65.5 -153zM756 304q4 14 4 32q0 41 -24.5 61.5t-63.5 20.5q-48 0 -78.5 -31t-39.5 -83h202zM276 99q33 0 58 19t38 49t19.5 61.5t6.5 61.5q0 61 -25 86t-61 25q-44 0 -73 -33.5t-39.5 -74.5t-10.5 -83q0 -61 25 -86t62 -25z" />
    <glyph glyph-name="Racute" unicode="&#x154;" horiz-adv-x="693" 
d="M613 871l-137 -118h-122l120 118h139zM693 513q0 -81 -42.5 -139t-134.5 -81l104 -293h-183l-87 272h-103l-48 -272h-169l126 710h282q52 0 95.5 -10t80.5 -31.5t58 -61.5t21 -94zM304 591l-36 -203h105q76 0 109 34t33 81q0 88 -104 88h-107z" />
    <glyph glyph-name="racute" unicode="&#x155;" horiz-adv-x="413" 
d="M210 567l138 156h151l-166 -156h-123zM236 355q19 66 60.5 111.5t107.5 45.5q19 0 37 -4l-27 -154q-17 6 -51 6q-53 0 -83 -23q-42 -34 -59 -127l-37 -210h-161l89 500h150z" />
    <glyph glyph-name="Rcommaaccent" unicode="&#x156;" horiz-adv-x="693" 
d="M693 513q0 -81 -42.5 -139t-134.5 -81l104 -293h-183l-87 272h-103l-48 -272h-169l126 710h282q52 0 95.5 -10t80.5 -31.5t58 -61.5t21 -94zM304 591l-36 -203h105q76 0 109 34t33 81q0 88 -104 88h-107zM217 -142l18 102h133l-16 -89q-15 -93 -109 -111l-18 51
q29 7 41.5 17t16.5 30h-66z" />
    <glyph glyph-name="rcommaaccent" unicode="&#x157;" horiz-adv-x="413" 
d="M236 355q19 66 60.5 111.5t107.5 45.5q19 0 37 -4l-27 -154q-17 6 -51 6q-53 0 -83 -23q-42 -34 -59 -127l-37 -210h-161l89 500h150zM38 -240l-18 51q29 7 41.5 17t16.5 30h-66l18 102h133l-16 -89q-15 -93 -109 -111z" />
    <glyph glyph-name="Rcaron" unicode="&#x158;" horiz-adv-x="693" 
d="M489 748h-169l-85 118h119l54 -74l80 74h128zM693 513q0 -81 -42.5 -139t-134.5 -81l104 -293h-183l-87 272h-103l-48 -272h-169l126 710h282q52 0 95.5 -10t80.5 -31.5t58 -61.5t21 -94zM304 591l-36 -203h105q76 0 109 34t33 81q0 88 -104 88h-107z" />
    <glyph glyph-name="rcaron" unicode="&#x159;" horiz-adv-x="413" 
d="M98 718h112l51 -105l88 105h121l-134 -156h-159zM236 355q19 66 60.5 111.5t107.5 45.5q19 0 37 -4l-27 -154q-17 6 -51 6q-53 0 -83 -23q-42 -34 -59 -127l-37 -210h-161l89 500h150z" />
    <glyph glyph-name="Sacute" unicode="&#x15a;" horiz-adv-x="625" 
d="M333 753l120 118h139l-137 -118h-122zM299 -17q-118 0 -202.5 43.5t-114.5 127.5l135 85q43 -125 185 -125q123 0 123 87q0 36 -20.5 51.5t-65.5 25.5l-74 18q-183 42 -183 203q0 96 68 162t215 66q98 0 174 -36t114 -111l-123 -89q-46 111 -169 111q-61 0 -89.5 -23.5
t-28.5 -59.5q0 -31 22 -49.5t69 -30.5l85 -20q86 -21 130 -70t44 -134q0 -48 -15 -88t-48 -73t-92 -52t-139 -19z" />
    <glyph glyph-name="sacute" unicode="&#x15b;" horiz-adv-x="497" 
d="M243 567l138 156h151l-166 -156h-123zM231 -12q-185 0 -241 121l101 75q38 -82 155 -82q71 0 71 46q0 18 -11.5 27t-40.5 14l-63 11q-145 28 -145 143q0 73 56 121t167 48q155 0 225 -101l-97 -79q-38 71 -141 71q-67 0 -67 -42q0 -17 11.5 -26.5t39.5 -15.5l70 -14
q73 -15 105 -49.5t32 -92.5q0 -76 -53 -125.5t-174 -49.5z" />
    <glyph glyph-name="Scircumflex" unicode="&#x15c;" horiz-adv-x="625" 
d="M585 753h-119l-54 74l-80 -74h-128l127 118h169zM299 -17q-118 0 -202.5 43.5t-114.5 127.5l135 85q43 -125 185 -125q123 0 123 87q0 36 -20.5 51.5t-65.5 25.5l-74 18q-183 42 -183 203q0 96 68 162t215 66q98 0 174 -36t114 -111l-123 -89q-46 111 -169 111
q-61 0 -89.5 -23.5t-28.5 -59.5q0 -31 22 -49.5t69 -30.5l85 -20q86 -21 130 -70t44 -134q0 -48 -15 -88t-48 -73t-92 -52t-139 -19z" />
    <glyph glyph-name="scircumflex" unicode="&#x15d;" horiz-adv-x="497" 
d="M490 567h-112l-51 105l-88 -105h-121l134 156h159zM231 -12q-185 0 -241 121l101 75q38 -82 155 -82q71 0 71 46q0 18 -11.5 27t-40.5 14l-63 11q-145 28 -145 143q0 73 56 121t167 48q155 0 225 -101l-97 -79q-38 71 -141 71q-67 0 -67 -42q0 -17 11.5 -26.5t39.5 -15.5
l70 -14q73 -15 105 -49.5t32 -92.5q0 -76 -53 -125.5t-174 -49.5z" />
    <glyph glyph-name="Scedilla" unicode="&#x15e;" horiz-adv-x="625" 
d="M419 419q86 -21 130 -70t44 -134q0 -102 -69 -166.5t-223 -65.5l-22 -29q18 15 47 15q87 0 87 -69q0 -58 -37.5 -85.5t-100.5 -27.5q-107 0 -127 65l88 21q6 -24 39 -24q18 0 30 11t12 32q0 30 -33 30q-23 0 -35 -15l-58 14l41 66q-93 11 -158.5 53t-91.5 114l135 85
q43 -125 185 -125q123 0 123 87q0 36 -20.5 51.5t-65.5 25.5l-74 18q-183 42 -183 203q0 96 68 162t215 66q98 0 174 -36t114 -111l-123 -89q-46 111 -169 111q-61 0 -89.5 -23.5t-28.5 -59.5q0 -31 22 -49.5t69 -30.5z" />
    <glyph glyph-name="scedilla" unicode="&#x15f;" horiz-adv-x="497" 
d="M321 305q73 -15 105 -49.5t32 -92.5q0 -74 -50.5 -123t-165.5 -52l-26 -34q18 15 47 15q87 0 87 -69q0 -58 -37.5 -85.5t-100.5 -27.5q-108 0 -127 65l88 21q6 -24 39 -24q18 0 30 11t12 32q0 30 -33 30q-23 0 -35 -15l-58 14l44 71q-135 17 -182 117l101 75
q38 -82 155 -82q71 0 71 46q0 18 -11.5 27t-40.5 14l-63 11q-145 28 -145 143q0 73 56 121t167 48q155 0 225 -101l-97 -79q-38 71 -141 71q-67 0 -67 -42q0 -17 11.5 -26.5t39.5 -15.5z" />
    <glyph glyph-name="Scaron" unicode="&#x160;" horiz-adv-x="625" 
d="M214 866h119l54 -74l80 74h128l-127 -118h-169zM299 -17q-118 0 -202.5 43.5t-114.5 127.5l135 85q43 -125 185 -125q123 0 123 87q0 36 -20.5 51.5t-65.5 25.5l-74 18q-183 42 -183 203q0 96 68 162t215 66q98 0 174 -36t114 -111l-123 -89q-46 111 -169 111
q-61 0 -89.5 -23.5t-28.5 -59.5q0 -31 22 -49.5t69 -30.5l85 -20q86 -21 130 -70t44 -134q0 -48 -15 -88t-48 -73t-92 -52t-139 -19z" />
    <glyph glyph-name="scaron" unicode="&#x161;" horiz-adv-x="497" 
d="M131 718h112l51 -105l88 105h121l-134 -156h-159zM231 -12q-185 0 -241 121l101 75q38 -82 155 -82q71 0 71 46q0 18 -11.5 27t-40.5 14l-63 11q-145 28 -145 143q0 73 56 121t167 48q155 0 225 -101l-97 -79q-38 71 -141 71q-67 0 -67 -42q0 -17 11.5 -26.5t39.5 -15.5
l70 -14q73 -15 105 -49.5t32 -92.5q0 -76 -53 -125.5t-174 -49.5z" />
    <glyph glyph-name="uni0162" unicode="&#x162;" horiz-adv-x="594" 
d="M337 0h-48l-36 -46q18 15 47 15q87 0 87 -69q0 -58 -37.5 -85.5t-100.5 -27.5q-107 0 -127 65l88 21q6 -24 39 -24q18 0 30 11t12 32q0 30 -33 30q-23 0 -35 -15l-58 14l50 79h-46l102 576h-207l24 134h581l-24 -134h-206z" />
    <glyph glyph-name="uni0163" unicode="&#x163;" horiz-adv-x="398" 
d="M278 393l-34 -192q-13 -79 62 -79q23 0 44 5l-22 -126q-48 -11 -93 -11l-28 -36q18 15 47 15q87 0 87 -69q0 -58 -37.5 -85.5t-100.5 -27.5q-107 0 -127 65l88 21q6 -24 39 -24q18 0 30 11t12 32q0 30 -33 30q-23 0 -35 -15l-58 14l49 79q-111 34 -83 202l33 191h-87
l19 107h87l21 120l171 62l-32 -182h119l-20 -107h-118z" />
    <glyph glyph-name="Tcaron" unicode="&#x164;" horiz-adv-x="594" 
d="M460 748h-169l-85 118h119l54 -74l80 74h128zM669 710l-24 -134h-206l-102 -576h-168l102 576h-207l24 134h581z" />
    <glyph glyph-name="tcaron" unicode="&#x165;" horiz-adv-x="403" 
d="M372 521l-16 48q51 10 56 39h-65l17 102h133l-16 -89q-15 -84 -109 -100zM31 393l19 107h87l21 120l171 62l-32 -182h119l-20 -107h-118l-34 -192q-13 -79 62 -79q23 0 44 5l-22 -126q-48 -11 -93 -11q-186 4 -150 212l33 191h-87z" />
    <glyph glyph-name="Tbar" unicode="&#x166;" horiz-adv-x="594" 
d="M645 576h-206l-23 -130h113l-11 -57h-112l-69 -389h-168l69 389h-113l10 57h113l23 130h-207l24 134h581z" />
    <glyph glyph-name="tbar" unicode="&#x167;" horiz-adv-x="413" 
d="M411 393h-118l-14 -79h78l-15 -84h-78l-5 -29q-13 -79 62 -79q23 0 44 5l-22 -126q-48 -11 -93 -11q-186 4 -150 212l5 28h-103l15 84h102l14 79h-87l19 107h87l21 120l171 62l-32 -182h119z" />
    <glyph glyph-name="Utilde" unicode="&#x168;" horiz-adv-x="727" 
d="M540 742q-29 0 -51.5 9.5t-35 21t-29 21t-33.5 9.5q-22 0 -35 -10.5t-25 -43.5l-73 27q18 55 52.5 85.5t78.5 30.5q36 0 62 -15.5t46 -31t43 -15.5q41 0 57 54l73 -27q-18 -55 -52.5 -85t-77.5 -30zM144 710h168l-76 -433q-15 -81 18 -119t98 -38q122 0 145 137l80 453
h168l-86 -489q-8 -46 -27.5 -85t-55 -75t-95.5 -57t-139 -21q-69 0 -122.5 17t-93.5 52.5t-55 97t0 144.5z" />
    <glyph glyph-name="utilde" unicode="&#x169;" horiz-adv-x="604" 
d="M448 568q-37 0 -64.5 17t-49.5 34t-44 17q-37 0 -59 -58l-73 27q42 127 132 127q34 0 63 -17t52 -33.5t43 -16.5q37 0 60 57l73 -27q-18 -60 -52.5 -93.5t-80.5 -33.5zM193 -12q-148 0 -148 150q0 26 7 73l51 289h160l-48 -275q-5 -28 -5 -44q0 -70 66 -70q47 0 67 34
t31 98l45 257h161l-89 -500h-153l17 93q-47 -105 -162 -105z" />
    <glyph glyph-name="Umacron" unicode="&#x16a;" horiz-adv-x="727" 
d="M273 758l17 97h361l-18 -97h-360zM144 710h168l-76 -433q-15 -81 18 -119t98 -38q122 0 145 137l80 453h168l-86 -489q-8 -46 -27.5 -85t-55 -75t-95.5 -57t-139 -21q-69 0 -122.5 17t-93.5 52.5t-55 97t0 144.5z" />
    <glyph glyph-name="umacron" unicode="&#x16b;" horiz-adv-x="604" 
d="M182 592l17 96h343l-17 -96h-343zM193 -12q-148 0 -148 150q0 26 7 73l51 289h160l-48 -275q-5 -28 -5 -44q0 -70 66 -70q47 0 67 34t31 98l45 257h161l-89 -500h-153l17 93q-47 -105 -162 -105z" />
    <glyph glyph-name="Ubreve" unicode="&#x16c;" horiz-adv-x="727" 
d="M401 871q5 -47 65 -47q64 0 80 47h101q-15 -59 -61.5 -91t-118.5 -32q-84 0 -126 33.5t-41 89.5h101zM144 710h168l-76 -433q-15 -81 18 -119t98 -38q122 0 145 137l80 453h168l-86 -489q-8 -46 -27.5 -85t-55 -75t-95.5 -57t-139 -21q-69 0 -122.5 17t-93.5 52.5t-55 97
t0 144.5z" />
    <glyph glyph-name="ubreve" unicode="&#x16d;" horiz-adv-x="604" 
d="M306 723q-6 -81 66 -81q70 0 80 81h101q-15 -90 -63.5 -125.5t-122.5 -35.5q-82 0 -126 39t-35 122h100zM193 -12q-148 0 -148 150q0 26 7 73l51 289h160l-48 -275q-5 -28 -5 -44q0 -70 66 -70q47 0 67 34t31 98l45 257h161l-89 -500h-153l17 93q-47 -105 -162 -105z" />
    <glyph glyph-name="Uring" unicode="&#x16e;" horiz-adv-x="727" 
d="M466 744q-58 0 -91 30t-33 79q0 55 39 90.5t97 35.5q57 0 90 -29.5t33 -78.5q0 -55 -39 -91t-96 -36zM466 809q59 0 59 62q0 20 -12 32t-35 12q-59 0 -59 -62q0 -20 12 -32t35 -12zM144 710h168l-76 -433q-15 -81 18 -119t98 -38q122 0 145 137l80 453h168l-86 -489
q-8 -46 -27.5 -85t-55 -75t-95.5 -57t-139 -21q-69 0 -122.5 17t-93.5 52.5t-55 97t0 144.5z" />
    <glyph glyph-name="uring" unicode="&#x16f;" horiz-adv-x="604" 
d="M351 548q-56 0 -89.5 29.5t-33.5 78.5q0 55 39 91t98 36q55 0 89 -30t34 -79q0 -55 -39 -90.5t-98 -35.5zM351 612q26 0 43 16.5t17 45.5q0 20 -12.5 32t-33.5 12q-26 0 -43 -16.5t-17 -45.5q0 -20 12.5 -32t33.5 -12zM193 -12q-148 0 -148 150q0 26 7 73l51 289h160
l-48 -275q-5 -28 -5 -44q0 -70 66 -70q47 0 67 34t31 98l45 257h161l-89 -500h-153l17 93q-47 -105 -162 -105z" />
    <glyph glyph-name="Uhungarumlaut" unicode="&#x170;" horiz-adv-x="727" 
d="M297 754l118 117h131l-122 -117h-127zM482 754l118 117h131l-123 -117h-126zM144 710h168l-76 -433q-15 -81 18 -119t98 -38q122 0 145 137l80 453h168l-86 -489q-8 -46 -27.5 -85t-55 -75t-95.5 -57t-139 -21q-69 0 -122.5 17t-93.5 52.5t-55 97t0 144.5z" />
    <glyph glyph-name="uhungarumlaut" unicode="&#x171;" horiz-adv-x="604" 
d="M211 567l115 156h116l-120 -156h-111zM383 567l115 156h116l-120 -156h-111zM193 -12q-148 0 -148 150q0 26 7 73l51 289h160l-48 -275q-5 -28 -5 -44q0 -70 66 -70q47 0 67 34t31 98l45 257h161l-89 -500h-153l17 93q-47 -105 -162 -105z" />
    <glyph glyph-name="Uogonek" unicode="&#x172;" horiz-adv-x="727" 
d="M577 710h168l-86 -489q-16 -90 -77.5 -155.5t-183.5 -79.5q-92 -39 -92 -83q0 -34 35 -34q37 0 60 41l61 -35q-47 -78 -130 -78q-123 0 -123 87q0 64 79 102q-121 13 -182 88t-35 220l73 416h168l-76 -433q-15 -81 18 -119t98 -38q122 0 145 137z" />
    <glyph glyph-name="uogonek" unicode="&#x173;" horiz-adv-x="604" 
d="M452 0q-129 -45 -129 -97q0 -34 35 -34q37 0 60 41l61 -35q-47 -78 -130 -78q-123 0 -123 87q0 39 27.5 67t85.5 49h-1l17 93q-47 -105 -162 -105q-148 0 -148 150q0 26 7 73l51 289h160l-48 -275q-5 -28 -5 -44q0 -70 66 -70q47 0 67 34t31 98l45 257h161l-89 -500h-39z
" />
    <glyph glyph-name="Wcircumflex" unicode="&#x174;" horiz-adv-x="963" 
d="M761 753h-119l-54 74l-80 -74h-128l127 118h169zM144 0l-44 710h167l9 -461q1 -15 -4 -59h3q7 31 18 59l182 461h170l19 -461q1 -21 -3 -59h3q6 29 17 59l172 461h173l-294 -710h-187l-13 482q0 14 4 52h-4q-7 -34 -15 -52l-183 -482h-190z" />
    <glyph glyph-name="wcircumflex" unicode="&#x175;" horiz-adv-x="778" 
d="M627 567h-112l-51 105l-88 -105h-121l134 156h159zM105 0l-46 500h148l8 -307q0 -32 -1 -48h2q5 19 16 48l127 307h139l19 -307q2 -22 0 -48h2q3 12 15 48l116 307h156l-221 -500h-154l-24 292q-2 25 1 46l-3 1q-2 -9 -15 -43l-128 -296h-157z" />
    <glyph glyph-name="Ycircumflex" unicode="&#x176;" horiz-adv-x="636" 
d="M597 753h-119l-54 74l-80 -74h-128l127 118h169zM189 0l45 257l-156 453h172l78 -262q8 -29 8 -52h2q10 26 27 52l170 262h185l-317 -453l-44 -257h-170z" />
    <glyph glyph-name="ycircumflex" unicode="&#x177;" horiz-adv-x="537" 
d="M518 567h-112l-51 105l-88 -105h-121l134 156h159zM54 -202q-53 0 -97 14l21 116q33 -11 74 -11q60 0 86 59l12 27l-102 497h168l34 -304q5 -32 2 -58h3q6 27 20 58l135 304h167l-278 -539q-22 -44 -47 -75t-46.5 -48t-49.5 -26t-49.5 -11.5t-52.5 -2.5z" />
    <glyph glyph-name="Ydieresis" unicode="&#x178;" horiz-adv-x="636" 
d="M227 753l20 115h133l-20 -115h-133zM454 753l20 115h133l-20 -115h-133zM189 0l45 257l-156 453h172l78 -262q8 -29 8 -52h2q10 26 27 52l170 262h185l-317 -453l-44 -257h-170z" />
    <glyph glyph-name="Zacute" unicode="&#x179;" horiz-adv-x="608" 
d="M335 753l120 118h139l-137 -118h-122zM13 122l420 457h-326l23 131h521l-22 -122l-419 -458h354l-23 -130h-550z" />
    <glyph glyph-name="zacute" unicode="&#x17a;" horiz-adv-x="482" 
d="M239 567l138 156h151l-166 -156h-123zM-5 94l293 293h-230l20 113h414l-16 -91l-288 -294h250l-20 -115h-440z" />
    <glyph glyph-name="Zdotaccent" unicode="&#x17b;" horiz-adv-x="608" 
d="M315 753l21 118h164l-21 -118h-164zM13 122l420 457h-326l23 131h521l-22 -122l-419 -458h354l-23 -130h-550z" />
    <glyph glyph-name="zdotaccent" unicode="&#x17c;" horiz-adv-x="482" 
d="M217 572l26 146h167l-26 -146h-167zM-5 94l293 293h-230l20 113h414l-16 -91l-288 -294h250l-20 -115h-440z" />
    <glyph glyph-name="Zcaron" unicode="&#x17d;" horiz-adv-x="608" 
d="M216 866h119l54 -74l80 74h128l-127 -118h-169zM13 122l420 457h-326l23 131h521l-22 -122l-419 -458h354l-23 -130h-550z" />
    <glyph glyph-name="zcaron" unicode="&#x17e;" horiz-adv-x="482" 
d="M127 718h112l51 -105l88 105h121l-134 -156h-159zM-5 94l293 293h-230l20 113h414l-16 -91l-288 -294h250l-20 -115h-440z" />
    <glyph glyph-name="florin" unicode="&#x192;" horiz-adv-x="461" 
d="M456 710q36 0 74 -10l-21 -120q-27 8 -51 8q-47 0 -68.5 -25t-36.5 -74l-19 -61h106l-19 -106h-120l-146 -472h-162l147 472h-103l19 106h116l15 47q14 47 25.5 75.5t32.5 62.5t47 52.5t68 31.5t96 13z" />
    <glyph glyph-name="AEacute" unicode="&#x1fc;" horiz-adv-x="1041" 
d="M1015 871l-137 -118h-122l120 118h139zM1044 585h-299l-28 -160h282l-22 -124h-282l-32 -176h307l-22 -125h-474l27 156h-236l-110 -156h-168l533 710h546zM350 276h173l57 325z" />
    <glyph glyph-name="aeacute" unicode="&#x1fd;" horiz-adv-x="870" 
d="M720 723l-166 -156h-123l138 156h151zM827 214h-324q-2 -56 25 -83.5t67 -27.5q67 0 102 70l111 -54q-66 -131 -224 -131q-138 0 -195 98q-28 -48 -84.5 -73t-126.5 -25q-79 0 -125.5 36.5t-46.5 100.5q0 73 50 114q52 44 184 55l127 9l3 27q10 79 -69 79q-74 0 -84 -74
h-158q10 79 70 128t178 49q116 0 158 -56q64 56 152 56q97 0 161 -49t64 -153q0 -54 -15 -96zM619 418q-86 0 -105 -114h176q5 12 5 38q0 40 -21.5 58t-54.5 18zM351 188l6 37l-77 -5q-107 -7 -107 -77q0 -27 19.5 -40t48.5 -13q42 0 73 25.5t37 72.5z" />
    <glyph glyph-name="Oslashacute" unicode="&#x1fe;" horiz-adv-x="773" 
d="M587 871l-137 -118h-122l120 118h139zM771 692l-71 -74q64 -81 64 -212q0 -63 -13.5 -122.5t-44 -114.5t-74.5 -96t-109.5 -65.5t-145.5 -24.5q-138 0 -223 67l-68 -71l-47 39l72 75q-64 80 -64 211q0 80 22.5 153t67 134.5t121 98.5t175.5 37q138 0 223 -67l68 71z
M221 312q0 -54 12 -92l314 327q-41 48 -116 48q-57 0 -99 -25.5t-65.5 -68t-34.5 -90t-11 -99.5zM589 398q0 54 -12 92l-314 -327q41 -48 116 -48q57 0 99.5 25.5t65.5 68t34 90t11 99.5z" />
    <glyph glyph-name="oslashacute" unicode="&#x1ff;" horiz-adv-x="587" 
d="M530 723l-166 -156h-123l138 156h151zM508 440q51 -58 51 -155q0 -55 -16.5 -106t-49 -94.5t-90 -70t-132.5 -26.5q-100 0 -163 46l-50 -51l-32 26l52 53q-49 56 -49 153q0 55 16 106t49 94.5t90 70t132 26.5q98 0 162 -45l49 50l31 -27zM189 210q0 -18 3 -33l187 190
q-22 34 -67 34q-44 0 -73 -33.5t-39.5 -74.5t-10.5 -83zM276 99q33 0 58 19t38 49t19.5 61.5t6.5 61.5q0 20 -3 35l-188 -191q22 -35 69 -35z" />
    <glyph glyph-name="Scommaaccent" unicode="&#x218;" horiz-adv-x="625" 
d="M299 -17q-118 0 -202.5 43.5t-114.5 127.5l135 85q43 -125 185 -125q123 0 123 87q0 36 -20.5 51.5t-65.5 25.5l-74 18q-183 42 -183 203q0 96 68 162t215 66q98 0 174 -36t114 -111l-123 -89q-46 111 -169 111q-61 0 -89.5 -23.5t-28.5 -59.5q0 -31 22 -49.5t69 -30.5
l85 -20q86 -21 130 -70t44 -134q0 -48 -15 -88t-48 -73t-92 -52t-139 -19zM214 -240l-18 51q29 7 41.5 17t16.5 30h-66l18 102h133l-16 -89q-15 -93 -109 -111z" />
    <glyph glyph-name="scommaaccent" unicode="&#x219;" horiz-adv-x="497" 
d="M231 -12q-185 0 -241 121l101 75q38 -82 155 -82q71 0 71 46q0 18 -11.5 27t-40.5 14l-63 11q-145 28 -145 143q0 73 56 121t167 48q155 0 225 -101l-97 -79q-38 71 -141 71q-67 0 -67 -42q0 -17 11.5 -26.5t39.5 -15.5l70 -14q73 -15 105 -49.5t32 -92.5
q0 -76 -53 -125.5t-174 -49.5zM151 -240l-18 51q29 7 41.5 17t16.5 30h-66l18 102h133l-16 -89q-15 -93 -109 -111z" />
    <glyph glyph-name="uni021A" unicode="&#x21a;" horiz-adv-x="594" 
d="M669 710l-24 -134h-206l-102 -576h-168l102 576h-207l24 134h581zM162 -142l18 102h133l-16 -89q-15 -93 -109 -111l-18 51q29 7 41.5 17t16.5 30h-66z" />
    <glyph glyph-name="uni021B" unicode="&#x21b;" horiz-adv-x="398" 
d="M31 393l19 107h87l21 120l171 62l-32 -182h119l-20 -107h-118l-34 -192q-13 -79 62 -79q23 0 44 5l-22 -126q-48 -11 -93 -11q-186 4 -150 212l33 191h-87zM142 -240l-18 51q29 7 41.5 17t16.5 30h-66l18 102h133l-16 -89q-15 -93 -109 -111z" />
    <glyph glyph-name="uni0237" unicode="&#x237;" horiz-adv-x="305" 
d="M-22 -202q-56 0 -90 12l20 114q22 -7 49 -7q34 0 49.5 16.5t22.5 54.5l93 512h159l-94 -523q-15 -86 -62 -132.5t-147 -46.5z" />
    <glyph glyph-name="uni0243" unicode="&#x243;" horiz-adv-x="665" 
d="M507 363q118 -19 118 -138q0 -37 -13 -72t-40.5 -68.5t-78.5 -56t-118 -27.5l-19 -108h-59l19 107h-72l-19 -107h-59l19 107h-155l123 695h154l16 90h59l-16 -90h72l16 90h59l-16 -93q165 -18 165 -152q0 -62 -39.5 -110t-115.5 -67zM365 406q65 0 95.5 30t30.5 71
q0 40 -27.5 57.5t-67.5 17.5h-106l-31 -176h106zM327 112q69 0 100.5 34.5t31.5 78.5q0 41 -27 60.5t-68 19.5h-123l-34 -193h120z" />
    <glyph glyph-name="circumflex" unicode="&#x2c6;" horiz-adv-x="600" 
d="M414 567h-112l-51 105l-88 -105h-121l134 156h159z" />
    <glyph glyph-name="caron" unicode="&#x2c7;" horiz-adv-x="600" 
d="M125 718h112l51 -105l88 105h121l-134 -156h-159z" />
    <glyph glyph-name="breve" unicode="&#x2d8;" horiz-adv-x="600" 
d="M151 723q-6 -81 66 -81q70 0 80 81h101q-15 -90 -63.5 -125.5t-122.5 -35.5q-82 0 -126 39t-35 122h100z" />
    <glyph glyph-name="dotaccent" unicode="&#x2d9;" horiz-adv-x="600" 
d="M119 572l26 146h167l-26 -146h-167z" />
    <glyph glyph-name="ring" unicode="&#x2da;" horiz-adv-x="600" 
d="M161 548q-56 0 -89.5 29.5t-33.5 78.5q0 55 39 91t98 36q55 0 89 -30t34 -79q0 -55 -39 -90.5t-98 -35.5zM161 612q26 0 43 16.5t17 45.5q0 20 -12.5 32t-33.5 12q-26 0 -43 -16.5t-17 -45.5q0 -20 12.5 -32t33.5 -12z" />
    <glyph glyph-name="ogonek" unicode="&#x2db;" horiz-adv-x="600" 
d="M303 -125q-47 -78 -130 -78q-123 0 -123 87q0 39 27.5 67t85.5 49h113q-129 -45 -129 -97q0 -34 35 -34q37 0 60 41z" />
    <glyph glyph-name="tilde" unicode="&#x2dc;" horiz-adv-x="600" 
d="M341 568q-37 0 -64.5 17t-49.5 34t-44 17q-37 0 -59 -58l-73 27q42 127 132 127q34 0 63 -17t52 -33.5t43 -16.5q37 0 60 57l73 -27q-18 -60 -52.5 -93.5t-80.5 -33.5z" />
    <glyph glyph-name="hungarumlaut" unicode="&#x2dd;" horiz-adv-x="600" 
d="M74 567l115 156h116l-120 -156h-111zM246 567l115 156h116l-120 -156h-111z" />
    <glyph glyph-name="gravecomb" unicode="&#x300;" horiz-adv-x="0" 
d="M71 567h-123l-166 156h151z" />
    <glyph glyph-name="acutecomb" unicode="&#x301;" horiz-adv-x="0" 
d="M-319 567l138 156h151l-166 -156h-123z" />
    <glyph glyph-name="uni0302" unicode="&#x302;" horiz-adv-x="0" 
d="M-42 567h-112l-51 105l-88 -105h-121l134 156h159z" />
    <glyph glyph-name="tildecomb" unicode="&#x303;" horiz-adv-x="0" 
d="M-184 568q-37 0 -64.5 17t-49.5 34t-44 17q-37 0 -59 -58l-73 27q42 127 132 127q34 0 63 -17t52 -33.5t43 -16.5q37 0 60 57l73 -27q-18 -60 -52.5 -93.5t-80.5 -33.5z" />
    <glyph glyph-name="uni0304" unicode="&#x304;" horiz-adv-x="0" 
d="M-407 592l17 96h343l-17 -96h-343z" />
    <glyph glyph-name="uni0306" unicode="&#x306;" horiz-adv-x="0" 
d="M-298 723q-6 -81 66 -81q70 0 80 81h101q-15 -90 -63.5 -125.5t-122.5 -35.5q-82 0 -126 39t-35 122h100z" />
    <glyph glyph-name="uni0307" unicode="&#x307;" horiz-adv-x="0" 
d="M-173 572l26 146h167l-26 -146h-167z" />
    <glyph glyph-name="uni0308" unicode="&#x308;" horiz-adv-x="0" 
d="M-430 573l23 133h140l-24 -133h-139zM-210 573l23 133h139l-23 -133h-139z" />
    <glyph glyph-name="uni030A" unicode="&#x30a;" horiz-adv-x="0" 
d="M-174 548q-56 0 -89.5 29.5t-33.5 78.5q0 55 39 91t98 36q55 0 89 -30t34 -79q0 -55 -39 -90.5t-98 -35.5zM-174 612q26 0 43 16.5t17 45.5q0 20 -12.5 32t-33.5 12q-26 0 -43 -16.5t-17 -45.5q0 -20 12.5 -32t33.5 -12z" />
    <glyph glyph-name="uni030B" unicode="&#x30b;" horiz-adv-x="0" 
d="M-487 567l115 156h116l-120 -156h-111zM-315 567l115 156h116l-120 -156h-111z" />
    <glyph glyph-name="uni030C" unicode="&#x30c;" horiz-adv-x="0" 
d="M-331 718h112l51 -105l88 105h121l-134 -156h-159z" />
    <glyph glyph-name="uni0312" unicode="&#x312;" horiz-adv-x="0" 
d="M15 768l18 -51q-29 -7 -41.5 -17t-16.5 -30h66l-18 -102h-133l16 89q15 93 109 111z" />
    <glyph glyph-name="uni0326" unicode="&#x326;" horiz-adv-x="0" 
d="M-175 -240l-18 51q29 7 41.5 17t16.5 30h-66l18 102h133l-16 -89q-15 -93 -109 -111z" />
    <glyph glyph-name="uni0327" unicode="&#x327;" horiz-adv-x="0" 
d="M-221 7h75l-41 -53q18 15 47 15q87 0 87 -69q0 -58 -37.5 -85.5t-100.5 -27.5q-107 0 -127 65l88 21q6 -24 39 -24q18 0 30 11t12 32q0 30 -33 30q-23 0 -35 -15l-58 14z" />
    <glyph glyph-name="uni0328" unicode="&#x328;" horiz-adv-x="0" 
d="M-62 -125q-47 -78 -130 -78q-123 0 -123 87q0 39 27.5 67t85.5 49h113q-129 -45 -129 -97q0 -34 35 -34q37 0 60 41z" />
    <glyph glyph-name="uni0394" unicode="&#x394;" horiz-adv-x="670" 
d="M-35 0l364 710h176l111 -710h-651zM387 548l-212 -429h268z" />
    <glyph glyph-name="uni03A9" unicode="&#x3a9;" horiz-adv-x="754" 
d="M632 0h-250l30 270q73 13 112.5 65.5t39.5 130.5q0 60 -33.5 95t-92.5 35q-80 0 -132 -55t-52 -142q0 -111 95 -129l-65 -270h-250l23 130h139l15 56q-56 22 -86 74t-30 125q0 150 104 245t262 95q122 0 193 -65.5t71 -174.5q0 -105 -54.5 -185t-149.5 -114l-5 -56h139z
" />
    <glyph glyph-name="uni03BC" unicode="&#x3bc;" horiz-adv-x="612" 
d="M428 500h161l-89 -500h-153l17 93q-47 -105 -162 -105q-18 0 -36 3l-32 -186h-144l121 695h161l-48 -275q-5 -28 -5 -44q0 -70 66 -70q47 0 67 34t31 98z" />
    <glyph glyph-name="pi" unicode="&#x3c0;" horiz-adv-x="726" 
d="M615 6q-48 -12 -82 -12q-82 0 -112 38t-16 117l43 244h-119l-69 -393h-158l70 393h-80l18 107h593l-19 -107h-79l-41 -235q-9 -49 38 -49q11 0 32 3z" />
    <glyph glyph-name="uni0E3F" unicode="&#xe3f;" horiz-adv-x="665" 
d="M507 363q118 -19 118 -138q0 -39 -14.5 -76t-45.5 -72t-88.5 -56t-134.5 -21h-26l-19 -107h-58l19 107h-228l123 695h228l16 91h58l-16 -91h1q41 0 77.5 -7t70.5 -23t54 -48t20 -77q0 -62 -39.5 -110t-115.5 -67zM361 582h-82l-31 -176h82zM388 406q59 3 87.5 32.5
t28.5 68.5q0 69 -85 75zM197 112h81l34 193h-81zM340 112q69 0 100.5 34.5t31.5 78.5q0 41 -27 60.5t-68 19.5h-7l-34 -193h4z" />
    <glyph glyph-name="Wgrave" unicode="&#x1e80;" horiz-adv-x="963" 
d="M645 753h-122l-137 118h139zM144 0l-44 710h167l9 -461q1 -15 -4 -59h3q7 31 18 59l182 461h170l19 -461q1 -21 -3 -59h3q6 29 17 59l172 461h173l-294 -710h-187l-13 482q0 14 4 52h-4q-7 -34 -15 -52l-183 -482h-190z" />
    <glyph glyph-name="wgrave" unicode="&#x1e81;" horiz-adv-x="778" 
d="M505 567h-123l-166 156h151zM105 0l-46 500h148l8 -307q0 -32 -1 -48h2q5 19 16 48l127 307h139l19 -307q2 -22 0 -48h2q3 12 15 48l116 307h156l-221 -500h-154l-24 292q-2 25 1 46l-3 1q-2 -9 -15 -43l-128 -296h-157z" />
    <glyph glyph-name="Wacute" unicode="&#x1e82;" horiz-adv-x="963" 
d="M509 753l120 118h139l-137 -118h-122zM144 0l-44 710h167l9 -461q1 -15 -4 -59h3q7 31 18 59l182 461h170l19 -461q1 -21 -3 -59h3q6 29 17 59l172 461h173l-294 -710h-187l-13 482q0 14 4 52h-4q-7 -34 -15 -52l-183 -482h-190z" />
    <glyph glyph-name="wacute" unicode="&#x1e83;" horiz-adv-x="778" 
d="M380 567l138 156h151l-166 -156h-123zM105 0l-46 500h148l8 -307q0 -32 -1 -48h2q5 19 16 48l127 307h139l19 -307q2 -22 0 -48h2q3 12 15 48l116 307h156l-221 -500h-154l-24 292q-2 25 1 46l-3 1q-2 -9 -15 -43l-128 -296h-157z" />
    <glyph glyph-name="Wdieresis" unicode="&#x1e84;" horiz-adv-x="963" 
d="M391 753l20 115h133l-20 -115h-133zM618 753l20 115h133l-20 -115h-133zM144 0l-44 710h167l9 -461q1 -15 -4 -59h3q7 31 18 59l182 461h170l19 -461q1 -21 -3 -59h3q6 29 17 59l172 461h173l-294 -710h-187l-13 482q0 14 4 52h-4q-7 -34 -15 -52l-183 -482h-190z" />
    <glyph glyph-name="wdieresis" unicode="&#x1e85;" horiz-adv-x="778" 
d="M263 573l23 133h140l-24 -133h-139zM483 573l23 133h139l-23 -133h-139zM105 0l-46 500h148l8 -307q0 -32 -1 -48h2q5 19 16 48l127 307h139l19 -307q2 -22 0 -48h2q3 12 15 48l116 307h156l-221 -500h-154l-24 292q-2 25 1 46l-3 1q-2 -9 -15 -43l-128 -296h-157z" />
    <glyph glyph-name="Ygrave" unicode="&#x1ef2;" horiz-adv-x="636" 
d="M481 753h-122l-137 118h139zM189 0l45 257l-156 453h172l78 -262q8 -29 8 -52h2q10 26 27 52l170 262h185l-317 -453l-44 -257h-170z" />
    <glyph glyph-name="ygrave" unicode="&#x1ef3;" horiz-adv-x="537" 
d="M396 567h-123l-166 156h151zM54 -202q-53 0 -97 14l21 116q33 -11 74 -11q60 0 86 59l12 27l-102 497h168l34 -304q5 -32 2 -58h3q6 27 20 58l135 304h167l-278 -539q-22 -44 -47 -75t-46.5 -48t-49.5 -26t-49.5 -11.5t-52.5 -2.5z" />
    <glyph glyph-name="uni2002" unicode="&#x2002;" horiz-adv-x="500" 
 />
    <glyph glyph-name="uni2003" unicode="&#x2003;" horiz-adv-x="1000" 
 />
    <glyph glyph-name="uni2004" unicode="&#x2004;" horiz-adv-x="0" 
 />
    <glyph glyph-name="uni2005" unicode="&#x2005;" horiz-adv-x="250" 
 />
    <glyph glyph-name="uni2009" unicode="&#x2009;" horiz-adv-x="135" 
 />
    <glyph glyph-name="uni200A" unicode="&#x200a;" horiz-adv-x="75" 
 />
    <glyph glyph-name="endash" unicode="&#x2013;" horiz-adv-x="622" 
d="M58 335h535l-20 -114h-535z" />
    <glyph glyph-name="emdash" unicode="&#x2014;" horiz-adv-x="857" 
d="M58 335h770l-20 -114h-770z" />
    <glyph glyph-name="quoteleft" unicode="&#x2018;" horiz-adv-x="285" 
d="M274 737l21 -66q-75 -18 -89 -81l-1 -8h82l-29 -164h-171l29 162q23 129 158 157z" />
    <glyph glyph-name="quoteright" unicode="&#x2019;" horiz-adv-x="285" 
d="M122 391l-21 66q75 18 89 81l1 8h-82l29 164h171l-29 -162q-23 -129 -158 -157z" />
    <glyph glyph-name="quotesinglbase" unicode="&#x201a;" horiz-adv-x="285" 
d="M26 -155l-21 66q75 18 89 81l1 8h-82l29 164h171l-29 -162q-23 -129 -158 -157z" />
    <glyph glyph-name="quotedblleft" unicode="&#x201c;" horiz-adv-x="502" 
d="M274 737l21 -66q-75 -18 -89 -81l-1 -8h82l-29 -164h-171l29 162q23 129 158 157zM490 737l21 -66q-75 -18 -89 -81l-1 -8h82l-29 -164h-171l29 162q23 129 158 157z" />
    <glyph glyph-name="quotedblright" unicode="&#x201d;" horiz-adv-x="502" 
d="M123 392l-21 66q75 18 89 81l1 8h-82l29 164h171l-29 -162q-23 -129 -158 -157zM339 392l-21 66q75 18 89 81l1 8h-82l29 164h171l-29 -162q-23 -129 -158 -157z" />
    <glyph glyph-name="quotedblbase" unicode="&#x201e;" horiz-adv-x="502" 
d="M27 -154l-21 66q75 18 89 81l1 8h-82l29 164h171l-29 -162q-23 -129 -158 -157zM243 -154l-21 66q75 18 89 81l1 8h-82l29 164h171l-29 -162q-23 -129 -158 -157z" />
    <glyph glyph-name="dagger" unicode="&#x2020;" horiz-adv-x="494" 
d="M488 500l-17 -94h-140l-89 -506h-114l89 506h-139l17 94h139l39 220h114l-39 -220h140z" />
    <glyph glyph-name="daggerdbl" unicode="&#x2021;" horiz-adv-x="494" 
d="M471 406h-140l-33 -188h140l-16 -94h-140l-40 -224h-114l40 224h-139l16 94h139l33 188h-139l17 94h139l39 220h114l-39 -220h140z" />
    <glyph glyph-name="bullet" unicode="&#x2022;" horiz-adv-x="378" 
d="M204 212q-56 0 -92.5 35.5t-36.5 91.5q0 57 36.5 93t92.5 36q57 0 93.5 -35.5t36.5 -93.5q0 -56 -36.5 -91.5t-93.5 -35.5z" />
    <glyph glyph-name="ellipsis" unicode="&#x2026;" horiz-adv-x="850" 
d="M212 160l-28 -160h-171l29 160h170zM494 160l-28 -160h-171l29 160h170zM776 160l-28 -160h-171l29 160h170z" />
    <glyph glyph-name="perthousand" unicode="&#x2030;" horiz-adv-x="1351" 
d="M130 -14l598 737h104l-596 -737h-106zM244 337q-77 0 -131 39t-54 125q0 39 12.5 75.5t37 69t67.5 52.5t99 20q77 0 131 -39t54 -125q0 -39 -12.5 -75.5t-37 -69t-67.5 -52.5t-99 -20zM245 428q51 0 75 38.5t24 84.5q0 76 -70 76q-51 0 -75 -38.5t-24 -84.5q0 -76 70 -76
zM686 -17q-77 0 -131 39t-54 125q0 39 12.5 75.5t37 69t67.5 52.5t99 20q77 0 131 -39t54 -125q0 -39 -12.5 -75.5t-37 -69t-67.5 -52.5t-99 -20zM1111 -17q-77 0 -131 39t-54 125q0 39 12.5 75.5t37 69t67.5 52.5t99 20q77 0 131 -39t54 -125q0 -39 -12.5 -75.5t-37 -69
t-67.5 -52.5t-99 -20zM687 74q51 0 75 38.5t24 84.5q0 76 -70 76q-51 0 -75 -38.5t-24 -84.5q0 -76 70 -76zM1112 74q51 0 75 38.5t24 84.5q0 76 -70 76q-51 0 -75 -38.5t-24 -84.5q0 -76 70 -76z" />
    <glyph glyph-name="guilsinglleft" unicode="&#x2039;" horiz-adv-x="346" 
d="M147 67l-125 209l202 206h146l-209 -212l125 -203h-139z" />
    <glyph glyph-name="guilsinglright" unicode="&#x203a;" horiz-adv-x="346" 
d="M208 482l125 -209l-202 -206h-146l209 212l-125 203h139z" />
    <glyph glyph-name="fraction" unicode="&#x2044;" horiz-adv-x="211" 
d="M-217 -17l575 744h106l-573 -744h-108z" />
    <glyph glyph-name="uni20A9" unicode="&#x20a9;" horiz-adv-x="920" 
d="M977 695l-96 -238h60l-11 -59h-73l-31 -79h91l-11 -59h-104l-105 -260h-173l-3 260h-119l-95 -260h-173l-13 260h-104l10 59h91l-3 79h-74l11 59h60l-12 238h137v-238h131l90 238h150l7 -238h131l83 238h148zM483 483l-9 -26h45v26q0 60 7 127h-4q-18 -74 -39 -127z
M238 398v-79h78l30 79h-108zM423 319h98l-1 79h-68zM697 319l28 79h-109l3 -79h78zM271 199l23 61h-56v-59q0 -44 -6 -112h3q9 37 36 110zM656 201l21 59h-57l2 -61q1 -67 -2 -110h3q14 59 33 112z" />
    <glyph glyph-name="Euro" unicode="&#x20ac;" horiz-adv-x="681" 
d="M365 111q34 0 59.5 9t42.5 25.5t25.5 29.5t18.5 32l142 -41q-15 -28 -28 -47.5t-39.5 -47t-55.5 -44.5t-74 -29.5t-99 -12.5q-38 0 -73.5 6t-74.5 24t-69 46.5t-52 77.5t-27 113h-55l12 67h41q1 30 6 60h-36l11 66h40q33 116 120 190.5t232 74.5q43 0 82.5 -7t83 -24.5
t74.5 -54t40 -88.5l-155 -42q-23 91 -124 91q-136 0 -187 -140h248l-11 -66h-253q-4 -21 -6 -60h248l-12 -67h-233q19 -141 138 -141z" />
    <glyph glyph-name="uni20B9" unicode="&#x20b9;" horiz-adv-x="648" 
d="M627 600h-183q35 -40 39 -99h127l-11 -63h-118q-12 -71 -66.5 -121.5t-168.5 -60.5l165 -256h-174l-173 271l12 73h80q136 0 157 94h-220l11 63h213q-9 99 -109 99h-87l17 95h506z" />
    <glyph glyph-name="uni20BA" unicode="&#x20ba;" horiz-adv-x="583" 
d="M448 245l133 -22q-26 -94 -104 -158.5t-208 -64.5h-223l46 260l-75 -21l12 68l75 21l13 78l-74 -21l12 69l74 21l39 220h161l-31 -174l213 59l-12 -68l-213 -59l-14 -78l213 59l-12 -69l-213 -59l-33 -187h43q76 0 119.5 35t58.5 91z" />
    <glyph glyph-name="uni20BD" unicode="&#x20bd;" horiz-adv-x="651" 
d="M376 259h-105l-13 -74h129l-11 -63h-129l-21 -122h-162l22 122h-84l11 63h84l13 74h-83l19 107h83l58 329h240q38 0 71.5 -4.5t67.5 -18t58 -34.5t39 -56.5t15 -82.5q0 -46 -15 -86.5t-48 -76t-94.5 -56.5t-144.5 -21zM327 580l-37 -214h70q75 0 107.5 36t32.5 87
q0 91 -100 91h-73z" />
    <glyph glyph-name="uni2105" unicode="&#x2105;" horiz-adv-x="875" 
d="M54 -13l670 748h122l-670 -748h-122zM237 351q-33 0 -62 7.5t-57.5 25.5t-45.5 53.5t-17 84.5q0 38 10.5 73t33 67.5t64.5 52t99 19.5q71 0 119 -31.5t54 -96.5l-115 -30q-1 64 -59 64q-43 0 -62.5 -35t-19.5 -80q0 -79 61 -79q54 0 68 67l106 -31q-14 -60 -59 -95.5
t-118 -35.5zM651 -10q-32 0 -60.5 7t-57.5 24.5t-46 52.5t-17 85q0 87 53.5 150.5t158.5 63.5q31 0 59.5 -7t57.5 -24.5t46 -52.5t17 -85q0 -88 -53 -151t-158 -63zM654 83q42 0 62.5 40.5t20.5 87.5q0 69 -58 69q-42 0 -63 -41t-21 -87q0 -69 59 -69z" />
    <glyph glyph-name="uni2113" unicode="&#x2113;" horiz-adv-x="557" 
d="M595 571q0 -227 -317 -362q-5 -55 16.5 -77t78.5 -22q38 0 70 7l-20 -117q-48 -14 -115 -14q-106 0 -154 40.5t-46 123.5q-9 -3 -79 -21l-16 112q61 17 114 33l42 239q19 111 83 166.5t165 55.5q87 0 132.5 -41t45.5 -123zM338 560l-38 -216q71 39 104.5 90.5t33.5 127.5
q0 35 -8.5 50.5t-29.5 15.5q-50 0 -62 -68z" />
    <glyph glyph-name="uni2116" unicode="&#x2116;" horiz-adv-x="1284" 
d="M30 0l125 710h185l154 -406q21 -53 30 -91h3q1 7 6.5 38.5t9.5 51.5l72 407h154l-125 -710h-177l-162 410q-23 57 -30 87h-3l-16 -94l-71 -403h-155zM1009 174q-44 0 -82.5 10.5t-72.5 33.5t-54 65.5t-20 99.5q0 49 15.5 96.5t46 88.5t84 66.5t122.5 25.5
q44 0 82.5 -10.5t72.5 -33.5t54 -65.5t20 -99.5q0 -49 -15 -96t-45.5 -88.5t-84.5 -67t-123 -25.5zM1010 284q45 0 74 28.5t39 63.5t10 72q0 102 -86 102q-44 0 -73 -28t-39.5 -63t-10.5 -72q0 -103 86 -103zM713 0l18 105h488l-19 -105h-487z" />
    <glyph glyph-name="trademark" unicode="&#x2122;" horiz-adv-x="903" 
d="M137 304l57 324h-123l15 82h350l-15 -82h-128l-58 -324h-98zM407 304l72 406h138l30 -243q3 -30 -1 -63h3q7 32 22 63l115 243h141l-72 -406h-89l42 238q9 49 18 88h-2q-9 -28 -31 -74l-120 -252h-83l-31 252q-5 57 -5 74h-2q-3 -26 -14 -88l-42 -238h-89z" />
    <glyph glyph-name="uni2126" unicode="&#x2126;" horiz-adv-x="754" 
d="M632 0h-250l30 270q73 13 112.5 65.5t39.5 130.5q0 60 -33.5 95t-92.5 35q-80 0 -132 -55t-52 -142q0 -111 95 -129l-65 -270h-250l23 130h139l15 56q-56 22 -86 74t-30 125q0 150 104 245t262 95q122 0 193 -65.5t71 -174.5q0 -105 -54.5 -185t-149.5 -114l-5 -56h139z
" />
    <glyph glyph-name="estimated" unicode="&#x212e;" horiz-adv-x="726" 
d="M332 -15q-127 0 -208.5 73.5t-81.5 218.5q0 104 35 189t94 138.5t132 82t152 28.5q148 0 220 -90t46 -239l-7 -40h-480l-41 -237q54 -48 153 -48q82 0 144.5 29.5t120.5 95.5l47 -43q-128 -158 -326 -158zM246 413h302l33 188q-48 46 -143 46q-88 0 -159 -50z" />
    <glyph glyph-name="uni2153" unicode="&#x2153;" horiz-adv-x="863" 
d="M57 -17l575 744h106l-573 -744h-108zM121 319l47 257q-16 -15 -59 -15h-30l15 90h18q71 0 95 59h81l-69 -391h-98zM650 -9q-66 0 -114.5 30t-51.5 98l102 10q7 -59 61 -59q56 0 56 47q0 46 -64 46h-17l12 70h29q59 0 59 49q0 40 -49 40q-56 0 -61 -65l-96 16
q5 60 47 93.5t115 33.5q24 0 47 -4t48 -14t40 -31.5t15 -51.5q0 -41 -28 -68t-72 -33q79 -18 79 -86q0 -49 -39.5 -85t-117.5 -36z" />
    <glyph glyph-name="uni2154" unicode="&#x2154;" horiz-adv-x="958" 
d="M152 -17l575 744h106l-573 -744h-108zM39 319l13 74q119 55 177 98t58 99q0 48 -47 48q-32 0 -46 -23.5t-6 -57.5l-100 10q-7 72 35.5 112t123.5 40q62 0 105 -26.5t43 -88.5q0 -116 -192 -204h157l-14 -81h-307zM745 -9q-66 0 -114.5 30t-51.5 98l102 10q7 -59 61 -59
q56 0 56 47q0 46 -64 46h-17l12 70h29q59 0 59 49q0 40 -49 40q-56 0 -61 -65l-96 16q5 60 47 93.5t115 33.5q24 0 47 -4t48 -14t40 -31.5t15 -51.5q0 -41 -28 -68t-72 -33q79 -18 79 -86q0 -49 -39.5 -85t-117.5 -36z" />
    <glyph glyph-name="oneeighth" unicode="&#x215b;" horiz-adv-x="879" 
d="M632 727h106l-573 -744h-108zM168 576q-16 -15 -59 -15h-30l15 90h18q71 0 95 59h81l-69 -391h-98zM762 215q67 -31 67 -97q0 -56 -45.5 -91.5t-126.5 -35.5q-75 0 -123 30t-48 84q0 76 97 93q-52 32 -52 85q0 49 39 83t116 34q65 0 110.5 -25.5t45.5 -75.5
q0 -65 -80 -84zM685 331q-55 0 -55 -43q0 -33 51 -47l28 -8q34 15 34 49q0 49 -58 49zM661 65q34 0 49 14.5t15 34.5q0 36 -49 51l-41 13q-44 -18 -44 -60q0 -53 70 -53z" />
    <glyph glyph-name="threeeighths" unicode="&#x215c;" horiz-adv-x="983" 
d="M736 727h106l-573 -744h-108zM378 431q0 -49 -39.5 -85t-117.5 -36q-66 0 -114.5 30t-51.5 98l102 10q7 -59 61 -59q56 0 56 47q0 46 -64 46h-17l12 70h29q59 0 59 49q0 40 -49 40q-56 0 -61 -65l-96 16q5 60 47 93.5t115 33.5q24 0 47 -4t48 -14t40 -31.5t15 -51.5
q0 -41 -28 -68t-72 -33q79 -18 79 -86zM866 215q67 -31 67 -97q0 -56 -45.5 -91.5t-126.5 -35.5q-75 0 -123 30t-48 84q0 76 97 93q-52 32 -52 85q0 49 39 83t116 34q65 0 110.5 -25.5t45.5 -75.5q0 -65 -80 -84zM789 331q-55 0 -55 -43q0 -33 51 -47l28 -8q34 15 34 49
q0 49 -58 49zM765 65q34 0 49 14.5t15 34.5q0 36 -49 51l-41 13q-44 -18 -44 -60q0 -53 70 -53z" />
    <glyph glyph-name="fiveeighths" unicode="&#x215d;" horiz-adv-x="980" 
d="M733 727h106l-573 -744h-108zM381 471q0 -65 -41 -113t-126 -48q-57 0 -102.5 25t-53.5 85l101 16q9 -46 56 -46q64 0 64 68q0 57 -52 57q-44 0 -60 -41l-89 8l66 228h257l-13 -81h-188l-25 -76q26 36 86 36q46 0 83 -26.5t37 -91.5zM863 215q67 -31 67 -97
q0 -56 -45.5 -91.5t-126.5 -35.5q-75 0 -123 30t-48 84q0 76 97 93q-52 32 -52 85q0 49 39 83t116 34q65 0 110.5 -25.5t45.5 -75.5q0 -65 -80 -84zM786 331q-55 0 -55 -43q0 -33 51 -47l28 -8q34 15 34 49q0 49 -58 49zM762 65q34 0 49 14.5t15 34.5q0 36 -49 51l-41 13
q-44 -18 -44 -60q0 -53 70 -53z" />
    <glyph glyph-name="seveneighths" unicode="&#x215e;" horiz-adv-x="882" 
d="M635 727h106l-573 -744h-108zM193 339l-2 -20h-110l2 10q13 80 62.5 159.5t130.5 135.5h-192l15 86h293l-13 -76q-161 -117 -186 -295zM765 215q67 -31 67 -97q0 -56 -45.5 -91.5t-126.5 -35.5q-75 0 -123 30t-48 84q0 76 97 93q-52 32 -52 85q0 49 39 83t116 34
q65 0 110.5 -25.5t45.5 -75.5q0 -65 -80 -84zM688 331q-55 0 -55 -43q0 -33 51 -47l28 -8q34 15 34 49q0 49 -58 49zM664 65q34 0 49 14.5t15 34.5q0 36 -49 51l-41 13q-44 -18 -44 -60q0 -53 70 -53z" />
    <glyph glyph-name="arrowleft" unicode="&#x2190;" horiz-adv-x="1025" 
d="M957 289h-679l-19 -106l-171 147l223 147l-19 -106h680z" />
    <glyph glyph-name="arrowup" unicode="&#x2191;" horiz-adv-x="443" 
d="M127 -35l104 589h-104l182 196l113 -196h-103l-104 -589h-88z" />
    <glyph glyph-name="arrowright" unicode="&#x2192;" horiz-adv-x="1025" 
d="M96 371h679l19 106l171 -147l-223 -147l19 106h-680z" />
    <glyph glyph-name="arrowdown" unicode="&#x2193;" horiz-adv-x="443" 
d="M353 745l-104 -589h104l-182 -196l-113 196h103l104 589h88z" />
    <glyph glyph-name="arrowboth" unicode="&#x2194;" horiz-adv-x="1025" 
d="M761 289h-483l-19 -106l-171 147l223 147l-19 -106h484l19 106l169 -147l-222 -147z" />
    <glyph glyph-name="arrowupdn" unicode="&#x2195;" horiz-adv-x="444" 
d="M58 156h104l70 398h-104l182 196l113 -196h-104l-70 -398h104l-182 -196z" />
    <glyph glyph-name="uni2196" unicode="&#x2196;" horiz-adv-x="877" 
d="M222 555l-111 -98l44 253h240l-102 -93l473 -575l-70 -63z" />
    <glyph glyph-name="uni2197" unicode="&#x2197;" horiz-adv-x="731" 
d="M582 556l-474 -576l-70 63l473 575l-102 93h240l44 -253z" />
    <glyph glyph-name="uni2198" unicode="&#x2198;" horiz-adv-x="877" 
d="M694 166l111 98l-44 -253h-240l102 93l-473 575l70 63z" />
    <glyph glyph-name="uni2199" unicode="&#x2199;" horiz-adv-x="730" 
d="M188 166l474 576l70 -63l-473 -575l102 -93h-240l-44 253z" />
    <glyph glyph-name="uni21A9" unicode="&#x21a9;" horiz-adv-x="961" 
d="M259 183l-171 147l223 147l-19 -106h382q74 0 118.5 38t44.5 107q0 48 -31.5 73.5t-88.5 25.5h-223l14 82h234q90 0 140 -42.5t50 -122.5q0 -112 -72 -177.5t-190 -65.5h-392z" />
    <glyph glyph-name="uni21AA" unicode="&#x21aa;" horiz-adv-x="961" 
d="M679 183l18 106h-392q-90 0 -140 44t-50 124q0 112 71.5 176t189.5 64h234l-14 -82h-223q-75 0 -119 -37.5t-44 -106.5q0 -48 31.5 -74t88.5 -26h382l19 106l170 -147z" />
    <glyph glyph-name="uni21B0" unicode="&#x21b0;" horiz-adv-x="811" 
d="M605 0l99 559h-379l-19 -106l-170 147l222 147l-19 -106h467l-113 -641h-88z" />
    <glyph glyph-name="uni21B1" unicode="&#x21b1;" horiz-adv-x="811" 
d="M118 0h-88l113 641h467l19 106l170 -147l-222 -147l18 106h-378z" />
    <glyph glyph-name="uni21B2" unicode="&#x21b2;" horiz-adv-x="811" 
d="M730 710h88l-113 -641h-466l-19 -106l-171 147l223 147l-19 -106h379z" />
    <glyph glyph-name="uni21B3" unicode="&#x21b3;" horiz-adv-x="811" 
d="M243 710l-98 -559h379l19 106l169 -147l-221 -147l18 106h-467l113 641h88z" />
    <glyph glyph-name="uni21B4" unicode="&#x21b4;" horiz-adv-x="895" 
d="M803 723l-98 -557h102l-182 -196l-112 196h104l83 475h-557l15 82h645z" />
    <glyph glyph-name="uni21BB" unicode="&#x21bb;" horiz-adv-x="1009" 
d="M663 384h105q12 117 -57.5 188.5t-185.5 71.5q-139 0 -240.5 -95t-101.5 -242q0 -110 66.5 -177t173.5 -67q132 0 241 98l45 -67q-138 -118 -301 -118q-138 0 -228.5 88t-90.5 230q0 125 65 226.5t168 156t219 54.5q152 0 242.5 -96.5t72.5 -250.5h102l-182 -196z" />
    <glyph glyph-name="uni21C4" unicode="&#x21c4;" horiz-adv-x="1058" 
d="M928 405h-630l-19 -106l-170 147l222 147l-19 -106h631zM788 254l18 107l171 -148l-223 -147l19 106h-629l14 82h630z" />
    <glyph glyph-name="uni21C5" unicode="&#x21c5;" horiz-adv-x="686" 
d="M379 16l95 538h-104l182 196l113 -196h-103l-95 -538h-88zM171 -40l-113 196h104l95 545h88l-96 -545h104z" />
    <glyph glyph-name="partialdiff" unicode="&#x2202;" horiz-adv-x="660" 
d="M377 721q259 0 259 -301q0 -193 -98.5 -315t-268.5 -122q-109 0 -169.5 53.5t-60.5 151.5q0 117 79.5 194.5t202.5 77.5q103 0 158 -55v7q0 88 -28.5 132t-106.5 44q-63 0 -132 -33l-38 116q96 50 203 50zM300 99q62 0 104.5 50.5t61.5 135.5q-39 62 -121 62
q-64 0 -103 -40.5t-39 -102.5q0 -49 25 -77t72 -28z" />
    <glyph glyph-name="emptyset" unicode="&#x2205;" horiz-adv-x="545" 
d="M561 519l-73 -66q36 -52 36 -128q0 -106 -64.5 -182t-186.5 -76q-96 0 -158 46l-74 -67l-38 43l72 66q-35 49 -35 126q0 106 64.5 182t186.5 76q95 0 157 -46l76 70zM164 288q0 -24 8 -45l182 165q-27 17 -66 17q-61 0 -92.5 -41.5t-31.5 -95.5zM400 318q0 26 -9 47
l-182 -166q29 -18 67 -18q61 0 92.5 41.5t31.5 95.5z" />
    <glyph glyph-name="uni2206" unicode="&#x2206;" horiz-adv-x="670" 
d="M-35 0l364 710h176l111 -710h-651zM387 548l-212 -429h268z" />
    <glyph glyph-name="product" unicode="&#x220f;" horiz-adv-x="674" 
d="M392 -88l117 662h-229l-117 -662h-151l140 793h530l-140 -793h-150z" />
    <glyph glyph-name="summation" unicode="&#x2211;" horiz-adv-x="717" 
d="M51 -88l23 126l297 289l-189 253l22 125h470l-21 -122h-298l187 -256l-302 -293h328l-22 -122h-495z" />
    <glyph glyph-name="minus" unicode="&#x2212;" horiz-adv-x="562" 
d="M48 275l19 107h475l-20 -107h-474z" />
    <glyph glyph-name="radical" unicode="&#x221a;" horiz-adv-x="555" 
d="M17 363h164l29 -285l293 656h139l-389 -828h-146l-47 337h-64z" />
    <glyph glyph-name="infinity" unicode="&#x221e;" horiz-adv-x="626" 
d="M489 491q57 0 91 -37t34 -100q0 -29 -8.5 -59t-26.5 -60.5t-53 -50t-82 -19.5q-93 0 -132 80q-66 -80 -148 -80q-57 0 -90.5 37t-33.5 99q0 41 15 82t56 74.5t100 33.5q91 0 130 -80q65 80 148 80zM191 260q25 0 44.5 16t43.5 50q-12 35 -26 52.5t-40 17.5q-29 0 -49 -22
t-20 -59q0 -55 47 -55zM440 260q30 0 49.5 22.5t19.5 58.5q0 55 -47 55q-25 0 -44.5 -16t-44.5 -50q11 -34 26 -52t41 -18z" />
    <glyph glyph-name="integral" unicode="&#x222b;" horiz-adv-x="516" 
d="M47 -115q-25 0 -62 5l20 112q1 0 19.5 -1.5t27.5 -1.5q47 0 70.5 24t33.5 79l73 408q17 97 80.5 151t168.5 54q37 0 70 -5l-20 -114q-20 4 -49 4q-45 0 -69.5 -25t-33.5 -78l-72 -410q-17 -97 -82.5 -149.5t-174.5 -52.5z" />
    <glyph glyph-name="approxequal" unicode="&#x2248;" horiz-adv-x="669" 
d="M506 345q-42 0 -116 31.5t-106 31.5q-72 0 -131 -47l20 112q23 19 60.5 31.5t70.5 12.5q49 0 119 -31.5t103 -31.5q74 0 129 46l-20 -112q-22 -19 -58.5 -31t-70.5 -12zM473 151q-41 0 -116 31.5t-107 31.5q-73 0 -131 -46l20 112q24 19 61 31t70 12q49 0 119.5 -31.5
t102.5 -31.5q33 0 69 13.5t60 33.5l-20 -112q-21 -19 -57.5 -31.5t-70.5 -12.5z" />
    <glyph glyph-name="notequal" unicode="&#x2260;" horiz-adv-x="673" 
d="M594 372h-177l-49 -86h212l-20 -106h-252l-66 -117h-82l66 117h-140l19 106h181l49 86h-215l19 106h256l64 113h82l-64 -113h137z" />
    <glyph glyph-name="lessequal" unicode="&#x2264;" horiz-adv-x="675" 
d="M553 134l-438 198l20 110l507 198l-21 -126l-360 -133l313 -133zM74 103h470l-18 -103h-470z" />
    <glyph glyph-name="greaterequal" unicode="&#x2265;" horiz-adv-x="675" 
d="M170 640l438 -198l-20 -110l-507 -198l21 126l360 133l-313 133zM77 103h470l-18 -103h-470z" />
    <glyph glyph-name="uni2460" unicode="&#x2460;" horiz-adv-x="819" 
d="M414 -18q-52 0 -102 11t-98 37t-84.5 64t-58.5 96.5t-22 130.5q0 56 12.5 110.5t42 109t73 95.5t112.5 66.5t153 25.5q52 0 102 -11t98.5 -37t84.5 -64t58.5 -96.5t22.5 -130.5q0 -55 -12.5 -110t-42 -109t-73.5 -95.5t-113 -67t-153 -25.5zM411 41q87 0 153.5 33.5
t103 87t54 110.5t17.5 115q0 70 -26 125.5t-68.5 89t-93.5 50.5t-106 17q-87 0 -154 -33.5t-103.5 -87t-54 -110.5t-17.5 -115q0 -136 88.5 -209t206.5 -73zM360 159l47 257q-16 -15 -59 -15h-30l15 90h18q71 0 95 59h81l-69 -391h-98z" />
    <glyph glyph-name="uni2461" unicode="&#x2461;" horiz-adv-x="819" 
d="M414 -18q-52 0 -102 11t-98 37t-84.5 64t-58.5 96.5t-22 130.5q0 56 12.5 110.5t42 109t73 95.5t112.5 66.5t153 25.5q52 0 102 -11t98.5 -37t84.5 -64t58.5 -96.5t22.5 -130.5q0 -55 -12.5 -110t-42 -109t-73.5 -95.5t-113 -67t-153 -25.5zM411 41q87 0 153.5 33.5
t103 87t54 110.5t17.5 115q0 70 -26 125.5t-68.5 89t-93.5 50.5t-106 17q-87 0 -154 -33.5t-103.5 -87t-54 -110.5t-17.5 -115q0 -136 88.5 -209t206.5 -73zM248 169l13 74q119 55 177 98t58 99q0 48 -47 48q-32 0 -46 -23.5t-6 -57.5l-100 10q-7 72 35.5 112t123.5 40
q62 0 105 -26.5t43 -88.5q0 -116 -192 -204h157l-14 -81h-307z" />
    <glyph glyph-name="uni2462" unicode="&#x2462;" horiz-adv-x="819" 
d="M414 -18q-52 0 -102 11t-98 37t-84.5 64t-58.5 96.5t-22 130.5q0 56 12.5 110.5t42 109t73 95.5t112.5 66.5t153 25.5q52 0 102 -11t98.5 -37t84.5 -64t58.5 -96.5t22.5 -130.5q0 -55 -12.5 -110t-42 -109t-73.5 -95.5t-113 -67t-153 -25.5zM411 41q87 0 153.5 33.5
t103 87t54 110.5t17.5 115q0 70 -26 125.5t-68.5 89t-93.5 50.5t-106 17q-87 0 -154 -33.5t-103.5 -87t-54 -110.5t-17.5 -115q0 -136 88.5 -209t206.5 -73zM418 150q-66 0 -114.5 30t-51.5 98l102 10q7 -59 61 -59q56 0 56 47q0 46 -64 46h-17l12 70h29q59 0 59 49
q0 40 -49 40q-56 0 -61 -65l-96 16q5 60 47 93.5t115 33.5q24 0 47 -4t48 -14t40 -31.5t15 -51.5q0 -41 -28 -68t-72 -33q79 -18 79 -86q0 -49 -39.5 -85t-117.5 -36z" />
    <glyph glyph-name="uni2463" unicode="&#x2463;" horiz-adv-x="819" 
d="M414 -18q-52 0 -102 11t-98 37t-84.5 64t-58.5 96.5t-22 130.5q0 56 12.5 110.5t42 109t73 95.5t112.5 66.5t153 25.5q52 0 102 -11t98.5 -37t84.5 -64t58.5 -96.5t22.5 -130.5q0 -55 -12.5 -110t-42 -109t-73.5 -95.5t-113 -67t-153 -25.5zM411 41q87 0 153.5 33.5
t103 87t54 110.5t17.5 115q0 70 -26 125.5t-68.5 89t-93.5 50.5t-106 17q-87 0 -154 -33.5t-103.5 -87t-54 -110.5t-17.5 -115q0 -136 88.5 -209t206.5 -73zM570 245h-62l-15 -83h-98l15 83h-186l11 67l223 241h104l-43 -235h62zM460 471l-133 -153h98z" />
    <glyph glyph-name="uni2464" unicode="&#x2464;" horiz-adv-x="819" 
d="M414 -18q-52 0 -102 11t-98 37t-84.5 64t-58.5 96.5t-22 130.5q0 56 12.5 110.5t42 109t73 95.5t112.5 66.5t153 25.5q52 0 102 -11t98.5 -37t84.5 -64t58.5 -96.5t22.5 -130.5q0 -55 -12.5 -110t-42 -109t-73.5 -95.5t-113 -67t-153 -25.5zM411 41q87 0 153.5 33.5
t103 87t54 110.5t17.5 115q0 70 -26 125.5t-68.5 89t-93.5 50.5t-106 17q-87 0 -154 -33.5t-103.5 -87t-54 -110.5t-17.5 -115q0 -136 88.5 -209t206.5 -73zM407 155q-57 0 -102.5 25t-53.5 85l101 16q9 -46 56 -46q64 0 64 68q0 57 -52 57q-44 0 -60 -41l-89 8l66 228h257
l-13 -81h-188l-25 -76q26 36 86 36q46 0 83 -26.5t37 -91.5t-41 -113t-126 -48z" />
    <glyph glyph-name="uni2465" unicode="&#x2465;" horiz-adv-x="819" 
d="M442 728q52 0 102 -11t98.5 -37t84.5 -64t58.5 -96.5t22.5 -130.5q0 -55 -12.5 -110t-42 -109t-73.5 -95.5t-113 -67t-153 -25.5q-52 0 -102 11t-98 37t-84.5 64t-58.5 96.5t-22 130.5q0 56 12.5 110.5t42 109t73 95.5t112.5 66.5t153 25.5zM411 41q87 0 153.5 33.5
t103 87t54 110.5t17.5 115q0 70 -26 125.5t-68.5 89t-93.5 50.5t-106 17q-87 0 -154 -33.5t-103.5 -87t-54 -110.5t-17.5 -115q0 -136 88.5 -209t206.5 -73zM443 481q-64 0 -84 -91q33 33 89 33q50 0 87 -30.5t37 -94.5q0 -62 -43 -105t-118 -43q-67 0 -111.5 39.5
t-44.5 132.5q0 33 5.5 64t19.5 63t35 56t55.5 39t77.5 15q57 0 97 -24.5t48 -76.5l-95 -17q-12 40 -55 40zM419 349q-43 0 -67 -34q0 -88 58 -88q35 0 49 21t14 48q0 28 -16 40.5t-38 12.5z" />
    <glyph glyph-name="uni2466" unicode="&#x2466;" horiz-adv-x="819" 
d="M414 -18q-52 0 -102 11t-98 37t-84.5 64t-58.5 96.5t-22 130.5q0 56 12.5 110.5t42 109t73 95.5t112.5 66.5t153 25.5q52 0 102 -11t98.5 -37t84.5 -64t58.5 -96.5t22.5 -130.5q0 -55 -12.5 -110t-42 -109t-73.5 -95.5t-113 -67t-153 -25.5zM411 41q87 0 153.5 33.5
t103 87t54 110.5t17.5 115q0 70 -26 125.5t-68.5 89t-93.5 50.5t-106 17q-87 0 -154 -33.5t-103.5 -87t-54 -110.5t-17.5 -115q0 -136 88.5 -209t206.5 -73zM295 159l2 10q13 80 62.5 159.5t130.5 135.5h-192l15 86h293l-13 -76q-161 -117 -186 -295l-2 -20h-110z" />
    <glyph glyph-name="uni2467" unicode="&#x2467;" horiz-adv-x="819" 
d="M442 728q52 0 102 -11t98.5 -37t84.5 -64t58.5 -96.5t22.5 -130.5q0 -55 -12.5 -110t-42 -109t-73.5 -95.5t-113 -67t-153 -25.5q-52 0 -102 11t-98 37t-84.5 64t-58.5 96.5t-22 130.5q0 56 12.5 110.5t42 109t73 95.5t112.5 66.5t153 25.5zM411 41q87 0 153.5 33.5
t103 87t54 110.5t17.5 115q0 70 -26 125.5t-68.5 89t-93.5 50.5t-106 17q-87 0 -154 -33.5t-103.5 -87t-54 -110.5t-17.5 -115q0 -136 88.5 -209t206.5 -73zM604 458q0 -65 -80 -84q67 -31 67 -97q0 -56 -45.5 -91.5t-126.5 -35.5q-75 0 -123 30t-48 84q0 76 97 93
q-52 32 -52 85q0 49 39 83t116 34q65 0 110.5 -25.5t45.5 -75.5zM447 490q-55 0 -55 -43q0 -33 51 -47l28 -8q34 15 34 49q0 49 -58 49zM423 224q34 0 49 14.5t15 34.5q0 36 -49 51l-41 13q-44 -18 -44 -60q0 -53 70 -53z" />
    <glyph glyph-name="uni2468" unicode="&#x2468;" horiz-adv-x="819" 
d="M442 728q52 0 102 -11t98.5 -37t84.5 -64t58.5 -96.5t22.5 -130.5q0 -55 -12.5 -110t-42 -109t-73.5 -95.5t-113 -67t-153 -25.5q-52 0 -102 11t-98 37t-84.5 64t-58.5 96.5t-22 130.5q0 56 12.5 110.5t42 109t73 95.5t112.5 66.5t153 25.5zM411 41q87 0 153.5 33.5
t103 87t54 110.5t17.5 115q0 70 -26 125.5t-68.5 89t-93.5 50.5t-106 17q-87 0 -154 -33.5t-103.5 -87t-54 -110.5t-17.5 -115q0 -136 88.5 -209t206.5 -73zM441 559q69 0 115 -41t46 -137q0 -28 -3 -54.5t-15 -60t-31.5 -58t-55.5 -41.5t-84 -17q-59 0 -101 26t-50 79
l96 17q9 -45 60 -45q65 0 82 97q-28 -25 -77 -25q-56 0 -97.5 32.5t-41.5 89.5q0 55 38.5 96.5t118.5 41.5zM382 425q0 -52 60 -52q41 0 65 29q-1 82 -63 82q-34 0 -48 -18t-14 -41z" />
    <glyph glyph-name="uni24EA" unicode="&#x24ea;" horiz-adv-x="819" 
d="M414 -18q-52 0 -102 11t-98 37t-84.5 64t-58.5 96.5t-22 130.5q0 56 12.5 110.5t42 109t73 95.5t112.5 66.5t153 25.5q52 0 102 -11t98.5 -37t84.5 -64t58.5 -96.5t22.5 -130.5q0 -55 -12.5 -110t-42 -109t-73.5 -95.5t-113 -67t-153 -25.5zM411 41q87 0 153.5 33.5
t103 87t54 110.5t17.5 115q0 70 -26 125.5t-68.5 89t-93.5 50.5t-106 17q-87 0 -154 -33.5t-103.5 -87t-54 -110.5t-17.5 -115q0 -136 88.5 -209t206.5 -73zM410 150q-70 0 -118 39.5t-48 130.5q0 30 5 60.5t19.5 63.5t36 57.5t58 41t83.5 16.5q71 0 118 -39.5t47 -131.5
q0 -39 -9 -76.5t-29.5 -76t-62.5 -62t-100 -23.5zM410 229q29 0 50 17t31 44t14 53.5t4 53.5q0 83 -63 83q-29 0 -50 -17t-31 -44.5t-14 -53.5t-4 -54q0 -82 63 -82z" />
    <glyph glyph-name="uni24FF" unicode="&#x24ff;" horiz-adv-x="805" 
d="M392 -18q-70 0 -131 20.5t-109 60.5t-75.5 105t-27.5 147q0 73 20 141.5t63 131.5t123 101.5t188 38.5q67 0 127 -19t111.5 -57t82 -104.5t30.5 -152.5q0 -59 -12.5 -115t-43 -111t-75.5 -96t-115 -66t-156 -25zM405 151q58 0 99.5 23.5t62.5 62t30 76t9 76.5
q0 92 -48 131.5t-118 39.5q-47 0 -84 -16.5t-58.5 -41t-35.5 -58t-19 -63.5t-5 -60q0 -92 48 -131t119 -39zM404 231q-62 0 -62 81q0 38 6.5 72.5t30 65t61.5 30.5q61 0 61 -82q0 -27 -4 -53t-14 -53t-30 -44t-49 -17z" />
    <glyph glyph-name="lozenge" unicode="&#x25ca;" horiz-adv-x="715" 
d="M373 -17h-127l-130 372l261 372h127l133 -372zM419 605l-170 -250l82 -250l174 250z" />
    <glyph glyph-name="circle" unicode="&#x25cb;" horiz-adv-x="819" 
d="M414 -18q-52 0 -102 11t-98 37t-84.5 64t-58.5 96.5t-22 130.5q0 56 12.5 110.5t42 109t73 95.5t112.5 66.5t153 25.5q52 0 102 -11t98.5 -37t84.5 -64t58.5 -96.5t22.5 -130.5q0 -55 -12.5 -110t-42 -109t-73.5 -95.5t-113 -67t-153 -25.5zM411 41q87 0 153.5 33.5
t103 87t54 110.5t17.5 115q0 70 -26 125.5t-68.5 89t-93.5 50.5t-106 17q-87 0 -154 -33.5t-103.5 -87t-54 -110.5t-17.5 -115q0 -136 88.5 -209t206.5 -73z" />
    <glyph glyph-name="uni2776" unicode="&#x2776;" horiz-adv-x="805" 
d="M392 -18q-70 0 -131 20.5t-109 60.5t-75.5 105t-27.5 147q0 73 20 141.5t63 131.5t123 101.5t188 38.5q67 0 127 -19t111.5 -57t82 -104.5t30.5 -152.5q0 -59 -12.5 -115t-43 -111t-75.5 -96t-115 -66t-156 -25zM360 159h100l68 392h-82q-24 -59 -95 -59h-18l-16 -92h30
q43 0 59 15z" />
    <glyph glyph-name="uni2777" unicode="&#x2777;" horiz-adv-x="805" 
d="M392 -18q-70 0 -131 20.5t-109 60.5t-75.5 105t-27.5 147q0 73 20 141.5t63 131.5t123 101.5t188 38.5q67 0 127 -19t111.5 -57t82 -104.5t30.5 -152.5q0 -59 -12.5 -115t-43 -111t-75.5 -96t-115 -66t-156 -25zM243 169h309l14 83h-155q190 86 190 202q0 33 -13 56.5
t-35.5 35.5t-47 17.5t-53.5 5.5q-81 0 -124 -40t-36 -112l102 -10q-8 34 5.5 57.5t45.5 23.5q46 0 46 -48q0 -56 -58 -98.5t-177 -96.5z" />
    <glyph glyph-name="uni2778" unicode="&#x2778;" horiz-adv-x="805" 
d="M392 -18q-70 0 -131 20.5t-109 60.5t-75.5 105t-27.5 147q0 73 20 141.5t63 131.5t123 101.5t188 38.5q67 0 127 -19t111.5 -57t82 -104.5t30.5 -152.5q0 -59 -12.5 -115t-43 -111t-75.5 -96t-115 -66t-156 -25zM418 151q79 0 118.5 36t39.5 85q0 67 -80 85q44 6 72 33.5
t28 68.5q0 40 -28 64t-58.5 30.5t-63.5 6.5q-74 0 -116 -34t-47 -94l98 -15q5 64 60 64q48 0 48 -40q0 -47 -58 -47h-30l-12 -72h17q63 0 63 -45q0 -47 -54 -47q-52 0 -60 59l-104 -11q3 -68 51.5 -97.5t115.5 -29.5z" />
    <glyph glyph-name="uni2779" unicode="&#x2779;" horiz-adv-x="805" 
d="M392 -18q-70 0 -131 20.5t-109 60.5t-75.5 105t-27.5 147q0 73 20 141.5t63 131.5t123 101.5t188 38.5q67 0 127 -19t111.5 -57t82 -104.5t30.5 -152.5q0 -59 -12.5 -115t-43 -111t-75.5 -96t-115 -66t-156 -25zM394 162h100l15 82h61l13 75h-62l43 234h-107l-222 -241
l-12 -68h186zM328 319l131 151l-34 -151h-97z" />
    <glyph glyph-name="uni277A" unicode="&#x277a;" horiz-adv-x="805" 
d="M392 -18q-70 0 -131 20.5t-109 60.5t-75.5 105t-27.5 147q0 73 20 141.5t63 131.5t123 101.5t188 38.5q67 0 127 -19t111.5 -57t82 -104.5t30.5 -152.5q0 -59 -12.5 -115t-43 -111t-75.5 -96t-115 -66t-156 -25zM407 155q86 0 127 48t41 114q0 65 -37 91t-83 26
q-61 0 -86 -35l25 74h188l13 82h-258l-66 -228l90 -8q16 40 59 40q51 0 51 -56q0 -67 -63 -67q-46 0 -55 46l-102 -17q8 -60 53.5 -85t102.5 -25z" />
    <glyph glyph-name="uni277B" unicode="&#x277b;" horiz-adv-x="805" 
d="M392 -18q-70 0 -131 20.5t-109 60.5t-75.5 105t-27.5 147q0 73 20 141.5t63 131.5t123 101.5t188 38.5q67 0 127 -19t111.5 -57t82 -104.5t30.5 -152.5q0 -59 -12.5 -115t-43 -111t-75.5 -96t-115 -66t-156 -25zM405 151q75 0 118 42.5t43 105.5q0 65 -36.5 95t-86.5 30
q-53 0 -88 -32q19 88 82 89q43 0 53 -40l98 17q-8 52 -48.5 77t-97.5 25q-54 0 -93.5 -22t-60.5 -58.5t-30.5 -75.5t-9.5 -81q0 -93 45 -132.5t112 -39.5zM404 229q-56 0 -57 86q23 33 66 33q22 0 37.5 -12.5t15.5 -39.5q0 -26 -13.5 -46.5t-48.5 -20.5z" />
    <glyph glyph-name="uni277C" unicode="&#x277c;" horiz-adv-x="805" 
d="M392 -18q-70 0 -131 20.5t-109 60.5t-75.5 105t-27.5 147q0 73 20 141.5t63 131.5t123 101.5t188 38.5q67 0 127 -19t111.5 -57t82 -104.5t30.5 -152.5q0 -59 -12.5 -115t-43 -111t-75.5 -96t-115 -66t-156 -25zM298 159h112l2 20q25 178 185 294l14 78h-295l-15 -87h191
q-81 -56 -130.5 -135t-62.5 -160z" />
    <glyph glyph-name="uni277D" unicode="&#x277d;" horiz-adv-x="805" 
d="M392 -18q-70 0 -131 20.5t-109 60.5t-75.5 105t-27.5 147q0 73 20 141.5t63 131.5t123 101.5t188 38.5q67 0 127 -19t111.5 -57t82 -104.5t30.5 -152.5q0 -59 -12.5 -115t-43 -111t-75.5 -96t-115 -66t-156 -25zM415 151q82 0 127.5 35.5t45.5 91.5q0 64 -65 97
q78 19 78 83q0 51 -46 76.5t-111 25.5q-77 0 -116.5 -34t-39.5 -83q0 -55 51 -84q-96 -19 -96 -94q0 -54 48.5 -84t123.5 -30zM466 394l-26 7q-51 16 -51 46q0 42 54 42q58 0 58 -47q0 -34 -35 -48zM419 226q-69 0 -69 53q0 41 44 58l39 -13q49 -14 49 -50q0 -48 -63 -48z
" />
    <glyph glyph-name="uni277E" unicode="&#x277e;" horiz-adv-x="805" 
d="M392 -18q-70 0 -131 20.5t-109 60.5t-75.5 105t-27.5 147q0 73 20 141.5t63 131.5t123 101.5t188 38.5q67 0 127 -19t111.5 -57t82 -104.5t30.5 -152.5q0 -59 -12.5 -115t-43 -111t-75.5 -96t-115 -66t-156 -25zM411 151q48 0 84 17t55.5 41t31.5 58t15 60.5t3 54.5
q0 96 -45.5 137t-115.5 41q-81 0 -119.5 -41.5t-38.5 -96.5q0 -58 42 -90.5t98 -32.5q48 0 76 26q-18 -96 -81 -96q-49 0 -59 43l-98 -17q9 -52 51 -78t101 -26zM440 375q-59 0 -59 51q0 22 14 39.5t46 17.5q62 0 62 -80q-25 -28 -63 -28z" />
    <glyph glyph-name="uniE000" unicode="&#xe000;" horiz-adv-x="902" 
d="M267 723h645l-16 -82h-556l-90 -475h103l-183 -196l-110 196h102z" />
    <glyph glyph-name="i.loclTRK" horiz-adv-x="298" 
d="M124 572l26 146h167l-26 -146h-167zM23 0l92 500h159l-92 -500h-159z" />
    <glyph glyph-name="dollar.tf" 
d="M413 413q164 -47 164 -197q0 -45 -14 -84.5t-44 -73.5t-84.5 -53.5t-128.5 -19.5h-4l-16 -92h-65l17 97q-90 13 -148 59.5t-70 126.5l146 45q7 -93 93 -113l34 195l-13 3q-174 46 -174 202q0 85 61.5 143t197.5 59l16 90h65l-17 -94q172 -24 194 -185l-141 -37
q-4 82 -73 105l-30 -167zM248 518q0 -31 17.5 -48.5t52.5 -29.5l27 157q-97 -4 -97 -79zM323 102q105 5 105 94q0 37 -18 57.5t-55 32.5z" />
    <glyph glyph-name="cent.tf" 
d="M322 93q79 7 99 103l127 -28q-20 -82 -82 -131t-162 -49l-16 -89h-59l17 94q-81 13 -134.5 65.5t-53.5 156.5q0 52 15 101.5t46.5 94t87.5 72t130 29.5l15 82h59l-15 -85q77 -10 125.5 -53.5t53.5 -123.5l-134 -23q-3 82 -63 99zM196 226q0 -103 68 -127l56 313
q-65 -9 -94.5 -63t-29.5 -123z" />
    <glyph glyph-name="sterling.tf" 
d="M354 111q21 0 36.5 7.5t24.5 21.5t13 26.5t8 30.5l140 -23q-6 -34 -20 -65t-38 -60t-64 -46.5t-90 -17.5q-33 0 -88.5 13t-98.5 13q-68 0 -163 -19l-16 92q78 22 116.5 75t38.5 155v5h-86l13 76h73v35q0 280 246 280q91 0 152.5 -42t66.5 -137l-150 -33q-2 51 -21 73
t-56 22q-31 0 -50.5 -13.5t-27.5 -40t-10.5 -49t-2.5 -58.5v-37h137l-13 -76h-124q-4 -155 -124 -203q42 9 67 9q27 0 62 -7t49 -7z" />
    <glyph glyph-name="florin.tf" 
d="M539 710q36 0 74 -10l-21 -120q-27 8 -51 8q-47 0 -68.5 -25t-36.5 -74l-19 -61h106l-19 -106h-120l-146 -472h-162l147 472h-103l19 106h116l15 47q14 47 25.5 75.5t32.5 62.5t47 52.5t68 31.5t96 13z" />
    <glyph glyph-name="yen.tf" 
d="M668 695l-251 -367h137l-12 -70h-152l-11 -61h152l-12 -70h-152l-23 -127h-158l22 127h-151l12 70h152l10 61h-151l12 70h138l-122 367h168l52 -219q7 -28 7 -60h2q16 41 28 60l129 219h174z" />
    <glyph glyph-name="Euro.tf" 
d="M343 105q23 0 41.5 9t30 23.5t19.5 30t15 31.5q2 5 3 8l132 -41q-14 -36 -30.5 -63t-44.5 -56.5t-72 -45.5t-100 -16q-43 0 -81 11t-77 38t-65 83t-31 135h-67l11 67h56q0 27 5 60h-50l12 66h51q30 117 105 191t199 74q37 0 71.5 -7t71.5 -24.5t62.5 -54t32.5 -88.5
l-146 -42q-11 58 -37 77.5t-60 19.5q-104 0 -143 -146h197l-12 -66h-198q-5 -35 -5 -60h192l-11 -67h-181q11 -147 104 -147z" />
    <glyph glyph-name="perthousand.tf" 
d="M211 420q-51 0 -88.5 29t-37.5 100q0 25 6.5 51t21.5 54t44.5 46t70.5 18q51 0 88.5 -29t37.5 -100q0 -25 -6.5 -51t-21.5 -54t-44.5 -46t-70.5 -18zM230 647q-28 0 -42 -37t-14 -73q0 -46 35 -46q29 0 42.5 37t13.5 73q0 46 -35 46zM60 300l558 251l-13 -74l-559 -252z
M461 285q51 0 88.5 -28.5t37.5 -99.5q0 -25 -6.5 -51.5t-21.5 -54.5t-44.5 -45.5t-70.5 -17.5q-54 0 -85 32q-34 -32 -83 -32q-23 0 -43.5 5.5t-40.5 19t-31.5 40t-11.5 64.5q0 25 6.5 51t21.5 54t44.5 45.5t70.5 17.5q55 0 86 -31q34 31 83 31zM274 59q28 0 41.5 37
t13.5 73q0 45 -35 45q-28 0 -41.5 -36.5t-13.5 -72.5q0 -46 35 -46zM442 59q29 0 42.5 37t13.5 73q0 45 -36 45q-27 0 -41 -37t-14 -72q0 -46 35 -46z" />
    <glyph glyph-name="zero.zero" horiz-adv-x="684" 
d="M392 710q53 0 99 -14t87.5 -46t65.5 -93.5t24 -147.5q0 -55 -9 -109.5t-33.5 -112.5t-61.5 -102t-98.5 -72t-139.5 -28q-53 0 -99 14t-87.5 46t-65.5 93.5t-24 147.5q0 55 9 109.5t33.5 112.5t61.5 102t98.5 72t139.5 28zM392 585q-50 0 -86.5 -31.5t-55 -82t-27 -100.5
t-8.5 -99q0 -6 0.5 -18t0.5 -17l267 293q-27 55 -91 55zM326 110q50 0 86.5 31.5t55 82t27 100.5t8.5 99q0 22 -1 32l-266 -292q27 -53 90 -53z" />
    <glyph glyph-name="zero.tf" 
d="M287 -15q-47 0 -87 13t-78 44t-59.5 91.5t-21.5 145.5q0 55 8.5 110t31.5 114.5t58 104t94 73.5t134 29q47 0 87 -13t78 -44t59.5 -91.5t21.5 -145.5q0 -55 -8.5 -110t-31.5 -114.5t-58 -104t-94 -73.5t-134 -29zM293 104q45 0 78.5 34t50.5 88t25 106.5t8 103.5
q0 155 -94 155q-45 0 -78.5 -34t-50.5 -88t-25 -106.5t-8 -103.5q0 -155 94 -155z" />
    <glyph glyph-name="one.tf" 
d="M385 129h167l-23 -129h-500l23 129h174l62 351q-56 -41 -150 -41h-32l26 145h25q73 0 119 27t80 84h129z" />
    <glyph glyph-name="two.tf" 
d="M9 0l21 118q194 110 269 170q126 98 126 205q0 90 -79 90q-49 0 -71 -34t-22 -81q0 -16 1 -26l-154 13q-1 10 -1 34q3 42 18 79.5t43.5 70.5t77 52t111.5 19q45 0 84.5 -10t75.5 -31.5t56.5 -62.5t20.5 -98q0 -85 -43.5 -147.5t-126.5 -126.5q-69 -53 -165 -106h280
l-23 -128h-499z" />
    <glyph glyph-name="three.tf" 
d="M307 -15q-50 0 -93.5 11t-83.5 35t-64 70.5t-25 109.5l152 15q6 -117 108 -117q55 0 79 29t24 70q0 90 -111 90h-33l20 110h48q113 0 113 98q0 82 -90 82q-103 0 -112 -122l-143 21q10 105 77 164t187 59q39 0 75.5 -7t76 -24.5t63.5 -54.5t24 -90q0 -74 -46 -123
t-119 -60q56 -11 91 -48t35 -105q0 -87 -63 -150t-190 -63z" />
    <glyph glyph-name="four.tf" 
d="M301 0l27 153h-316l19 109l364 433h177l-75 -424h97l-20 -118h-98l-27 -153h-148zM166 271h182l36 198q9 55 19 91h-1q-26 -45 -53 -78l-134 -160q-26 -32 -49 -51z" />
    <glyph glyph-name="five.tf" 
d="M291 -15q-43 0 -82.5 9t-77 30t-62.5 60.5t-31 93.5l152 25q6 -47 35 -69.5t69 -22.5q64 0 91 41t27 98q0 110 -93 110q-79 0 -109 -83l-133 14l114 404h414l-22 -128h-311l-49 -166q22 37 61.5 56.5t86.5 19.5q34 0 66.5 -9.5t63.5 -31.5t49.5 -64.5t18.5 -101.5
q0 -51 -14.5 -99t-45.5 -91t-87 -69t-131 -26z" />
    <glyph glyph-name="six.tf" 
d="M371 469q84 0 144.5 -53t60.5 -168q0 -110 -70 -186.5t-190 -76.5q-52 0 -96 14.5t-82.5 47t-60.5 94t-22 147.5q0 80 17 151t53 134t101 100t152 37q93 0 156.5 -43.5t73.5 -138.5l-154 -24q-11 85 -87 85q-121 0 -148 -199q54 79 152 79zM316 107q38 0 62 22t32.5 51
t8.5 64q0 56 -27 82t-70 26q-71 0 -111 -69q-5 -89 23.5 -132.5t81.5 -43.5z" />
    <glyph glyph-name="seven.tf" 
d="M117 0l2 18q20 151 109 296t231 247h-343l24 134h503l-22 -124q-284 -211 -324 -537l-4 -34h-176z" />
    <glyph glyph-name="eight.tf" 
d="M475 376q104 -54 104 -169q0 -99 -74 -160.5t-208 -61.5q-120 0 -198 50t-78 145q0 64 39 110.5t121 65.5q-82 53 -82 151q0 87 65 145t190 58q67 0 121.5 -16.5t92.5 -58t38 -103.5q0 -119 -131 -156zM352 601q-54 0 -75 -26.5t-21 -61.5q0 -38 22.5 -59t61.5 -33
l36 -11q72 31 72 100q0 91 -96 91zM304 103q57 0 83 29t26 69q0 38 -21.5 62t-65.5 39l-48 15q-88 -31 -88 -116q0 -53 33 -75.5t81 -22.5z" />
    <glyph glyph-name="nine.tf" 
d="M338 710q52 0 95 -14t82 -46.5t61.5 -96t22.5 -153.5q0 -49 -6 -96.5t-26.5 -107.5t-53.5 -104.5t-93.5 -75.5t-140.5 -31q-45 0 -83.5 9.5t-73 30t-57 58t-28.5 88.5l154 24q9 -89 96 -89q118 0 144 204q-30 -32 -60 -47.5t-72 -15.5q-54 0 -102.5 22t-83.5 73.5
t-35 124.5q0 43 13.5 83.5t42 77.5t81.5 59.5t123 22.5zM332 364q75 0 113 68q12 160 -103 160q-58 0 -83 -36.5t-25 -84.5q0 -52 26 -79.5t72 -27.5z" />
    <glyph glyph-name="gcommaaccent.ss01" horiz-adv-x="616" 
d="M427 768l18 -51q-29 -7 -41.5 -17t-16.5 -30h66l-18 -102h-133l16 89q15 93 109 111zM228 -207q-217 0 -227 176h155q8 -74 83 -74q48 0 72 25.5t32 72.5l17 97q-45 -89 -146 -89q-33 0 -64 11t-58.5 34t-44 66.5t-16.5 101.5q0 48 13.5 97.5t41.5 95.5t78 75.5t114 29.5
q114 0 150 -86l26 74h138l-88 -493q-18 -104 -79 -159t-197 -55zM278 105q84 0 107 114l8 44q14 73 -9.5 105.5t-66.5 32.5t-71 -33t-37.5 -72t-9.5 -80q0 -111 79 -111z" />
    <glyph glyph-name="gdotaccent.ss01" horiz-adv-x="616" 
d="M289 572l26 146h167l-26 -146h-167zM228 -207q-217 0 -227 176h155q8 -74 83 -74q48 0 72 25.5t32 72.5l17 97q-45 -89 -146 -89q-33 0 -64 11t-58.5 34t-44 66.5t-16.5 101.5q0 48 13.5 97.5t41.5 95.5t78 75.5t114 29.5q114 0 150 -86l26 74h138l-88 -493
q-18 -104 -79 -159t-197 -55zM278 105q84 0 107 114l8 44q14 73 -9.5 105.5t-66.5 32.5t-71 -33t-37.5 -72t-9.5 -80q0 -111 79 -111z" />
    <glyph glyph-name="Iacute_J.loclNLD" horiz-adv-x="737" 
d="M187 753l96 118h137l-113 -118h-120zM620 753l96 118h137l-113 -118h-120zM199 0h-169l125 710h169zM664 191q-37 -205 -247 -205q-77 0 -127 16l25 135q42 -9 76 -9q94 0 113 100l84 482h168z" />
    <glyph glyph-name="iacute_j.loclNLD" horiz-adv-x="603" 
d="M146 567l110 156h142l-129 -156h-123zM452 567l110 156h142l-129 -156h-123zM23 0l92 500h159l-92 -500h-159zM276 -202q-56 0 -90 12l20 114q22 -7 49 -7q34 0 49.5 16.5t22.5 54.5l93 512h159l-94 -523q-15 -86 -62 -132.5t-147 -46.5z" />
    <glyph glyph-name="g.ss01" horiz-adv-x="616" 
d="M228 -207q-217 0 -227 176h155q8 -74 83 -74q48 0 72 25.5t32 72.5l17 97q-45 -89 -146 -89q-33 0 -64 11t-58.5 34t-44 66.5t-16.5 101.5q0 48 13.5 97.5t41.5 95.5t78 75.5t114 29.5q114 0 150 -86l26 74h138l-88 -493q-18 -104 -79 -159t-197 -55zM278 105
q84 0 107 114l8 44q14 73 -9.5 105.5t-66.5 32.5t-71 -33t-37.5 -72t-9.5 -80q0 -111 79 -111z" />
    <glyph glyph-name="gbreve.ss01" horiz-adv-x="616" 
d="M325 723q-6 -81 66 -81q70 0 80 81h101q-15 -90 -63.5 -125.5t-122.5 -35.5q-82 0 -126 39t-35 122h100zM228 -207q-217 0 -227 176h155q8 -74 83 -74q48 0 72 25.5t32 72.5l17 97q-45 -89 -146 -89q-33 0 -64 11t-58.5 34t-44 66.5t-16.5 101.5q0 48 13.5 97.5
t41.5 95.5t78 75.5t114 29.5q114 0 150 -86l26 74h138l-88 -493q-18 -104 -79 -159t-197 -55zM278 105q84 0 107 114l8 44q14 73 -9.5 105.5t-66.5 32.5t-71 -33t-37.5 -72t-9.5 -80q0 -111 79 -111z" />
    <glyph glyph-name="gcircumflex.ss01" horiz-adv-x="616" 
d="M558 567h-112l-51 105l-88 -105h-121l134 156h159zM228 -207q-217 0 -227 176h155q8 -74 83 -74q48 0 72 25.5t32 72.5l17 97q-45 -89 -146 -89q-33 0 -64 11t-58.5 34t-44 66.5t-16.5 101.5q0 48 13.5 97.5t41.5 95.5t78 75.5t114 29.5q114 0 150 -86l26 74h138
l-88 -493q-18 -104 -79 -159t-197 -55zM278 105q84 0 107 114l8 44q14 73 -9.5 105.5t-66.5 32.5t-71 -33t-37.5 -72t-9.5 -80q0 -111 79 -111z" />
    <glyph glyph-name="g.sups.ss01" horiz-adv-x="500" 
d="M236 159q-33 0 -59.5 4.5t-55.5 17t-46.5 40t-19.5 69.5h131q6 -51 59 -51q57 0 68 58l14 72q-34 -54 -108 -54q-58 0 -99.5 35t-41.5 117q0 34 10 69t30 69.5t58 56.5t87 22q87 0 113 -67l17 58h122l-64 -358q-13 -79 -60 -118.5t-155 -39.5zM273 397q34 0 50.5 22.5
t20.5 51.5l6 38q15 86 -48 86q-42 0 -62 -40.5t-20 -87.5q0 -70 53 -70z" />
    <glyph glyph-name="a.sups" horiz-adv-x="463" 
d="M190 301q-56 0 -90 26.5t-34 74.5q0 113 181 125l91 6l2 17q6 51 -46 51q-49 0 -56 -48h-133q6 56 51.5 93.5t142.5 37.5q99 0 143 -42.5t30 -122.5l-20 -115q-10 -59 -8 -94h-132q-1 22 5 57q-30 -66 -127 -66zM255 383q27 0 47 14.5t24 43.5l6 33l-46 -3
q-79 -4 -79 -52q0 -36 48 -36z" />
    <glyph glyph-name="b.sups" horiz-adv-x="492" 
d="M317 301q-41 0 -71.5 15.5t-41.5 45.5l-14 -52h-127l93 529h139l-38 -208q37 53 109 53q53 0 94 -35t41 -118q0 -37 -9.5 -74t-29 -73.5t-57.5 -59.5t-88 -23zM278 390q28 0 47.5 23.5t26.5 52t7 57.5q0 72 -54 72q-27 0 -46.5 -21.5t-25.5 -52.5l-7 -35
q-7 -37 5.5 -66.5t46.5 -29.5z" />
    <glyph glyph-name="c.sups" horiz-adv-x="448" 
d="M274 301q-27 0 -52.5 4.5t-52 16t-46 30t-32 49t-12.5 70.5q0 30 6.5 58.5t22.5 57t40.5 49.5t64 34.5t88.5 13.5q76 0 128 -31.5t58 -96.5l-131 -29q-1 60 -56 60q-43 0 -62 -34t-19 -79q0 -75 58 -75q52 0 66 63l122 -30q-15 -60 -63.5 -95.5t-127.5 -35.5z" />
    <glyph glyph-name="d.sups" horiz-adv-x="492" 
d="M210 301q-54 0 -93.5 36.5t-39.5 118.5q0 54 16 103t59 87t106 38q86 0 110 -57l38 212h138l-94 -529h-130l10 60q-39 -69 -120 -69zM273 390q54 0 71 81l6 37q8 45 -6.5 66t-42.5 21q-42 0 -62 -40.5t-20 -89.5q0 -75 54 -75z" />
    <glyph glyph-name="e.sups" horiz-adv-x="451" 
d="M476 532q0 -35 -10 -68h-261q11 -70 80 -70q46 0 76 48l90 -45q-54 -96 -177 -96q-35 0 -66.5 7.5t-62 25t-48.5 52.5t-18 84q0 86 53 150t163 64q78 0 129.5 -36.5t51.5 -115.5zM349 534q3 6 3 21q0 25 -16.5 38.5t-44.5 13.5q-69 0 -83 -73h141z" />
    <glyph glyph-name="f.sups" horiz-adv-x="327" 
d="M390 675l-15 -87h-86l-50 -278h-136l50 278h-58l16 87h57l5 27q11 66 49 104t105 38q50 0 91 -14l-17 -91q-18 6 -42 6q-43 0 -51 -44l-4 -26h86z" />
    <glyph glyph-name="g.sups" horiz-adv-x="463" 
d="M497 739q23 0 43 -6l-15 -86q-19 8 -49 8q-24 0 -38 -6q38 -28 38 -78q0 -52 -43.5 -92t-147.5 -40q-57 0 -97 13q-11 -8 -11 -20q0 -23 44 -24l94 -3q74 -2 110 -22.5t36 -81.5q0 -142 -246 -142q-183 0 -183 81q0 55 84 68q-50 20 -50 67q0 65 93 89q-54 29 -54 87
q0 53 43.5 93t147.5 40q62 0 101 -14q25 69 100 69zM287 503q30 0 44 19t14 46q0 52 -51 52q-29 0 -43 -19t-14 -46q0 -52 50 -52zM201 295q-27 0 -54 5q-14 -12 -14 -28q0 -45 102 -45q107 0 107 40q0 14 -10.5 19t-34.5 6z" />
    <glyph glyph-name="h.sups" horiz-adv-x="472" 
d="M63 310l94 529h137l-38 -221q45 67 122 67q45 0 76.5 -25t31.5 -88q0 -27 -6 -57l-36 -205h-137l37 211q2 16 2 17q0 46 -43 46q-54 0 -67 -74l-35 -200h-138z" />
    <glyph glyph-name="i.sups" horiz-adv-x="253" 
d="M152 719l21 121h141l-22 -121h-140zM78 310l69 365h135l-68 -365h-136z" />
    <glyph glyph-name="j.sups" horiz-adv-x="278" 
d="M161 719l21 121h140l-21 -121h-140zM49 163q-46 0 -73 9l16 93q16 -6 37 -6q28 0 40 13.5t18 42.5l67 360h136l-67 -369q-13 -67 -51.5 -105t-122.5 -38z" />
    <glyph glyph-name="k.sups" horiz-adv-x="470" 
d="M529 675l-163 -149l100 -216h-137l-62 145l-48 -43l-18 -102h-138l93 529h138l-50 -286l136 122h149z" />
    <glyph glyph-name="l.sups" horiz-adv-x="242" 
d="M294 839l-94 -529h-137l93 529h138z" />
    <glyph glyph-name="m.sups" horiz-adv-x="698" 
d="M71 310l64 365h132l-11 -66q38 75 119 75q40 0 70.5 -19t37.5 -57q44 76 123 76q17 0 33 -4t33.5 -14.5t28 -34t10.5 -58.5q0 -23 -4 -47l-37 -216h-137l35 197q3 17 3 29q0 46 -38 46q-46 0 -60 -79l-34 -193h-137l36 198q2 11 2 29q0 45 -38 45q-27 0 -40 -21.5
t-19 -58.5l-34 -192h-138z" />
    <glyph glyph-name="n.sups" horiz-adv-x="479" 
d="M71 310l64 365h131l-10 -63q24 35 52 53.5t73 18.5q111 0 111 -114q0 -25 -4 -50l-37 -210h-137l34 196q3 15 3 29q0 47 -44 47q-32 0 -46.5 -22.5t-20.5 -62.5l-32 -187h-137z" />
    <glyph glyph-name="o.sups" horiz-adv-x="482" 
d="M268 301q-26 0 -50 4t-50 15.5t-45 29.5t-31.5 48.5t-12.5 70.5q0 41 12.5 78t38 68.5t69.5 50t101 18.5q26 0 50 -4t50 -15.5t45 -29.5t31.5 -48.5t12.5 -70.5q0 -41 -12.5 -78t-38 -68.5t-69.5 -50t-101 -18.5zM271 391q41 0 61.5 42t20.5 89q0 72 -56 72
q-41 0 -62.5 -42t-21.5 -89q0 -72 58 -72z" />
    <glyph glyph-name="p.sups" horiz-adv-x="500" 
d="M46 168l90 507h131l-10 -55q31 64 121 64q21 0 41.5 -7t41.5 -23t34 -48t13 -76q0 -36 -9 -73.5t-28.5 -73.5t-57 -59t-87.5 -23q-90 0 -110 54l-33 -187h-137zM285 390q41 0 61.5 42.5t20.5 90.5q0 72 -53 72q-28 0 -48 -21.5t-26 -53.5l-7 -35q-7 -36 6 -65.5t46 -29.5
z" />
    <glyph glyph-name="q.sups" horiz-adv-x="499" 
d="M288 168l35 196q-11 -27 -42 -45t-72 -18q-53 0 -92 36.5t-39 119.5q0 39 9.5 77t29.5 72.5t57 56t86 21.5q43 0 73 -17t41 -46l17 54h124l-90 -507h-137zM273 390q56 0 71 81l7 37q8 45 -7 66t-43 21q-42 0 -61.5 -40.5t-19.5 -89.5q0 -75 53 -75z" />
    <glyph glyph-name="r.sups" horiz-adv-x="338" 
d="M244 565q12 47 44 83t85 36q15 0 27 -4l-21 -131q-16 6 -45 6q-40 0 -60 -15q-30 -21 -39 -80l-27 -150h-137l64 365h129z" />
    <glyph glyph-name="s.sups" horiz-adv-x="411" 
d="M245 301q-124 0 -187 73l71 72q18 -23 53 -37.5t70 -14.5q50 0 50 28q0 11 -9 17t-33 10l-31 5q-120 22 -120 102q0 56 40 92t127 36q110 0 171 -60l-61 -69q-32 41 -109 41q-47 0 -47 -25q0 -16 36 -26l42 -9q61 -13 86.5 -36t25.5 -68q0 -56 -40 -93.5t-135 -37.5z" />
    <glyph glyph-name="t.sups" horiz-adv-x="328" 
d="M67 589l14 86h64l14 85l146 51l-24 -136h89l-15 -86h-89l-22 -122q-10 -55 48 -55q19 0 31 3l-17 -104q-39 -9 -77 -8q-24 0 -42 3.5t-37.5 13.5t-29 27.5t-15.5 46t3 69.5l21 126h-62z" />
    <glyph glyph-name="u.sups" horiz-adv-x="475" 
d="M182 301q-110 0 -110 111q0 23 5 53l37 210h137l-34 -196q-3 -15 -3 -28q0 -48 43 -48q30 0 42.5 20.5t20.5 64.5l33 187h138l-65 -365h-132l12 65q-37 -74 -124 -74z" />
    <glyph glyph-name="v.sups" horiz-adv-x="446" 
d="M158 310l-66 365h136l19 -207q1 -11 1 -49h2q5 21 17 49l92 207h145l-194 -365h-152z" />
    <glyph glyph-name="w.sups" horiz-adv-x="639" 
d="M141 310l-35 365h126l4 -210q0 -20 -1 -31h2q3 19 10 31l90 210h109l16 -210q0 -20 -1 -31h1q4 16 11 31l79 210h130l-163 -365h-127l-19 192q-2 13 0 30l-1 1q-4 -14 -10 -27l-89 -196h-132z" />
    <glyph glyph-name="x.sups" horiz-adv-x="472" 
d="M32 310l173 193l-100 172h143l30 -60q8 -15 12 -39h1q6 14 26 39l48 60h147l-159 -172l109 -193h-144l-37 71q-10 16 -13 39h-1q-11 -20 -29 -40l-60 -70h-146z" />
    <glyph glyph-name="y.sups" horiz-adv-x="446" 
d="M107 162q-45 0 -82 13l17 94q26 -11 60 -11q43 0 62 40l6 13l-78 364h144l19 -209q2 -36 1 -46h3q3 17 15 46l90 209h140l-199 -385q-22 -43 -45.5 -70t-50.5 -39t-48.5 -15.5t-53.5 -3.5z" />
    <glyph glyph-name="z.sups" horiz-adv-x="390" 
d="M59 385l211 198h-165l15 92h322l-12 -73l-206 -198h180l-16 -94h-342z" />
    <glyph glyph-name="g_g.liga.ss01" horiz-adv-x="1232" 
d="M228 -207q-217 0 -227 176h155q8 -74 83 -74q48 0 72 25.5t32 72.5l17 97q-45 -89 -146 -89q-33 0 -64 11t-58.5 34t-44 66.5t-16.5 101.5q0 48 13.5 97.5t41.5 95.5t78 75.5t114 29.5q114 0 150 -86l26 74h138l-88 -493q-18 -104 -79 -159t-197 -55zM844 -207
q-217 0 -227 176h155q8 -74 83 -74q48 0 72 25.5t32 72.5l17 97q-45 -89 -146 -89q-33 0 -64 11t-58.5 34t-44 66.5t-16.5 101.5q0 48 13.5 97.5t41.5 95.5t78 75.5t114 29.5q114 0 150 -86l26 74h138l-88 -493q-18 -104 -79 -159t-197 -55zM278 105q84 0 107 114l8 44
q14 73 -9.5 105.5t-66.5 32.5t-71 -33t-37.5 -72t-9.5 -80q0 -111 79 -111zM894 105q84 0 107 114l8 44q14 73 -9.5 105.5t-66.5 32.5t-71 -33t-37.5 -72t-9.5 -80q0 -111 79 -111z" />
    <glyph glyph-name="zero.case" horiz-adv-x="684" 
d="M326 -15q-53 0 -98.5 14t-87 46.5t-65.5 95.5t-24 151q0 56 9.5 112t34 115.5t62 104.5t99 74t139.5 29q53 0 99 -14.5t87 -47t65 -95.5t24 -150q0 -56 -9.5 -112t-34 -115.5t-62 -104.5t-99 -74t-139.5 -29zM327 110q50 0 86.5 32.5t55.5 84t27.5 103.5t8.5 103
q0 169 -111 169q-50 0 -86.5 -32.5t-55.5 -84.5t-27.5 -104t-8.5 -103q0 -168 111 -168z" />
    <glyph glyph-name="one.case" horiz-adv-x="430" 
d="M127 0l86 491q-33 -39 -109 -39h-47l26 144h32q120 0 167 114h131l-125 -710h-161z" />
    <glyph glyph-name="two.case" horiz-adv-x="591" 
d="M-12 0l22 118q195 104 289 175q125 96 125 207q0 100 -88 100q-53 0 -77 -34.5t-24 -86.5q0 -25 3 -42l-161 16q-4 18 -4 40q0 42 13.5 80.5t43.5 74.5t86.5 57.5t133.5 21.5q49 0 90.5 -9.5t79 -31.5t59 -64.5t21.5 -100.5q0 -87 -44.5 -154t-125.5 -130
q-62 -46 -180 -109h286l-23 -128h-525z" />
    <glyph glyph-name="three.case" horiz-adv-x="607" 
d="M294 -15q-52 0 -97.5 11t-87.5 35.5t-67 71.5t-26 112l165 16q6 -122 108 -122q55 0 79 30t24 73q0 94 -111 94h-32l20 111h48q60 0 87 28.5t27 73.5q0 46 -26 66t-64 20q-104 0 -113 -127l-156 21q12 107 82.5 167.5t195.5 60.5q32 0 62.5 -4t66 -16t61.5 -31
t43.5 -52.5t17.5 -76.5q0 -76 -50 -126t-128 -61q138 -26 138 -157q0 -89 -67 -153.5t-200 -64.5z" />
    <glyph glyph-name="four.case" horiz-adv-x="601" 
d="M577 157h-104l-28 -157h-159l28 157h-320l20 109l389 444h167l-77 -435h104zM387 501q4 17 8.5 41t7.5 37h-2q-21 -37 -50 -72l-139 -169q-35 -42 -56 -63h185z" />
    <glyph glyph-name="five.case" horiz-adv-x="601" 
d="M279 -15q-45 0 -85.5 9.5t-79 30.5t-64 61t-31.5 95l161 25q13 -95 102 -95q65 0 93.5 43t28.5 101q0 56 -25 85.5t-72 29.5q-79 0 -112 -87l-140 14l115 413h437l-23 -128h-325l-50 -174q23 38 65.5 58.5t90.5 20.5q36 0 68.5 -10t64 -32t50.5 -65.5t19 -103.5
q0 -53 -15 -102t-47 -92.5t-90 -70t-136 -26.5z" />
    <glyph glyph-name="six.case" horiz-adv-x="625" 
d="M380 480q39 0 74.5 -11.5t67 -36t50.5 -70.5t19 -108q0 -112 -74.5 -190.5t-202.5 -78.5q-52 0 -96 15t-83 48t-61.5 96t-22.5 151q0 64 10.5 123.5t36 116.5t63 99t96 67.5t130.5 25.5q44 0 82.5 -9.5t72.5 -30t56.5 -58t28.5 -89.5l-154 -24q-14 90 -98 90
q-66 -1 -106.5 -60.5t-55.5 -150.5q65 85 167 85zM312 107q64 0 93 42.5t29 100.5t-29.5 85.5t-73.5 27.5q-83 0 -127 -81q2 -175 108 -175z" />
    <glyph glyph-name="seven.case" horiz-adv-x="528" 
d="M70 0l2 19q19 153 109 302t234 255h-339l24 134h499l-23 -124q-288 -219 -326 -551l-4 -35h-176z" />
    <glyph glyph-name="eight.case" horiz-adv-x="629" 
d="M483 384q111 -55 111 -173q0 -100 -77 -163t-216 -63q-125 0 -205 51t-80 148q0 66 41 114t126 67q-88 53 -88 154q0 89 68 148.5t198 59.5q109 0 185 -45t76 -137q0 -122 -139 -161zM358 618q-59 0 -82.5 -28t-23.5 -65q0 -40 24.5 -61.5t68.5 -33.5l38 -12
q81 31 81 105q0 95 -106 95zM308 103q63 0 91.5 30t28.5 72q0 76 -97 105l-50 16q-96 -32 -96 -121q0 -55 35 -78.5t88 -23.5z" />
    <glyph glyph-name="nine.case" horiz-adv-x="632" 
d="M347 727q42 0 78.5 -8t72.5 -30t61.5 -56.5t41 -92t15.5 -131.5q0 -50 -6 -98.5t-27 -110t-54.5 -107t-95.5 -77t-144 -31.5q-99 0 -170.5 45.5t-82.5 144.5l154 24q4 -35 23 -57t40 -29t45 -7q68 0 106 61t52 155q-71 -68 -148 -68q-57 0 -108.5 22.5t-88 75
t-36.5 126.5q0 44 14.5 85.5t44.5 79.5t85 61t128 23zM340 371q78 0 124 71q-1 93 -31.5 130t-83.5 37q-62 0 -90 -38.5t-28 -88.5q0 -55 28.5 -83t80.5 -28z" />
    <glyph glyph-name="one.ss02.case" horiz-adv-x="559" 
d="M356 129h166l-23 -129h-499l23 129h174l64 366q-56 -41 -150 -41h-31l25 145h26q72 0 118 27t81 84h129z" />
    <glyph glyph-name="zero.tf.case" 
d="M287 -15q-47 0 -87 13.5t-77.5 45t-59 93t-21.5 148.5q0 57 8.5 113t32 117t58.5 106.5t94.5 75.5t134.5 30q47 0 87 -13.5t77.5 -45t59 -93.5t21.5 -149q0 -57 -8.5 -113t-32 -116.5t-58.5 -106.5t-94.5 -75.5t-134.5 -29.5zM293 104q45 0 79 35t51.5 90.5t25.5 110
t8 106.5q0 162 -94 162q-45 0 -79 -35t-51 -90.5t-25 -110.5t-8 -107q0 -161 93 -161z" />
    <glyph glyph-name="one.tf.case" 
d="M386 129h167l-24 -129h-499l23 129h174l64 365q-58 -43 -151 -43h-32l26 145h26q73 0 118.5 28t80.5 86h129z" />
    <glyph glyph-name="two.tf.case" 
d="M14 0l22 118q185 107 269 175q127 101 127 213q0 94 -78 94q-87 0 -93 -120v-27l-154 13q-1 10 -1 34q6 94 67.5 160.5t183.5 66.5q45 0 84.5 -10t75 -32.5t56 -64.5t20.5 -100q0 -60 -24.5 -113t-58.5 -89t-88 -79q-71 -56 -165 -111h279l-23 -128h-499z" />
    <glyph glyph-name="three.tf.case" 
d="M307 -15q-39 0 -74.5 6.5t-71 22.5t-61 41.5t-41.5 66.5t-17 93l152 16q5 -122 107 -122q55 0 79.5 30t24.5 73q0 94 -111 94h-33l21 111h48q60 0 86.5 28t26.5 74t-25.5 66t-63.5 20q-104 0 -113 -127l-143 21q10 106 77.5 167t187.5 61q39 0 75.5 -7.5t75.5 -25
t63 -55.5t24 -92q0 -76 -46.5 -126t-119.5 -61q126 -26 126 -157q0 -89 -63.5 -153.5t-190.5 -64.5z" />
    <glyph glyph-name="four.tf.case" 
d="M300 0l28 157h-316l20 109l364 444h178l-77 -435h98l-21 -118h-97l-29 -157h-148zM166 275h183l36 206q6 37 19 94h-1q-21 -41 -53 -80l-135 -167q-32 -38 -49 -53z" />
    <glyph glyph-name="five.tf.case" 
d="M291 -15q-43 0 -82.5 9.5t-77 30.5t-62 61t-30.5 95l152 25q6 -49 34.5 -72t68.5 -23q64 0 91.5 43t27.5 101q0 115 -93 115q-78 0 -109 -87l-133 14l116 413h413l-22 -128h-311l-50 -174q23 39 62.5 59t86.5 20q34 0 66 -10t63 -32t49.5 -65.5t18.5 -103.5
q0 -53 -15 -102t-45.5 -92.5t-87 -70t-131.5 -26.5z" />
    <glyph glyph-name="six.tf.case" 
d="M379 480q37 0 71 -11.5t64 -36t48 -70.5t18 -108q0 -112 -72 -190.5t-195 -78.5q-51 0 -94 15t-81 48t-60 96t-22 151q0 64 10.5 123.5t34.5 116.5t60.5 99t92.5 67.5t125 25.5q58 0 104.5 -16t83 -59.5t43.5 -111.5l-154 -24q-13 90 -88 90q-65 -1 -101.5 -60
t-49.5 -151q64 85 162 85zM311 107q59 0 85.5 42.5t26.5 100.5t-27 85.5t-66 27.5q-79 0 -120 -78q1 -178 101 -178z" />
    <glyph glyph-name="seven.tf.case" 
d="M117 0l2 19q19 153 109 302t233 255h-343l24 134h504l-23 -124q-286 -217 -326 -551l-4 -35h-176z" />
    <glyph glyph-name="eight.tf.case" 
d="M476 384q104 -54 104 -173q0 -100 -74.5 -163t-208.5 -63q-120 0 -197.5 51t-77.5 148q0 66 40 113.5t121 66.5q-82 53 -82 155q0 89 65.5 148.5t190.5 59.5q105 0 178 -45t73 -137q0 -122 -132 -161zM354 618q-54 0 -75 -28t-21 -65q0 -71 83 -95l36 -11q73 31 73 104
q0 95 -96 95zM304 103q57 0 83.5 30t26.5 72q0 76 -86 104l-49 16q-88 -32 -88 -120q0 -55 32.5 -78.5t80.5 -23.5z" />
    <glyph glyph-name="nine.tf.case" 
d="M340 727q41 0 76 -8t70 -30t60 -56.5t40 -92t15 -131.5q0 -50 -6 -98.5t-27 -110t-54.5 -107t-95.5 -77t-144 -31.5q-93 0 -160 45.5t-77 144.5l154 24q5 -49 30.5 -71t62.5 -22q68 0 106 60.5t51 153.5q-34 -33 -65.5 -49.5t-74.5 -16.5q-40 0 -78 13.5t-70.5 39.5
t-52 70.5t-19.5 100.5q0 44 13.5 85.5t42 79.5t81 61t122.5 23zM333 371q72 0 116 70q-1 93 -29 130.5t-78 37.5q-38 0 -63 -21.5t-33.5 -48t-8.5 -57.5q0 -55 25.5 -83t70.5 -28z" />
    <glyph glyph-name="zero.zero.case" horiz-adv-x="684" 
d="M395 727q53 0 99 -14.5t87 -47t65 -95.5t24 -150q0 -56 -9.5 -112t-34 -115.5t-62 -104.5t-99 -74t-139.5 -29q-53 0 -98.5 14t-87 46.5t-65.5 95.5t-24 151q0 56 9.5 112t34 115.5t62 104.5t99 74t139.5 29zM394 602q-50 0 -86.5 -32.5t-55.5 -84.5t-27.5 -104
t-8.5 -103q0 -14 2 -38l271 297q-27 65 -95 65zM327 110q50 0 86.5 32.5t55.5 84t27.5 103.5t8.5 103q0 17 -1 25l-267 -293q27 -55 90 -55z" />
    <glyph glyph-name="zero.tf.zero.case" 
d="M371 727q47 0 87 -13.5t77.5 -45t59 -93.5t21.5 -149q0 -57 -8.5 -113t-32 -116.5t-58.5 -106.5t-94.5 -75.5t-134.5 -29.5q-47 0 -87 13.5t-77.5 45t-59 93t-21.5 148.5q0 57 8.5 113t32 117t58.5 106.5t94.5 75.5t134.5 30zM364 608q-45 0 -79 -35t-51 -90.5
t-25 -110.5t-8 -107v-20l251 274q-19 89 -88 89zM294 104q45 0 79 35t51.5 90.5t25.5 110t8 106.5v2l-247 -270q20 -74 83 -74z" />
    <glyph glyph-name="zero.osf" horiz-adv-x="627" 
d="M293 -15q-38 0 -72.5 6t-70.5 23t-62.5 43.5t-43 70.5t-16.5 101q0 59 17.5 114t53.5 102.5t98 76t143 28.5q38 0 72.5 -6t70.5 -23t62.5 -43.5t43 -70.5t16.5 -101q0 -59 -18 -114t-53.5 -102.5t-98 -76t-142.5 -28.5zM295 103q41 0 71.5 20.5t47 53t24 65.5t7.5 66
q0 69 -31.5 96.5t-75.5 27.5q-41 0 -71.5 -20.5t-47 -53t-24 -65.5t-7.5 -66q0 -69 31.5 -96.5t75.5 -27.5z" />
    <glyph glyph-name="one.osf" horiz-adv-x="589" 
d="M366 127h167l-22 -127h-500l23 127h178l39 220q-24 -21 -67.5 -34t-90.5 -13h-27l24 135h18q65 0 118.5 28t80.5 72h131z" />
    <glyph glyph-name="two.osf" horiz-adv-x="590" 
d="M6 104q169 71 239 109q78 42 109.5 76t31.5 72q0 66 -75 66q-49 0 -69 -26t-20 -61q0 -15 3 -30l-163 16q-1 10 -1 26q0 30 12 61t39 63.5t82.5 53t131.5 20.5q41 0 78 -7.5t73.5 -24.5t58 -51.5t21.5 -83.5t-23.5 -86t-73.5 -73q-63 -44 -193 -97h266l-23 -127h-522z
" />
    <glyph glyph-name="three.osf" horiz-adv-x="608" 
d="M268 -165q-41 0 -79.5 6t-77.5 22t-66.5 40.5t-43.5 64.5t-13 91l165 15q-2 -63 30 -89t79 -26q55 0 79 27t24 65q0 87 -111 87h-33l20 110h48q113 0 113 98q0 82 -90 82q-106 0 -115 -123l-155 21q9 103 81 163.5t198 60.5q41 0 79.5 -7t80 -24.5t67 -54.5t25.5 -90
q0 -74 -50 -123t-128 -60q139 -24 139 -149q0 -84 -66.5 -145.5t-199.5 -61.5z" />
    <glyph glyph-name="four.osf" horiz-adv-x="610" 
d="M268 -150l28 161h-328l19 109l383 415h178l-72 -406h104l-20 -118h-105l-28 -161h-159zM130 129h187l29 166q3 15 8.5 46t9.5 50h-2q-17 -30 -47 -62l-134 -150q-27 -30 -51 -50z" />
    <glyph glyph-name="five.osf" horiz-adv-x="601" 
d="M251 -165q-62 0 -113.5 14.5t-95.5 57.5t-52 111l161 25q13 -82 103 -82q65 0 93.5 38.5t28.5 90.5q0 53 -25.5 81.5t-72.5 28.5q-80 0 -112 -81l-140 13l113 403h437l-22 -128h-320l-49 -166q22 37 63 56.5t87 19.5q36 0 69 -9.5t65 -31.5t51 -64.5t19 -101.5
q0 -50 -15 -96t-46.5 -87.5t-90 -66.5t-136.5 -25z" />
    <glyph glyph-name="six.osf" horiz-adv-x="625" 
d="M378 469q39 0 74.5 -11t67.5 -35t51 -69t19 -106q0 -110 -74.5 -186.5t-201.5 -76.5q-52 0 -96 14.5t-83.5 47t-62 94.5t-22.5 147q0 63 10.5 121t35.5 113.5t62 96.5t95.5 66t130.5 25q95 0 162 -43t79 -139l-154 -24q-14 85 -98 85q-64 -1 -103 -55t-56 -140
q65 75 164 75zM312 107q63 0 92 40.5t29 96.5t-29.5 82t-74.5 26q-84 0 -126 -77q0 -168 109 -168z" />
    <glyph glyph-name="seven.osf" horiz-adv-x="531" 
d="M47 -150l2 12q55 319 340 539h-343l24 134h503l-22 -124q-138 -109 -215 -233t-108 -303l-4 -25h-177z" />
    <glyph glyph-name="eight.osf" horiz-adv-x="628" 
d="M483 376q110 -53 110 -169q0 -98 -77 -160t-215 -62q-125 0 -205.5 50t-80.5 145q0 64 40.5 110t125.5 66q-88 52 -88 151q0 87 67.5 145t197.5 58q70 0 126.5 -16.5t96 -58t39.5 -103.5q0 -119 -137 -156zM356 601q-60 0 -83 -26.5t-23 -61.5q0 -39 25 -59.5t69 -32.5
l39 -11q79 30 79 100q0 91 -106 91zM308 103q63 0 91 28.5t28 69.5q0 72 -97 101l-50 16q-96 -31 -96 -117q0 -53 35.5 -75.5t88.5 -22.5z" />
    <glyph glyph-name="nine.osf" horiz-adv-x="629" 
d="M316 550q42 0 78 -8t72 -29t61.5 -55t41.5 -89.5t16 -128.5q0 -47 -6.5 -94t-28 -105.5t-56 -102t-97 -73.5t-145.5 -30q-95 0 -163 40.5t-80 131.5l154 24q10 -81 104 -81q124 0 150 202q-33 -32 -64 -48.5t-76 -16.5q-42 0 -82 13t-74.5 38.5t-55.5 69.5t-21 99
q0 43 14 83.5t44 77.5t85 59.5t129 22.5zM309 204q76 0 123 73q9 155 -112 155q-65 0 -92.5 -36.5t-27.5 -84.5q0 -53 29 -80t80 -27z" />
    <glyph glyph-name="one.ss02" horiz-adv-x="559" 
d="M356 129h167l-23 -129h-500l23 129h174l62 351q-56 -41 -150 -41h-32l26 145h25q73 0 119 27t80 84h129z" />
    <glyph glyph-name="zero.tosf" 
d="M289 -15q-37 0 -71 6t-69 23t-60.5 43.5t-42 70.5t-16.5 101q0 59 17.5 114t52.5 102.5t96 76t140 28.5q37 0 71 -6t69 -23t60.5 -43.5t42 -70.5t16.5 -101q0 -59 -17.5 -114t-52 -102.5t-96 -76t-140.5 -28.5zM292 103q39 0 68.5 20.5t44.5 53t22.5 65.5t7.5 66
q0 69 -29.5 96.5t-71.5 27.5q-39 0 -69 -20.5t-45 -53t-22.5 -65.5t-7.5 -66q0 -69 29.5 -96.5t72.5 -27.5z" />
    <glyph glyph-name="one.tosf" 
d="M385 121h167l-21 -121h-500l22 121h178l40 228q-26 -21 -74.5 -35t-95.5 -14h-13l23 135h10q67 1 121.5 29t84.5 71h132z" />
    <glyph glyph-name="two.tosf" 
d="M21 104q174 75 238 109q79 42 110 76t31 72q0 66 -75 66q-49 0 -69 -26t-20 -61q0 -15 3 -30l-162 16q-2 10 -2 26q0 23 6.5 47.5t25 52t47 49t77 35.5t109.5 14q41 0 78 -7.5t73.5 -24.5t58 -51.5t21.5 -83.5t-23.5 -86t-73.5 -73q-64 -45 -192 -97h265l-22 -127h-522z
" />
    <glyph glyph-name="three.tosf" 
d="M270 -165q-38 0 -73 6t-70.5 22t-61 40t-40.5 63t-12 89l165 16q-3 -61 26.5 -86.5t68.5 -25.5q51 0 72.5 27.5t21.5 66.5q0 85 -98 85h-32l19 110h35q60 0 87 27.5t27 71.5q0 81 -78 81q-93 0 -102 -117l-154 21q9 100 77.5 159t189.5 59q39 0 75.5 -7t75.5 -24.5
t63 -54.5t24 -90q0 -74 -46 -123t-119 -60q125 -23 125 -148q0 -84 -66.5 -146t-199.5 -62z" />
    <glyph glyph-name="four.tosf" 
d="M274 -150l28 161h-315l19 109l360 415h177l-72 -406h102l-21 -118h-101l-29 -161h-148zM144 129h179l33 185q4 31 17 84h-1q-27 -41 -51 -69l-115 -136q-36 -43 -62 -64z" />
    <glyph glyph-name="five.tosf" 
d="M265 -165q-60 0 -111 14.5t-93.5 57.5t-50.5 111l161 25q12 -82 97 -82q61 0 88 38.5t27 90.5q0 53 -24 81.5t-68 28.5q-77 0 -105 -81l-141 13l114 403h418l-22 -128h-301l-49 -166q22 37 63 56.5t87 19.5q34 0 65 -9.5t60.5 -31.5t47.5 -64.5t18 -101.5
q0 -39 -8.5 -76.5t-29.5 -74t-52 -63.5t-80.5 -44t-110.5 -17z" />
    <glyph glyph-name="six.tosf" 
d="M371 469q84 0 144.5 -53t60.5 -168q0 -110 -70 -186.5t-190 -76.5q-52 0 -96 14.5t-82.5 47t-60.5 94t-22 147.5q0 80 17 151t53 134t101 100t152 37q93 0 156.5 -43.5t73.5 -138.5l-154 -24q-11 85 -87 85q-121 0 -148 -199q54 79 152 79zM316 107q38 0 62 22t32.5 51
t8.5 64q0 56 -27 82t-70 26q-71 0 -111 -69q-5 -89 23.5 -132.5t81.5 -43.5z" />
    <glyph glyph-name="seven.tosf" 
d="M90 -150l2 12q54 319 339 539h-343l24 134h503l-22 -124q-138 -109 -215 -233.5t-107 -302.5l-5 -25h-176z" />
    <glyph glyph-name="eight.tosf" 
d="M475 376q104 -54 104 -169q0 -99 -74 -160.5t-208 -61.5q-120 0 -198 50t-78 145q0 64 39 110.5t121 65.5q-82 53 -82 151q0 87 65 145t190 58q67 0 121.5 -16.5t92.5 -58t38 -103.5q0 -119 -131 -156zM352 601q-54 0 -75 -26.5t-21 -61.5q0 -38 22.5 -59t61.5 -33
l36 -11q72 31 72 100q0 91 -96 91zM304 103q57 0 83 29t26 69q0 38 -21.5 62t-65.5 39l-48 15q-88 -31 -88 -116q0 -53 33 -75.5t81 -22.5z" />
    <glyph glyph-name="nine.tosf" 
d="M315 550q52 0 95 -13.5t82.5 -46t62 -96.5t22.5 -154q0 -47 -6 -94t-27 -105.5t-54.5 -102t-95 -73.5t-142.5 -30q-94 0 -162.5 42t-75.5 134l154 24q10 -85 95 -85q128 0 152 202q-32 -32 -63 -48.5t-74 -16.5q-89 0 -158.5 56.5t-69.5 163.5q0 43 14 83.5t43 77.5
t83 59.5t125 22.5zM310 204q74 0 120 73q10 155 -110 155q-62 0 -88 -36t-26 -85q0 -52 27.5 -79.5t76.5 -27.5z" />
    <glyph glyph-name="zero.osf.zero" horiz-adv-x="627" 
d="M340 550q38 0 72.5 -6t70.5 -23t62.5 -43.5t43 -70.5t16.5 -101q0 -59 -18 -114t-53.5 -102.5t-98 -76t-142.5 -28.5q-38 0 -72.5 6t-70.5 23t-62.5 43.5t-43 70.5t-16.5 101q0 59 17.5 114t53.5 102.5t98 76t143 28.5zM338 432q-41 0 -71.5 -20.5t-47 -53t-24 -65.5
t-7.5 -66q0 -34 10 -62l214 241q-27 26 -74 26zM295 103q41 0 71.5 20.5t47 53t24 65.5t7.5 66q0 36 -9 60l-214 -240q28 -25 73 -25z" />
    <glyph glyph-name="zero.tf.zero" 
d="M367 710q47 0 87 -13t78 -44t59.5 -91.5t21.5 -145.5q0 -55 -8.5 -110t-31.5 -114.5t-58 -104t-94 -73.5t-134 -29q-47 0 -87 13t-78 44t-59.5 91.5t-21.5 145.5q0 55 8.5 110t31.5 114.5t58 104t94 73.5t134 29zM361 591q-45 0 -78.5 -34t-50.5 -88t-25 -106.5
t-8 -103.5v-13l247 270q-20 75 -85 75zM293 104q45 0 78.5 34t50.5 88t25 106.5t8 103.5v12l-247 -270q20 -74 85 -74z" />
    <glyph glyph-name="zero.tosf.zero" 
d="M336 550q37 0 71 -6t69 -23t60.5 -43.5t42 -70.5t16.5 -101q0 -59 -17.5 -114t-52 -102.5t-96 -76t-140.5 -28.5q-37 0 -71 6t-69 23t-60.5 43.5t-42 70.5t-16.5 101q0 59 17.5 114t52.5 102.5t96 76t140 28.5zM334 432q-39 0 -69 -20.5t-45 -53t-22.5 -65.5t-7.5 -66
q0 -32 8 -58l208 234q-25 29 -72 29zM292 103q39 0 68.5 20.5t44.5 53t22.5 65.5t7.5 66q0 29 -7 55l-207 -233q26 -27 71 -27z" />
    <glyph glyph-name="zero.subs" horiz-adv-x="542" 
d="M227 -151q-41 0 -76.5 10t-69 33t-53.5 69.5t-20 112.5q0 52 12.5 101t40 97t81 77t127.5 29q41 0 76 -9.5t69 -33t53.5 -70t19.5 -112.5q0 -41 -7 -80t-25.5 -80.5t-46.5 -72.5t-75 -51t-106 -20zM225 -45q34 0 59 22t37.5 56.5t18.5 67.5t6 64q0 108 -75 108
q-34 0 -59.5 -22t-38 -56.5t-18 -68t-5.5 -64.5q0 -107 75 -107z" />
    <glyph glyph-name="one.subs" horiz-adv-x="352" 
d="M69 -140l59 332q-26 -29 -81 -29h-37l21 123h26q47 0 77.5 19t50.5 62h109l-89 -507h-136z" />
    <glyph glyph-name="two.subs" horiz-adv-x="477" 
d="M-35 -140l16 97q161 79 212 114q96 68 96 139q0 64 -61 64q-41 0 -58 -32t-7 -75l-137 12q-14 95 45.5 147t167.5 52q54 0 95.5 -12t72.5 -47t31 -92q0 -86 -66 -147t-190 -115h213l-18 -105h-412z" />
    <glyph glyph-name="three.subs" horiz-adv-x="485" 
d="M202 -151q-56 0 -102 14t-81 53.5t-35 101.5l140 13q0 -79 71 -79q36 0 52.5 18.5t16.5 44.5q0 54 -87 54h-24l17 91h33q89 0 89 64q0 53 -62 53q-67 0 -75 -79l-133 15q8 79 62 122t153 43q32 0 62 -5t64 -17.5t54.5 -40t20.5 -67.5q0 -58 -40 -93t-100 -42
q50 -7 80 -34t30 -75q0 -63 -51.5 -109t-154.5 -46z" />
    <glyph glyph-name="four.subs" horiz-adv-x="487" 
d="M421 -34h-76l-19 -106h-136l19 106h-240l17 93l289 308h140l-54 -303h76zM273 255l-169 -191h127z" />
    <glyph glyph-name="five.subs" horiz-adv-x="479" 
d="M189 -151q-78 0 -136.5 33t-69.5 110l134 22q9 -61 73 -61q43 0 62.5 27t19.5 62q0 32 -18 52t-51 20q-53 0 -75 -53l-118 11l84 295h342l-18 -105h-247l-33 -105q32 51 116 51q38 0 71 -12t59 -47.5t26 -91.5q0 -36 -10.5 -69.5t-34 -66t-69 -52.5t-107.5 -20z" />
    <glyph glyph-name="six.subs" horiz-adv-x="500" 
d="M268 204q30 0 56 -7t51 -24t40 -50t15 -80q0 -83 -58 -138.5t-156 -55.5q-40 0 -74.5 10.5t-66 34.5t-49.5 69t-18 108q0 131 63 219t196 88q72 0 125 -31.5t62 -104.5l-130 -18q-10 56 -68 54q-77 -1 -108 -118q53 44 120 44zM211 -50q45 0 66 25.5t21 63.5
q0 34 -20.5 52t-52.5 18q-56 0 -89 -49q2 -110 75 -110z" />
    <glyph glyph-name="seven.subs" horiz-adv-x="428" 
d="M27 -140l1 12q13 110 81 213.5t174 171.5h-257l19 110h388l-18 -104q-107 -74 -164.5 -163.5t-72.5 -215.5l-3 -24h-148z" />
    <glyph glyph-name="eight.subs" horiz-adv-x="503" 
d="M352 136q81 -37 81 -121q0 -75 -59.5 -120.5t-168.5 -45.5q-97 0 -160 37.5t-63 105.5q0 94 121 122q-66 40 -66 112q0 67 53 109.5t156 42.5q85 0 144.5 -31.5t59.5 -98.5q0 -84 -98 -112zM244 289q-76 0 -76 -59q0 -26 17.5 -39t54.5 -22l27 -7q51 21 51 67
q0 60 -74 60zM210 -54q44 0 64 19.5t20 45.5t-19.5 41t-58.5 25l-32 9q-59 -22 -59 -77q0 -33 24.5 -48t60.5 -15z" />
    <glyph glyph-name="nine.subs" horiz-adv-x="504" 
d="M236 378q213 0 213 -224q0 -36 -4.5 -70.5t-20.5 -79t-42 -77.5t-74 -55.5t-112 -22.5q-76 0 -131.5 32t-65.5 105l129 17q3 -29 26.5 -41.5t48.5 -12.5q84 0 111 133q-47 -46 -108 -46q-68 0 -124.5 41t-56.5 123q0 69 51 123.5t160 54.5zM231 131q59 0 91 49
q-4 102 -83 102q-44 0 -63.5 -24t-19.5 -57t19.5 -51.5t55.5 -18.5z" />
    <glyph glyph-name="zero.dnom" horiz-adv-x="426" 
d="M185 -9q-70 0 -118 39.5t-48 130.5q0 30 5 60.5t19.5 63.5t36 57.5t58 41t83.5 16.5q71 0 118 -39.5t47 -131.5q0 -39 -9 -76.5t-29.5 -76t-62.5 -62t-100 -23.5zM185 70q29 0 50 17t31 44t14 53.5t4 53.5q0 83 -63 83q-29 0 -50 -17t-31 -44.5t-14 -53.5t-4 -54
q0 -82 63 -82z" />
    <glyph glyph-name="one.dnom" horiz-adv-x="274" 
d="M65 0l47 257q-16 -15 -59 -15h-30l15 90h18q71 0 95 59h81l-69 -391h-98z" />
    <glyph glyph-name="two.dnom" horiz-adv-x="369" 
d="M-17 0l13 74q119 55 177 98t58 99q0 48 -47 48q-32 0 -46 -23.5t-6 -57.5l-100 10q-7 72 35.5 112t123.5 40q62 0 105 -26.5t43 -88.5q0 -116 -192 -204h157l-14 -81h-307z" />
    <glyph glyph-name="three.dnom" horiz-adv-x="378" 
d="M165 -9q-66 0 -114.5 30t-51.5 98l102 10q7 -59 61 -59q56 0 56 47q0 46 -64 46h-17l12 70h29q59 0 59 49q0 40 -49 40q-56 0 -61 -65l-96 16q5 60 47 93.5t115 33.5q24 0 47 -4t48 -14t40 -31.5t15 -51.5q0 -41 -28 -68t-72 -33q79 -18 79 -86q0 -49 -39.5 -85
t-117.5 -36z" />
    <glyph glyph-name="four.dnom" horiz-adv-x="378" 
d="M332 83h-62l-15 -83h-98l15 83h-186l11 67l223 241h104l-43 -235h62zM222 309l-133 -153h98z" />
    <glyph glyph-name="five.dnom" horiz-adv-x="375" 
d="M158 -9q-57 0 -102.5 25t-53.5 85l101 16q9 -46 56 -46q64 0 64 68q0 57 -52 57q-44 0 -60 -41l-89 8l66 228h257l-13 -81h-188l-25 -76q26 36 86 36q46 0 83 -26.5t37 -91.5t-41 -113t-126 -48z" />
    <glyph glyph-name="six.dnom" horiz-adv-x="385" 
d="M212 264q50 0 87 -30.5t37 -94.5q0 -62 -43 -105t-118 -43q-67 0 -111.5 39.5t-44.5 132.5q0 33 5.5 64t19.5 63t35 56t55.5 39t77.5 15q57 0 97 -24.5t48 -76.5l-95 -17q-12 40 -55 40q-64 0 -84 -91q33 33 89 33zM174 68q35 0 49 21t14 48q0 28 -16 40.5t-38 12.5
q-43 0 -67 -34q0 -88 58 -88z" />
    <glyph glyph-name="seven.dnom" horiz-adv-x="324" 
d="M25 0l2 10q13 80 62.5 159.5t130.5 135.5h-192l15 86h293l-13 -76q-161 -117 -186 -295l-2 -20h-110z" />
    <glyph glyph-name="eight.dnom" horiz-adv-x="394" 
d="M277 215q67 -31 67 -97q0 -56 -45.5 -91.5t-126.5 -35.5q-75 0 -123 30t-48 84q0 76 97 93q-52 32 -52 85q0 49 39 83t116 34q65 0 110.5 -25.5t45.5 -75.5q0 -65 -80 -84zM200 331q-55 0 -55 -43q0 -33 51 -47l28 -8q34 15 34 49q0 49 -58 49zM176 65q34 0 49 14.5
t15 34.5q0 36 -49 51l-41 13q-44 -18 -44 -60q0 -53 70 -53z" />
    <glyph glyph-name="nine.dnom" horiz-adv-x="388" 
d="M188 400q69 0 115 -41t46 -137q0 -28 -3 -54.5t-15 -60t-31.5 -58t-55.5 -41.5t-84 -17q-59 0 -101 26t-50 79l96 17q9 -45 60 -45q65 0 82 97q-28 -25 -77 -25q-56 0 -97.5 32.5t-41.5 89.5q0 55 38.5 96.5t118.5 41.5zM129 266q0 -52 60 -52q41 0 65 29q-1 82 -63 82
q-34 0 -48 -18t-14 -41z" />
    <glyph glyph-name="zero.numr" horiz-adv-x="426" 
d="M241 310q-70 0 -118 39.5t-48 130.5q0 30 5 60.5t19.5 63.5t36 57.5t58 41t83.5 16.5q71 0 118 -39.5t47 -131.5q0 -39 -9 -76.5t-29.5 -76t-62.5 -62t-100 -23.5zM241 389q29 0 50 17t31 44t14 53.5t4 53.5q0 83 -63 83q-29 0 -50 -17t-31 -44.5t-14 -53.5t-4 -54
q0 -82 63 -82z" />
    <glyph glyph-name="one.numr" horiz-adv-x="274" 
d="M121 319l47 257q-16 -15 -59 -15h-30l15 90h18q71 0 95 59h81l-69 -391h-98z" />
    <glyph glyph-name="two.numr" horiz-adv-x="369" 
d="M39 319l13 74q119 55 177 98t58 99q0 48 -47 48q-32 0 -46 -23.5t-6 -57.5l-100 10q-7 72 35.5 112t123.5 40q62 0 105 -26.5t43 -88.5q0 -116 -192 -204h157l-14 -81h-307z" />
    <glyph glyph-name="three.numr" horiz-adv-x="378" 
d="M221 310q-66 0 -114.5 30t-51.5 98l102 10q7 -59 61 -59q56 0 56 47q0 46 -64 46h-17l12 70h29q59 0 59 49q0 40 -49 40q-56 0 -61 -65l-96 16q5 60 47 93.5t115 33.5q24 0 47 -4t48 -14t40 -31.5t15 -51.5q0 -41 -28 -68t-72 -33q79 -18 79 -86q0 -49 -39.5 -85
t-117.5 -36z" />
    <glyph glyph-name="four.numr" horiz-adv-x="378" 
d="M388 402h-62l-15 -83h-98l15 83h-186l11 67l223 241h104l-43 -235h62zM278 628l-133 -153h98z" />
    <glyph glyph-name="five.numr" horiz-adv-x="375" 
d="M214 310q-57 0 -102.5 25t-53.5 85l101 16q9 -46 56 -46q64 0 64 68q0 57 -52 57q-44 0 -60 -41l-89 8l66 228h257l-13 -81h-188l-25 -76q26 36 86 36q46 0 83 -26.5t37 -91.5t-41 -113t-126 -48z" />
    <glyph glyph-name="six.numr" horiz-adv-x="385" 
d="M268 583q50 0 87 -30.5t37 -94.5q0 -62 -43 -105t-118 -43q-67 0 -111.5 39.5t-44.5 132.5q0 33 5.5 64t19.5 63t35 56t55.5 39t77.5 15q57 0 97 -24.5t48 -76.5l-95 -17q-12 40 -55 40q-64 0 -84 -91q33 33 89 33zM230 387q35 0 49 21t14 48q0 28 -16 40.5t-38 12.5
q-43 0 -67 -34q0 -88 58 -88z" />
    <glyph glyph-name="seven.numr" horiz-adv-x="324" 
d="M81 319l2 10q13 80 62.5 159.5t130.5 135.5h-192l15 86h293l-13 -76q-161 -117 -186 -295l-2 -20h-110z" />
    <glyph glyph-name="eight.numr" horiz-adv-x="394" 
d="M333 534q67 -31 67 -97q0 -56 -45.5 -91.5t-126.5 -35.5q-75 0 -123 30t-48 84q0 76 97 93q-52 32 -52 85q0 49 39 83t116 34q65 0 110.5 -25.5t45.5 -75.5q0 -65 -80 -84zM256 650q-55 0 -55 -43q0 -33 51 -47l28 -8q34 15 34 49q0 49 -58 49zM232 384q34 0 49 14.5
t15 34.5q0 36 -49 51l-41 13q-44 -18 -44 -60q0 -53 70 -53z" />
    <glyph glyph-name="nine.numr" horiz-adv-x="388" 
d="M244 719q69 0 115 -41t46 -137q0 -28 -3 -54.5t-15 -60t-31.5 -58t-55.5 -41.5t-84 -17q-59 0 -101 26t-50 79l96 17q9 -45 60 -45q65 0 82 97q-28 -25 -77 -25q-56 0 -97.5 32.5t-41.5 89.5q0 55 38.5 96.5t118.5 41.5zM185 585q0 -52 60 -52q41 0 65 29q-1 82 -63 82
q-34 0 -48 -18t-14 -41z" />
    <glyph glyph-name="zero.sups" horiz-adv-x="542" 
d="M306 299q-41 0 -76.5 10t-69 33t-53.5 69.5t-20 112.5q0 52 12.5 101t40 97t81 77t127.5 29q41 0 76 -9.5t69 -33t53.5 -70t19.5 -112.5q0 -41 -7 -80t-25.5 -80.5t-46.5 -72.5t-75 -51t-106 -20zM304 405q34 0 59 22t37.5 56.5t18.5 67.5t6 64q0 108 -75 108
q-34 0 -59.5 -22t-38 -56.5t-18 -68t-5.5 -64.5q0 -107 75 -107z" />
    <glyph glyph-name="one.sups" horiz-adv-x="352" 
d="M148 310l59 332q-26 -29 -81 -29h-37l21 123h26q47 0 77.5 19t50.5 62h109l-89 -507h-136z" />
    <glyph glyph-name="two.sups" horiz-adv-x="477" 
d="M44 310l16 97q161 79 212 114q95 68 96 139q0 64 -61 64q-41 0 -58 -32t-7 -75l-137 12q-14 95 45.5 147t167.5 52q54 0 95.5 -12t72.5 -47t31 -92q0 -86 -66 -147t-190 -115h213l-18 -105h-412z" />
    <glyph glyph-name="three.sups" horiz-adv-x="485" 
d="M281 299q-56 0 -102 14t-81 53.5t-35 101.5l140 13q0 -79 71 -79q36 0 52.5 18.5t16.5 44.5q0 54 -87 54h-24l17 91h33q89 0 89 64q0 53 -62 53q-67 0 -75 -79l-133 15q8 79 62 122t153 43q32 0 62 -5t64 -17.5t54.5 -40t20.5 -67.5q0 -58 -40 -93t-100 -42q50 -7 80 -34
t30 -75q0 -63 -51.5 -109t-154.5 -46z" />
    <glyph glyph-name="four.sups" horiz-adv-x="487" 
d="M500 416h-76l-19 -106h-136l19 106h-240l17 93l289 308h140l-54 -303h76zM352 705l-169 -191h127z" />
    <glyph glyph-name="five.sups" horiz-adv-x="479" 
d="M268 299q-78 0 -136.5 33t-69.5 110l134 22q9 -61 73 -61q43 0 62.5 27t19.5 62q0 32 -18 52t-51 20q-53 0 -75 -53l-118 11l84 295h342l-18 -105h-247l-33 -105q32 51 116 51q38 0 71 -12t59 -47.5t26 -91.5q0 -36 -10.5 -69.5t-34 -66t-69 -52.5t-107.5 -20z" />
    <glyph glyph-name="six.sups" horiz-adv-x="500" 
d="M347 654q30 0 56 -7t51 -24t40 -50t15 -80q0 -83 -58 -138.5t-156 -55.5q-40 0 -74.5 10.5t-66 34.5t-49.5 69t-18 108q0 131 63 219t196 88q72 0 125 -31.5t62 -104.5l-130 -18q-10 56 -68 54q-77 -1 -108 -118q53 44 120 44zM290 400q45 0 66 25.5t21 63.5
q0 34 -20.5 52t-52.5 18q-56 0 -89 -49q2 -110 75 -110z" />
    <glyph glyph-name="seven.sups" horiz-adv-x="428" 
d="M106 310l1 12q13 110 81 213.5t174 171.5h-257l19 110h388l-18 -104q-107 -74 -164.5 -163.5t-72.5 -215.5l-3 -24h-148z" />
    <glyph glyph-name="eight.sups" horiz-adv-x="503" 
d="M431 586q81 -37 81 -121q0 -75 -59.5 -120.5t-168.5 -45.5q-97 0 -160 37.5t-63 105.5q0 94 121 122q-66 40 -66 112q0 67 53 109.5t156 42.5q85 0 144.5 -31.5t59.5 -98.5q0 -84 -98 -112zM323 739q-76 0 -76 -59q0 -26 17.5 -39t54.5 -22l27 -7q51 21 51 67
q0 60 -74 60zM289 396q44 0 64 19.5t20 45.5t-19.5 41t-58.5 25l-32 9q-59 -22 -59 -77q0 -33 24.5 -48t60.5 -15z" />
    <glyph glyph-name="nine.sups" horiz-adv-x="504" 
d="M315 828q213 0 213 -224q0 -36 -4.5 -70.5t-20.5 -79t-42 -77.5t-74 -55.5t-112 -22.5q-76 0 -131.5 32t-65.5 105l129 17q3 -29 26.5 -41.5t48.5 -12.5q84 0 111 133q-47 -46 -108 -46q-68 0 -124.5 41t-56.5 123q0 69 51 123.5t160 54.5zM310 581q59 0 91 49
q-4 102 -83 102q-44 0 -63.5 -24t-19.5 -57t19.5 -51.5t55.5 -18.5z" />
    <glyph glyph-name="backslash.case" horiz-adv-x="815" 
d="M574 -87l-437 877h140l437 -877h-140z" />
    <glyph glyph-name="periodcentered.case" horiz-adv-x="285" 
d="M260 438l-28 -164h-171l29 164h170z" />
    <glyph glyph-name="bullet.case" horiz-adv-x="377" 
d="M209 239q-56 0 -92.5 35t-36.5 91q0 58 36.5 93.5t92.5 35.5t92.5 -35.5t36.5 -93.5q0 -56 -36.5 -91t-92.5 -35z" />
    <glyph glyph-name="colon.case" horiz-adv-x="285" 
d="M275 520l-28 -164h-171l29 164h170zM212 164l-28 -164h-171l29 164h170z" />
    <glyph glyph-name="exclamdown.case" horiz-adv-x="330" 
d="M135 572l27 153h174l-28 -153h-173zM272 493l-60 -493h-182l114 493h128z" />
    <glyph glyph-name="questiondown.case" horiz-adv-x="541" 
d="M448 720l-26 -153h-172l26 153h172zM404 506l-7 -43q-7 -45 -26.5 -73t-62.5 -52l-62 -34q-74 -42 -74 -114q0 -87 89 -87q58 0 81.5 33.5t23.5 80.5q0 19 -4 41l150 -13q5 -22 5 -49q0 -30 -7.5 -58t-27 -57t-49 -50t-78 -34.5t-109.5 -13.5q-46 0 -86 8.5t-76.5 28.5
t-58 58.5t-21.5 92.5q0 66 33 110t99 84l50 31q30 18 41.5 36.5t16.5 48.5l4 25h156z" />
    <glyph glyph-name="semicolon.case" horiz-adv-x="291" 
d="M275 520l-28 -164h-171l29 164h170zM32 -155l-21 66q75 18 89 81l1 8h-82l29 164h171l-29 -162q-23 -129 -158 -157z" />
    <glyph glyph-name="slash.case" horiz-adv-x="507" 
d="M123 -87h-140l437 877h140z" />
    <glyph glyph-name="underscore.case" horiz-adv-x="469" 
d="M-47 -17h469l-16 -89h-469z" />
    <glyph glyph-name="asterisk.ss04" horiz-adv-x="263" 
d="M213 710l-47 -93h-97l69 -57l-47 -93l89 57l69 -57l-14 93l89 57h-97z" />
    <glyph glyph-name="braceleft.case" horiz-adv-x="383" 
d="M261 -81q-93 0 -142.5 38.5t-32.5 136.5l21 118q9 51 -3 73.5t-59 23.5l19 107q49 1 67.5 21t27.5 72l23 132q26 154 197 154h77l-20 -112h-27q-72 0 -86 -76l-16 -95q-11 -64 -39 -100t-86 -49q53 -16 67.5 -54t2.5 -102l-19 -106q-7 -41 8 -55t45 -14h38l-20 -113h-43z
" />
    <glyph glyph-name="braceright.case" horiz-adv-x="383" 
d="M160 795q93 0 142.5 -38.5t32.5 -136.5l-21 -118q-9 -51 3 -73.5t59 -23.5l-19 -107q-49 -1 -67.5 -21t-27.5 -72l-23 -132q-26 -154 -197 -154h-77l20 112h27q72 0 86 76l16 95q11 64 39 100t86 49q-53 16 -67.5 54t-2.5 102l19 106q7 41 -8 55t-45 14h-38l20 113h43z
" />
    <glyph glyph-name="bracketleft.case" horiz-adv-x="359" 
d="M16 -79l154 871h264l-20 -112h-117l-114 -648h117l-20 -111h-264z" />
    <glyph glyph-name="bracketright.case" horiz-adv-x="359" 
d="M381 791l-154 -871h-264l20 112h117l114 648h-117l20 111h264z" />
    <glyph glyph-name="parenleft.case" horiz-adv-x="363" 
d="M181 -105q-110 186 -110 392q0 97 21.5 179t63 147t82 110t97.5 94l110 -73q-54 -52 -88.5 -92.5t-68.5 -96t-50.5 -120.5t-16.5 -142q0 -153 85 -343z" />
    <glyph glyph-name="parenright.case" horiz-adv-x="363" 
d="M219 816q110 -186 110 -392q0 -97 -21.5 -179t-63 -147t-82 -110t-97.5 -94l-110 73q54 52 88.5 92.5t68.5 96t50.5 120.5t16.5 142q0 153 -85 343z" />
    <glyph glyph-name="parenleft.subs" horiz-adv-x="306" 
d="M107 -241q-81 135 -81 281q0 70 15.5 130t46.5 107.5t61.5 81t73.5 71.5l95 -62q-81 -76 -123 -147.5t-42 -173.5q0 -106 64 -244z" />
    <glyph glyph-name="parenright.subs" horiz-adv-x="306" 
d="M144 430q81 -135 81 -281q0 -70 -15.5 -130t-46.5 -107.5t-61.5 -81t-73.5 -71.5l-95 62q81 76 123 147.5t42 173.5q0 106 -64 244z" />
    <glyph glyph-name="parenleft.sups" horiz-adv-x="305" 
d="M186 209q-81 135 -81 281q0 70 15.5 130t46.5 107.5t61.5 81t73.5 71.5l95 -62q-81 -76 -123 -147.5t-42 -173.5q0 -106 64 -244z" />
    <glyph glyph-name="parenright.sups" horiz-adv-x="306" 
d="M223 880q81 -135 81 -281q0 -70 -15.5 -130t-46.5 -107.5t-61.5 -81t-73.5 -71.5l-95 62q81 76 123 147.5t42 173.5q0 106 -64 244z" />
    <glyph glyph-name="emdash.case" horiz-adv-x="857" 
d="M71 407h770l-20 -114h-770z" />
    <glyph glyph-name="endash.case" horiz-adv-x="621" 
d="M71 407h535l-20 -114h-535z" />
    <glyph glyph-name="hyphen.case" horiz-adv-x="415" 
d="M73 417h328l-24 -135h-328z" />
    <glyph glyph-name="guillemotleft.case" horiz-adv-x="577" 
d="M158 132l-125 209l202 206h146l-209 -212l125 -203h-139zM390 132l-125 209l202 206h146l-209 -212l125 -203h-139z" />
    <glyph glyph-name="guillemotright.case" horiz-adv-x="577" 
d="M219 548l125 -209l-202 -206h-146l209 212l-125 203h139zM450 548l125 -209l-202 -206h-146l209 212l-125 203h139z" />
    <glyph glyph-name="guilsinglleft.case" horiz-adv-x="346" 
d="M159 132l-126 210l202 206h146l-208 -212l125 -204h-139z" />
    <glyph glyph-name="guilsinglright.case" horiz-adv-x="346" 
d="M219 548l125 -209l-202 -206h-146l209 212l-125 203h139z" />
    <glyph glyph-name="currency.case" horiz-adv-x="606" 
d="M534 486q26 -47 26 -111q0 -100 -55 -171l52 -68l-84 -68l-54 70q-52 -21 -110 -21q-81 0 -141 35l-67 -59l-60 68l62 56q-27 48 -27 114q0 105 59 176l-49 65l84 68l54 -69q47 18 103 18q85 0 144 -37l71 63l60 -68zM200 338q0 -53 32.5 -80t79.5 -27q61 0 92.5 41.5
t31.5 95.5q0 53 -32.5 80t-79.5 27q-61 0 -92.5 -41.5t-31.5 -95.5z" />
    <glyph glyph-name="dollar.case" horiz-adv-x="612" 
d="M411 411q170 -41 170 -195q0 -45 -15.5 -84.5t-48 -73.5t-90.5 -53.5t-136 -19.5h-6l-16 -92h-65l17 96q-89 12 -151.5 53t-88.5 108l125 73q35 -100 136 -117l34 197l-16 3q-185 42 -185 196q0 41 14 76t44.5 65.5t85.5 48.5t129 18l16 90h65l-17 -94q155 -19 215 -135
l-117 -77q-39 78 -118 97l-30 -168zM219 518q0 -30 19 -48t62 -31l28 158q-56 -1 -82.5 -23t-26.5 -56zM306 102q126 5 126 94q0 39 -23.5 60.5t-69.5 32.5z" />
    <glyph glyph-name="Euro.case" horiz-adv-x="681" 
d="M365 111q34 0 59.5 9t42.5 25.5t25.5 29.5t18.5 32l142 -41q-15 -28 -28 -47.5t-39.5 -47t-55.5 -44.5t-74 -29.5t-99 -12.5q-38 0 -73.5 6t-74.5 24t-69 46.5t-52 77.5t-27 113h-55l12 67h41q1 30 6 60h-36l11 66h40q33 116 120 190.5t232 74.5q43 0 82.5 -7t83 -24.5
t74.5 -54t40 -88.5l-155 -42q-23 91 -124 91q-136 0 -187 -140h248l-11 -66h-253q-4 -21 -6 -60h248l-12 -67h-233q19 -141 138 -141z" />
    <glyph glyph-name="sterling.case" horiz-adv-x="656" 
d="M404 111q72 0 91 86l141 -23q-6 -33 -20 -63t-39 -60t-66.5 -48t-94.5 -18q-42 0 -109.5 13t-132.5 13q-76 0 -180 -19l-16 92q84 21 128 74t44 152v9h-99l14 76h85v36q0 42 7 80t25.5 75.5t47 64t74.5 43t104 16.5q115 0 177 -45.5t68 -133.5l-157 -33q-3 51 -24.5 73
t-64.5 22q-35 0 -57 -13.5t-31.5 -40t-12 -49t-2.5 -58.5v-37h176l-14 -76h-162q-4 -155 -131 -203q45 9 91 9q34 0 76.5 -7t63.5 -7z" />
    <glyph glyph-name="currency.tf.case" 
d="M541 486q26 -47 26 -111q0 -100 -55 -171l52 -68l-84 -68l-54 70q-52 -21 -110 -21q-81 0 -141 35l-67 -59l-60 68l62 56q-27 48 -27 114q0 105 59 176l-49 65l84 68l54 -69q47 18 103 18q85 0 144 -37l71 63l60 -68zM207 338q0 -53 32.5 -80t79.5 -27q61 0 92.5 41.5
t31.5 95.5q0 53 -32.5 80t-79.5 27q-61 0 -92.5 -41.5t-31.5 -95.5z" />
    <glyph glyph-name="dollar.tf.case" 
d="M413 413q164 -47 164 -197q0 -45 -14 -84.5t-44 -73.5t-84.5 -53.5t-128.5 -19.5h-4l-16 -92h-65l17 97q-90 13 -148 59.5t-70 126.5l146 45q7 -93 93 -113l34 195l-13 3q-174 46 -174 202q0 85 61.5 143t197.5 59l16 90h65l-17 -94q172 -24 194 -185l-141 -37
q-4 82 -73 105l-30 -167zM248 518q0 -31 17.5 -48.5t52.5 -29.5l27 157q-97 -4 -97 -79zM323 102q105 5 105 94q0 37 -18 57.5t-55 32.5z" />
    <glyph glyph-name="Euro.tf.case" 
d="M346 105q23 0 41.5 9t30 23.5t19.5 30t15 31.5q2 5 3 8l132 -41q-14 -36 -30.5 -63t-44.5 -56.5t-72 -45.5t-100 -16q-43 0 -81 11t-77 38t-65 83t-31 135h-67l11 67h56q0 27 5 60h-50l12 66h51q30 117 105 191t199 74q37 0 71.5 -7t71.5 -24.5t62.5 -54t32.5 -88.5
l-146 -42q-11 58 -37 77.5t-60 19.5q-104 0 -143 -146h197l-12 -66h-198q-5 -35 -5 -60h192l-11 -67h-181q11 -147 104 -147z" />
    <glyph glyph-name="sterling.tf.case" 
d="M356 111q21 0 36 7t24 21.5t13.5 26.5t8.5 31l139 -23q-13 -75 -64.5 -132t-147.5 -57q-33 0 -88 13t-98 13q-69 0 -164 -19l-16 92q78 22 117 75t39 155v5h-87l14 76h72v35q0 280 246 280q58 0 104 -15.5t79.5 -57t36.5 -106.5l-150 -33q-3 51 -22 73t-56 22
q-31 0 -50.5 -13.5t-27.5 -40.5t-10 -49t-2 -58v-37h137l-14 -76h-123q-4 -156 -125 -203q42 9 68 9q27 0 62 -7t49 -7z" />
    <glyph glyph-name="yen.tf.case" 
d="M668 695l-251 -367h137l-12 -70h-152l-11 -61h152l-12 -70h-152l-23 -127h-158l22 127h-151l12 70h152l10 61h-151l12 70h138l-122 367h168l52 -219q7 -28 7 -60h2q16 41 28 60l129 219h174z" />
    <glyph glyph-name="yen.case" horiz-adv-x="604" 
d="M685 695l-283 -378h158l-12 -69h-167l-10 -54h168l-13 -69h-167l-22 -125h-159l22 125h-167l12 69h167l10 54h-167l12 69h158l-150 378h172l55 -170q19 -59 23 -105h3q20 43 61 105l115 170h181z" />
    <glyph glyph-name="currency.tf" 
d="M532 436q26 -47 26 -111q0 -100 -55 -171l52 -68l-84 -68l-54 70q-52 -21 -110 -21q-81 0 -141 35l-67 -59l-60 68l62 56q-27 48 -27 114q0 105 59 176l-49 65l84 68l54 -69q47 18 103 18q85 0 144 -37l71 63l60 -68zM198 288q0 -53 32.5 -80t79.5 -27q61 0 92.5 41.5
t31.5 95.5q0 53 -32.5 80t-79.5 27q-61 0 -92.5 -41.5t-31.5 -95.5z" />
    <glyph glyph-name="plus.case" horiz-adv-x="562" 
d="M548 416l-19 -104h-180l-34 -190h-114l33 190h-180l19 104h180l31 179h115l-32 -179h181z" />
    <glyph glyph-name="minus.case" horiz-adv-x="562" 
d="M54 310l19 107h475l-20 -107h-474z" />
    <glyph glyph-name="multiply.case" horiz-adv-x="682" 
d="M650 544l-208 -177l145 -176l-95 -82l-145 177l-208 -176l-67 80l208 177l-145 177l94 80l146 -176l207 176z" />
    <glyph glyph-name="divide.case" horiz-adv-x="562" 
d="M325 477q-30 0 -49.5 19t-19.5 49t19.5 49.5t49.5 19.5t49 -19t19 -50q0 -30 -19.5 -49t-48.5 -19zM54 310l19 105h474l-19 -105h-474zM268 115q-29 0 -48.5 19t-19.5 49q0 31 19 50t49 19t49.5 -18.5t19.5 -50.5q0 -30 -19.5 -49t-49.5 -19z" />
    <glyph glyph-name="equal.case" horiz-adv-x="562" 
d="M70 400l19 107h474l-18 -107h-475zM36 208l19 107h474l-18 -107h-475z" />
    <glyph glyph-name="notequal.case" horiz-adv-x="673" 
d="M600 401h-178l-49 -86h213l-20 -106h-253l-66 -117h-82l66 117h-139l19 106h180l49 86h-214l19 106h255l64 113h82l-64 -113h138z" />
    <glyph glyph-name="greater.case" horiz-adv-x="674" 
d="M125 614l438 -198l-20 -110l-507 -198l21 126l360 133l-313 133z" />
    <glyph glyph-name="less.case" horiz-adv-x="674" 
d="M547 106l-438 198l20 110l507 198l-21 -126l-360 -133l313 -133z" />
    <glyph glyph-name="greaterequal.case" horiz-adv-x="675" 
d="M177 683l438 -198l-20 -110l-507 -198l21 126l360 133l-313 133zM84 145h470l-18 -103h-470z" />
    <glyph glyph-name="lessequal.case" horiz-adv-x="675" 
d="M560 177l-438 198l20 110l507 198l-21 -126l-360 -133l313 -133zM84 145h470l-18 -103h-470z" />
    <glyph glyph-name="plusminus.case" horiz-adv-x="689" 
d="M435 444h182l-18 -104h-182l-26 -145h-115l26 145h-181l19 104h180l27 154h115zM71 55l19 106h477l-18 -106h-478z" />
    <glyph glyph-name="approxequal.case" horiz-adv-x="669" 
d="M473 373q-41 0 -115.5 31.5t-106.5 31.5q-73 0 -131 -46l20 112q23 19 60.5 31t70.5 12q49 0 119 -31.5t102 -31.5q33 0 69 13t61 34l-20 -113q-22 -18 -58.5 -30.5t-70.5 -12.5zM439 180q-41 0 -115.5 31.5t-106.5 31.5q-71 0 -132 -47l20 113q24 19 61 31t70 12
q49 0 119.5 -31.5t102.5 -31.5q73 0 130 46l-20 -112q-22 -19 -58.5 -31t-70.5 -12z" />
    <glyph glyph-name="asciitilde.case" 
d="M409 236q-36 0 -64 12.5t-42.5 27.5t-36 27.5t-45.5 12.5q-60 0 -100 -70l-82 22q34 69 88 107.5t111 38.5q36 0 64 -12.5t42.5 -28t36 -28t45.5 -12.5q59 0 100 70l82 -21q-35 -69 -88.5 -107.5t-110.5 -38.5z" />
    <glyph glyph-name="logicalnot.case" horiz-adv-x="666" 
d="M130 441h474l-47 -264h-108l29 160h-366z" />
    <glyph glyph-name="infinity.case" horiz-adv-x="626" 
d="M494 520q57 0 91 -37t34 -100q0 -29 -8.5 -59t-26.5 -60.5t-53 -50t-82 -19.5q-93 0 -132 80q-66 -80 -148 -80q-57 0 -90.5 37t-33.5 99q0 41 15 82t56 74.5t100 33.5q91 0 130 -80q65 80 148 80zM196 289q25 0 44.5 16t43.5 50q-12 35 -26 52.5t-40 17.5q-29 0 -49 -22
t-20 -59q0 -55 47 -55zM445 289q30 0 49.5 22.5t19.5 58.5q0 55 -47 55q-25 0 -44.5 -16t-44.5 -50q11 -34 26 -52t41 -18z" />
    <glyph glyph-name="emptyset.case" horiz-adv-x="545" 
d="M568 561l-73 -66q36 -52 36 -128q0 -106 -64.5 -182t-186.5 -76q-96 0 -158 46l-74 -67l-38 43l72 66q-35 49 -35 126q0 106 64.5 182t186.5 76q95 0 157 -46l76 70zM171 330q0 -24 8 -45l182 165q-27 17 -66 17q-61 0 -92.5 -41.5t-31.5 -95.5zM407 360q0 26 -9 47
l-182 -166q29 -18 67 -18q61 0 92.5 41.5t31.5 95.5z" />
    <glyph glyph-name="plus.tf.case" 
d="M574 416l-19 -104h-180l-34 -190h-114l33 190h-180l19 104h180l31 179h115l-32 -179h181z" />
    <glyph glyph-name="minus.tf.case" 
d="M79 310l19 107h475l-20 -107h-474z" />
    <glyph glyph-name="divide.tf.case" 
d="M350 477q-30 0 -49.5 19t-19.5 49t19.5 49.5t49.5 19.5t49 -19t19 -50q0 -30 -19.5 -49t-48.5 -19zM79 310l19 105h474l-19 -105h-474zM293 115q-29 0 -48.5 19t-19.5 49q0 31 19 50t49 19t49.5 -18.5t19.5 -50.5q0 -30 -19.5 -49t-49.5 -19z" />
    <glyph glyph-name="equal.tf.case" 
d="M79 407l19 106h475l-20 -106h-474zM45 215l19 106h475l-20 -106h-474z" />
    <glyph glyph-name="emptyset.tf.case" 
d="M607 561l-73 -66q36 -52 36 -128q0 -106 -64.5 -182t-186.5 -76q-96 0 -158 46l-74 -67l-38 43l72 66q-35 49 -35 126q0 106 64.5 182t186.5 76q95 0 157 -46l76 70zM210 330q0 -24 8 -45l182 165q-27 17 -66 17q-61 0 -92.5 -41.5t-31.5 -95.5zM446 360q0 26 -9 47
l-182 -166q29 -18 67 -18q61 0 92.5 41.5t31.5 95.5z" />
    <glyph glyph-name="plus.subs" horiz-adv-x="439" 
d="M379 142l-15 -84h-133l-24 -136h-90l24 136h-134l15 84h134l22 128h90l-22 -128h133z" />
    <glyph glyph-name="minus.subs" horiz-adv-x="439" 
d="M7 59l14 82h358l-15 -82h-357z" />
    <glyph glyph-name="multiply.subs" horiz-adv-x="530" 
d="M457 226l-154 -128l108 -126l-76 -65l-108 128l-154 -127l-54 63l154 128l-108 127l74 64l109 -128l154 128z" />
    <glyph glyph-name="divide.subs" horiz-adv-x="439" 
d="M210 178q-24 0 -39.5 15t-15.5 39t15.5 39t38.5 15q24 0 40 -15t16 -40q0 -23 -16 -38t-39 -15zM7 59l15 82h357l-15 -82h-357zM170 -82q-24 0 -39.5 15t-15.5 39t15.5 39t38.5 15q24 0 39.5 -15t15.5 -40q0 -23 -15.5 -38t-38.5 -15z" />
    <glyph glyph-name="plus.sups" horiz-adv-x="439" 
d="M459 592l-15 -84h-133l-24 -136h-90l24 136h-134l15 84h134l22 128h90l-22 -128h133z" />
    <glyph glyph-name="minus.sups" horiz-adv-x="439" 
d="M87 509l14 82h358l-15 -82h-357z" />
    <glyph glyph-name="multiply.sups" horiz-adv-x="530" 
d="M537 676l-154 -128l108 -126l-76 -65l-108 128l-154 -127l-54 63l154 128l-108 127l74 64l109 -128l154 128z" />
    <glyph glyph-name="divide.sups" horiz-adv-x="439" 
d="M290 628q-24 0 -39.5 15t-15.5 39t15.5 39t38.5 15q24 0 40 -15t16 -40q0 -23 -16 -38t-39 -15zM87 509l15 82h357l-15 -82h-357zM250 368q-24 0 -39.5 15t-15.5 39t15.5 39t38.5 15q24 0 39.5 -15t15.5 -40q0 -23 -15.5 -38t-38.5 -15z" />
    <glyph glyph-name="plus.tf" 
d="M562 381l-19 -104h-180l-34 -190h-114l33 190h-180l19 104h180l31 179h115l-32 -179h181z" />
    <glyph glyph-name="minus.tf" 
d="M67 275l19 107h475l-20 -107h-474z" />
    <glyph glyph-name="divide.tf" 
d="M338 442q-30 0 -49.5 19t-19.5 49t19.5 49.5t49.5 19.5t49 -19t19 -50q0 -30 -19.5 -49t-48.5 -19zM67 275l19 105h474l-19 -105h-474zM281 80q-29 0 -48.5 19t-19.5 49q0 31 19 50t49 19t49.5 -18.5t19.5 -50.5q0 -30 -19.5 -49t-49.5 -19z" />
    <glyph glyph-name="equal.tf" 
d="M67 372l19 106h475l-20 -106h-474zM33 180l19 106h475l-20 -106h-474z" />
    <glyph glyph-name="emptyset.tf" 
d="M598 519l-73 -66q36 -52 36 -128q0 -106 -64.5 -182t-186.5 -76q-96 0 -158 46l-74 -67l-38 43l72 66q-35 49 -35 126q0 106 64.5 182t186.5 76q95 0 157 -46l76 70zM201 288q0 -24 8 -45l182 165q-27 17 -66 17q-61 0 -92.5 -41.5t-31.5 -95.5zM437 318q0 26 -9 47
l-182 -166q28 -18 67 -18q61 0 92.5 41.5t31.5 95.5z" />
    <glyph glyph-name="percent.tf" 
d="M34 -15l516 745h75l-517 -745h-74zM196 385q-54 0 -92 31.5t-38 108.5q0 33 6.5 64t22.5 63t49 51t79 19q54 0 92.5 -31.5t38.5 -108.5q0 -33 -7 -64t-23 -63t-49 -51t-79 -19zM202 466q31 0 44.5 35t13.5 81q0 59 -41 59q-32 0 -46 -36t-14 -81q0 -58 43 -58zM434 -12
q-54 0 -92 31.5t-38 108.5q0 33 6.5 64t22.5 63t49 51t79 19q54 0 92.5 -31.5t38.5 -108.5q0 -33 -7 -64t-23 -63t-49 -51t-79 -19zM440 69q31 0 44.5 35t13.5 81q0 59 -41 59q-32 0 -46 -36t-14 -81q0 -58 43 -58z" />
    <glyph glyph-name="uni21BB.alt" horiz-adv-x="1002" 
d="M895 384h102l-183 -196l-112 196h104q18 118 -46 189t-182 71q-124 0 -247 -95l-44 65q145 117 314 117q149 0 235 -96.5t59 -250.5zM458 63q125 0 248 95l43 -65q-143 -117 -314 -117q-147 0 -232.5 95t-62.5 248h-99l182 196l113 -196h-106q-16 -116 48 -186t180 -70z
" />
    <glyph glyph-name="arrowup.ss03" horiz-adv-x="800" 
d="M377 509l-204 -189l-68 104l384 326l268 -326l-103 -104l-142 189l-95 -544h-135z" />
    <glyph glyph-name="uni2197.ss03" horiz-adv-x="828" 
d="M582 489l-424 -529l-117 102l433 526l-249 -4l-22 126h467l82 -468h-130z" />
    <glyph glyph-name="arrowright.ss03" horiz-adv-x="1030" 
d="M742 394l-161 174l120 88l269 -327l-384 -326l-88 85l222 178h-642l22 128h642z" />
    <glyph glyph-name="uni2198.ss03" horiz-adv-x="892" 
d="M684 209l40 247h130l-82 -468h-467l22 126l249 -4l-433 526l117 102z" />
    <glyph glyph-name="arrowdown.ss03" horiz-adv-x="800" 
d="M460 201l204 189l68 -104l-384 -326l-268 326l103 104l142 -189l95 544h135z" />
    <glyph glyph-name="uni2199.ss03" horiz-adv-x="828" 
d="M281 209l424 529l117 -102l-433 -526l249 4l22 -126h-467l-82 468h130z" />
    <glyph glyph-name="arrowleft.ss03" horiz-adv-x="1030" 
d="M316 265l161 -174l-120 -88l-269 327l384 326l88 -85l-222 -178h642l-22 -128h-642z" />
    <glyph glyph-name="uni2196.ss03" horiz-adv-x="892" 
d="M243 489l-40 -247h-130l82 468h467l-22 -126l-249 4l433 -526l-117 -102z" />
    <glyph glyph-name="circle.invert" horiz-adv-x="805" 
d="M392 -18q-70 0 -131 20.5t-109 60.5t-75.5 105t-27.5 147q0 73 20 141.5t63 131.5t123 101.5t188 38.5q67 0 127 -19t111.5 -57t82 -104.5t30.5 -152.5q0 -59 -12.5 -115t-43 -111t-75.5 -96t-115 -66t-156 -25z" />
    <glyph glyph-name="at.case" horiz-adv-x="860" 
d="M432 -25q-80 0 -148 21.5t-121 64t-83 111t-30 156.5q0 61 14.5 118.5t47.5 110.5t81 92.5t121 63.5t162 24q77 0 142.5 -18.5t119 -56.5t84 -104t30.5 -154q0 -112 -50.5 -187t-152.5 -75q-56 0 -87 23t-37 62q-53 -87 -156 -87q-57 0 -99.5 29t-42.5 91q0 53 40 92.5
t137 47.5l125 10l3 22q5 39 -9 55t-45 16q-38 0 -54.5 -19.5t-17.5 -44.5h-133q9 59 57.5 106t147.5 47q40 0 71.5 -9t58.5 -30.5t37.5 -62t1.5 -97.5l-15 -106q-6 -36 2 -54.5t38 -18.5q37 0 61 30.5t32 69t8 84.5q0 63 -17.5 112t-45.5 79t-67.5 49t-79.5 26.5t-86 7.5
q-78 0 -140 -22t-100 -56.5t-63 -80.5t-34.5 -90t-9.5 -90q0 -144 84.5 -217.5t211.5 -73.5q93 0 183 30l18 -60q-89 -37 -195 -37zM416 230q37 0 63.5 23t33.5 64l4 24l-75 -6q-77 -6 -77 -61q0 -44 51 -44z" />
    </font>
</defs>
</svg>
