<svg xmlns="http://www.w3.org/2000/svg">
<defs>
<font id="GTAmerica-RegularItalic" horiz-adv-x="620" >
  <font-face 
    font-family="GT America"
    font-weight="400"
    font-style="italic"
    font-stretch="normal"
    units-per-em="1000"
    panose-1="0 0 5 0 0 0 0 0 0 0"
    ascent="800"
    descent="-200"
    x-height="500"
    cap-height="710"
    bbox="-433 -239 1197 942"
    underline-thickness="50"
    underline-position="-200"
    slope="-10"
    unicode-range="U+000D-FB02"
  />
<missing-glyph horiz-adv-x="1018" 
d="M1071 663h-552l-8 -47h552l-9 -48h-552l-8 -47h552l-9 -48h-552l-8 -47h552l-8 -47h-552l-9 -48h552l-8 -47h-978l75 426h978zM141 667l14 9h-16l-2 15l-7 -15h-16l12 -9l-8 -15l14 9l11 -9zM217 676h-16l12 -9l-8 -15l14 10l11 -10l-2 15l13 9h-15l-2 15zM304 676h-16
l12 -9l-8 -15l14 10l11 -10l-2 15l13 9h-15l-2 15zM390 676h-15l12 -9l-8 -15l14 10l11 -10l-2 15l13 9h-15l-2 15zM489 667l13 9h-15l-2 15l-8 -15h-15l11 -9l-7 -15l14 10l11 -10zM165 632h-15l11 -9l-7 -14l14 9l10 -9l-1 14l13 9h-15l-2 15zM437 623l14 9h-16l-1 15
l-8 -15h-15l11 -9l-8 -14l15 9l10 -9zM293 364l17 93h94l14 80h-94l16 94h-80l-16 -94h-93l-14 -80h93l-17 -93h80zM125 580l15 9h-16l-3 14l-6 -14h-16l11 -9l-7 -15l13 9l12 -9zM202 589h-16l11 -9l-7 -15l13 9l12 -9l-3 15l14 9h-15l-3 14zM375 589h-15l11 -9l-7 -15
l13 9l12 -9l-3 15l14 9h-15l-3 14zM473 580l14 9h-15l-3 14l-7 -14h-15l10 -9l-6 -15l13 9l12 -9zM110 492l15 10h-16l-3 14l-6 -14h-16l11 -10l-8 -14l14 9l11 -9zM458 492l14 10h-15l-3 14l-7 -14h-15l10 -10l-7 -14l14 9l11 -9zM94 405l15 9h-16l-2 15l-7 -15h-16l11 -9
l-7 -14l14 9l11 -9zM181 405l14 9h-15l-2 15l-7 -15h-16l11 -9l-7 -14l14 9l11 -9zM355 405l14 9h-15l-2 15l-8 -15h-15l11 -9l-7 -14l14 9l11 -9zM442 405l14 9h-15l-2 15l-8 -15h-15l10 -9l-6 -14l14 9l11 -9zM132 347l-1 15l13 9h-15l-2 14l-8 -14h-15l11 -9l-7 -15l14 9
zM393 347l-2 15l14 9h-16l-1 14l-8 -14h-15l11 -9l-8 -15l15 9zM81 303l-2 15l15 9h-16l-3 15l-6 -15h-16l11 -9l-8 -15l14 9zM168 303l-2 15l14 9h-15l-3 15l-6 -15h-16l11 -9l-8 -15l14 9zM255 303l-2 15l14 9h-15l-3 15l-6 -15h-16l11 -9l-8 -15l14 9zM342 303l-2 15

<glyph glyph-name="fi" unicode="fi" horiz-adv-x="613" 
d="M366 500l-12 -70h-125l-76 -430h-85l76 430h-92l12 70h92l15 87q26 144 163 144q40 0 72 -12l-13 -73q-26 10 -54 10q-43 0 -60.5 -20.5t-23.5 -57.5l-14 -78h125zM490 593l19 107h97l-19 -107h-97zM394 0l88 500h85l-88 -500h-85z" />
    <glyph glyph-name="fl" unicode="fl" horiz-adv-x="623" 
d="M366 500l-12 -70h-125l-76 -430h-85l76 430h-92l12 70h92l15 87q26 144 163 144q40 0 72 -12l-13 -73q-26 10 -54 10q-43 0 -60.5 -20.5t-23.5 -57.5l-14 -78h125zM612 725l-128 -725h-85l128 725h85z" />
    <glyph glyph-name="g_g.liga" unicode="gg" horiz-adv-x="1012" 
d="M168 195q-58 -17 -58 -55q0 -25 22 -34.5t70 -11.5l67 -2q147 -4 147 -128q0 -72 -53 -121t-179 -49q-210 0 -210 127q0 81 111 116q-53 22 -53 77q0 73 101 106q-41 41 -41 107q0 76 51 130.5t146 54.5q65 0 111 -27q13 44 47 70.5t83 26.5q22 0 40 -5l-13 -76
q-14 7 -45 7q-58 0 -72 -59q27 -38 27 -91q0 -76 -51 -130.5t-146 -54.5q-59 0 -102 22zM1014 582q22 0 40 -5l-13 -76q-14 7 -45 7q-58 0 -72 -59q27 -38 27 -91q0 -76 -51 -130.5t-146 -54.5q-59 0 -102 22q-58 -17 -58 -55q0 -26 22.5 -35.5t69.5 -10.5l87 -2
q167 -4 167 -128q0 -72 -60 -121t-202 -49q-200 0 -200 127q0 80 94 115q-56 22 -56 78q0 73 101 106q-41 41 -41 107q0 76 51 130.5t146 54.5q65 0 111 -27q13 44 47 70.5t83 26.5zM282 447q-55 0 -82 -34t-27 -80q0 -49 30.5 -72t73.5 -23q55 0 82 34t27 80q0 49 -30.5 72
t-73.5 23zM761 238q55 0 82 34t27 80q0 49 -30.5 72t-73.5 23q-55 0 -82 -34t-27 -80q0 -49 30.5 -72t73.5 -23zM255 17l-65 2q-21 0 -51 4q-80 -28 -80 -84q0 -44 35 -59.5t96 -15.5q74 0 105.5 26t31.5 63t-19 50t-53 14zM759 17l-85 2q-26 0 -47 3q-64 -26 -64 -83
q0 -44 32.5 -59.5t88.5 -15.5q90 0 128.5 26t38.5 63t-24 50t-68 14z" />
    <glyph glyph-name=".notdef" horiz-adv-x="1018" 
d="M1071 663h-552l-8 -47h552l-9 -48h-552l-8 -47h552l-9 -48h-552l-8 -47h552l-8 -47h-552l-9 -48h552l-8 -47h-978l75 426h978zM141 667l14 9h-16l-2 15l-7 -15h-16l12 -9l-8 -15l14 9l11 -9zM217 676h-16l12 -9l-8 -15l14 10l11 -10l-2 15l13 9h-15l-2 15zM304 676h-16
l12 -9l-8 -15l14 10l11 -10l-2 15l13 9h-15l-2 15zM390 676h-15l12 -9l-8 -15l14 10l11 -10l-2 15l13 9h-15l-2 15zM489 667l13 9h-15l-2 15l-8 -15h-15l11 -9l-7 -15l14 10l11 -10zM165 632h-15l11 -9l-7 -14l14 9l10 -9l-1 14l13 9h-15l-2 15zM437 623l14 9h-16l-1 15
l-8 -15h-15l11 -9l-8 -14l15 9l10 -9zM293 364l17 93h94l14 80h-94l16 94h-80l-16 -94h-93l-14 -80h93l-17 -93h80zM125 580l15 9h-16l-3 14l-6 -14h-16l11 -9l-7 -15l13 9l12 -9zM202 589h-16l11 -9l-7 -15l13 9l12 -9l-3 15l14 9h-15l-3 14zM375 589h-15l11 -9l-7 -15
l13 9l12 -9l-3 15l14 9h-15l-3 14zM473 580l14 9h-15l-3 14l-7 -14h-15l10 -9l-6 -15l13 9l12 -9zM110 492l15 10h-16l-3 14l-6 -14h-16l11 -10l-8 -14l14 9l11 -9zM458 492l14 10h-15l-3 14l-7 -14h-15l10 -10l-7 -14l14 9l11 -9zM94 405l15 9h-16l-2 15l-7 -15h-16l11 -9
l-7 -14l14 9l11 -9zM181 405l14 9h-15l-2 15l-7 -15h-16l11 -9l-7 -14l14 9l11 -9zM355 405l14 9h-15l-2 15l-8 -15h-15l11 -9l-7 -14l14 9l11 -9zM442 405l14 9h-15l-2 15l-8 -15h-15l10 -9l-6 -14l14 9l11 -9zM132 347l-1 15l13 9h-15l-2 14l-8 -14h-15l11 -9l-7 -15l14 9
zM393 347l-2 15l14 9h-16l-1 14l-8 -14h-15l11 -9l-8 -15l15 9zM81 303l-2 15l15 9h-16l-3 15l-6 -15h-16l11 -9l-8 -15l14 9zM168 303l-2 15l14 9h-15l-3 15l-6 -15h-16l11 -9l-8 -15l14 9zM255 303l-2 15l14 9h-15l-3 15l-6 -15h-16l11 -9l-8 -15l14 9zM342 303l-2 15
l14 9h-15l-3 15l-7 -15h-15l11 -9l-8 -15l14 9zM429 303l-2 15l14 9h-15l-3 15l-7 -15h-15l10 -9l-7 -15l14 9zM9 189l9 48h977l-9 -48h-977zM-7 95l8 47h978l-8 -47h-978zM-24 0l8 47h978l-8 -47h-978z" />
    <glyph glyph-name=".null" horiz-adv-x="0" 
 />
    <glyph glyph-name=".null" horiz-adv-x="0" 
 />
    <glyph glyph-name="nonmarkingreturn" horiz-adv-x="333" 
 />
    <glyph glyph-name="CR" unicode="&#xd;" horiz-adv-x="0" 
 />
    <glyph glyph-name="space" unicode=" " horiz-adv-x="260" 
 />
    <glyph glyph-name="exclam" unicode="!" horiz-adv-x="310" 
d="M113 182l71 543h110l-121 -543h-60zM183 106l-19 -106h-106l19 106h106z" />
    <glyph glyph-name="quotedbl" unicode="&#x22;" horiz-adv-x="404" 
d="M123 447l28 263h95l-64 -263h-59zM292 447l28 263h95l-64 -263h-59z" />
    <glyph glyph-name="numbersign" unicode="#" horiz-adv-x="538" 
d="M554 422h-115l-27 -149h108v-69h-121l-38 -204h-79l38 204h-127l-38 -204h-79l38 204h-100v69h113l27 149h-100v69h113l38 204h79l-38 -204h127l38 204h79l-38 -204h102v-69zM333 273l27 149h-127l-27 -149h127z" />
    <glyph glyph-name="dollar" unicode="$" horiz-adv-x="612" 
d="M383 394q84 -25 129.5 -70.5t45.5 -132.5q0 -41 -12.5 -75.5t-41 -65t-81.5 -48t-127 -17.5h-4l-16 -92h-60l17 96q-95 12 -150.5 62t-62.5 140l98 14q9 -118 128 -139l46 259l-11 3q-168 47 -168 189q0 80 58.5 136.5t183.5 56.5h5l16 90h60l-17 -95q80 -12 128.5 -57.5
t57.5 -122.5l-92 -20q-10 105 -107 125l-41 -231zM207 524q0 -46 26 -70t75 -39l39 220q-42 -1 -71.5 -11.5t-43.5 -28t-19.5 -34.5t-5.5 -37zM306 61q158 0 158 121q0 58 -31.5 86t-83.5 42z" />
    <glyph glyph-name="percent" unicode="%" horiz-adv-x="798" 
d="M229 349q-67 0 -114 38t-47 114q0 34 10 69t30.5 67t58.5 52.5t87 20.5q67 0 114 -38t47 -114q0 -34 -10 -69t-30.5 -67t-58.5 -52.5t-87 -20.5zM94 -15l565 725h83l-565 -725h-83zM227 413q61 0 88 44.5t27 96.5q0 92 -86 92q-61 0 -88 -44.5t-27 -96.5q0 -92 86 -92z
M576 -26q-67 0 -114 38t-47 114q0 34 10 69t30.5 67t58.5 52.5t87 20.5q67 0 114 -38t47 -114q0 -34 -10 -69t-30.5 -67t-58.5 -52.5t-87 -20.5zM574 38q61 0 88 44.5t27 96.5q0 92 -86 92q-61 0 -88 -44.5t-27 -96.5q0 -92 86 -92z" />
    <glyph glyph-name="ampersand" unicode="&#x26;" horiz-adv-x="649" 
d="M491 102q27 -27 75 -27q17 0 38 3l-14 -77q-40 -4 -47 -4q-71 0 -118 44q-82 -58 -190 -58q-41 0 -77 8.5t-70 28t-54 57t-20 88.5q0 70 42 123.5t139 97.5q-57 96 -57 171q0 44 17 83t60 68t106 29q68 0 118 -34.5t50 -113.5q0 -145 -175 -224l133 -202q61 81 88 221
l75 -11q-31 -166 -119 -271zM316 667q-28 0 -47.5 -11t-27.5 -29t-10.5 -32t-2.5 -29q0 -58 49 -143q125 62 125 150q0 52 -25 73t-61 21zM106 174q0 -115 138 -115q79 0 138 40l-151 229q-69 -33 -97 -70.5t-28 -83.5z" />
    <glyph glyph-name="quotesingle" unicode="'" horiz-adv-x="235" 
d="M123 447l28 263h95l-64 -263h-59z" />
    <glyph glyph-name="parenleft" unicode="(" horiz-adv-x="319" 
d="M185 -140q-112 192 -112 403q0 96 22 178.5t63 146t80 107t91 87.5l60 -39q-57 -55 -93 -97.5t-70.5 -101t-51 -128t-16.5 -154.5q0 -95 20 -177.5t69 -185.5z" />
    <glyph glyph-name="parenright" unicode=")" horiz-adv-x="319" 
d="M159 782q112 -192 112 -403q0 -96 -22 -178.5t-63 -146t-80 -107t-91 -87.5l-60 39q57 55 93 97.5t70.5 101t51 128t16.5 154.5q0 95 -20 177.5t-69 185.5z" />
    <glyph glyph-name="asterisk" unicode="*" horiz-adv-x="327" 
d="M368 595l-111 -20l63 -79l-68 -45l-36 98l-69 -98l-52 47l88 78l-102 21l37 69l87 -48l5 107h75l-34 -107l106 48z" />
    <glyph glyph-name="plus" unicode="+" horiz-adv-x="571" 
d="M541 366l-13 -73h-193l-36 -202h-85l36 202h-192l13 73h191l34 190h85l-34 -190h194z" />
    <glyph glyph-name="comma" unicode="," horiz-adv-x="257" 
d="M28 -140l-15 44q61 16 75 91l1 5h-63l21 118h117l-20 -111q-12 -70 -42 -102.5t-74 -44.5z" />
    <glyph glyph-name="hyphen" unicode="-" horiz-adv-x="389" 
d="M62 318h289l-14 -80h-289z" />
    <glyph glyph-name="period" unicode="." horiz-adv-x="257" 
d="M164 118l-21 -118h-117l21 118h117z" />
    <glyph glyph-name="slash" unicode="/" horiz-adv-x="451" 
d="M59 -117h-79l437 877h79z" />
    <glyph glyph-name="zero" unicode="0" horiz-adv-x="652" 
d="M302 -15q-107 0 -172.5 67.5t-65.5 217.5q0 55 8.5 111t31.5 116.5t57.5 106.5t92.5 76t130 30q107 0 172.5 -67.5t65.5 -217.5q0 -55 -8.5 -110.5t-31.5 -116.5t-57.5 -107t-92.5 -76t-130 -30zM305 60q64 0 110.5 35.5t70.5 93.5t34.5 118.5t10.5 125.5
q0 109 -42.5 155.5t-107.5 46.5q-64 0 -110.5 -35.5t-70.5 -93.5t-34.5 -118.5t-10.5 -125.5q0 -109 42.5 -155.5t107.5 -46.5z" />
    <glyph glyph-name="one" unicode="1" horiz-adv-x="395" 
d="M141 0l96 545q-35 -44 -121 -44h-36l14 81h22q63 0 104 31t57 82h76l-122 -695h-90z" />
    <glyph glyph-name="two" unicode="2" horiz-adv-x="541" 
d="M-9 0l13 74q139 88 261 178q35 26 59 47t53 54t44 72.5t15 83.5q0 69 -35.5 96t-86.5 27q-71 0 -105.5 -42t-34.5 -108q0 -21 2 -39l-88 9q-3 18 -3 42q0 91 60 153.5t176 62.5q40 0 75 -9t67 -29t50.5 -58.5t18.5 -91.5q0 -95 -54 -168.5t-162 -155.5q-76 -58 -174 -117
h319l-14 -81h-456z" />
    <glyph glyph-name="three" unicode="3" horiz-adv-x="575" 
d="M272 -15q-34 0 -64.5 5.5t-63.5 20t-57 37.5t-41 61.5t-20 88.5l90 11q17 -149 158 -149q80 0 113 39t33 97q0 71 -40 99.5t-96 28.5h-39l13 74h55q75 0 107.5 38t32.5 91q0 108 -124 108q-145 0 -157 -159l-81 18q7 98 70 157t172 59q38 0 73 -8t68 -26t52.5 -52.5
t19.5 -81.5q0 -67 -40 -117t-119 -64q125 -31 125 -163q0 -88 -60.5 -150.5t-179.5 -62.5z" />
    <glyph glyph-name="four" unicode="4" horiz-adv-x="550" 
d="M522 176h-114l-31 -176h-85l31 176h-326l11 61l400 458h92l-80 -449h114zM388 511q19 99 21 106h-2q-22 -38 -66 -91l-159 -189q-56 -66 -82 -91h235z" />
    <glyph glyph-name="five" unicode="5" horiz-adv-x="571" 
d="M261 -15q-88 0 -152 44t-73 141l93 11q19 -119 135 -119q47 0 81.5 17t52 46t25.5 60.5t8 67.5q0 146 -126 146q-65 0 -101.5 -34t-51.5 -82l-83 9l112 403h384l-14 -78h-321l-68 -238q20 40 62.5 67.5t106.5 27.5q27 0 52 -5t51 -19.5t45.5 -37t31.5 -60t12 -85.5
q0 -118 -67.5 -200t-194.5 -82z" />
    <glyph glyph-name="six" unicode="6" horiz-adv-x="585" 
d="M336 464q84 0 143.5 -56.5t59.5 -162.5q0 -67 -24 -124t-80.5 -96.5t-138.5 -39.5q-49 0 -88.5 15t-73.5 47.5t-53 93t-19 144.5q0 57 8.5 113t30 113.5t54 100.5t86 70.5t120.5 27.5q85 0 146.5 -42t73.5 -130l-87 -20q-22 117 -134 117q-175 0 -203 -277q26 54 74.5 80
t104.5 26zM300 60q42 0 73 17.5t46 46t22 57.5t7 60q0 43 -12.5 74t-33.5 46t-42.5 21.5t-45.5 6.5q-53 0 -95.5 -30t-66.5 -89q-3 -113 39.5 -161.5t108.5 -48.5z" />
    <glyph glyph-name="seven" unicode="7" horiz-adv-x="491" 
d="M86 0l3 22q21 156 109.5 312t238.5 278h-348l15 83h450l-13 -70q-155 -124 -244.5 -279.5t-107.5 -310.5l-4 -35h-99z" />
    <glyph glyph-name="eight" unicode="8" horiz-adv-x="589" 
d="M417 370q119 -55 119 -177q0 -88 -65 -148t-189 -60q-106 0 -179 47.5t-73 144.5q0 75 46.5 126.5t133.5 66.5q-93 52 -93 151q0 77 56 133t170 56q97 0 162 -43.5t65 -128.5q0 -61 -37.5 -106t-115.5 -62zM341 642q-41 0 -69 -12t-40.5 -32t-17.5 -36.5t-5 -34.5
q0 -84 99 -118l40 -14q72 18 101.5 51t29.5 79q0 62 -39.5 89.5t-98.5 27.5zM287 57q81 0 119 37t38 93q0 97 -101 132l-58 20q-161 -28 -161 -150q0 -72 47.5 -102t115.5 -30z" />
    <glyph glyph-name="nine" unicode="9" horiz-adv-x="593" 
d="M324 710q237 0 237 -312q0 -49 -5 -95.5t-22.5 -107t-47.5 -104.5t-85 -75t-129 -31q-91 0 -157.5 44.5t-72.5 137.5l87 20q18 -127 147 -127q54 0 93 27t59.5 73.5t30.5 94.5t13 104q-26 -46 -64.5 -72t-106.5 -26q-93 0 -155 56t-62 154q0 44 13 84.5t39.5 76t75 57
t112.5 21.5zM321 336q102 0 152 117q-11 182 -150 182q-43 0 -74 -15t-46 -40.5t-21.5 -50.5t-6.5 -52q0 -74 41 -107.5t105 -33.5z" />
    <glyph glyph-name="colon" unicode=":" horiz-adv-x="257" 
d="M231 500l-21 -118h-117l21 118h117zM164 118l-21 -118h-117l21 118h117z" />
    <glyph glyph-name="semicolon" unicode=";" horiz-adv-x="266" 
d="M231 500l-21 -118h-117l21 118h117zM37 -140l-15 44q61 16 75 91l1 5h-63l21 118h117l-20 -111q-12 -70 -42 -102.5t-74 -44.5z" />
    <glyph glyph-name="less" unicode="&#x3c;" horiz-adv-x="669" 
d="M577 85l-429 205l13 72l501 205l-14 -86l-399 -161l342 -161z" />
    <glyph glyph-name="equal" unicode="=" horiz-adv-x="570" 
d="M74 384l14 80h470l-14 -80h-470zM40 194l14 80h470l-14 -80h-470z" />
    <glyph glyph-name="greater" unicode="&#x3e;" horiz-adv-x="669" 
d="M119 567l429 -205l-13 -72l-501 -205l14 86l399 161l-342 161z" />
    <glyph glyph-name="question" unicode="?" horiz-adv-x="478" 
d="M179 186l6 39q8 50 27 84.5t62 60.5l53 32q49 30 70 62.5t21 77.5q0 117 -123 117q-43 0 -73.5 -15t-45 -39.5t-20.5 -49t-6 -51.5q0 -23 3 -43l-89 11q-3 14 -3 52q0 25 6 51t23 56t42.5 53t68.5 38t97 15q94 0 155 -44t61 -134q0 -124 -136 -208l-54 -33
q-28 -17 -39.5 -42t-17.5 -65l-4 -25h-84zM137 0l18 106h105l-18 -106h-105z" />
    <glyph glyph-name="at" unicode="@" horiz-adv-x="848" 
d="M420 -102q-71 0 -135.5 22t-117 64t-83.5 111.5t-31 156.5q0 48 9 94t27 92.5t50.5 86t75 70t104.5 48t136 17.5q73 0 134.5 -18.5t112 -56.5t79 -104t28.5 -155q0 -70 -17 -125t-59 -92t-104 -37q-96 0 -104 81q-19 -35 -58 -61t-92 -26t-94.5 27t-41.5 87
q0 55 41.5 91.5t134.5 43.5l126 10l2 15q7 54 -13.5 75t-63.5 21q-89 0 -102 -76h-77q9 60 53 99t129 39q170 0 140 -181l-17 -102q-7 -43 1.5 -64.5t41.5 -21.5q30 0 52 19t33 49.5t15.5 62t4.5 64.5q0 78 -25 134.5t-68 86.5t-91 43t-103 13q-74 0 -132.5 -22.5t-94.5 -58
t-59.5 -82t-33 -91.5t-9.5 -91q0 -140 85 -218.5t211 -78.5q82 0 174 29l19 -53q-89 -37 -193 -37zM389 127q55 0 92 32.5t46 88.5l4 25l-110 -10q-103 -9 -103 -74q0 -62 71 -62z" />
    <glyph glyph-name="A" unicode="A" horiz-adv-x="672" 
d="M515 0l-37 205h-290l-109 -205h-103l394 710h94l144 -710h-93zM231 285h233l-50 277q-6 32 -7 54h-2q-11 -25 -27 -54z" />
    <glyph glyph-name="B" unicode="B" horiz-adv-x="664" 
d="M473 361q125 -24 125 -152q0 -92 -65.5 -150.5t-193.5 -58.5h-283l126 710h245q94 0 151 -42.5t57 -127.5q0 -74 -44 -119t-118 -60zM421 630h-158l-41 -228h151q87 0 126 35t39 91q0 102 -117 102zM337 80q167 0 167 131q0 61 -36 86t-102 25h-158l-43 -242h172z" />
    <glyph glyph-name="C" unicode="C" horiz-adv-x="704" 
d="M358 -17q-60 0 -110.5 16.5t-93 51.5t-67 98t-24.5 148q0 78 20 151t60.5 137.5t112.5 103t166 38.5q53 0 99 -12.5t87 -40t65.5 -77.5t25.5 -119l-95 -10q-1 91 -53.5 134.5t-131.5 43.5q-67 0 -118.5 -31.5t-80 -83.5t-42 -109t-13.5 -117q0 -239 191 -239
q159 0 205 173l92 -16q-25 -107 -97 -173.5t-198 -66.5z" />
    <glyph glyph-name="D" unicode="D" horiz-adv-x="723" 
d="M56 0l125 710h209q61 0 114 -18t97 -54t69.5 -98.5t25.5 -144.5q0 -78 -23.5 -147t-70 -125.5t-125 -89.5t-180.5 -33h-241zM165 80h134q81 0 141 27.5t92 74t47 98.5t15 110q0 124 -59.5 182t-146.5 58h-126z" />
    <glyph glyph-name="E" unicode="E" horiz-adv-x="612" 
d="M607 630h-345l-40 -226h328l-14 -80h-328l-43 -244h352l-14 -80h-447l125 710h440z" />
    <glyph glyph-name="F" unicode="F" horiz-adv-x="580" 
d="M607 630h-345l-40 -226h328l-14 -80h-328l-57 -324h-95l125 710h440z" />
    <glyph glyph-name="G" unicode="G" horiz-adv-x="729" 
d="M332 -17q-117 0 -194 75t-77 232q0 62 12 121.5t41 117.5t70.5 101.5t106 70t143.5 26.5q117 0 184.5 -56.5t78.5 -158.5l-96 -13q-8 73 -53.5 110.5t-120.5 37.5q-70 0 -123.5 -32.5t-83 -86t-44 -113.5t-14.5 -125q0 -226 183 -226q47 0 86.5 14t64.5 35.5t43.5 50.5
t28 54t13.5 50l4 23h-207l14 80h293l-66 -371h-69l7 112q-65 -129 -225 -129z" />
    <glyph glyph-name="H" unicode="H" horiz-adv-x="748" 
d="M729 710l-125 -710h-95l57 323h-358l-57 -323h-95l125 710h95l-54 -307h358l54 307h95z" />
    <glyph glyph-name="I" unicode="I" horiz-adv-x="295" 
d="M151 0h-95l125 710h95z" />
    <glyph glyph-name="J" unicode="J" horiz-adv-x="396" 
d="M296 174q-34 -191 -219 -191q-57 0 -102 14l17 87q46 -11 80 -11q112 0 134 120l91 517h95z" />
    <glyph glyph-name="K" unicode="K" horiz-adv-x="668" 
d="M707 710l-311 -284l208 -426h-110l-170 363l-130 -121l-43 -242h-95l125 710h95l-61 -348l373 348h119z" />
    <glyph glyph-name="L" unicode="L" horiz-adv-x="543" 
d="M56 0l125 710h95l-111 -630h328l-14 -80h-423z" />
    <glyph glyph-name="M" unicode="M" horiz-adv-x="884" 
d="M56 0l125 710h133l91 -550q7 -41 6 -67h2q9 27 30 67l285 550h137l-125 -710h-87l97 548q8 46 17 76h-4q-10 -35 -35 -81l-284 -543h-92l-93 543q-6 36 -6 81h-4q-1 -32 -9 -76l-97 -548h-87z" />
    <glyph glyph-name="N" unicode="N" horiz-adv-x="744" 
d="M56 0l125 710h113l205 -519q16 -40 33 -91h3q3 33 14 94l92 516h84l-125 -710h-112l-206 521q-25 62 -33 91h-3q-3 -42 -13 -94l-92 -518h-85z" />
    <glyph glyph-name="O" unicode="O" horiz-adv-x="756" 
d="M366 -17q-59 0 -111 17t-96.5 52.5t-70.5 98.5t-26 148q0 60 12.5 119t40.5 115.5t69 99t104 68.5t139 26q59 0 111 -17t96.5 -52.5t70.5 -98.5t26 -148q0 -60 -12.5 -119t-40.5 -115.5t-69 -99t-104 -68.5t-139 -26zM367 63q58 0 105 22t75.5 57t48 82t27 92.5t7.5 91.5
q0 68 -17.5 116.5t-48.5 74t-65 37t-73 11.5q-58 0 -105 -22t-75.5 -57t-48 -82t-27 -92.5t-7.5 -91.5q0 -68 17.5 -116.5t48.5 -74t65 -37t73 -11.5z" />
    <glyph glyph-name="P" unicode="P" horiz-adv-x="618" 
d="M407 710q47 0 87 -10t74 -31t54 -59t20 -90q0 -42 -14.5 -81t-45.5 -73.5t-87.5 -55t-132.5 -20.5h-159l-52 -290h-95l126 710h225zM348 370q58 0 98.5 13.5t59.5 37t27 46t8 47.5q0 116 -140 116h-138l-46 -260h131z" />
    <glyph glyph-name="Q" unicode="Q" horiz-adv-x="756" 
d="M491 3q32 -51 109 -51q28 0 58 7l-14 -83q-42 -6 -56 -6q-134 0 -180 115q-28 -2 -42 -2q-59 0 -111 17t-96.5 52.5t-70.5 98.5t-26 148q0 60 12.5 119t40.5 115.5t69 99t104 68.5t139 26q59 0 111 -17t96.5 -52.5t70.5 -98.5t26 -148t-23 -163.5t-79 -147t-138 -97.5z
M163 302q0 -68 17.5 -116.5t48.5 -74t65 -37t73 -11.5q58 0 105 22t75.5 57t48 82t27 92.5t7.5 91.5q0 68 -17.5 116.5t-48.5 74t-65 37t-73 11.5q-58 0 -105 -22t-75.5 -57t-48 -82t-27 -92.5t-7.5 -91.5z" />
    <glyph glyph-name="R" unicode="R" horiz-adv-x="665" 
d="M647 521q0 -82 -49.5 -140.5t-151.5 -77.5l130 -303h-107l-122 295h-144l-52 -295h-95l126 710h234q104 0 167.5 -46.5t63.5 -142.5zM363 375q96 0 139 41t43 104q0 110 -129 110h-153l-45 -255h145z" />
    <glyph glyph-name="S" unicode="S" horiz-adv-x="622" 
d="M301 -17q-126 0 -201.5 56.5t-76.5 171.5l98 14q4 -85 52.5 -124.5t127.5 -39.5q166 0 166 128q0 29 -7.5 48.5t-25 32t-32 18t-40.5 13.5l-79 23q-83 24 -130.5 68t-47.5 126q0 89 64 149t196 60q109 0 177.5 -50t75.5 -152l-92 -20q-10 75 -48.5 111t-112.5 36
q-88 0 -123.5 -38.5t-35.5 -88.5q0 -84 112 -116l75 -22q86 -25 130.5 -65t44.5 -128q0 -40 -11.5 -74t-39 -66.5t-83 -51.5t-133.5 -19z" />
    <glyph glyph-name="T" unicode="T" horiz-adv-x="561" 
d="M632 710l-14 -80h-223l-111 -630h-95l111 630h-223l14 80h541z" />
    <glyph glyph-name="U" unicode="U" horiz-adv-x="717" 
d="M167 710h95l-79 -444q-17 -97 24 -148t136 -51q94 0 136 48t58 139l81 456h95l-87 -490q-43 -237 -290 -237q-143 0 -207 77t-39 217z" />
    <glyph glyph-name="V" unicode="V" horiz-adv-x="606" 
d="M207 0l-121 710h97l78 -522q9 -63 9 -96h4q17 43 43 96l262 522h103l-371 -710h-104z" />
    <glyph glyph-name="W" unicode="W" horiz-adv-x="912" 
d="M150 0l-44 710h95l22 -572q1 -18 -1 -39h3q5 17 15 39l247 572h96l45 -572q2 -25 1 -39h3q4 14 13 39l224 572h99l-294 -710h-116l-40 554q-1 16 0 33h-4q-3 -11 -12 -33l-236 -554h-116z" />
    <glyph glyph-name="X" unicode="X" horiz-adv-x="640" 
d="M-29 0l314 375l-166 335h108l107 -233q11 -24 16 -42h2q5 9 30 41l189 234h109l-283 -343l184 -367h-108l-118 252q-20 44 -23 56h-2q-11 -18 -42 -56l-206 -252h-111z" />
    <glyph glyph-name="Y" unicode="Y" horiz-adv-x="578" 
d="M197 0l50 283l-166 427h102l110 -301q7 -20 12 -41h2q4 9 26 41l216 301h110l-316 -427l-50 -283h-96z" />
    <glyph glyph-name="Z" unicode="Z" horiz-adv-x="569" 
d="M7 88l489 542h-381l14 80h487l-15 -88l-491 -542h409l-14 -80h-514z" />
    <glyph glyph-name="bracketleft" unicode="[" horiz-adv-x="334" 
d="M36 -114l154 871h193l-13 -70h-117l-129 -731h117l-12 -70h-193z" />
    <glyph glyph-name="backslash" unicode="\" horiz-adv-x="761" 
d="M572 -117l-437 877h79l437 -877h-79z" />
    <glyph glyph-name="bracketright" unicode="]" horiz-adv-x="334" 
d="M323 757l-154 -871h-193l13 70h117l129 731h-117l12 70h193z" />
    <glyph glyph-name="asciicircum" unicode="^" horiz-adv-x="400" 
d="M245 709h72l98 -262h-75l-64 190l-132 -190h-89z" />
    <glyph glyph-name="underscore" unicode="_" horiz-adv-x="427" 
d="M-61 -97h427l-11 -60h-427z" />
    <glyph glyph-name="grave" unicode="`" horiz-adv-x="600" 
d="M354 580h-78l-143 143h104z" />
    <glyph glyph-name="a" unicode="a" horiz-adv-x="544" 
d="M190 -12q-73 0 -118 39t-45 105q0 65 47 106q54 46 165 55l151 12l3 20q9 60 -13 88.5t-81 28.5q-114 0 -132 -99h-87q12 82 68.5 125.5t145.5 43.5q110 0 154.5 -53t25.5 -166l-22 -127q-18 -103 -12 -166h-88q0 49 6 91q-54 -103 -168 -103zM208 58q63 0 108.5 44.5
t58.5 115.5l5 27l-124 -10q-137 -11 -137 -98q0 -40 24.5 -59.5t64.5 -19.5z" />
    <glyph glyph-name="b" unicode="b" horiz-adv-x="588" 
d="M306 -12q-119 0 -160 98l-30 -86h-65l128 725h84l-53 -303q61 90 154 90q34 0 64.5 -11t57.5 -34t43.5 -65t16.5 -99q0 -53 -14 -106.5t-42 -101t-76 -77.5t-108 -30zM290 63q47 0 81.5 25t51.5 64.5t24.5 76.5t7.5 71q0 76 -33 106.5t-82 30.5q-59 0 -100.5 -39
t-54.5 -103l-8 -40q-17 -82 12 -137t101 -55z" />
    <glyph glyph-name="c" unicode="c" horiz-adv-x="533" 
d="M257 -12q-41 0 -76.5 11t-67.5 35t-50.5 69t-18.5 106q0 53 14 103.5t43 97t81 74.5t121 28q86 0 141.5 -45.5t55.5 -136.5l-82 -10q-3 64 -36 91t-81 27q-46 0 -80 -22t-52 -57.5t-26 -73t-8 -76.5q0 -78 36.5 -112.5t89.5 -34.5q103 0 130 119l83 -13q-19 -84 -74 -132
t-143 -48z" />
    <glyph glyph-name="d" unicode="d" horiz-adv-x="589" 
d="M220 -12q-72 0 -125 51.5t-53 159.5q0 53 14 106t42 100.5t76.5 77t110.5 29.5q118 0 154 -96l54 309h85l-128 -725h-80l15 86q-25 -47 -69.5 -72.5t-95.5 -25.5zM250 63q64 0 103.5 43.5t52.5 111.5l5 26q19 98 -18.5 145.5t-101.5 47.5q-44 0 -76.5 -23t-49.5 -60.5
t-24.5 -74.5t-7.5 -73q0 -81 34.5 -112t82.5 -31z" />
    <glyph glyph-name="e" unicode="e" horiz-adv-x="544" 
d="M486 225h-359v-8q0 -154 136 -154q49 0 81.5 22.5t53.5 72.5l70 -33q-55 -137 -208 -137q-41 0 -77 11t-68.5 35t-51.5 69t-19 107q0 55 15.5 107t45.5 96.5t81.5 71.5t116.5 27q89 0 144 -49t55 -143q0 -51 -16 -95zM301 446q-65 0 -107.5 -41.5t-58.5 -110.5h279
q5 17 5 39q0 58 -33 85.5t-85 27.5z" />
    <glyph glyph-name="f" unicode="f" horiz-adv-x="348" 
d="M366 500l-12 -70h-125l-76 -430h-85l76 430h-92l12 70h92l15 87q26 144 163 144q40 0 72 -12l-13 -73q-26 10 -54 10q-43 0 -60.5 -20.5t-23.5 -57.5l-14 -78h125z" />
    <glyph glyph-name="g" unicode="g" horiz-adv-x="528" 
d="M530 582q22 0 40 -5l-13 -76q-14 7 -45 7q-58 0 -72 -59q27 -38 27 -91q0 -76 -51 -130.5t-146 -54.5q-59 0 -102 22q-58 -17 -58 -55q0 -25 22 -34.5t70 -11.5l87 -2q167 -4 167 -128q0 -72 -60 -121t-202 -49q-220 0 -220 127q0 81 111 116q-53 22 -53 77q0 73 101 106
q-41 41 -41 107q0 76 51 130.5t146 54.5q65 0 111 -27q13 44 47 70.5t83 26.5zM277 238q55 0 82 34t27 80q0 49 -30.5 72t-73.5 23q-55 0 -82 -34t-27 -80q0 -49 30.5 -72t73.5 -23zM275 17l-85 2q-21 0 -51 4q-80 -28 -80 -84q0 -44 37.5 -59.5t103.5 -15.5q90 0 128.5 26
t38.5 63t-24 50t-68 14z" />
    <glyph glyph-name="h" unicode="h" horiz-adv-x="584" 
d="M51 0l128 725h85l-55 -315q20 45 62 73.5t103 28.5q70 0 109.5 -39t39.5 -114q0 -27 -6 -60l-52 -299h-85l53 299q4 24 4 43q0 95 -98 95q-126 0 -157 -176l-46 -261h-85z" />
    <glyph glyph-name="i" unicode="i" horiz-adv-x="265" 
d="M142 593l19 107h97l-19 -107h-97zM46 0l88 500h85l-88 -500h-85z" />
    <glyph glyph-name="j" unicode="j" horiz-adv-x="264" 
d="M141 593l19 107h97l-19 -107h-97zM-24 -202q-38 0 -69 11l13 74q28 -8 47 -8q30 0 45 15.5t21 50.5l99 559h86l-101 -568q-13 -69 -44 -101.5t-97 -32.5z" />
    <glyph glyph-name="k" unicode="k" horiz-adv-x="542" 
d="M559 500l-226 -200l150 -300h-100l-115 242l-105 -89l-27 -153h-85l128 725h85l-81 -461l265 236h111z" />
    <glyph glyph-name="l" unicode="l" horiz-adv-x="275" 
d="M264 725l-128 -725h-85l128 725h85z" />
    <glyph glyph-name="m" unicode="m" horiz-adv-x="835" 
d="M46 0l89 500h80l-15 -87q22 47 55.5 74t89.5 27q111 0 129 -102q51 102 157 102q58 0 102 -34t44 -113q0 -25 -6 -57l-56 -310h-85l55 303q4 23 4 45q0 91 -84 91q-104 0 -133 -163l-49 -276h-85l54 303q4 23 4 45q0 91 -84 91q-104 0 -133 -163l-48 -276h-85z" />
    <glyph glyph-name="n" unicode="n" horiz-adv-x="579" 
d="M46 0l89 500h80l-18 -99q45 111 166 111q64 0 108.5 -36.5t44.5 -121.5q0 -29 -6 -65l-50 -289h-85l51 289q5 30 5 48q0 100 -100 100q-123 0 -154 -176l-46 -261h-85z" />
    <glyph glyph-name="o" unicode="o" horiz-adv-x="566" 
d="M259 -12q-91 0 -153 51.5t-62 166.5q0 54 14 105.5t43.5 97.5t82.5 74.5t123 28.5q91 0 153 -51.5t62 -166.5q0 -54 -14 -105.5t-43.5 -97.5t-82.5 -74.5t-123 -28.5zM264 62q47 0 82 22.5t52.5 59t25 72.5t7.5 73q0 79 -36.5 114t-92.5 35q-47 0 -82 -22.5t-52.5 -59
t-25 -72.5t-7.5 -73q0 -79 36.5 -114t92.5 -35z" />
    <glyph glyph-name="p" unicode="p" horiz-adv-x="584" 
d="M12 -195l123 695h80l-17 -93q57 105 162 105q34 0 64.5 -11t57.5 -34t43.5 -65t16.5 -99q0 -74 -24 -143t-80.5 -120.5t-135.5 -51.5q-51 0 -94.5 21.5t-62.5 69.5l-48 -274h-85zM284 63q39 0 69.5 17.5t48.5 43t29.5 59t15.5 62t4 54.5q0 138 -115 138q-68 0 -108 -48
t-51 -115l-6 -35q-13 -78 15.5 -127t97.5 -49z" />
    <glyph glyph-name="q" unicode="q" horiz-adv-x="585" 
d="M331 -195l50 281q-43 -98 -157 -98q-76 0 -129 51.5t-53 159.5q0 54 14 106.5t42 100t77 77t112 29.5q121 0 157 -92l33 80h62l-123 -695h-85zM250 63q64 0 103.5 43.5t52.5 111.5l5 26q19 98 -18.5 145.5t-101.5 47.5q-44 0 -76.5 -23t-49.5 -60.5t-24.5 -74.5t-7.5 -73
q0 -81 34.5 -112t82.5 -31z" />
    <glyph glyph-name="r" unicode="r" horiz-adv-x="360" 
d="M192 376q25 67 63 101.5t98 34.5q19 0 33 -3l-16 -84q-11 3 -27 3q-53 0 -89 -30q-59 -49 -81 -169l-42 -229h-85l89 500h79z" />
    <glyph glyph-name="s" unicode="s" horiz-adv-x="498" 
d="M231 -12q-190 0 -208 166l86 15q8 -60 39.5 -85.5t87.5 -25.5q109 0 109 83q0 30 -15 44t-50 21l-86 17q-61 12 -90.5 48t-29.5 86q0 67 50 111t145 44q81 0 136 -36t63 -116l-83 -19q-9 60 -40.5 81t-77.5 21q-108 0 -108 -79q0 -30 17 -45.5t56 -23.5l84 -17
q60 -12 88 -47.5t28 -86.5q0 -69 -50 -112.5t-151 -43.5z" />
    <glyph glyph-name="t" unicode="t" horiz-adv-x="354" 
d="M47 430l13 70h93l23 131l92 36l-30 -167h125l-13 -70h-124l-48 -270q-10 -52 8.5 -70.5t55.5 -18.5q25 0 46 5l-14 -76q-30 -9 -61 -9q-66 0 -100.5 44t-17.5 138l46 257h-94z" />
    <glyph glyph-name="u" unicode="u" horiz-adv-x="572" 
d="M216 -12q-63 0 -108 35.5t-45 115.5q0 30 6 72l50 289h85l-51 -289q-5 -37 -5 -55q0 -50 29 -71.5t71 -21.5q115 0 146 176l46 261h86l-89 -500h-80l18 99q-19 -49 -59 -80t-100 -31z" />
    <glyph glyph-name="v" unicode="v" horiz-adv-x="473" 
d="M147 0l-93 500h90l53 -337q5 -35 7 -76h3q14 35 35 76l171 337h94l-269 -500h-91z" />
    <glyph glyph-name="w" unicode="w" horiz-adv-x="732" 
d="M122 0l-53 500h79l27 -362q1 -18 1 -59h2q7 22 23 59l154 362h100l28 -362q3 -54 3 -59h2q11 36 21 59l153 362h89l-229 -500h-94l-31 366q-1 16 -1 56h-2q-5 -20 -21 -56l-158 -366h-93z" />
    <glyph glyph-name="x" unicode="x" horiz-adv-x="495" 
d="M-29 0l226 258l-125 242h100l66 -141q18 -38 20 -52h1q9 16 37 52l111 141h104l-209 -248l134 -252h-95l-76 154q-17 34 -19 51h-1q-4 -9 -38 -51l-124 -154h-112z" />
    <glyph glyph-name="y" unicode="y" horiz-adv-x="486" 
d="M29 -201q-34 0 -63 8l13 77q23 -8 54 -8q67 0 106 81l24 49l-109 494h91l66 -348q4 -22 7 -59h2q8 23 27 59l177 348h96l-302 -562q-48 -88 -88 -113.5t-101 -25.5z" />
    <glyph glyph-name="z" unicode="z" horiz-adv-x="455" 
d="M3 65l339 363h-266l13 72h366l-11 -63l-337 -364h287l-13 -73h-390z" />
    <glyph glyph-name="braceleft" unicode="{" horiz-adv-x="355" 
d="M214 -116q-28 0 -51 7t-43.5 25t-26 49t0.5 80l25 140q5 32 6.5 56t-12.5 38.5t-45 15.5l12 68q45 1 61.5 25t26.5 81l28 160q5 28 13 49t25.5 44.5t51 36t80.5 12.5h37l-11 -61h-16q-28 0 -48 -8t-30.5 -22.5t-15.5 -28.5t-8 -33l-25 -139q-11 -61 -33 -98t-65 -51
q67 -30 44 -156l-25 -138q-9 -50 11.5 -70.5t51.5 -20.5h27l-10 -61h-36z" />
    <glyph glyph-name="bar" unicode="|" horiz-adv-x="262" 
d="M30 -117l155 877h72l-155 -877h-72z" />
    <glyph glyph-name="braceright" unicode="}" horiz-adv-x="355" 
d="M168 771q28 0 51 -7t43.5 -25t26 -49t-0.5 -80l-25 -140q-5 -32 -6.5 -56t12.5 -38.5t45 -15.5l-12 -68q-45 -1 -61.5 -25t-26.5 -81l-28 -160q-5 -28 -13 -49t-25.5 -44.5t-51 -36t-80.5 -12.5h-37l11 61h16q28 0 48 8t30.5 22.5t15.5 28.5t8 33l25 139q11 61 33 98
t65 51q-67 30 -44 156l25 138q9 50 -11.5 70.5t-51.5 20.5h-27l10 61h36z" />
    <glyph glyph-name="asciitilde" unicode="~" horiz-adv-x="621" 
d="M419 237q-34 0 -63.5 12.5t-46.5 27t-40 27t-45 12.5q-32 0 -52.5 -14.5t-35.5 -53.5l-68 12q15 60 58 94.5t98 34.5q34 0 63.5 -12.5t46.5 -27t40 -27t45 -12.5q32 0 52.5 14.5t35.5 53.5l68 -12q-15 -60 -58 -94.5t-98 -34.5z" />
    <glyph glyph-name="uni00A0" unicode="&#xa0;" horiz-adv-x="260" 
 />
    <glyph glyph-name="exclamdown" unicode="&#xa1;" horiz-adv-x="310" 
d="M141 474l19 106h106l-19 -106h-106zM211 398l-71 -543h-110l121 543h60z" />
    <glyph glyph-name="cent" unicode="&#xa2;" horiz-adv-x="560" 
d="M282 56q106 4 133 112l83 -16q-19 -75 -75.5 -119.5t-150.5 -44.5h-1l-14 -77h-60l14 82q-74 14 -120.5 66t-46.5 151q0 51 14 100.5t42.5 95.5t81 75t121.5 31l14 82h60l-15 -86q71 -10 116 -51.5t45 -115.5l-80 -11q-5 95 -93 110zM130 209q0 -119 94 -146l66 379
q-46 -6 -79 -30.5t-49.5 -60t-24 -71t-7.5 -71.5z" />
    <glyph glyph-name="sterling" unicode="&#xa3;" horiz-adv-x="608" 
d="M387 69q30 0 51.5 8.5t34 25t19 31.5t11.5 37l78 -16q-15 -71 -67.5 -120.5t-129.5 -49.5q-39 0 -98 13t-106 13q-86 0 -186 -19l-8 63q86 21 134.5 78.5t48.5 173.5v25h-109l11 63h97v39q0 60 11.5 107.5t37.5 86.5t72 60.5t109 21.5q186 0 204 -151l-92 -22
q-12 98 -112 98q-44 0 -72 -15.5t-41.5 -47t-17.5 -65t-4 -84.5v-28h191l-11 -63h-180q0 -113 -31.5 -168t-107.5 -85q45 7 84 7q48 0 101 -8.5t78 -8.5z" />
    <glyph glyph-name="currency" unicode="&#xa4;" horiz-adv-x="572" 
d="M488 445q37 -51 37 -126q0 -109 -67 -178l40 -55l-46 -36l-42 55q-48 -28 -113 -28q-96 0 -157 53l-67 -61l-33 36l67 61q-34 50 -34 121q0 106 64 175l-44 60l47 36l44 -58q53 29 117 29q90 0 152 -48l65 58l33 -36zM291 148q80 0 117.5 50.5t37.5 120.5q0 71 -39.5 105
t-99.5 34q-80 0 -117.5 -50.5t-37.5 -120.5q0 -71 39.5 -105t99.5 -34z" />
    <glyph glyph-name="yen" unicode="&#xa5;" horiz-adv-x="525" 
d="M603 695l-276 -354h172l-11 -60h-175l-9 -48h176l-11 -60h-175l-31 -173h-91l31 173h-175l11 60h174l9 48h-175l11 60h170l-150 354h96l78 -195q24 -62 31 -95h3q19 34 65 95l147 195h105z" />
    <glyph glyph-name="brokenbar" unicode="&#xa6;" horiz-adv-x="261" 
d="M256 760l-67 -378h-71l67 378h71zM168 261l-67 -378h-71l67 378h71z" />
    <glyph glyph-name="section" unicode="&#xa7;" horiz-adv-x="504" 
d="M495 570l-88 -20q4 52 -25.5 74t-82.5 22q-109 0 -109 -81q0 -29 19 -49.5t69 -41.5l80 -34q112 -47 112 -142q0 -86 -79 -133q23 -37 23 -84q0 -71 -51 -116.5t-152 -45.5q-58 0 -104.5 15t-77.5 51.5t-30 90.5l81 15q2 -55 39.5 -78t91.5 -23q60 0 88 24.5t28 61.5
q0 50 -69 81l-103 46q-105 47 -105 139q0 81 84 120q-31 39 -31 91q0 68 48 115t147 47q86 0 142.5 -37t54.5 -108zM283 377l-89 41q-3 1 -6.5 3t-7.5 4l-6 3q-38 -28 -38 -74q0 -29 22.5 -47.5t93.5 -50.5l66 -30q21 -10 34 -20q33 33 33 73q0 33 -21.5 52t-80.5 46z" />
    <glyph glyph-name="dieresis" unicode="&#xa8;" horiz-adv-x="600" 
d="M50 596l18 103h97l-18 -103h-97zM253 596l18 103h97l-18 -103h-97z" />
    <glyph glyph-name="copyright" unicode="&#xa9;" horiz-adv-x="850" 
d="M428 -18q-50 0 -99.5 10.5t-98 35.5t-85 62.5t-59 95.5t-22.5 130q0 57 12.5 112.5t42.5 110.5t74 96.5t113 67t153 25.5q50 0 99.5 -10.5t98 -35.5t85 -62.5t59 -95.5t22.5 -130q0 -57 -12.5 -112.5t-42.5 -110.5t-74 -96.5t-113 -67t-153 -25.5zM425 29
q91 0 160.5 34.5t108.5 90t58 116.5t19 123q0 73 -28 130.5t-73.5 90.5t-98.5 50t-109 17q-91 0 -160.5 -34.5t-108.5 -90t-58 -116.5t-19 -123q0 -73 28 -130.5t73.5 -90.5t98.5 -50t109 -17zM427 142q-73 0 -124 42.5t-51 137.5q0 34 7 67t23 66.5t39.5 58.5t60.5 40.5
t82 15.5q71 0 116.5 -37t45.5 -112l-68 -8q-2 52 -29 74.5t-67 22.5q-71 0 -104 -58.5t-31 -129.5q1 -65 30.5 -92.5t71.5 -27.5q44 0 71 27t37 71l67 -11q-15 -69 -59.5 -108t-117.5 -39z" />
    <glyph glyph-name="ordfeminine" unicode="&#xaa;" horiz-adv-x="440" 
d="M204 301q-54 0 -87.5 26.5t-33.5 75.5q0 61 43 87t125 32l108 8l2 14q7 46 -10 66.5t-60 20.5q-82 0 -94 -72h-75q8 59 50 92t119 33q169 0 142 -160l-16 -97q-12 -68 -10 -117h-75q0 40 6 70q-37 -79 -134 -79zM231 353q45 0 78 29t40 78l4 29l-84 -6q-106 -7 -106 -72
q0 -30 19 -44t49 -14z" />
    <glyph glyph-name="guillemotleft" unicode="&#xab;" horiz-adv-x="510" 
d="M168 67l-134 208l208 208h97l-213 -214l130 -202h-88zM360 67l-134 208l208 208h97l-213 -214l130 -202h-88z" />
    <glyph glyph-name="logicalnot" unicode="&#xac;" horiz-adv-x="663" 
d="M121 374h465l-43 -243h-80l29 163h-385z" />
    <glyph glyph-name="registered" unicode="&#xae;" horiz-adv-x="850" 
d="M459 728q50 0 99.5 -10.5t98 -35.5t85 -62.5t59 -95.5t22.5 -130q0 -57 -12.5 -112.5t-42.5 -110.5t-74 -96.5t-113 -67t-153 -25.5q-50 0 -99.5 10.5t-98 35.5t-85 62.5t-59 95.5t-22.5 130q0 57 12.5 112.5t42.5 110.5t74 96.5t113 67t153 25.5zM425 29
q91 0 160.5 34.5t108.5 90t58 116.5t19 123q0 73 -28 130.5t-73.5 90.5t-98.5 50t-109 17q-91 0 -160.5 -34.5t-108.5 -90t-58 -116.5t-19 -123q0 -73 28 -130.5t73.5 -90.5t98.5 -50t109 -17zM473 562q140 0 140 -105q0 -100 -110 -126l69 -175h-70l-62 171h-65l-30 -171
h-66l72 406h122zM461 384q87 0 87 68q0 34 -19.5 44t-55.5 10h-66l-22 -122h76z" />
    <glyph glyph-name="macron" unicode="&#xaf;" horiz-adv-x="600" 
d="M50 613l12 68h298l-12 -68h-298z" />
    <glyph glyph-name="degree" unicode="&#xb0;" horiz-adv-x="417" 
d="M249 367q-78 0 -123.5 43.5t-45.5 112.5q0 75 48.5 134.5t141.5 59.5q72 0 120.5 -41t48.5 -114q0 -34 -10 -66.5t-31 -62t-59.5 -48t-89.5 -18.5zM249 441q51 0 80.5 34.5t29.5 82.5q0 45 -26 65t-63 20q-51 0 -80.5 -33.5t-29.5 -82.5q0 -46 26 -66t63 -20z" />
    <glyph glyph-name="plusminus" unicode="&#xb1;" horiz-adv-x="684" 
d="M403 365h194l-13 -73h-194l-28 -160h-85l28 160h-191l13 73h191l29 161h85zM63 0l14 80h470l-14 -80h-470z" />
    <glyph glyph-name="acute" unicode="&#xb4;" horiz-adv-x="600" 
d="M48 580l117 143h104l-143 -143h-78z" />
    <glyph glyph-name="uni00B5" unicode="&#xb5;" horiz-adv-x="587" 
d="M455 500h86l-89 -500h-80l18 99q-19 -49 -59 -80t-100 -31q-65 0 -105 33l-38 -216h-75l121 695h85l-51 -289q-5 -37 -5 -55q0 -50 29 -71.5t71 -21.5q115 0 146 176z" />
    <glyph glyph-name="paragraph" unicode="&#xb6;" horiz-adv-x="661" 
d="M299 361q-24 0 -49.5 4t-53.5 15.5t-50 28t-36 45t-14 63.5q0 92 63.5 147.5t208.5 55.5h316l-10 -57h-99l-135 -763h-65l135 763h-92l-135 -763h-65z" />
    <glyph glyph-name="periodcentered" unicode="&#xb7;" horiz-adv-x="257" 
d="M213 399l-21 -118h-117l21 118h117z" />
    <glyph glyph-name="cedilla" unicode="&#xb8;" horiz-adv-x="600" 
d="M146 7h53l-45 -56q14 12 39 12q31 0 50 -18.5t19 -50.5q0 -41 -32 -67t-79 -26q-89 0 -101 63l59 10q5 -28 42 -28q19 0 32.5 12t13.5 36q0 34 -37 34q-20 0 -34 -15l-37 12z" />
    <glyph glyph-name="ordmasculine" unicode="&#xba;" horiz-adv-x="454" 
d="M253 301q-70 0 -119 37.5t-49 124.5q0 55 18.5 102.5t66 83t118.5 35.5q69 0 118 -37.5t49 -124.5q0 -40 -11 -77t-33.5 -70.5t-63 -53.5t-94.5 -20zM256 358q63 0 92 51.5t29 113.5q0 56 -26.5 80t-65.5 24q-44 0 -73.5 -28.5t-39.5 -63.5t-10 -73q0 -56 27 -80t67 -24z
" />
    <glyph glyph-name="guillemotright" unicode="&#xbb;" horiz-adv-x="511" 
d="M159 483l134 -208l-208 -208h-97l213 214l-130 202h88zM351 483l134 -208l-208 -208h-97l213 214l-130 202h88z" />
    <glyph glyph-name="onequarter" unicode="&#xbc;" horiz-adv-x="769" 
d="M59 -17l562 744h74l-561 -744h-75zM131 328l51 282q-27 -34 -77 -34h-22l11 65h19q72 0 99 68h59l-67 -381h-73zM711 90h-62l-16 -90h-73l16 90h-193l9 50l234 241h74l-43 -239h62zM626 321l-169 -179h131z" />
    <glyph glyph-name="onehalf" unicode="&#xbd;" horiz-adv-x="817" 
d="M59 -17l562 744h74l-561 -744h-75zM131 328l51 282q-27 -34 -77 -34h-22l11 65h19q72 0 99 68h59l-67 -381h-73zM440 0l9 52q144 75 191 113q65 53 66 106q0 62 -70 62q-45 0 -63.5 -26.5t-8.5 -70.5l-73 7q-9 65 30.5 106t120.5 41q61 0 101.5 -25.5t40.5 -84.5
q0 -116 -230 -226h197l-9 -54h-302z" />
    <glyph glyph-name="threequarters" unicode="&#xbe;" horiz-adv-x="877" 
d="M167 -17l562 744h74l-561 -744h-75zM222 320q-65 0 -111 28.5t-46 95.5l75 5q-1 -41 21.5 -57.5t55.5 -16.5q40 0 59 19t19 48q0 28 -21.5 42t-53.5 14h-24l8 46h26q41 0 63.5 17t22.5 48q0 29 -19.5 42t-49.5 13q-38 0 -58.5 -21t-22.5 -53l-71 7q5 56 44 88.5t112 32.5
q54 0 98 -22t44 -75q0 -43 -29.5 -69.5t-79.5 -31.5q38 -4 62.5 -26t24.5 -59q0 -48 -36.5 -81.5t-112.5 -33.5zM819 90h-62l-16 -90h-73l16 90h-193l9 50l234 241h74l-43 -239h62zM734 321l-169 -179h131z" />
    <glyph glyph-name="questiondown" unicode="&#xbf;" horiz-adv-x="478" 
d="M355 580l-18 -106h-105l18 106h105zM313 394l-6 -39q-8 -50 -27 -84.5t-62 -60.5l-53 -32q-49 -30 -70 -62.5t-21 -77.5q0 -117 123 -117q43 0 73.5 15t45 39.5t20.5 49t6 51.5q0 24 -3 43l89 -11q3 -14 3 -52q0 -25 -6 -51t-23 -56t-42.5 -53t-68.5 -38t-97 -15
q-94 0 -155 44t-61 134q0 124 136 208l54 33q28 17 39.5 42t17.5 65l4 25h84z" />
    <glyph glyph-name="Agrave" unicode="&#xc0;" horiz-adv-x="672" 
d="M473 753h-80l-123 108h94zM515 0l-37 205h-290l-109 -205h-103l394 710h94l144 -710h-93zM231 285h233l-50 277q-6 32 -7 54h-2q-11 -25 -27 -54z" />
    <glyph glyph-name="Aacute" unicode="&#xc1;" horiz-adv-x="672" 
d="M588 861l-123 -108h-80l109 108h94zM515 0l-37 205h-290l-109 -205h-103l394 710h94l144 -710h-93zM231 285h233l-50 277q-6 32 -7 54h-2q-11 -25 -27 -54z" />
    <glyph glyph-name="Acircumflex" unicode="&#xc2;" horiz-adv-x="672" 
d="M442 825l-77 -72h-90l116 108h106l78 -108h-82zM515 0l-37 205h-290l-109 -205h-103l394 710h94l144 -710h-93zM231 285h233l-50 277q-6 32 -7 54h-2q-11 -25 -27 -54z" />
    <glyph glyph-name="Atilde" unicode="&#xc3;" horiz-adv-x="672" 
d="M370 797q-21 0 -34 -9t-23 -37l-56 11q30 100 111 100q38 0 71 -24.5t60 -24.5q40 0 55 46l56 -11q-30 -100 -111 -100q-38 0 -71 24.5t-58 24.5zM370 710h94l144 -710h-93l-37 205h-290l-109 -205h-103zM231 285h233l-50 277q-6 32 -7 54h-2q-11 -25 -27 -54z" />
    <glyph glyph-name="Adieresis" unicode="&#xc4;" horiz-adv-x="672" 
d="M379 851l-17 -98h-97l17 98h97zM602 851l-17 -98h-97l17 98h97zM515 0l-37 205h-290l-109 -205h-103l394 710h94l144 -710h-93zM231 285h233l-50 277q-6 32 -7 54h-2q-11 -25 -27 -54z" />
    <glyph glyph-name="Aring" unicode="&#xc5;" horiz-adv-x="672" 
d="M434 738q-49 0 -77 25t-28 67q0 48 34 80t83 32t77 -25t28 -67q0 -48 -34 -80t-83 -32zM446 894q-59 0 -59 -64q0 -20 12 -32t35 -12q59 0 59 64q0 20 -12 32t-35 12zM515 0l-37 205h-290l-109 -205h-103l394 710h94l144 -710h-93zM231 285h233l-50 277q-6 32 -7 54h-2
q-11 -25 -27 -54z" />
    <glyph glyph-name="AE" unicode="&#xc6;" horiz-adv-x="970" 
d="M965 630h-321l-40 -226h304l-14 -80h-304l-43 -244h328l-14 -80h-423l31 174h-250l-128 -174h-101l540 710h449zM483 254l64 367l-269 -367h205z" />
    <glyph glyph-name="Ccedilla" unicode="&#xc7;" horiz-adv-x="704" 
d="M356 66q159 0 205 173l92 -16q-25 -107 -97 -173.5t-198 -66.5h-12l-26 -32q14 12 39 12q31 0 50 -18.5t19 -50.5q0 -41 -32 -67t-79 -26q-89 0 -101 63l59 10q5 -28 42 -28q19 0 32.5 12t13.5 36q0 34 -37 34q-20 0 -34 -15l-37 12l43 62q-105 17 -170 91.5t-65 218.5
q0 78 20 151t60.5 137.5t112.5 103t166 38.5q53 0 99 -12.5t87 -40t65.5 -77.5t25.5 -119l-95 -10q-1 91 -53.5 134.5t-131.5 43.5q-67 0 -118.5 -31.5t-80 -83.5t-42 -109t-13.5 -117q0 -239 191 -239z" />
    <glyph glyph-name="Egrave" unicode="&#xc8;" horiz-adv-x="612" 
d="M461 753h-80l-123 108h94zM607 630h-345l-40 -226h328l-14 -80h-328l-43 -244h352l-14 -80h-447l125 710h440z" />
    <glyph glyph-name="Eacute" unicode="&#xc9;" horiz-adv-x="612" 
d="M576 861l-123 -108h-80l109 108h94zM607 630h-345l-40 -226h328l-14 -80h-328l-43 -244h352l-14 -80h-447l125 710h440z" />
    <glyph glyph-name="Ecircumflex" unicode="&#xca;" horiz-adv-x="612" 
d="M430 825l-77 -72h-90l116 108h106l78 -108h-82zM607 630h-345l-40 -226h328l-14 -80h-328l-43 -244h352l-14 -80h-447l125 710h440z" />
    <glyph glyph-name="Edieresis" unicode="&#xcb;" horiz-adv-x="612" 
d="M367 851l-17 -98h-97l17 98h97zM590 851l-17 -98h-97l17 98h97zM607 630h-345l-40 -226h328l-14 -80h-328l-43 -244h352l-14 -80h-447l125 710h440z" />
    <glyph glyph-name="Igrave" unicode="&#xcc;" horiz-adv-x="295" 
d="M272 753h-74l-93 108h88zM151 0h-95l125 710h95z" />
    <glyph glyph-name="Iacute" unicode="&#xcd;" horiz-adv-x="295" 
d="M200 753l79 108h88l-93 -108h-74zM151 0h-95l125 710h95z" />
    <glyph glyph-name="Icircumflex" unicode="&#xce;" horiz-adv-x="295" 
d="M363 753h-78l-31 72l-57 -72h-86l92 108h106zM151 0h-95l125 710h95z" />
    <glyph glyph-name="Idieresis" unicode="&#xcf;" horiz-adv-x="295" 
d="M112 753l17 98h97l-17 -98h-97zM265 753l17 98h97l-17 -98h-97zM151 0h-95l125 710h95z" />
    <glyph glyph-name="Eth" unicode="&#xd0;" horiz-adv-x="723" 
d="M390 710q61 0 114 -18t97 -54t69.5 -98.5t25.5 -144.5q0 -78 -23.5 -147t-70 -125.5t-125 -89.5t-180.5 -33h-241l59 335h-100l13 72h100l53 303h209zM299 80q81 0 141 27.5t92 74t47 98.5t15 110q0 124 -59.5 182t-146.5 58h-126l-39 -223h161l-13 -72h-161l-45 -255
h134z" />
    <glyph glyph-name="Ntilde" unicode="&#xd1;" horiz-adv-x="744" 
d="M535 748q-38 0 -71 24.5t-58 24.5q-21 0 -34 -9t-23 -37l-56 11q30 100 111 100q38 0 71 -24.5t60 -24.5q40 0 55 46l56 -11q-30 -100 -111 -100zM56 0l125 710h113l205 -519q16 -40 33 -91h3q3 33 14 94l92 516h84l-125 -710h-112l-206 521q-25 62 -33 91h-3
q-3 -42 -13 -94l-92 -518h-85z" />
    <glyph glyph-name="Ograve" unicode="&#xd2;" horiz-adv-x="756" 
d="M494 753h-80l-123 108h94zM366 -17q-59 0 -111 17t-96.5 52.5t-70.5 98.5t-26 148q0 60 12.5 119t40.5 115.5t69 99t104 68.5t139 26q59 0 111 -17t96.5 -52.5t70.5 -98.5t26 -148q0 -60 -12.5 -119t-40.5 -115.5t-69 -99t-104 -68.5t-139 -26zM367 63q58 0 105 22
t75.5 57t48 82t27 92.5t7.5 91.5q0 68 -17.5 116.5t-48.5 74t-65 37t-73 11.5q-58 0 -105 -22t-75.5 -57t-48 -82t-27 -92.5t-7.5 -91.5q0 -68 17.5 -116.5t48.5 -74t65 -37t73 -11.5z" />
    <glyph glyph-name="Oacute" unicode="&#xd3;" horiz-adv-x="756" 
d="M406 753l109 108h94l-123 -108h-80zM366 -17q-59 0 -111 17t-96.5 52.5t-70.5 98.5t-26 148q0 60 12.5 119t40.5 115.5t69 99t104 68.5t139 26q59 0 111 -17t96.5 -52.5t70.5 -98.5t26 -148q0 -60 -12.5 -119t-40.5 -115.5t-69 -99t-104 -68.5t-139 -26zM367 63
q58 0 105 22t75.5 57t48 82t27 92.5t7.5 91.5q0 68 -17.5 116.5t-48.5 74t-65 37t-73 11.5q-58 0 -105 -22t-75.5 -57t-48 -82t-27 -92.5t-7.5 -91.5q0 -68 17.5 -116.5t48.5 -74t65 -37t73 -11.5z" />
    <glyph glyph-name="Ocircumflex" unicode="&#xd4;" horiz-adv-x="756" 
d="M596 753h-82l-51 72l-77 -72h-90l116 108h106zM366 -17q-59 0 -111 17t-96.5 52.5t-70.5 98.5t-26 148q0 60 12.5 119t40.5 115.5t69 99t104 68.5t139 26q59 0 111 -17t96.5 -52.5t70.5 -98.5t26 -148q0 -60 -12.5 -119t-40.5 -115.5t-69 -99t-104 -68.5t-139 -26z
M367 63q58 0 105 22t75.5 57t48 82t27 92.5t7.5 91.5q0 68 -17.5 116.5t-48.5 74t-65 37t-73 11.5q-58 0 -105 -22t-75.5 -57t-48 -82t-27 -92.5t-7.5 -91.5q0 -68 17.5 -116.5t48.5 -74t65 -37t73 -11.5z" />
    <glyph glyph-name="Otilde" unicode="&#xd5;" horiz-adv-x="756" 
d="M520 748q-38 0 -71 24.5t-58 24.5q-21 0 -34 -9t-23 -37l-56 11q30 100 111 100q38 0 71 -24.5t60 -24.5q40 0 55 46l56 -11q-30 -100 -111 -100zM366 -17q-59 0 -111 17t-96.5 52.5t-70.5 98.5t-26 148q0 60 12.5 119t40.5 115.5t69 99t104 68.5t139 26q59 0 111 -17
t96.5 -52.5t70.5 -98.5t26 -148q0 -60 -12.5 -119t-40.5 -115.5t-69 -99t-104 -68.5t-139 -26zM367 63q58 0 105 22t75.5 57t48 82t27 92.5t7.5 91.5q0 68 -17.5 116.5t-48.5 74t-65 37t-73 11.5q-58 0 -105 -22t-75.5 -57t-48 -82t-27 -92.5t-7.5 -91.5q0 -68 17.5 -116.5
t48.5 -74t65 -37t73 -11.5z" />
    <glyph glyph-name="Odieresis" unicode="&#xd6;" horiz-adv-x="756" 
d="M286 753l17 98h97l-17 -98h-97zM509 753l17 98h97l-17 -98h-97zM366 -17q-59 0 -111 17t-96.5 52.5t-70.5 98.5t-26 148q0 60 12.5 119t40.5 115.5t69 99t104 68.5t139 26q59 0 111 -17t96.5 -52.5t70.5 -98.5t26 -148q0 -60 -12.5 -119t-40.5 -115.5t-69 -99t-104 -68.5
t-139 -26zM367 63q58 0 105 22t75.5 57t48 82t27 92.5t7.5 91.5q0 68 -17.5 116.5t-48.5 74t-65 37t-73 11.5q-58 0 -105 -22t-75.5 -57t-48 -82t-27 -92.5t-7.5 -91.5q0 -68 17.5 -116.5t48.5 -74t65 -37t73 -11.5z" />
    <glyph glyph-name="multiply" unicode="&#xd7;" horiz-adv-x="685" 
d="M631 513l-218 -186l153 -185l-67 -58l-153 186l-219 -186l-47 57l218 186l-153 186l68 57l153 -186l218 186z" />
    <glyph glyph-name="Oslash" unicode="&#xd8;" horiz-adv-x="756" 
d="M750 682l-71 -74q52 -78 52 -197q0 -60 -12.5 -119t-40.5 -115.5t-69 -99t-104 -68.5t-139 -26q-132 0 -213 74l-65 -69l-47 39l73 76q-52 78 -52 196q0 60 12.5 119t40.5 115.5t69 99t104 68.5t139 26q131 0 212 -73l64 67zM163 302q0 -72 21 -125l391 410
q-53 60 -149 60q-58 0 -105 -22t-75.5 -57t-48 -82t-27 -92.5t-7.5 -91.5zM630 408q0 74 -22 126l-391 -411q53 -60 150 -60q58 0 105 22t75.5 57t48 82t27 92.5t7.5 91.5z" />
    <glyph glyph-name="Ugrave" unicode="&#xd9;" horiz-adv-x="717" 
d="M496 753h-80l-123 108h94zM167 710h95l-79 -444q-17 -97 24 -148t136 -51q94 0 136 48t58 139l81 456h95l-87 -490q-43 -237 -290 -237q-143 0 -207 77t-39 217z" />
    <glyph glyph-name="Uacute" unicode="&#xda;" horiz-adv-x="717" 
d="M408 753l109 108h94l-123 -108h-80zM167 710h95l-79 -444q-17 -97 24 -148t136 -51q94 0 136 48t58 139l81 456h95l-87 -490q-43 -237 -290 -237q-143 0 -207 77t-39 217z" />
    <glyph glyph-name="Ucircumflex" unicode="&#xdb;" horiz-adv-x="717" 
d="M598 753h-82l-51 72l-77 -72h-90l116 108h106zM167 710h95l-79 -444q-17 -97 24 -148t136 -51q94 0 136 48t58 139l81 456h95l-87 -490q-43 -237 -290 -237q-143 0 -207 77t-39 217z" />
    <glyph glyph-name="Udieresis" unicode="&#xdc;" horiz-adv-x="717" 
d="M288 753l17 98h97l-17 -98h-97zM511 753l17 98h97l-17 -98h-97zM167 710h95l-79 -444q-17 -97 24 -148t136 -51q94 0 136 48t58 139l81 456h95l-87 -490q-43 -237 -290 -237q-143 0 -207 77t-39 217z" />
    <glyph glyph-name="Yacute" unicode="&#xdd;" horiz-adv-x="578" 
d="M338 753l109 108h94l-123 -108h-80zM197 0l50 283l-166 427h102l110 -301q7 -20 12 -41h2q4 9 26 41l216 301h110l-316 -427l-50 -283h-96z" />
    <glyph glyph-name="Thorn" unicode="&#xde;" horiz-adv-x="574" 
d="M349 568q226 0 226 -176q0 -106 -73 -160t-207 -54h-113l-31 -178h-95l125 710h95l-25 -142h98zM281 258q100 0 146.5 30t46.5 100q0 52 -37 76t-94 24h-106l-41 -230h85z" />
    <glyph glyph-name="germandbls" unicode="&#xdf;" horiz-adv-x="571" 
d="M272 -5q-57 0 -84 8l12 71q29 -8 72 -8q80 0 122 41t42 114q0 72 -44 107.5t-112 35.5h-39l13 72h48q80 0 114.5 38t34.5 99q0 52 -28 74.5t-69 22.5q-57 0 -88.5 -30.5t-46.5 -114.5l-93 -525h-85l93 527q37 210 222 210q187 0 187 -164q0 -64 -48.5 -116t-135.5 -55
q75 -8 121.5 -53t46.5 -128q0 -104 -67.5 -165t-187.5 -61z" />
    <glyph glyph-name="agrave" unicode="&#xe0;" horiz-adv-x="544" 
d="M361 580h-78l-143 143h104zM190 -12q-73 0 -118 39t-45 105q0 65 47 106q54 46 165 55l151 12l3 20q9 60 -13 88.5t-81 28.5q-114 0 -132 -99h-87q12 82 68.5 125.5t145.5 43.5q110 0 154.5 -53t25.5 -166l-22 -127q-18 -103 -12 -166h-88q0 49 6 91q-54 -103 -168 -103z
M208 58q63 0 108.5 44.5t58.5 115.5l5 27l-124 -10q-137 -11 -137 -98q0 -40 24.5 -59.5t64.5 -19.5z" />
    <glyph glyph-name="aacute" unicode="&#xe1;" horiz-adv-x="544" 
d="M279 580l117 143h104l-143 -143h-78zM190 -12q-73 0 -118 39t-45 105q0 65 47 106q54 46 165 55l151 12l3 20q9 60 -13 88.5t-81 28.5q-114 0 -132 -99h-87q12 82 68.5 125.5t145.5 43.5q110 0 154.5 -53t25.5 -166l-22 -127q-18 -103 -12 -166h-88q0 49 6 91
q-54 -103 -168 -103zM208 58q63 0 108.5 44.5t58.5 115.5l5 27l-124 -10q-137 -11 -137 -98q0 -40 24.5 -59.5t64.5 -19.5z" />
    <glyph glyph-name="acircumflex" unicode="&#xe2;" horiz-adv-x="544" 
d="M468 580h-76l-55 100l-91 -100h-82l133 143h88zM190 -12q-73 0 -118 39t-45 105q0 65 47 106q54 46 165 55l151 12l3 20q9 60 -13 88.5t-81 28.5q-114 0 -132 -99h-87q12 82 68.5 125.5t145.5 43.5q110 0 154.5 -53t25.5 -166l-22 -127q-18 -103 -12 -166h-88q0 49 6 91
q-54 -103 -168 -103zM208 58q63 0 108.5 44.5t58.5 115.5l5 27l-124 -10q-137 -11 -137 -98q0 -40 24.5 -59.5t64.5 -19.5z" />
    <glyph glyph-name="atilde" unicode="&#xe3;" horiz-adv-x="544" 
d="M401 587q-28 0 -50 10.5t-34 22.5t-29 22.5t-35 10.5q-44 0 -60 -57l-56 11q16 54 46 84t70 30q35 0 60 -16.5t45 -33t43 -16.5q42 0 61 57l56 -11q-15 -54 -46 -84t-71 -30zM190 -12q-73 0 -118 39t-45 105q0 65 47 106q54 46 165 55l151 12l3 20q9 60 -13 88.5
t-81 28.5q-114 0 -132 -99h-87q12 82 68.5 125.5t145.5 43.5q110 0 154.5 -53t25.5 -166l-22 -127q-18 -103 -12 -166h-88q0 49 6 91q-54 -103 -168 -103zM208 58q63 0 108.5 44.5t58.5 115.5l5 27l-124 -10q-137 -11 -137 -98q0 -40 24.5 -59.5t64.5 -19.5z" />
    <glyph glyph-name="adieresis" unicode="&#xe4;" horiz-adv-x="544" 
d="M169 596l18 103h97l-18 -103h-97zM372 596l18 103h97l-18 -103h-97zM190 -12q-73 0 -118 39t-45 105q0 65 47 106q54 46 165 55l151 12l3 20q9 60 -13 88.5t-81 28.5q-114 0 -132 -99h-87q12 82 68.5 125.5t145.5 43.5q110 0 154.5 -53t25.5 -166l-22 -127
q-18 -103 -12 -166h-88q0 49 6 91q-54 -103 -168 -103zM208 58q63 0 108.5 44.5t58.5 115.5l5 27l-124 -10q-137 -11 -137 -98q0 -40 24.5 -59.5t64.5 -19.5z" />
    <glyph glyph-name="aring" unicode="&#xe5;" horiz-adv-x="544" 
d="M317 556q-49 0 -77.5 25t-28.5 67q0 49 33 80.5t83 31.5q49 0 77.5 -25t28.5 -67q0 -49 -33 -80.5t-83 -31.5zM317 604q25 0 41.5 18t16.5 46q0 20 -13 32t-35 12q-25 0 -41.5 -18t-16.5 -46q0 -20 13 -32t35 -12zM190 -12q-73 0 -118 39t-45 105q0 65 47 106
q54 46 165 55l151 12l3 20q9 60 -13 88.5t-81 28.5q-114 0 -132 -99h-87q12 82 68.5 125.5t145.5 43.5q110 0 154.5 -53t25.5 -166l-22 -127q-18 -103 -12 -166h-88q0 49 6 91q-54 -103 -168 -103zM208 58q63 0 108.5 44.5t58.5 115.5l5 27l-124 -10q-137 -11 -137 -98
q0 -40 24.5 -59.5t64.5 -19.5z" />
    <glyph glyph-name="ae" unicode="&#xe6;" horiz-adv-x="844" 
d="M786 225h-329v-8q0 -154 121 -154q84 0 120 95l70 -33q-51 -137 -193 -137q-57 0 -107.5 27.5t-74.5 87.5q-27 -55 -83 -85t-122 -30q-73 0 -118 37.5t-45 96.5q0 73 48 113q45 38 164 49l147 11l3 30q9 60 -14.5 88.5t-85.5 28.5q-109 0 -122 -99h-87q10 82 67.5 125.5
t146.5 43.5q125 0 155 -81q65 81 171 81q82 0 133 -49t51 -143q0 -51 -16 -95zM616 446q-60 0 -99 -41.5t-53 -110.5h250q5 17 5 39q0 58 -29 85.5t-74 27.5zM206 58q64 0 109 40t54 109l5 28l-126 -9q-71 -5 -101 -29t-30 -70q0 -33 25 -51t64 -18z" />
    <glyph glyph-name="ccedilla" unicode="&#xe7;" horiz-adv-x="533" 
d="M261 62q103 0 130 119l83 -13q-18 -81 -70.5 -129t-136.5 -51l-30 -37q14 12 39 12q32 0 50.5 -18.5t18.5 -50.5q0 -41 -32 -67t-79 -26q-89 0 -101 63l59 10q5 -28 42 -28q19 0 32.5 12t13.5 36q0 34 -37 34q-21 0 -34 -15l-37 12l46 66q-76 10 -125 62.5t-49 155.5
q0 53 14 103.5t43 97t81 74.5t121 28q86 0 141.5 -45.5t55.5 -136.5l-82 -10q-3 64 -36 91t-81 27q-46 0 -80 -22t-52 -57.5t-26 -73t-8 -76.5q0 -78 36.5 -112.5t89.5 -34.5z" />
    <glyph glyph-name="egrave" unicode="&#xe8;" horiz-adv-x="544" 
d="M375 580h-78l-143 143h104zM486 225h-359v-8q0 -154 136 -154q49 0 81.5 22.5t53.5 72.5l70 -33q-55 -137 -208 -137q-41 0 -77 11t-68.5 35t-51.5 69t-19 107q0 55 15.5 107t45.5 96.5t81.5 71.5t116.5 27q89 0 144 -49t55 -143q0 -51 -16 -95zM301 446
q-65 0 -107.5 -41.5t-58.5 -110.5h279q5 17 5 39q0 58 -33 85.5t-85 27.5z" />
    <glyph glyph-name="eacute" unicode="&#xe9;" horiz-adv-x="544" 
d="M514 723l-143 -143h-78l117 143h104zM303 512q89 0 144 -49t55 -143q0 -51 -16 -95h-359v-8q0 -154 136 -154q49 0 81.5 22.5t53.5 72.5l70 -33q-55 -137 -208 -137q-41 0 -77 11t-68.5 35t-51.5 69t-19 107q0 55 15.5 107t45.5 96.5t81.5 71.5t116.5 27zM414 294
q5 17 5 39q0 58 -33 85.5t-85 27.5q-65 0 -107.5 -41.5t-58.5 -110.5h279z" />
    <glyph glyph-name="ecircumflex" unicode="&#xea;" horiz-adv-x="544" 
d="M351 680l-91 -100h-82l133 143h88l83 -143h-76zM486 225h-359v-8q0 -154 136 -154q49 0 81.5 22.5t53.5 72.5l70 -33q-55 -137 -208 -137q-41 0 -77 11t-68.5 35t-51.5 69t-19 107q0 55 15.5 107t45.5 96.5t81.5 71.5t116.5 27q89 0 144 -49t55 -143q0 -51 -16 -95z
M301 446q-65 0 -107.5 -41.5t-58.5 -110.5h279q5 17 5 39q0 58 -33 85.5t-85 27.5z" />
    <glyph glyph-name="edieresis" unicode="&#xeb;" horiz-adv-x="544" 
d="M298 699l-18 -103h-97l18 103h97zM501 699l-18 -103h-97l18 103h97zM486 225h-359v-8q0 -154 136 -154q49 0 81.5 22.5t53.5 72.5l70 -33q-55 -137 -208 -137q-41 0 -77 11t-68.5 35t-51.5 69t-19 107q0 55 15.5 107t45.5 96.5t81.5 71.5t116.5 27q89 0 144 -49t55 -143
q0 -51 -16 -95zM301 446q-65 0 -107.5 -41.5t-58.5 -110.5h279q5 17 5 39q0 58 -33 85.5t-85 27.5z" />
    <glyph glyph-name="igrave" unicode="&#xec;" horiz-adv-x="265" 
d="M229 580h-78l-103 143h94zM46 0l88 500h85l-88 -500h-85z" />
    <glyph glyph-name="iacute" unicode="&#xed;" horiz-adv-x="265" 
d="M154 580l87 143h94l-103 -143h-78zM46 0l88 500h85l-88 -500h-85z" />
    <glyph glyph-name="icircumflex" unicode="&#xee;" horiz-adv-x="265" 
d="M313 580h-71l-30 101l-66 -101h-77l103 143h88zM46 0l88 500h85l-88 -500h-85z" />
    <glyph glyph-name="idieresis" unicode="&#xef;" horiz-adv-x="265" 
d="M74 596l18 103h97l-18 -103h-97zM217 596l18 103h97l-18 -103h-97zM46 0l88 500h85l-88 -500h-85z" />
    <glyph glyph-name="eth" unicode="&#xf0;" horiz-adv-x="540" 
d="M443 622q75 -117 75 -274q0 -65 -14 -125.5t-44 -114.5t-84 -87t-126 -33q-38 0 -71 9.5t-65 32.5t-50.5 69.5t-18.5 111.5q0 53 12.5 102.5t39 96t76.5 74.5t118 28q98 0 135 -71h2q-10 83 -62 152l-134 -49l-12 44l114 42q-42 39 -87 57l66 53q59 -28 102 -81l89 33
l11 -44zM262 63q47 0 81 23t51.5 59.5t25 73t7.5 73.5q0 149 -125 149q-48 0 -83 -22t-52 -57.5t-24 -70.5t-7 -71q0 -157 126 -157z" />
    <glyph glyph-name="ntilde" unicode="&#xf1;" horiz-adv-x="579" 
d="M453 587q-28 0 -50 10.5t-34 22.5t-29 22.5t-35 10.5q-44 0 -60 -57l-56 11q16 54 46 84t70 30q35 0 60 -16.5t45 -33t43 -16.5q42 0 61 57l56 -11q-15 -54 -46 -84t-71 -30zM46 0l89 500h80l-18 -99q45 111 166 111q64 0 108.5 -36.5t44.5 -121.5q0 -29 -6 -65l-50 -289
h-85l51 289q5 30 5 48q0 100 -100 100q-123 0 -154 -176l-46 -261h-85z" />
    <glyph glyph-name="ograve" unicode="&#xf2;" horiz-adv-x="566" 
d="M368 580h-78l-143 143h104zM259 -12q-91 0 -153 51.5t-62 166.5q0 54 14 105.5t43.5 97.5t82.5 74.5t123 28.5q91 0 153 -51.5t62 -166.5q0 -54 -14 -105.5t-43.5 -97.5t-82.5 -74.5t-123 -28.5zM264 62q47 0 82 22.5t52.5 59t25 72.5t7.5 73q0 79 -36.5 114t-92.5 35
q-47 0 -82 -22.5t-52.5 -59t-25 -72.5t-7.5 -73q0 -79 36.5 -114t92.5 -35z" />
    <glyph glyph-name="oacute" unicode="&#xf3;" horiz-adv-x="566" 
d="M286 580l117 143h104l-143 -143h-78zM259 -12q-91 0 -153 51.5t-62 166.5q0 54 14 105.5t43.5 97.5t82.5 74.5t123 28.5q91 0 153 -51.5t62 -166.5q0 -54 -14 -105.5t-43.5 -97.5t-82.5 -74.5t-123 -28.5zM264 62q47 0 82 22.5t52.5 59t25 72.5t7.5 73q0 79 -36.5 114
t-92.5 35q-47 0 -82 -22.5t-52.5 -59t-25 -72.5t-7.5 -73q0 -79 36.5 -114t92.5 -35z" />
    <glyph glyph-name="ocircumflex" unicode="&#xf4;" horiz-adv-x="566" 
d="M475 580h-76l-55 100l-91 -100h-82l133 143h88zM259 -12q-91 0 -153 51.5t-62 166.5q0 54 14 105.5t43.5 97.5t82.5 74.5t123 28.5q91 0 153 -51.5t62 -166.5q0 -54 -14 -105.5t-43.5 -97.5t-82.5 -74.5t-123 -28.5zM264 62q47 0 82 22.5t52.5 59t25 72.5t7.5 73
q0 79 -36.5 114t-92.5 35q-47 0 -82 -22.5t-52.5 -59t-25 -72.5t-7.5 -73q0 -79 36.5 -114t92.5 -35z" />
    <glyph glyph-name="otilde" unicode="&#xf5;" horiz-adv-x="566" 
d="M408 587q-28 0 -50 10.5t-34 22.5t-29 22.5t-35 10.5q-44 0 -60 -57l-56 11q16 54 46 84t70 30q35 0 60 -16.5t45 -33t43 -16.5q42 0 61 57l56 -11q-15 -54 -46 -84t-71 -30zM259 -12q-91 0 -153 51.5t-62 166.5q0 54 14 105.5t43.5 97.5t82.5 74.5t123 28.5
q91 0 153 -51.5t62 -166.5q0 -54 -14 -105.5t-43.5 -97.5t-82.5 -74.5t-123 -28.5zM264 62q47 0 82 22.5t52.5 59t25 72.5t7.5 73q0 79 -36.5 114t-92.5 35q-47 0 -82 -22.5t-52.5 -59t-25 -72.5t-7.5 -73q0 -79 36.5 -114t92.5 -35z" />
    <glyph glyph-name="odieresis" unicode="&#xf6;" horiz-adv-x="566" 
d="M176 596l18 103h97l-18 -103h-97zM379 596l18 103h97l-18 -103h-97zM259 -12q-91 0 -153 51.5t-62 166.5q0 54 14 105.5t43.5 97.5t82.5 74.5t123 28.5q91 0 153 -51.5t62 -166.5q0 -54 -14 -105.5t-43.5 -97.5t-82.5 -74.5t-123 -28.5zM264 62q47 0 82 22.5t52.5 59
t25 72.5t7.5 73q0 79 -36.5 114t-92.5 35q-47 0 -82 -22.5t-52.5 -59t-25 -72.5t-7.5 -73q0 -79 36.5 -114t92.5 -35z" />
    <glyph glyph-name="divide" unicode="&#xf7;" horiz-adv-x="570" 
d="M325 462q-23 0 -37.5 14.5t-14.5 37.5t14.5 37.5t37.5 14.5t37.5 -14t14.5 -38q0 -23 -14.5 -37.5t-37.5 -14.5zM57 288l13 76h470l-13 -76h-470zM266 86q-23 0 -37.5 14.5t-14.5 37.5t14.5 37.5t37.5 14.5t37.5 -14t14.5 -38q0 -23 -14.5 -37.5t-37.5 -14.5z" />
    <glyph glyph-name="oslash" unicode="&#xf8;" horiz-adv-x="566" 
d="M543 483l-55 -56q34 -53 34 -133q0 -54 -14 -105.5t-43.5 -97.5t-82.5 -74.5t-123 -28.5q-94 0 -150 49l-49 -51l-38 31l55 57q-33 53 -33 132q0 54 14 105.5t43.5 97.5t82.5 74.5t123 28.5q93 0 149 -48l49 50zM135 211q0 -36 10 -68l251 258q-34 37 -94 37
q-47 0 -82 -22.5t-52.5 -59t-25 -72.5t-7.5 -73zM431 289q0 38 -10 68l-251 -258q33 -37 94 -37q47 0 82 22.5t52.5 59t25 72.5t7.5 73z" />
    <glyph glyph-name="ugrave" unicode="&#xf9;" horiz-adv-x="572" 
d="M381 580h-78l-143 143h104zM216 -12q-63 0 -108 35.5t-45 115.5q0 30 6 72l50 289h85l-51 -289q-5 -37 -5 -55q0 -50 29 -71.5t71 -21.5q115 0 146 176l46 261h86l-89 -500h-80l18 99q-19 -49 -59 -80t-100 -31z" />
    <glyph glyph-name="uacute" unicode="&#xfa;" horiz-adv-x="572" 
d="M299 580l117 143h104l-143 -143h-78zM216 -12q-63 0 -108 35.5t-45 115.5q0 30 6 72l50 289h85l-51 -289q-5 -37 -5 -55q0 -50 29 -71.5t71 -21.5q115 0 146 176l46 261h86l-89 -500h-80l18 99q-19 -49 -59 -80t-100 -31z" />
    <glyph glyph-name="ucircumflex" unicode="&#xfb;" horiz-adv-x="572" 
d="M488 580h-76l-55 100l-91 -100h-82l133 143h88zM216 -12q-63 0 -108 35.5t-45 115.5q0 30 6 72l50 289h85l-51 -289q-5 -37 -5 -55q0 -50 29 -71.5t71 -21.5q115 0 146 176l46 261h86l-89 -500h-80l18 99q-19 -49 -59 -80t-100 -31z" />
    <glyph glyph-name="udieresis" unicode="&#xfc;" horiz-adv-x="572" 
d="M189 596l18 103h97l-18 -103h-97zM392 596l18 103h97l-18 -103h-97zM216 -12q-63 0 -108 35.5t-45 115.5q0 30 6 72l50 289h85l-51 -289q-5 -37 -5 -55q0 -50 29 -71.5t71 -21.5q115 0 146 176l46 261h86l-89 -500h-80l18 99q-19 -49 -59 -80t-100 -31z" />
    <glyph glyph-name="yacute" unicode="&#xfd;" horiz-adv-x="486" 
d="M266 580l117 143h104l-143 -143h-78zM29 -201q-34 0 -63 8l13 77q23 -8 54 -8q67 0 106 81l24 49l-109 494h91l66 -348q4 -22 7 -59h2q8 23 27 59l177 348h96l-302 -562q-48 -88 -88 -113.5t-101 -25.5z" />
    <glyph glyph-name="thorn" unicode="&#xfe;" horiz-adv-x="588" 
d="M364 512q34 0 64.5 -11t57.5 -34t43.5 -65t16.5 -99q0 -53 -14 -106.5t-42 -101t-76 -77.5t-108 -30q-113 0 -156 89l-48 -272h-85l34 195l128 725h85l-53 -301q62 88 153 88zM290 63q47 0 81.5 25t51.5 64.5t24.5 76.5t7.5 71q0 76 -33 106.5t-82 30.5q-59 0 -100.5 -39
t-54.5 -103l-8 -40q-17 -82 12 -137t101 -55z" />
    <glyph glyph-name="ydieresis" unicode="&#xff;" horiz-adv-x="486" 
d="M156 596l18 103h97l-18 -103h-97zM359 596l18 103h97l-18 -103h-97zM29 -201q-34 0 -63 8l13 77q23 -8 54 -8q67 0 106 81l24 49l-109 494h91l66 -348q4 -22 7 -59h2q8 23 27 59l177 348h96l-302 -562q-48 -88 -88 -113.5t-101 -25.5z" />
    <glyph glyph-name="Amacron" unicode="&#x100;" horiz-adv-x="672" 
d="M589 835l-12 -68h-300l12 68h300zM515 0l-37 205h-290l-109 -205h-103l394 710h94l144 -710h-93zM231 285h233l-50 277q-6 32 -7 54h-2q-11 -25 -27 -54z" />
    <glyph glyph-name="amacron" unicode="&#x101;" horiz-adv-x="544" 
d="M173 613l12 68h298l-12 -68h-298zM190 -12q-73 0 -118 39t-45 105q0 65 47 106q54 46 165 55l151 12l3 20q9 60 -13 88.5t-81 28.5q-114 0 -132 -99h-87q12 82 68.5 125.5t145.5 43.5q110 0 154.5 -53t25.5 -166l-22 -127q-18 -103 -12 -166h-88q0 49 6 91
q-54 -103 -168 -103zM208 58q63 0 108.5 44.5t58.5 115.5l5 27l-124 -10q-137 -11 -137 -98q0 -40 24.5 -59.5t64.5 -19.5z" />
    <glyph glyph-name="Abreve" unicode="&#x102;" horiz-adv-x="672" 
d="M439 748q-137 0 -145 113h72q4 -26 20 -39t52 -13q67 0 84 52h72q-28 -113 -155 -113zM515 0l-37 205h-290l-109 -205h-103l394 710h94l144 -710h-93zM231 285h233l-50 277q-6 32 -7 54h-2q-11 -25 -27 -54z" />
    <glyph glyph-name="abreve" unicode="&#x103;" horiz-adv-x="544" 
d="M263 723q-6 -42 12.5 -64.5t57.5 -22.5q33 0 58 20t28 67h72q-15 -148 -164 -148q-69 0 -108 37t-28 111h72zM190 -12q-73 0 -118 39t-45 105q0 65 47 106q54 46 165 55l151 12l3 20q9 60 -13 88.5t-81 28.5q-114 0 -132 -99h-87q12 82 68.5 125.5t145.5 43.5
q110 0 154.5 -53t25.5 -166l-22 -127q-18 -103 -12 -166h-88q0 49 6 91q-54 -103 -168 -103zM208 58q63 0 108.5 44.5t58.5 115.5l5 27l-124 -10q-137 -11 -137 -98q0 -40 24.5 -59.5t64.5 -19.5z" />
    <glyph glyph-name="Aogonek" unicode="&#x104;" horiz-adv-x="672" 
d="M551 -101l58 -8q-23 -94 -114 -94q-96 0 -96 77q0 81 114 126h2l-37 205h-290l-109 -205h-103l394 710h94l144 -710h-16q-127 -52 -127 -112q0 -37 37 -37q38 0 49 48zM231 285h233l-50 277q-6 32 -7 54h-2q-11 -25 -27 -54z" />
    <glyph glyph-name="aogonek" unicode="&#x105;" horiz-adv-x="544" 
d="M294 512q110 0 154.5 -53t25.5 -166l-22 -127q-18 -103 -12 -166h-9q-127 -52 -127 -112q0 -37 37 -37q38 0 49 48l58 -8q-23 -94 -114 -94q-96 0 -96 77q0 81 114 126q0 49 6 91q-54 -103 -168 -103q-73 0 -118 39t-45 105q0 65 47 106q54 46 165 55l151 12l3 20
q9 60 -13 88.5t-81 28.5q-114 0 -132 -99h-87q12 82 68.5 125.5t145.5 43.5zM208 58q63 0 108.5 44.5t58.5 115.5l5 27l-124 -10q-137 -11 -137 -98q0 -40 24.5 -59.5t64.5 -19.5z" />
    <glyph glyph-name="Cacute" unicode="&#x106;" horiz-adv-x="704" 
d="M406 753l109 108h94l-123 -108h-80zM358 -17q-60 0 -110.5 16.5t-93 51.5t-67 98t-24.5 148q0 78 20 151t60.5 137.5t112.5 103t166 38.5q53 0 99 -12.5t87 -40t65.5 -77.5t25.5 -119l-95 -10q-1 91 -53.5 134.5t-131.5 43.5q-67 0 -118.5 -31.5t-80 -83.5t-42 -109
t-13.5 -117q0 -239 191 -239q159 0 205 173l92 -16q-25 -107 -97 -173.5t-198 -66.5z" />
    <glyph glyph-name="cacute" unicode="&#x107;" horiz-adv-x="533" 
d="M288 580l117 143h104l-143 -143h-78zM257 -12q-41 0 -76.5 11t-67.5 35t-50.5 69t-18.5 106q0 53 14 103.5t43 97t81 74.5t121 28q86 0 141.5 -45.5t55.5 -136.5l-82 -10q-3 64 -36 91t-81 27q-46 0 -80 -22t-52 -57.5t-26 -73t-8 -76.5q0 -78 36.5 -112.5t89.5 -34.5
q103 0 130 119l83 -13q-19 -84 -74 -132t-143 -48z" />
    <glyph glyph-name="Ccircumflex" unicode="&#x108;" horiz-adv-x="704" 
d="M596 753h-82l-51 72l-77 -72h-90l116 108h106zM358 -17q-60 0 -110.5 16.5t-93 51.5t-67 98t-24.5 148q0 78 20 151t60.5 137.5t112.5 103t166 38.5q53 0 99 -12.5t87 -40t65.5 -77.5t25.5 -119l-95 -10q-1 91 -53.5 134.5t-131.5 43.5q-67 0 -118.5 -31.5t-80 -83.5
t-42 -109t-13.5 -117q0 -239 191 -239q159 0 205 173l92 -16q-25 -107 -97 -173.5t-198 -66.5z" />
    <glyph glyph-name="ccircumflex" unicode="&#x109;" horiz-adv-x="533" 
d="M477 580h-76l-55 100l-91 -100h-82l133 143h88zM257 -12q-41 0 -76.5 11t-67.5 35t-50.5 69t-18.5 106q0 53 14 103.5t43 97t81 74.5t121 28q86 0 141.5 -45.5t55.5 -136.5l-82 -10q-3 64 -36 91t-81 27q-46 0 -80 -22t-52 -57.5t-26 -73t-8 -76.5q0 -78 36.5 -112.5
t89.5 -34.5q103 0 130 119l83 -13q-19 -84 -74 -132t-143 -48z" />
    <glyph glyph-name="Cdotaccent" unicode="&#x10a;" horiz-adv-x="704" 
d="M393 753l19 107h106l-19 -107h-106zM358 -17q-60 0 -110.5 16.5t-93 51.5t-67 98t-24.5 148q0 78 20 151t60.5 137.5t112.5 103t166 38.5q53 0 99 -12.5t87 -40t65.5 -77.5t25.5 -119l-95 -10q-1 91 -53.5 134.5t-131.5 43.5q-67 0 -118.5 -31.5t-80 -83.5t-42 -109
t-13.5 -117q0 -239 191 -239q159 0 205 173l92 -16q-25 -107 -97 -173.5t-198 -66.5z" />
    <glyph glyph-name="cdotaccent" unicode="&#x10b;" horiz-adv-x="533" 
d="M276 593l19 107h97l-19 -107h-97zM257 -12q-41 0 -76.5 11t-67.5 35t-50.5 69t-18.5 106q0 53 14 103.5t43 97t81 74.5t121 28q86 0 141.5 -45.5t55.5 -136.5l-82 -10q-3 64 -36 91t-81 27q-46 0 -80 -22t-52 -57.5t-26 -73t-8 -76.5q0 -78 36.5 -112.5t89.5 -34.5
q103 0 130 119l83 -13q-19 -84 -74 -132t-143 -48z" />
    <glyph glyph-name="Ccaron" unicode="&#x10c;" horiz-adv-x="704" 
d="M304 856h82l51 -72l77 72h90l-116 -108h-106zM358 -17q-60 0 -110.5 16.5t-93 51.5t-67 98t-24.5 148q0 78 20 151t60.5 137.5t112.5 103t166 38.5q53 0 99 -12.5t87 -40t65.5 -77.5t25.5 -119l-95 -10q-1 91 -53.5 134.5t-131.5 43.5q-67 0 -118.5 -31.5t-80 -83.5
t-42 -109t-13.5 -117q0 -239 191 -239q159 0 205 173l92 -16q-25 -107 -97 -173.5t-198 -66.5z" />
    <glyph glyph-name="ccaron" unicode="&#x10d;" horiz-adv-x="533" 
d="M185 718h76l55 -100l91 100h82l-133 -143h-88zM257 -12q-41 0 -76.5 11t-67.5 35t-50.5 69t-18.5 106q0 53 14 103.5t43 97t81 74.5t121 28q86 0 141.5 -45.5t55.5 -136.5l-82 -10q-3 64 -36 91t-81 27q-46 0 -80 -22t-52 -57.5t-26 -73t-8 -76.5q0 -78 36.5 -112.5
t89.5 -34.5q103 0 130 119l83 -13q-19 -84 -74 -132t-143 -48z" />
    <glyph glyph-name="Dcaron" unicode="&#x10e;" horiz-adv-x="723" 
d="M285 856h82l51 -72l77 72h90l-116 -108h-106zM56 0l125 710h209q61 0 114 -18t97 -54t69.5 -98.5t25.5 -144.5q0 -78 -23.5 -147t-70 -125.5t-125 -89.5t-180.5 -33h-241zM165 80h134q81 0 141 27.5t92 74t47 98.5t15 110q0 124 -59.5 182t-146.5 58h-126z" />
    <glyph glyph-name="dcaron" unicode="&#x10f;" horiz-adv-x="601" 
d="M220 -12q-72 0 -125 51.5t-53 159.5q0 53 14 106t42 100.5t76.5 77t110.5 29.5q118 0 154 -96l54 309h85l-128 -725h-80l15 86q-25 -47 -69.5 -72.5t-95.5 -25.5zM618 531l-12 35q28 7 39.5 18.5t16.5 35.5h-51l15 90h96l-14 -80q-7 -42 -28 -65t-62 -34zM250 63
q64 0 103.5 43.5t52.5 111.5l5 26q19 98 -18.5 145.5t-101.5 47.5q-44 0 -76.5 -23t-49.5 -60.5t-24.5 -74.5t-7.5 -73q0 -81 34.5 -112t82.5 -31z" />
    <glyph glyph-name="Dcroat" unicode="&#x110;" horiz-adv-x="723" 
d="M390 710q61 0 114 -18t97 -54t69.5 -98.5t25.5 -144.5q0 -78 -23.5 -147t-70 -125.5t-125 -89.5t-180.5 -33h-241l59 335h-100l13 72h100l53 303h209zM299 80q81 0 141 27.5t92 74t47 98.5t15 110q0 124 -59.5 182t-146.5 58h-126l-39 -223h161l-13 -72h-161l-45 -255
h134z" />
    <glyph glyph-name="dcroat" unicode="&#x111;" horiz-adv-x="589" 
d="M661 643l-9 -51h-97l-105 -592h-80l15 86q-25 -47 -69.5 -72.5t-95.5 -25.5q-72 0 -125 51.5t-53 159.5q0 53 14 106t42 100.5t76.5 77t110.5 29.5q118 0 154 -96l31 176h-181l9 51h181l14 82h85l-14 -82h97zM411 244q19 98 -18.5 145.5t-101.5 47.5q-44 0 -76.5 -23
t-49.5 -60.5t-24.5 -74.5t-7.5 -73q0 -81 34.5 -112t82.5 -31q64 0 103.5 43.5t52.5 111.5z" />
    <glyph glyph-name="Emacron" unicode="&#x112;" horiz-adv-x="612" 
d="M577 835l-12 -68h-300l12 68h300zM607 630h-345l-40 -226h328l-14 -80h-328l-43 -244h352l-14 -80h-447l125 710h440z" />
    <glyph glyph-name="emacron" unicode="&#x113;" horiz-adv-x="544" 
d="M497 681l-12 -68h-298l12 68h298zM486 225h-359v-8q0 -154 136 -154q49 0 81.5 22.5t53.5 72.5l70 -33q-55 -137 -208 -137q-41 0 -77 11t-68.5 35t-51.5 69t-19 107q0 55 15.5 107t45.5 96.5t81.5 71.5t116.5 27q89 0 144 -49t55 -143q0 -51 -16 -95zM301 446
q-65 0 -107.5 -41.5t-58.5 -110.5h279q5 17 5 39q0 58 -33 85.5t-85 27.5z" />
    <glyph glyph-name="Ebreve" unicode="&#x114;" horiz-adv-x="612" 
d="M427 748q-137 0 -145 113h72q4 -26 20 -39t52 -13q67 0 84 52h72q-28 -113 -155 -113zM607 630h-345l-40 -226h328l-14 -80h-328l-43 -244h352l-14 -80h-447l125 710h440z" />
    <glyph glyph-name="ebreve" unicode="&#x115;" horiz-adv-x="544" 
d="M341 575q-69 0 -108 37t-28 111h72q-6 -42 12.5 -64.5t57.5 -22.5q33 0 58 20t28 67h72q-15 -148 -164 -148zM303 512q89 0 144 -49t55 -143q0 -51 -16 -95h-359v-8q0 -154 136 -154q49 0 81.5 22.5t53.5 72.5l70 -33q-55 -137 -208 -137q-41 0 -77 11t-68.5 35t-51.5 69
t-19 107q0 55 15.5 107t45.5 96.5t81.5 71.5t116.5 27zM414 294q5 17 5 39q0 58 -33 85.5t-85 27.5q-65 0 -107.5 -41.5t-58.5 -110.5h279z" />
    <glyph glyph-name="Edotaccent" unicode="&#x116;" horiz-adv-x="612" 
d="M485 860l-19 -107h-106l19 107h106zM607 630h-345l-40 -226h328l-14 -80h-328l-43 -244h352l-14 -80h-447l125 710h440z" />
    <glyph glyph-name="edotaccent" unicode="&#x117;" horiz-adv-x="544" 
d="M397 700l-19 -107h-97l19 107h97zM486 225h-359v-8q0 -154 136 -154q49 0 81.5 22.5t53.5 72.5l70 -33q-55 -137 -208 -137q-41 0 -77 11t-68.5 35t-51.5 69t-19 107q0 55 15.5 107t45.5 96.5t81.5 71.5t116.5 27q89 0 144 -49t55 -143q0 -51 -16 -95zM301 446
q-65 0 -107.5 -41.5t-58.5 -110.5h279q5 17 5 39q0 58 -33 85.5t-85 27.5z" />
    <glyph glyph-name="Eogonek" unicode="&#x118;" horiz-adv-x="612" 
d="M607 630h-345l-40 -226h328l-14 -80h-328l-43 -244h352l-14 -80q-127 -52 -127 -112q0 -37 37 -37q38 0 49 48l58 -8q-23 -94 -114 -94q-96 0 -96 77q0 81 114 126h-368l125 710h440z" />
    <glyph glyph-name="eogonek" unicode="&#x119;" horiz-adv-x="544" 
d="M486 225h-359v-8q0 -154 136 -154q49 0 81.5 22.5t53.5 72.5l70 -33q-48 -120 -175 -135q-104 -48 -104 -102q0 -37 37 -37q38 0 49 48l58 -8q-23 -94 -114 -94q-96 0 -96 77q0 74 93 117q-75 12 -123.5 64.5t-48.5 154.5q0 55 15.5 107t45.5 96.5t81.5 71.5t116.5 27
q89 0 144 -49t55 -143q0 -51 -16 -95zM301 446q-65 0 -107.5 -41.5t-58.5 -110.5h279q5 17 5 39q0 58 -33 85.5t-85 27.5z" />
    <glyph glyph-name="Ecaron" unicode="&#x11a;" horiz-adv-x="612" 
d="M455 748h-106l-78 108h82l51 -72l77 72h90zM607 630h-345l-40 -226h328l-14 -80h-328l-43 -244h352l-14 -80h-447l125 710h440z" />
    <glyph glyph-name="ecaron" unicode="&#x11b;" horiz-adv-x="544" 
d="M361 575h-88l-83 143h76l55 -100l91 100h82zM486 225h-359v-8q0 -154 136 -154q49 0 81.5 22.5t53.5 72.5l70 -33q-55 -137 -208 -137q-41 0 -77 11t-68.5 35t-51.5 69t-19 107q0 55 15.5 107t45.5 96.5t81.5 71.5t116.5 27q89 0 144 -49t55 -143q0 -51 -16 -95zM301 446
q-65 0 -107.5 -41.5t-58.5 -110.5h279q5 17 5 39q0 58 -33 85.5t-85 27.5z" />
    <glyph glyph-name="Gcircumflex" unicode="&#x11c;" horiz-adv-x="729" 
d="M600 753h-82l-51 72l-77 -72h-90l116 108h106zM332 -17q-117 0 -194 75t-77 232q0 62 12 121.5t41 117.5t70.5 101.5t106 70t143.5 26.5q117 0 184.5 -56.5t78.5 -158.5l-96 -13q-8 73 -53.5 110.5t-120.5 37.5q-70 0 -123.5 -32.5t-83 -86t-44 -113.5t-14.5 -125
q0 -226 183 -226q47 0 86.5 14t64.5 35.5t43.5 50.5t28 54t13.5 50l4 23h-207l14 80h293l-66 -371h-69l7 112q-65 -129 -225 -129z" />
    <glyph glyph-name="gcircumflex" unicode="&#x11d;" horiz-adv-x="528" 
d="M332 680l-88 -87h-83l131 130h88l85 -130h-75zM530 582q22 0 40 -5l-13 -76q-14 7 -45 7q-58 0 -72 -59q27 -38 27 -91q0 -76 -51 -130.5t-146 -54.5q-59 0 -102 22q-58 -17 -58 -55q0 -25 22 -34.5t70 -11.5l87 -2q167 -4 167 -128q0 -72 -60 -121t-202 -49
q-220 0 -220 127q0 81 111 116q-53 22 -53 77q0 73 101 106q-41 41 -41 107q0 76 51 130.5t146 54.5q65 0 111 -27q13 44 47 70.5t83 26.5zM277 238q55 0 82 34t27 80q0 49 -30.5 72t-73.5 23q-55 0 -82 -34t-27 -80q0 -49 30.5 -72t73.5 -23zM275 17l-85 2q-21 0 -51 4
q-80 -28 -80 -84q0 -44 37.5 -59.5t103.5 -15.5q90 0 128.5 26t38.5 63t-24 50t-68 14z" />
    <glyph glyph-name="Gbreve" unicode="&#x11e;" horiz-adv-x="729" 
d="M391 861q4 -26 20 -39t52 -13q67 0 84 52h72q-28 -113 -155 -113q-137 0 -145 113h72zM332 -17q-117 0 -194 75t-77 232q0 62 12 121.5t41 117.5t70.5 101.5t106 70t143.5 26.5q117 0 184.5 -56.5t78.5 -158.5l-96 -13q-8 73 -53.5 110.5t-120.5 37.5q-70 0 -123.5 -32.5
t-83 -86t-44 -113.5t-14.5 -125q0 -226 183 -226q47 0 86.5 14t64.5 35.5t43.5 50.5t28 54t13.5 50l4 23h-207l14 80h293l-66 -371h-69l7 112q-65 -129 -225 -129z" />
    <glyph glyph-name="gbreve" unicode="&#x11f;" horiz-adv-x="528" 
d="M322 575q-69 0 -108 37t-28 111h72q-6 -42 12.5 -64.5t57.5 -22.5q33 0 58 20t28 67h72q-15 -148 -164 -148zM530 582q22 0 40 -5l-13 -76q-14 7 -45 7q-58 0 -72 -59q27 -38 27 -91q0 -76 -51 -130.5t-146 -54.5q-59 0 -102 22q-58 -17 -58 -55q0 -25 22 -34.5t70 -11.5
l87 -2q167 -4 167 -128q0 -72 -60 -121t-202 -49q-220 0 -220 127q0 81 111 116q-53 22 -53 77q0 73 101 106q-41 41 -41 107q0 76 51 130.5t146 54.5q65 0 111 -27q13 44 47 70.5t83 26.5zM277 238q55 0 82 34t27 80q0 49 -30.5 72t-73.5 23q-55 0 -82 -34t-27 -80
q0 -49 30.5 -72t73.5 -23zM275 17l-85 2q-21 0 -51 4q-80 -28 -80 -84q0 -44 37.5 -59.5t103.5 -15.5q90 0 128.5 26t38.5 63t-24 50t-68 14z" />
    <glyph glyph-name="Gdotaccent" unicode="&#x120;" horiz-adv-x="729" 
d="M397 753l19 107h106l-19 -107h-106zM332 -17q-117 0 -194 75t-77 232q0 62 12 121.5t41 117.5t70.5 101.5t106 70t143.5 26.5q117 0 184.5 -56.5t78.5 -158.5l-96 -13q-8 73 -53.5 110.5t-120.5 37.5q-70 0 -123.5 -32.5t-83 -86t-44 -113.5t-14.5 -125q0 -226 183 -226
q47 0 86.5 14t64.5 35.5t43.5 50.5t28 54t13.5 50l4 23h-207l14 80h293l-66 -371h-69l7 112q-65 -129 -225 -129z" />
    <glyph glyph-name="gdotaccent" unicode="&#x121;" horiz-adv-x="528" 
d="M378 700l-19 -107h-97l19 107h97zM530 582q22 0 40 -5l-13 -76q-14 7 -45 7q-58 0 -72 -59q27 -38 27 -91q0 -76 -51 -130.5t-146 -54.5q-59 0 -102 22q-58 -17 -58 -55q0 -25 22 -34.5t70 -11.5l87 -2q167 -4 167 -128q0 -72 -60 -121t-202 -49q-220 0 -220 127
q0 81 111 116q-53 22 -53 77q0 73 101 106q-41 41 -41 107q0 76 51 130.5t146 54.5q65 0 111 -27q13 44 47 70.5t83 26.5zM277 238q55 0 82 34t27 80q0 49 -30.5 72t-73.5 23q-55 0 -82 -34t-27 -80q0 -49 30.5 -72t73.5 -23zM275 17l-85 2q-21 0 -51 4q-80 -28 -80 -84
q0 -44 37.5 -59.5t103.5 -15.5q90 0 128.5 26t38.5 63t-24 50t-68 14z" />
    <glyph glyph-name="Gcommaaccent" unicode="&#x122;" horiz-adv-x="729" 
d="M332 -17q-117 0 -194 75t-77 232q0 62 12 121.5t41 117.5t70.5 101.5t106 70t143.5 26.5q117 0 184.5 -56.5t78.5 -158.5l-96 -13q-8 73 -53.5 110.5t-120.5 37.5q-70 0 -123.5 -32.5t-83 -86t-44 -113.5t-14.5 -125q0 -226 183 -226q47 0 86.5 14t64.5 35.5t43.5 50.5
t28 54t13.5 50l4 23h-207l14 80h293l-66 -371h-69l7 112q-65 -129 -225 -129zM262 -237l-13 38q31 10 42 23t16 40h-51l16 90h96l-14 -80q-7 -43 -27.5 -69.5t-64.5 -41.5z" />
    <glyph glyph-name="gcommaaccent" unicode="&#x123;" horiz-adv-x="528" 
d="M369 670l-16 -90h-96l14 80q7 43 27.5 69.5t64.5 41.5l13 -38q-31 -10 -42 -23t-16 -40h51zM530 582q22 0 40 -5l-13 -76q-14 7 -45 7q-58 0 -72 -59q27 -38 27 -91q0 -76 -51 -130.5t-146 -54.5q-59 0 -102 22q-58 -17 -58 -55q0 -25 22 -34.5t70 -11.5l87 -2
q167 -4 167 -128q0 -72 -60 -121t-202 -49q-220 0 -220 127q0 81 111 116q-53 22 -53 77q0 73 101 106q-41 41 -41 107q0 76 51 130.5t146 54.5q65 0 111 -27q13 44 47 70.5t83 26.5zM277 238q55 0 82 34t27 80q0 49 -30.5 72t-73.5 23q-55 0 -82 -34t-27 -80
q0 -49 30.5 -72t73.5 -23zM275 17l-85 2q-21 0 -51 4q-80 -28 -80 -84q0 -44 37.5 -59.5t103.5 -15.5q90 0 128.5 26t38.5 63t-24 50t-68 14z" />
    <glyph glyph-name="Hcircumflex" unicode="&#x124;" horiz-adv-x="748" 
d="M613 753h-82l-51 72l-77 -72h-90l116 108h106zM729 710l-125 -710h-95l57 323h-358l-57 -323h-95l125 710h95l-54 -307h358l54 307h95z" />
    <glyph glyph-name="hcircumflex" unicode="&#x125;" horiz-adv-x="584" 
d="M377 753h-82l-51 72l-77 -72h-90l116 108h106zM51 0l128 725h85l-55 -315q20 45 62 73.5t103 28.5q70 0 109.5 -39t39.5 -114q0 -27 -6 -60l-52 -299h-85l53 299q4 24 4 43q0 95 -98 95q-126 0 -157 -176l-46 -261h-85z" />
    <glyph glyph-name="Hbar" unicode="&#x126;" horiz-adv-x="748" 
d="M780 579l-10 -59h-74l-92 -520h-95l57 323h-358l-57 -323h-95l92 520h-74l10 59h74l23 131h95l-23 -131h358l23 131h95l-23 -131h74zM580 403l21 117h-358l-21 -117h358z" />
    <glyph glyph-name="hbar" unicode="&#x127;" horiz-adv-x="568" 
d="M374 512q70 0 109.5 -39t39.5 -114q0 -27 -6 -60l-52 -299h-85l53 299q4 24 4 43q0 95 -98 95q-126 0 -157 -176l-46 -261h-85l102 579h-93l7 51h95l17 95h85l-17 -95h203l-7 -51h-204l-30 -169q20 45 62 73.5t103 28.5z" />
    <glyph glyph-name="Itilde" unicode="&#x128;" horiz-adv-x="295" 
d="M301 748q-35 0 -63.5 24.5t-44.5 24.5q-26 0 -32 -37l-56 11q9 42 33 66.5t55 24.5q35 0 63.5 -24.5t44.5 -24.5q27 0 32 37l56 -11q-7 -43 -31.5 -67t-56.5 -24zM151 0h-95l125 710h95z" />
    <glyph glyph-name="itilde" unicode="&#x129;" horiz-adv-x="265" 
d="M261 587q-20 0 -36 10.5t-23.5 22.5t-17.5 22.5t-20 10.5q-15 0 -23 -12t-13 -40l-56 11q20 109 92 109q24 0 41 -16.5t29.5 -33t26.5 -16.5q24 0 34 52l56 -11q-23 -109 -90 -109zM46 0l88 500h85l-88 -500h-85z" />
    <glyph glyph-name="Imacron" unicode="&#x12a;" horiz-adv-x="295" 
d="M124 767l12 68h230l-12 -68h-230zM151 0h-95l125 710h95z" />
    <glyph glyph-name="imacron" unicode="&#x12b;" horiz-adv-x="265" 
d="M83 613l12 68h228l-12 -68h-228zM46 0l88 500h85l-88 -500h-85z" />
    <glyph glyph-name="Ibreve" unicode="&#x12c;" horiz-adv-x="295" 
d="M202 861q0 -52 48 -52q26 0 40 11.5t20 40.5h72q-9 -55 -43.5 -84t-88.5 -29q-63 0 -92.5 30.5t-27.5 82.5h72zM151 0h-95l125 710h95z" />
    <glyph glyph-name="ibreve" unicode="&#x12d;" horiz-adv-x="265" 
d="M174 724q-17 -88 32 -88q21 0 33.5 18.5t18.5 69.5h72q-21 -149 -127 -149q-60 0 -88 36t-13 113h72zM46 0l88 500h85l-88 -500h-85z" />
    <glyph glyph-name="Iogonek" unicode="&#x12e;" horiz-adv-x="295" 
d="M45 -149q38 0 49 48l58 -8q-23 -94 -114 -94q-96 0 -96 77q0 81 114 126l125 710h95l-125 -710h-16q-127 -52 -127 -112q0 -37 37 -37z" />
    <glyph glyph-name="iogonek" unicode="&#x12f;" horiz-adv-x="265" 
d="M161 700h97l-19 -107h-97zM125 0q-127 -52 -127 -112q0 -37 37 -37q38 0 49 48l58 -8q-23 -94 -114 -94q-96 0 -96 77q0 81 114 126l88 500h85l-88 -500h-6z" />
    <glyph glyph-name="Idotaccent" unicode="&#x130;" horiz-adv-x="295" 
d="M184 753l19 107h106l-19 -107h-106zM151 0h-95l125 710h95z" />
    <glyph glyph-name="dotlessi" unicode="&#x131;" horiz-adv-x="265" 
d="M46 0l88 500h85l-88 -500h-85z" />
    <glyph glyph-name="IJ" unicode="&#x132;" horiz-adv-x="691" 
d="M151 0h-95l125 710h95zM591 174q-34 -191 -219 -191q-56 0 -102 14l17 87q46 -11 80 -11q112 0 134 120l91 517h95z" />
    <glyph glyph-name="ij" unicode="&#x133;" horiz-adv-x="529" 
d="M142 593l19 107h97l-19 -107h-97zM406 593l19 107h97l-19 -107h-97zM46 0l88 500h85l-88 -500h-85zM241 -202q-38 0 -69 11l13 74q28 -8 47 -8q30 0 45 15.5t21 50.5l99 559h86l-101 -568q-13 -69 -44 -101.5t-97 -32.5z" />
    <glyph glyph-name="Jcircumflex" unicode="&#x134;" horiz-adv-x="396" 
d="M478 753h-78l-31 72l-57 -72h-86l92 108h106zM296 174q-34 -191 -219 -191q-57 0 -102 14l17 87q46 -11 80 -11q112 0 134 120l91 517h95z" />
    <glyph glyph-name="jcircumflex" unicode="&#x135;" horiz-adv-x="264" 
d="M312 580h-71l-30 101l-66 -101h-77l103 143h88zM-24 -202q-38 0 -69 11l13 74q28 -8 47 -8q30 0 45 15.5t21 50.5l99 559h86l-101 -568q-13 -69 -44 -101.5t-97 -32.5z" />
    <glyph glyph-name="Kcommaaccent" unicode="&#x136;" horiz-adv-x="668" 
d="M707 710l-311 -284l208 -426h-110l-170 363l-130 -121l-43 -242h-95l125 710h95l-61 -348l373 348h119zM228 -136l16 90h96l-14 -80q-7 -43 -27.5 -69.5t-64.5 -41.5l-13 38q31 10 42 23t16 40h-51z" />
    <glyph glyph-name="kcommaaccent" unicode="&#x137;" horiz-adv-x="542" 
d="M559 500l-226 -200l150 -300h-100l-115 242l-105 -89l-27 -153h-85l128 725h85l-81 -461l265 236h111zM189 -136l16 90h96l-14 -80q-7 -43 -27.5 -69.5t-64.5 -41.5l-13 38q31 10 42 23t16 40h-51z" />
    <glyph glyph-name="kgreenlandic" unicode="&#x138;" horiz-adv-x="537" 
d="M554 500l-226 -200l150 -300h-100l-115 243l-105 -90l-27 -153h-85l88 500h85l-42 -236l266 236h111z" />
    <glyph glyph-name="Lacute" unicode="&#x139;" horiz-adv-x="543" 
d="M197 753l109 108h94l-123 -108h-80zM56 0l125 710h95l-111 -630h328l-14 -80h-423z" />
    <glyph glyph-name="lacute" unicode="&#x13a;" horiz-adv-x="275" 
d="M187 753l109 108h94l-123 -108h-80zM264 725l-128 -725h-85l128 725h85z" />
    <glyph glyph-name="Lcommaaccent" unicode="&#x13b;" horiz-adv-x="543" 
d="M56 0l125 710h95l-111 -630h328l-14 -80h-423zM192 -237l-13 38q31 10 42 23t16 40h-51l16 90h96l-14 -80q-7 -43 -27.5 -69.5t-64.5 -41.5z" />
    <glyph glyph-name="lcommaaccent" unicode="&#x13c;" horiz-adv-x="275" 
d="M264 725l-128 -725h-85l128 725h85zM28 -237l-13 38q31 10 42 23t16 40h-51l16 90h96l-14 -80q-7 -43 -27.5 -69.5t-64.5 -41.5z" />
    <glyph glyph-name="Lcaron" unicode="&#x13d;" horiz-adv-x="543" 
d="M56 0l125 710h95l-111 -630h328l-14 -80h-423zM346 531l-12 35q28 7 39.5 18.5t16.5 35.5h-51l15 90h96l-14 -80q-7 -42 -28 -65t-62 -34z" />
    <glyph glyph-name="lcaron" unicode="&#x13e;" horiz-adv-x="286" 
d="M264 725l-128 -725h-85l128 725h85zM303 531l-12 35q28 7 39.5 18.5t16.5 35.5h-51l15 90h96l-14 -80q-7 -42 -28 -65t-62 -34z" />
    <glyph glyph-name="Ldot" unicode="&#x13f;" horiz-adv-x="543" 
d="M56 0l125 710h95l-111 -630h328l-14 -80h-423zM469 500l-21 -118h-117l21 118h117z" />
    <glyph glyph-name="ldot" unicode="&#x140;" horiz-adv-x="364" 
d="M264 725l-128 -725h-85l128 725h85zM422 500l-21 -118h-117l21 118h117z" />
    <glyph glyph-name="Lslash" unicode="&#x141;" horiz-adv-x="543" 
d="M165 80h328l-14 -80h-423l47 268l-104 -50l13 75l104 50l65 367h95l-56 -318l234 112l-13 -75l-234 -112z" />
    <glyph glyph-name="lslash" unicode="&#x142;" horiz-adv-x="275" 
d="M277 516l-11 -62l-58 -47l-72 -407h-85l58 327l-59 -47l11 62l59 47l59 336h85l-45 -256z" />
    <glyph glyph-name="Nacute" unicode="&#x143;" horiz-adv-x="744" 
d="M421 753l109 108h94l-123 -108h-80zM56 0l125 710h113l205 -519q16 -40 33 -91h3q3 33 14 94l92 516h84l-125 -710h-112l-206 521q-25 62 -33 91h-3q-3 -42 -13 -94l-92 -518h-85z" />
    <glyph glyph-name="nacute" unicode="&#x144;" horiz-adv-x="579" 
d="M331 580l117 143h104l-143 -143h-78zM46 0l89 500h80l-18 -99q45 111 166 111q64 0 108.5 -36.5t44.5 -121.5q0 -29 -6 -65l-50 -289h-85l51 289q5 30 5 48q0 100 -100 100q-123 0 -154 -176l-46 -261h-85z" />
    <glyph glyph-name="Ncommaaccent" unicode="&#x145;" horiz-adv-x="744" 
d="M56 0l125 710h113l205 -519q16 -40 33 -91h3q3 33 14 94l92 516h84l-125 -710h-112l-206 521q-25 62 -33 91h-3q-3 -42 -13 -94l-92 -518h-85zM262 -237l-13 38q31 10 42 23t16 40h-51l16 90h96l-14 -80q-7 -43 -27.5 -69.5t-64.5 -41.5z" />
    <glyph glyph-name="ncommaaccent" unicode="&#x146;" horiz-adv-x="579" 
d="M46 0l89 500h80l-18 -99q45 111 166 111q64 0 108.5 -36.5t44.5 -121.5q0 -29 -6 -65l-50 -289h-85l51 289q5 30 5 48q0 100 -100 100q-123 0 -154 -176l-46 -261h-85zM181 -237l-13 38q31 10 42 23t16 40h-51l16 90h96l-14 -80q-7 -43 -27.5 -69.5t-64.5 -41.5z" />
    <glyph glyph-name="Ncaron" unicode="&#x147;" horiz-adv-x="744" 
d="M319 856h82l51 -72l77 72h90l-116 -108h-106zM56 0l125 710h113l205 -519q16 -40 33 -91h3q3 33 14 94l92 516h84l-125 -710h-112l-206 521q-25 62 -33 91h-3q-3 -42 -13 -94l-92 -518h-85z" />
    <glyph glyph-name="ncaron" unicode="&#x148;" horiz-adv-x="579" 
d="M228 718h76l55 -100l91 100h82l-133 -143h-88zM46 0l89 500h80l-18 -99q45 111 166 111q64 0 108.5 -36.5t44.5 -121.5q0 -29 -6 -65l-50 -289h-85l51 289q5 30 5 48q0 100 -100 100q-123 0 -154 -176l-46 -261h-85z" />
    <glyph glyph-name="napostrophe" unicode="&#x149;" horiz-adv-x="579" 
d="M109 531l-12 35q28 7 39.5 18.5t16.5 35.5h-51l15 90h96l-14 -80q-7 -42 -28 -65t-62 -34zM46 0l89 500h80l-18 -99q45 111 166 111q64 0 108.5 -36.5t44.5 -121.5q0 -29 -6 -65l-50 -289h-85l51 289q5 30 5 48q0 100 -100 100q-123 0 -154 -176l-46 -261h-85z" />
    <glyph glyph-name="Eng" unicode="&#x14a;" horiz-adv-x="744" 
d="M725 710l-117 -664h1l-11 -60q-36 -194 -224 -194q-47 0 -82 7l15 83q32 -6 83 -6q104 0 121 97l5 27h-28l-206 521q-25 62 -33 91h-3q-3 -42 -13 -94l-92 -518h-85l125 710h113l205 -519q16 -40 33 -91h3q3 33 14 94l92 516h84z" />
    <glyph glyph-name="eng" unicode="&#x14b;" horiz-adv-x="579" 
d="M363 512q64 0 108.5 -36.5t44.5 -121.5q0 -29 -6 -65l-50 -289l-4 -24q-14 -85 -50.5 -131.5t-106.5 -46.5q-35 0 -60 6l13 73q22 -2 42 -2q35 0 51 20t24 68l6 37l51 289q5 30 5 48q0 100 -100 100q-123 0 -154 -176l-46 -261h-85l89 500h80l-18 -99q45 111 166 111z
" />
    <glyph glyph-name="Omacron" unicode="&#x14c;" horiz-adv-x="756" 
d="M298 767l12 68h300l-12 -68h-300zM366 -17q-59 0 -111 17t-96.5 52.5t-70.5 98.5t-26 148q0 60 12.5 119t40.5 115.5t69 99t104 68.5t139 26q59 0 111 -17t96.5 -52.5t70.5 -98.5t26 -148q0 -60 -12.5 -119t-40.5 -115.5t-69 -99t-104 -68.5t-139 -26zM367 63
q58 0 105 22t75.5 57t48 82t27 92.5t7.5 91.5q0 68 -17.5 116.5t-48.5 74t-65 37t-73 11.5q-58 0 -105 -22t-75.5 -57t-48 -82t-27 -92.5t-7.5 -91.5q0 -68 17.5 -116.5t48.5 -74t65 -37t73 -11.5z" />
    <glyph glyph-name="omacron" unicode="&#x14d;" horiz-adv-x="566" 
d="M180 613l12 68h298l-12 -68h-298zM259 -12q-91 0 -153 51.5t-62 166.5q0 54 14 105.5t43.5 97.5t82.5 74.5t123 28.5q91 0 153 -51.5t62 -166.5q0 -54 -14 -105.5t-43.5 -97.5t-82.5 -74.5t-123 -28.5zM264 62q47 0 82 22.5t52.5 59t25 72.5t7.5 73q0 79 -36.5 114
t-92.5 35q-47 0 -82 -22.5t-52.5 -59t-25 -72.5t-7.5 -73q0 -79 36.5 -114t92.5 -35z" />
    <glyph glyph-name="Obreve" unicode="&#x14e;" horiz-adv-x="756" 
d="M387 861q4 -26 20 -39t52 -13q67 0 84 52h72q-28 -113 -155 -113q-137 0 -145 113h72zM366 -17q-59 0 -111 17t-96.5 52.5t-70.5 98.5t-26 148q0 60 12.5 119t40.5 115.5t69 99t104 68.5t139 26q59 0 111 -17t96.5 -52.5t70.5 -98.5t26 -148q0 -60 -12.5 -119
t-40.5 -115.5t-69 -99t-104 -68.5t-139 -26zM367 63q58 0 105 22t75.5 57t48 82t27 92.5t7.5 91.5q0 68 -17.5 116.5t-48.5 74t-65 37t-73 11.5q-58 0 -105 -22t-75.5 -57t-48 -82t-27 -92.5t-7.5 -91.5q0 -68 17.5 -116.5t48.5 -74t65 -37t73 -11.5z" />
    <glyph glyph-name="obreve" unicode="&#x14f;" horiz-adv-x="566" 
d="M270 723q-6 -42 12.5 -64.5t57.5 -22.5q33 0 58 20t28 67h72q-15 -148 -164 -148q-69 0 -108 37t-28 111h72zM259 -12q-91 0 -153 51.5t-62 166.5q0 54 14 105.5t43.5 97.5t82.5 74.5t123 28.5q91 0 153 -51.5t62 -166.5q0 -54 -14 -105.5t-43.5 -97.5t-82.5 -74.5
t-123 -28.5zM264 62q47 0 82 22.5t52.5 59t25 72.5t7.5 73q0 79 -36.5 114t-92.5 35q-47 0 -82 -22.5t-52.5 -59t-25 -72.5t-7.5 -73q0 -79 36.5 -114t92.5 -35z" />
    <glyph glyph-name="Ohungarumlaut" unicode="&#x150;" horiz-adv-x="756" 
d="M328 753l114 108h91l-121 -108h-84zM480 753l114 108h91l-121 -108h-84zM366 -17q-59 0 -111 17t-96.5 52.5t-70.5 98.5t-26 148q0 60 12.5 119t40.5 115.5t69 99t104 68.5t139 26q59 0 111 -17t96.5 -52.5t70.5 -98.5t26 -148q0 -60 -12.5 -119t-40.5 -115.5t-69 -99
t-104 -68.5t-139 -26zM367 63q58 0 105 22t75.5 57t48 82t27 92.5t7.5 91.5q0 68 -17.5 116.5t-48.5 74t-65 37t-73 11.5q-58 0 -105 -22t-75.5 -57t-48 -82t-27 -92.5t-7.5 -91.5q0 -68 17.5 -116.5t48.5 -74t65 -37t73 -11.5z" />
    <glyph glyph-name="ohungarumlaut" unicode="&#x151;" horiz-adv-x="566" 
d="M209 580l111 143h82l-118 -143h-75zM361 580l111 143h82l-118 -143h-75zM259 -12q-91 0 -153 51.5t-62 166.5q0 54 14 105.5t43.5 97.5t82.5 74.5t123 28.5q91 0 153 -51.5t62 -166.5q0 -54 -14 -105.5t-43.5 -97.5t-82.5 -74.5t-123 -28.5zM264 62q47 0 82 22.5t52.5 59
t25 72.5t7.5 73q0 79 -36.5 114t-92.5 35q-47 0 -82 -22.5t-52.5 -59t-25 -72.5t-7.5 -73q0 -79 36.5 -114t92.5 -35z" />
    <glyph glyph-name="OE" unicode="&#x152;" horiz-adv-x="946" 
d="M941 630h-345l-40 -226h328l-14 -80h-328l-43 -244h352l-14 -80h-452q-64 0 -118.5 15t-102.5 48t-75.5 93.5t-27.5 143.5q0 57 12.5 111.5t43.5 109.5t77.5 96.5t121 67t167.5 25.5h472zM404 80l97 550h-15q-78 0 -138 -23t-94 -57.5t-56 -81.5t-29 -87t-7 -81
q0 -64 19.5 -109t53.5 -68t70.5 -33t78.5 -10h20z" />
    <glyph glyph-name="oe" unicode="&#x153;" horiz-adv-x="928" 
d="M870 225h-359v-8q0 -154 136 -154q49 0 81.5 22.5t53.5 72.5l70 -33q-55 -137 -208 -137q-145 0 -189 114q-64 -114 -196 -114q-91 0 -153 51.5t-62 166.5q0 54 14 105.5t43.5 97.5t82.5 74.5t123 28.5q134 0 177 -112q67 112 203 112q89 0 144 -49t55 -143
q0 -51 -16 -95zM685 446q-65 0 -107.5 -41.5t-58.5 -110.5h279q5 17 5 39q0 58 -33 85.5t-85 27.5zM264 62q47 0 82 22.5t52.5 59t25 72.5t7.5 73q0 79 -36.5 114t-92.5 35q-47 0 -82 -22.5t-52.5 -59t-25 -72.5t-7.5 -73q0 -79 36.5 -114t92.5 -35z" />
    <glyph glyph-name="Racute" unicode="&#x154;" horiz-adv-x="665" 
d="M567 861l-123 -108h-80l109 108h94zM647 521q0 -82 -49.5 -140.5t-151.5 -77.5l130 -303h-107l-122 295h-144l-52 -295h-95l126 710h234q104 0 167.5 -46.5t63.5 -142.5zM363 375q96 0 139 41t43 104q0 110 -129 110h-153l-45 -255h145z" />
    <glyph glyph-name="racute" unicode="&#x155;" horiz-adv-x="360" 
d="M207 580l117 143h104l-143 -143h-78zM192 376q25 67 63 101.5t98 34.5q19 0 33 -3l-16 -84q-11 3 -27 3q-53 0 -89 -30q-59 -49 -81 -169l-42 -229h-85l89 500h79z" />
    <glyph glyph-name="Rcommaaccent" unicode="&#x156;" horiz-adv-x="665" 
d="M647 521q0 -82 -49.5 -140.5t-151.5 -77.5l130 -303h-107l-122 295h-144l-52 -295h-95l126 710h234q104 0 167.5 -46.5t63.5 -142.5zM363 375q96 0 139 41t43 104q0 110 -129 110h-153l-45 -255h145zM217 -136l16 90h96l-14 -80q-7 -43 -27.5 -69.5t-64.5 -41.5l-13 38
q31 10 42 23t16 40h-51z" />
    <glyph glyph-name="rcommaaccent" unicode="&#x157;" horiz-adv-x="360" 
d="M192 376q25 67 63 101.5t98 34.5q19 0 33 -3l-16 -84q-11 3 -27 3q-53 0 -89 -30q-59 -49 -81 -169l-42 -229h-85l89 500h79zM24 -237l-13 38q31 10 42 23t16 40h-51l16 90h96l-14 -80q-7 -43 -27.5 -69.5t-64.5 -41.5z" />
    <glyph glyph-name="Rcaron" unicode="&#x158;" horiz-adv-x="665" 
d="M446 748h-106l-78 108h82l51 -72l77 72h90zM647 521q0 -82 -49.5 -140.5t-151.5 -77.5l130 -303h-107l-122 295h-144l-52 -295h-95l126 710h234q104 0 167.5 -46.5t63.5 -142.5zM363 375q96 0 139 41t43 104q0 110 -129 110h-153l-45 -255h145z" />
    <glyph glyph-name="rcaron" unicode="&#x159;" horiz-adv-x="360" 
d="M104 718h76l55 -100l91 100h82l-133 -143h-88zM192 376q25 67 63 101.5t98 34.5q19 0 33 -3l-16 -84q-11 3 -27 3q-53 0 -89 -30q-59 -49 -81 -169l-42 -229h-85l89 500h79z" />
    <glyph glyph-name="Sacute" unicode="&#x15a;" horiz-adv-x="622" 
d="M348 753l109 108h94l-123 -108h-80zM301 -17q-126 0 -201.5 56.5t-76.5 171.5l98 14q4 -85 52.5 -124.5t127.5 -39.5q166 0 166 128q0 29 -7.5 48.5t-25 32t-32 18t-40.5 13.5l-79 23q-83 24 -130.5 68t-47.5 126q0 89 64 149t196 60q109 0 177.5 -50t75.5 -152l-92 -20
q-10 75 -48.5 111t-112.5 36q-88 0 -123.5 -38.5t-35.5 -88.5q0 -84 112 -116l75 -22q86 -25 130.5 -65t44.5 -128q0 -40 -11.5 -74t-39 -66.5t-83 -51.5t-133.5 -19z" />
    <glyph glyph-name="sacute" unicode="&#x15b;" horiz-adv-x="498" 
d="M266 580l117 143h104l-143 -143h-78zM231 -12q-190 0 -208 166l86 15q8 -60 39.5 -85.5t87.5 -25.5q109 0 109 83q0 30 -15 44t-50 21l-86 17q-61 12 -90.5 48t-29.5 86q0 67 50 111t145 44q81 0 136 -36t63 -116l-83 -19q-9 60 -40.5 81t-77.5 21q-108 0 -108 -79
q0 -30 17 -45.5t56 -23.5l84 -17q60 -12 88 -47.5t28 -86.5q0 -69 -50 -112.5t-151 -43.5z" />
    <glyph glyph-name="Scircumflex" unicode="&#x15c;" horiz-adv-x="622" 
d="M538 753h-82l-51 72l-77 -72h-90l116 108h106zM301 -17q-126 0 -201.5 56.5t-76.5 171.5l98 14q4 -85 52.5 -124.5t127.5 -39.5q166 0 166 128q0 29 -7.5 48.5t-25 32t-32 18t-40.5 13.5l-79 23q-83 24 -130.5 68t-47.5 126q0 89 64 149t196 60q109 0 177.5 -50
t75.5 -152l-92 -20q-10 75 -48.5 111t-112.5 36q-88 0 -123.5 -38.5t-35.5 -88.5q0 -84 112 -116l75 -22q86 -25 130.5 -65t44.5 -128q0 -40 -11.5 -74t-39 -66.5t-83 -51.5t-133.5 -19z" />
    <glyph glyph-name="scircumflex" unicode="&#x15d;" horiz-adv-x="498" 
d="M455 580h-76l-55 100l-91 -100h-82l133 143h88zM231 -12q-190 0 -208 166l86 15q8 -60 39.5 -85.5t87.5 -25.5q109 0 109 83q0 30 -15 44t-50 21l-86 17q-61 12 -90.5 48t-29.5 86q0 67 50 111t145 44q81 0 136 -36t63 -116l-83 -19q-9 60 -40.5 81t-77.5 21
q-108 0 -108 -79q0 -30 17 -45.5t56 -23.5l84 -17q60 -12 88 -47.5t28 -86.5q0 -69 -50 -112.5t-151 -43.5z" />
    <glyph glyph-name="Scedilla" unicode="&#x15e;" horiz-adv-x="622" 
d="M393 387q86 -25 130.5 -65t44.5 -128q0 -40 -11.5 -74t-39 -66.5t-83 -51.5t-133.5 -19h-4l-26 -32q14 12 39 12q32 0 50.5 -18.5t18.5 -50.5q0 -41 -32 -67t-79 -26q-89 0 -101 63l59 10q5 -28 42 -28q19 0 32.5 12t13.5 36q0 34 -37 34q-21 0 -34 -15l-37 12l42 61
q-104 11 -164 67t-61 158l98 14q4 -85 52.5 -124.5t127.5 -39.5q166 0 166 128q0 29 -7.5 48.5t-25 32t-32 18t-40.5 13.5l-79 23q-83 24 -130.5 68t-47.5 126q0 89 64 149t196 60q109 0 177.5 -50t75.5 -152l-92 -20q-10 75 -48.5 111t-112.5 36q-88 0 -123.5 -38.5
t-35.5 -88.5q0 -84 112 -116z" />
    <glyph glyph-name="scedilla" unicode="&#x15f;" horiz-adv-x="498" 
d="M316 278q60 -12 88 -47.5t28 -86.5q0 -68 -49 -111.5t-148 -44.5l-30 -37q14 12 39 12q32 0 50.5 -18.5t18.5 -50.5q0 -41 -32 -67t-79 -26q-89 0 -101 63l59 10q5 -28 42 -28q19 0 32.5 12t13.5 36q0 34 -37 34q-21 0 -34 -15l-37 12l46 66q-147 17 -163 163l86 15
q8 -60 39.5 -85.5t87.5 -25.5q109 0 109 83q0 30 -15 44t-50 21l-86 17q-61 12 -90.5 48t-29.5 86q0 67 50 111t145 44q81 0 136 -36t63 -116l-83 -19q-9 60 -40.5 81t-77.5 21q-108 0 -108 -79q0 -30 17 -45.5t56 -23.5z" />
    <glyph glyph-name="Scaron" unicode="&#x160;" horiz-adv-x="622" 
d="M246 856h82l51 -72l77 72h90l-116 -108h-106zM301 -17q-126 0 -201.5 56.5t-76.5 171.5l98 14q4 -85 52.5 -124.5t127.5 -39.5q166 0 166 128q0 29 -7.5 48.5t-25 32t-32 18t-40.5 13.5l-79 23q-83 24 -130.5 68t-47.5 126q0 89 64 149t196 60q109 0 177.5 -50t75.5 -152
l-92 -20q-10 75 -48.5 111t-112.5 36q-88 0 -123.5 -38.5t-35.5 -88.5q0 -84 112 -116l75 -22q86 -25 130.5 -65t44.5 -128q0 -40 -11.5 -74t-39 -66.5t-83 -51.5t-133.5 -19z" />
    <glyph glyph-name="scaron" unicode="&#x161;" horiz-adv-x="498" 
d="M163 718h76l55 -100l91 100h82l-133 -143h-88zM231 -12q-190 0 -208 166l86 15q8 -60 39.5 -85.5t87.5 -25.5q109 0 109 83q0 30 -15 44t-50 21l-86 17q-61 12 -90.5 48t-29.5 86q0 67 50 111t145 44q81 0 136 -36t63 -116l-83 -19q-9 60 -40.5 81t-77.5 21
q-108 0 -108 -79q0 -30 17 -45.5t56 -23.5l84 -17q60 -12 88 -47.5t28 -86.5q0 -69 -50 -112.5t-151 -43.5z" />
    <glyph glyph-name="uni0162" unicode="&#x162;" horiz-adv-x="561" 
d="M284 0h-24l-39 -49q14 12 39 12q32 0 50.5 -18.5t18.5 -50.5q0 -41 -32 -67t-79 -26q-89 0 -101 63l59 10q5 -28 42 -28q19 0 32.5 12t13.5 36q0 34 -37 34q-21 0 -34 -15l-37 12l52 75h-19l111 630h-223l14 80h541l-14 -80h-223z" />
    <glyph glyph-name="uni0163" unicode="&#x163;" horiz-adv-x="354" 
d="M226 430l-48 -270q-10 -52 8.5 -70.5t55.5 -18.5q25 0 46 5l-14 -76q-30 -9 -61 -9h-6l-32 -40q14 12 39 12q32 0 50.5 -18.5t18.5 -50.5q0 -41 -32 -67t-79 -26q-89 0 -101 63l59 10q5 -28 42 -28q19 0 32.5 12t13.5 36q0 34 -37 34q-21 0 -34 -15l-37 12l52 74
q-92 33 -67 174l46 257h-94l13 70h93l23 131l92 36l-30 -167h125l-13 -70h-124z" />
    <glyph glyph-name="Tcaron" unicode="&#x164;" horiz-adv-x="561" 
d="M412 748h-106l-78 108h82l51 -72l77 72h90zM632 710l-14 -80h-223l-111 -630h-95l111 630h-223l14 80h541z" />
    <glyph glyph-name="tcaron" unicode="&#x165;" horiz-adv-x="354" 
d="M308 531l-12 35q28 7 39.5 18.5t16.5 35.5h-51l15 90h96l-14 -80q-7 -42 -28 -65t-62 -34zM47 430l13 70h93l23 131l92 36l-30 -167h125l-13 -70h-124l-48 -270q-10 -52 8.5 -70.5t55.5 -18.5q25 0 46 5l-14 -76q-30 -9 -61 -9q-66 0 -100.5 44t-17.5 138l46 257h-94z
" />
    <glyph glyph-name="Tbar" unicode="&#x166;" horiz-adv-x="561" 
d="M618 630h-223l-33 -189h135l-9 -51h-135l-69 -390h-95l69 390h-133l9 51h133l33 189h-223l14 80h541z" />
    <glyph glyph-name="tbar" unicode="&#x167;" horiz-adv-x="385" 
d="M381 430h-124l-21 -119h93l-13 -71h-93l-14 -80q-10 -52 8.5 -70.5t55.5 -18.5q25 0 46 5l-14 -76q-30 -9 -61 -9q-66 0 -100.5 44t-17.5 138l12 67h-125l13 71h125l21 119h-94l13 70h93l23 131l92 36l-30 -167h125z" />
    <glyph glyph-name="Utilde" unicode="&#x168;" horiz-adv-x="717" 
d="M522 748q-38 0 -71 24.5t-58 24.5q-21 0 -34 -9t-23 -37l-56 11q30 100 111 100q38 0 71 -24.5t60 -24.5q40 0 55 46l56 -11q-30 -100 -111 -100zM167 710h95l-79 -444q-17 -97 24 -148t136 -51q94 0 136 48t58 139l81 456h95l-87 -490q-43 -237 -290 -237
q-143 0 -207 77t-39 217z" />
    <glyph glyph-name="utilde" unicode="&#x169;" horiz-adv-x="572" 
d="M421 587q-28 0 -50 10.5t-34 22.5t-29 22.5t-35 10.5q-44 0 -60 -57l-56 11q16 54 46 84t70 30q35 0 60 -16.5t45 -33t43 -16.5q42 0 61 57l56 -11q-15 -54 -46 -84t-71 -30zM216 -12q-63 0 -108 35.5t-45 115.5q0 30 6 72l50 289h85l-51 -289q-5 -37 -5 -55
q0 -50 29 -71.5t71 -21.5q115 0 146 176l46 261h86l-89 -500h-80l18 99q-19 -49 -59 -80t-100 -31z" />
    <glyph glyph-name="Umacron" unicode="&#x16a;" horiz-adv-x="717" 
d="M300 767l12 68h300l-12 -68h-300zM167 710h95l-79 -444q-17 -97 24 -148t136 -51q94 0 136 48t58 139l81 456h95l-87 -490q-43 -237 -290 -237q-143 0 -207 77t-39 217z" />
    <glyph glyph-name="umacron" unicode="&#x16b;" horiz-adv-x="572" 
d="M193 613l12 68h298l-12 -68h-298zM216 -12q-63 0 -108 35.5t-45 115.5q0 30 6 72l50 289h85l-51 -289q-5 -37 -5 -55q0 -50 29 -71.5t71 -21.5q115 0 146 176l46 261h86l-89 -500h-80l18 99q-19 -49 -59 -80t-100 -31z" />
    <glyph glyph-name="Ubreve" unicode="&#x16c;" horiz-adv-x="717" 
d="M389 861q4 -26 20 -39t52 -13q67 0 84 52h72q-28 -113 -155 -113q-137 0 -145 113h72zM167 710h95l-79 -444q-17 -97 24 -148t136 -51q94 0 136 48t58 139l81 456h95l-87 -490q-43 -237 -290 -237q-143 0 -207 77t-39 217z" />
    <glyph glyph-name="ubreve" unicode="&#x16d;" horiz-adv-x="572" 
d="M283 723q-6 -42 12.5 -64.5t57.5 -22.5q33 0 58 20t28 67h72q-15 -148 -164 -148q-69 0 -108 37t-28 111h72zM216 -12q-63 0 -108 35.5t-45 115.5q0 30 6 72l50 289h85l-51 -289q-5 -37 -5 -55q0 -50 29 -71.5t71 -21.5q115 0 146 176l46 261h86l-89 -500h-80l18 99
q-19 -49 -59 -80t-100 -31z" />
    <glyph glyph-name="Uring" unicode="&#x16e;" horiz-adv-x="717" 
d="M457 738q-49 0 -77 25t-28 67q0 48 34 80t83 32t77 -25t28 -67q0 -48 -34 -80t-83 -32zM457 786q59 0 59 64q0 20 -12 32t-35 12q-59 0 -59 -64q0 -20 12 -32t35 -12zM167 710h95l-79 -444q-17 -97 24 -148t136 -51q94 0 136 48t58 139l81 456h95l-87 -490
q-43 -237 -290 -237q-143 0 -207 77t-39 217z" />
    <glyph glyph-name="uring" unicode="&#x16f;" horiz-adv-x="572" 
d="M337 556q-49 0 -77.5 25t-28.5 67q0 49 33 80.5t83 31.5q49 0 77.5 -25t28.5 -67q0 -49 -33 -80.5t-83 -31.5zM337 604q25 0 41.5 18t16.5 46q0 20 -13 32t-35 12q-25 0 -41.5 -18t-16.5 -46q0 -20 13 -32t35 -12zM216 -12q-63 0 -108 35.5t-45 115.5q0 30 6 72l50 289
h85l-51 -289q-5 -37 -5 -55q0 -50 29 -71.5t71 -21.5q115 0 146 176l46 261h86l-89 -500h-80l18 99q-19 -49 -59 -80t-100 -31z" />
    <glyph glyph-name="Uhungarumlaut" unicode="&#x170;" horiz-adv-x="717" 
d="M330 753l114 108h91l-121 -108h-84zM482 753l114 108h91l-121 -108h-84zM167 710h95l-79 -444q-17 -97 24 -148t136 -51q94 0 136 48t58 139l81 456h95l-87 -490q-43 -237 -290 -237q-143 0 -207 77t-39 217z" />
    <glyph glyph-name="uhungarumlaut" unicode="&#x171;" horiz-adv-x="572" 
d="M222 580l111 143h82l-118 -143h-75zM374 580l111 143h82l-118 -143h-75zM216 -12q-63 0 -108 35.5t-45 115.5q0 30 6 72l50 289h85l-51 -289q-5 -37 -5 -55q0 -50 29 -71.5t71 -21.5q115 0 146 176l46 261h86l-89 -500h-80l18 99q-19 -49 -59 -80t-100 -31z" />
    <glyph glyph-name="Uogonek" unicode="&#x172;" horiz-adv-x="717" 
d="M618 710h95l-87 -490q-38 -207 -232 -233q-97 -47 -97 -99q0 -37 37 -37q38 0 49 48l58 -8q-23 -94 -114 -94q-96 0 -96 77q0 67 78 110q-129 7 -185.5 83.5t-33.5 209.5l77 433h95l-79 -444q-17 -97 24 -148t136 -51q94 0 136 48t58 139z" />
    <glyph glyph-name="uogonek" unicode="&#x173;" horiz-adv-x="572" 
d="M347 -149q38 0 49 48l58 -8q-23 -94 -114 -94q-96 0 -96 77q0 81 114 126h-1l18 99q-19 -49 -59 -80t-100 -31q-63 0 -108 35.5t-45 115.5q0 30 6 72l50 289h85l-51 -289q-5 -37 -5 -55q0 -50 29 -71.5t71 -21.5q115 0 146 176l46 261h86l-89 -500q-127 -52 -127 -112
q0 -37 37 -37z" />
    <glyph glyph-name="Wcircumflex" unicode="&#x174;" horiz-adv-x="912" 
d="M695 753h-82l-51 72l-77 -72h-90l116 108h106zM150 0l-44 710h95l22 -572q1 -18 -1 -39h3q5 17 15 39l247 572h96l45 -572q2 -25 1 -39h3q4 14 13 39l224 572h99l-294 -710h-116l-40 554q-1 16 0 33h-4q-3 -11 -12 -33l-236 -554h-116z" />
    <glyph glyph-name="wcircumflex" unicode="&#x175;" horiz-adv-x="732" 
d="M571 580h-76l-55 100l-91 -100h-82l133 143h88zM122 0l-53 500h79l27 -362q1 -18 1 -59h2q7 22 23 59l154 362h100l28 -362q3 -54 3 -59h2q11 36 21 59l153 362h89l-229 -500h-94l-31 366q-1 16 -1 56h-2q-5 -20 -21 -56l-158 -366h-93z" />
    <glyph glyph-name="Ycircumflex" unicode="&#x176;" horiz-adv-x="578" 
d="M528 753h-82l-51 72l-77 -72h-90l116 108h106zM197 0l50 283l-166 427h102l110 -301q7 -20 12 -41h2q4 9 26 41l216 301h110l-316 -427l-50 -283h-96z" />
    <glyph glyph-name="ycircumflex" unicode="&#x177;" horiz-adv-x="486" 
d="M455 580h-76l-55 100l-91 -100h-82l133 143h88zM29 -201q-34 0 -63 8l13 77q23 -8 54 -8q67 0 106 81l24 49l-109 494h91l66 -348q4 -22 7 -59h2q8 23 27 59l177 348h96l-302 -562q-48 -88 -88 -113.5t-101 -25.5z" />
    <glyph glyph-name="Ydieresis" unicode="&#x178;" horiz-adv-x="578" 
d="M218 753l17 98h97l-17 -98h-97zM441 753l17 98h97l-17 -98h-97zM197 0l50 283l-166 427h102l110 -301q7 -20 12 -41h2q4 9 26 41l216 301h110l-316 -427l-50 -283h-96z" />
    <glyph glyph-name="Zacute" unicode="&#x179;" horiz-adv-x="569" 
d="M339 753l109 108h94l-123 -108h-80zM7 88l489 542h-381l14 80h487l-15 -88l-491 -542h409l-14 -80h-514z" />
    <glyph glyph-name="zacute" unicode="&#x17a;" horiz-adv-x="455" 
d="M249 580l117 143h104l-143 -143h-78zM3 65l339 363h-266l13 72h366l-11 -63l-337 -364h287l-13 -73h-390z" />
    <glyph glyph-name="Zdotaccent" unicode="&#x17b;" horiz-adv-x="569" 
d="M326 753l19 107h106l-19 -107h-106zM7 88l489 542h-381l14 80h487l-15 -88l-491 -542h409l-14 -80h-514z" />
    <glyph glyph-name="zdotaccent" unicode="&#x17c;" horiz-adv-x="455" 
d="M237 593l19 107h97l-19 -107h-97zM3 65l339 363h-266l13 72h366l-11 -63l-337 -364h287l-13 -73h-390z" />
    <glyph glyph-name="Zcaron" unicode="&#x17d;" horiz-adv-x="569" 
d="M237 856h82l51 -72l77 72h90l-116 -108h-106zM7 88l489 542h-381l14 80h487l-15 -88l-491 -542h409l-14 -80h-514z" />
    <glyph glyph-name="zcaron" unicode="&#x17e;" horiz-adv-x="455" 
d="M146 718h76l55 -100l91 100h82l-133 -143h-88zM3 65l339 363h-266l13 72h366l-11 -63l-337 -364h287l-13 -73h-390z" />
    <glyph glyph-name="florin" unicode="&#x192;" horiz-adv-x="421" 
d="M422 710q36 0 69 -10l-15 -74q-26 9 -54 9q-46 0 -69.5 -25t-41.5 -84l-30 -98h126l-12 -66h-135l-158 -512h-86l159 512h-115l12 66h123l24 76q14 44 22.5 68.5t25.5 55t36 45.5t49 26t70 11z" />
    <glyph glyph-name="AEacute" unicode="&#x1fc;" horiz-adv-x="970" 
d="M931 861l-123 -108h-80l109 108h94zM965 630h-321l-40 -226h304l-14 -80h-304l-43 -244h328l-14 -80h-423l31 174h-250l-128 -174h-101l540 710h449zM483 254l64 367l-269 -367h205z" />
    <glyph glyph-name="aeacute" unicode="&#x1fd;" horiz-adv-x="844" 
d="M664 723l-143 -143h-78l117 143h104zM786 225h-329v-8q0 -154 121 -154q84 0 120 95l70 -33q-51 -137 -193 -137q-57 0 -107.5 27.5t-74.5 87.5q-27 -55 -83 -85t-122 -30q-73 0 -118 37.5t-45 96.5q0 73 48 113q45 38 164 49l147 11l3 30q9 60 -14.5 88.5t-85.5 28.5
q-109 0 -122 -99h-87q10 82 67.5 125.5t146.5 43.5q125 0 155 -81q65 81 171 81q82 0 133 -49t51 -143q0 -51 -16 -95zM616 446q-60 0 -99 -41.5t-53 -110.5h250q5 17 5 39q0 58 -29 85.5t-74 27.5zM206 58q64 0 109 40t54 109l5 28l-126 -9q-71 -5 -101 -29t-30 -70
q0 -33 25 -51t64 -18z" />
    <glyph glyph-name="Oslashacute" unicode="&#x1fe;" horiz-adv-x="756" 
d="M541 861l-123 -108h-80l109 108h94zM750 682l-71 -74q52 -78 52 -197q0 -60 -12.5 -119t-40.5 -115.5t-69 -99t-104 -68.5t-139 -26q-132 0 -213 74l-65 -69l-47 39l73 76q-52 78 -52 196q0 60 12.5 119t40.5 115.5t69 99t104 68.5t139 26q131 0 212 -73l64 67zM163 302
q0 -72 21 -125l391 410q-53 60 -149 60q-58 0 -105 -22t-75.5 -57t-48 -82t-27 -92.5t-7.5 -91.5zM630 408q0 74 -22 126l-391 -411q53 -60 150 -60q58 0 105 22t75.5 57t48 82t27 92.5t7.5 91.5z" />
    <glyph glyph-name="oslashacute" unicode="&#x1ff;" horiz-adv-x="566" 
d="M481 723l-143 -143h-78l117 143h104zM543 483l-55 -56q34 -53 34 -133q0 -54 -14 -105.5t-43.5 -97.5t-82.5 -74.5t-123 -28.5q-94 0 -150 49l-49 -51l-38 31l55 57q-33 53 -33 132q0 54 14 105.5t43.5 97.5t82.5 74.5t123 28.5q93 0 149 -48l49 50zM135 211
q0 -36 10 -68l251 258q-34 37 -94 37q-47 0 -82 -22.5t-52.5 -59t-25 -72.5t-7.5 -73zM431 289q0 38 -10 68l-251 -258q33 -37 94 -37q47 0 82 22.5t52.5 59t25 72.5t7.5 73z" />
    <glyph glyph-name="Scommaaccent" unicode="&#x218;" horiz-adv-x="622" 
d="M301 -17q-126 0 -201.5 56.5t-76.5 171.5l98 14q4 -85 52.5 -124.5t127.5 -39.5q166 0 166 128q0 29 -7.5 48.5t-25 32t-32 18t-40.5 13.5l-79 23q-83 24 -130.5 68t-47.5 126q0 89 64 149t196 60q109 0 177.5 -50t75.5 -152l-92 -20q-10 75 -48.5 111t-112.5 36
q-88 0 -123.5 -38.5t-35.5 -88.5q0 -84 112 -116l75 -22q86 -25 130.5 -65t44.5 -128q0 -40 -11.5 -74t-39 -66.5t-83 -51.5t-133.5 -19zM221 -237l-13 38q31 10 42 23t16 40h-51l16 90h96l-14 -80q-7 -43 -27.5 -69.5t-64.5 -41.5z" />
    <glyph glyph-name="scommaaccent" unicode="&#x219;" horiz-adv-x="498" 
d="M231 -12q-190 0 -208 166l86 15q8 -60 39.5 -85.5t87.5 -25.5q109 0 109 83q0 30 -15 44t-50 21l-86 17q-61 12 -90.5 48t-29.5 86q0 67 50 111t145 44q81 0 136 -36t63 -116l-83 -19q-9 60 -40.5 81t-77.5 21q-108 0 -108 -79q0 -30 17 -45.5t56 -23.5l84 -17
q60 -12 88 -47.5t28 -86.5q0 -69 -50 -112.5t-151 -43.5zM155 -237l-13 38q31 10 42 23t16 40h-51l16 90h96l-14 -80q-7 -43 -27.5 -69.5t-64.5 -41.5z" />
    <glyph glyph-name="uni021A" unicode="&#x21a;" horiz-adv-x="561" 
d="M632 710l-14 -80h-223l-111 -630h-95l111 630h-223l14 80h541zM165 -136l16 90h96l-14 -80q-7 -43 -27.5 -69.5t-64.5 -41.5l-13 38q31 10 42 23t16 40h-51z" />
    <glyph glyph-name="uni021B" unicode="&#x21b;" horiz-adv-x="354" 
d="M47 430l13 70h93l23 131l92 36l-30 -167h125l-13 -70h-124l-48 -270q-10 -52 8.5 -70.5t55.5 -18.5q25 0 46 5l-14 -76q-30 -9 -61 -9q-66 0 -100.5 44t-17.5 138l46 257h-94zM125 -237l-13 38q31 10 42 23t16 40h-51l16 90h96l-14 -80q-7 -43 -27.5 -69.5t-64.5 -41.5z
" />
    <glyph glyph-name="uni0237" unicode="&#x237;" horiz-adv-x="264" 
d="M-24 -202q-38 0 -69 11l13 74q28 -8 47 -8q30 0 45 15.5t21 50.5l99 559h86l-101 -568q-13 -69 -44 -101.5t-97 -32.5z" />
    <glyph glyph-name="uni0243" unicode="&#x243;" horiz-adv-x="655" 
d="M479 362q113 -20 113 -137q0 -35 -11 -68.5t-35 -67.5t-72 -57.5t-114 -29.5l-19 -109h-53l19 107h-71l-19 -107h-53l19 107h-127l123 695h126l16 90h53l-16 -90h63h8l16 90h53l-17 -95q66 -11 106.5 -47t40.5 -101q0 -35 -11.5 -68t-46.5 -65.5t-91 -46.5zM407 618h-152
l-40 -225h152q88 0 126.5 37t38.5 89q0 53 -36 76t-89 23zM328 77q89 0 129.5 43.5t40.5 98.5q0 51 -33 76.5t-84 25.5h-178l-43 -244h168z" />
    <glyph glyph-name="circumflex" unicode="&#x2c6;" horiz-adv-x="600" 
d="M354 580h-76l-55 100l-91 -100h-82l133 143h88z" />
    <glyph glyph-name="caron" unicode="&#x2c7;" horiz-adv-x="600" 
d="M133 718h76l55 -100l91 100h82l-133 -143h-88z" />
    <glyph glyph-name="breve" unicode="&#x2d8;" horiz-adv-x="600" 
d="M124 723q-6 -42 12.5 -64.5t57.5 -22.5q33 0 58 20t28 67h72q-15 -148 -164 -148q-69 0 -108 37t-28 111h72z" />
    <glyph glyph-name="dotaccent" unicode="&#x2d9;" horiz-adv-x="600" 
d="M118 593l19 107h97l-19 -107h-97z" />
    <glyph glyph-name="ring" unicode="&#x2da;" horiz-adv-x="600" 
d="M154 556q-49 0 -77.5 25t-28.5 67q0 49 33 80.5t83 31.5q49 0 77.5 -25t28.5 -67q0 -49 -33 -80.5t-83 -31.5zM154 604q25 0 41.5 18t16.5 46q0 20 -13 32t-35 12q-25 0 -41.5 -18t-16.5 -46q0 -20 13 -32t35 -12z" />
    <glyph glyph-name="ogonek" unicode="&#x2db;" horiz-adv-x="600" 
d="M260 -109q-23 -94 -114 -94q-96 0 -96 77q0 81 114 126h79q-127 -52 -127 -112q0 -37 37 -37q38 0 49 48z" />
    <glyph glyph-name="tilde" unicode="&#x2dc;" horiz-adv-x="600" 
d="M317 587q-28 0 -50 10.5t-34 22.5t-29 22.5t-35 10.5q-44 0 -60 -57l-56 11q16 54 46 84t70 30q35 0 60 -16.5t45 -33t43 -16.5q42 0 61 57l56 -11q-15 -54 -46 -84t-71 -30z" />
    <glyph glyph-name="hungarumlaut" unicode="&#x2dd;" horiz-adv-x="600" 
d="M64 580l111 143h82l-118 -143h-75zM216 580l111 143h82l-118 -143h-75z" />
    <glyph glyph-name="gravecomb" unicode="&#x300;" horiz-adv-x="0" 
d="M82 580h-78l-143 143h104z" />
    <glyph glyph-name="acutecomb" unicode="&#x301;" horiz-adv-x="0" 
d="M-269 580l117 143h104l-143 -143h-78z" />
    <glyph glyph-name="uni0302" unicode="&#x302;" horiz-adv-x="0" 
d="M-50 580h-76l-55 100l-91 -100h-82l133 143h88z" />
    <glyph glyph-name="tildecomb" unicode="&#x303;" horiz-adv-x="0" 
d="M-169 587q-28 0 -50 10.5t-34 22.5t-29 22.5t-35 10.5q-44 0 -60 -57l-56 11q16 54 46 84t70 30q35 0 60 -16.5t45 -33t43 -16.5q42 0 61 57l56 -11q-15 -54 -46 -84t-71 -30z" />
    <glyph glyph-name="uni0304" unicode="&#x304;" horiz-adv-x="0" 
d="M-350 613l12 68h298l-12 -68h-298z" />
    <glyph glyph-name="uni0306" unicode="&#x306;" horiz-adv-x="0" 
d="M-280 723q-6 -42 12.5 -64.5t57.5 -22.5q33 0 58 20t28 67h72q-15 -148 -164 -148q-69 0 -108 37t-28 111h72z" />
    <glyph glyph-name="uni0307" unicode="&#x307;" horiz-adv-x="0" 
d="M-96 593l19 107h97l-19 -107h-97z" />
    <glyph glyph-name="uni0308" unicode="&#x308;" horiz-adv-x="0" 
d="M-362 596l18 103h97l-18 -103h-97zM-159 596l18 103h97l-18 -103h-97z" />
    <glyph glyph-name="uni030A" unicode="&#x30a;" horiz-adv-x="0" 
d="M-164 556q-49 0 -77.5 25t-28.5 67q0 49 33 80.5t83 31.5q49 0 77.5 -25t28.5 -67q0 -49 -33 -80.5t-83 -31.5zM-164 604q25 0 41.5 18t16.5 46q0 20 -13 32t-35 12q-25 0 -41.5 -18t-16.5 -46q0 -20 13 -32t35 -12z" />
    <glyph glyph-name="uni030B" unicode="&#x30b;" horiz-adv-x="0" 
d="M-400 580l111 143h82l-118 -143h-75zM-248 580l111 143h82l-118 -143h-75z" />
    <glyph glyph-name="uni030C" unicode="&#x30c;" horiz-adv-x="0" 
d="M-271 718h76l55 -100l91 100h82l-133 -143h-88z" />
    <glyph glyph-name="uni0312" unicode="&#x312;" horiz-adv-x="0" 
d="M31 771l13 -38q-31 -10 -42 -23t-16 -40h51l-16 -90h-96l14 80q7 43 27.5 69.5t64.5 41.5z" />
    <glyph glyph-name="uni0326" unicode="&#x326;" horiz-adv-x="0" 
d="M-156 -237l-13 38q31 10 42 23t16 40h-51l16 90h96l-14 -80q-7 -43 -27.5 -69.5t-64.5 -41.5z" />
    <glyph glyph-name="uni0327" unicode="&#x327;" horiz-adv-x="0" 
d="M-164 7h53l-45 -56q14 12 39 12q31 0 50 -18.5t19 -50.5q0 -41 -32 -67t-79 -26q-89 0 -101 63l59 10q5 -28 42 -28q19 0 32.5 12t13.5 36q0 34 -37 34q-20 0 -34 -15l-37 12z" />
    <glyph glyph-name="uni0328" unicode="&#x328;" horiz-adv-x="0" 
d="M-50 -109q-23 -94 -114 -94q-96 0 -96 77q0 81 114 126h79q-127 -52 -127 -112q0 -37 37 -37q38 0 49 48z" />
    <glyph glyph-name="uni0394" unicode="&#x394;" horiz-adv-x="590" 
d="M-36 0l364 710h99l111 -710h-574zM359 610l-272 -535h349z" />
    <glyph glyph-name="uni03A9" unicode="&#x3a9;" horiz-adv-x="699" 
d="M569 0h-214l25 225q96 17 150.5 85.5t54.5 170.5q0 78 -43.5 122.5t-121.5 44.5q-106 0 -172 -69.5t-66 -182.5q0 -70 33.5 -114.5t96.5 -56.5l-55 -225h-214l14 79h144l25 97q-62 22 -96.5 79.5t-34.5 135.5q0 144 96.5 237.5t241.5 93.5q111 0 175 -63.5t64 -168.5
q0 -111 -61.5 -196.5t-162.5 -117.5l-9 -97h144z" />
    <glyph glyph-name="uni03BC" unicode="&#x3bc;" horiz-adv-x="587" 
d="M455 500h86l-89 -500h-80l18 99q-19 -49 -59 -80t-100 -31q-65 0 -105 33l-38 -216h-75l121 695h85l-51 -289q-5 -37 -5 -55q0 -50 29 -71.5t71 -21.5q115 0 146 176z" />
    <glyph glyph-name="pi" unicode="&#x3c0;" horiz-adv-x="677" 
d="M548 -1q-24 -6 -46 -6q-69 0 -89 35.5t-9 94.5l54 309h-175l-76 -432h-85l76 432h-83l12 68h510l-12 -68h-82l-54 -307q-10 -55 38 -55q13 0 34 3z" />
    <glyph glyph-name="uni0E3F" unicode="&#xe3f;" horiz-adv-x="655" 
d="M479 362q113 -20 113 -137q0 -38 -12.5 -74t-41 -71.5t-85 -57.5t-134.5 -22h-13l-19 -107h-53l19 107h-197l123 695h197l16 91h53l-16 -91q86 -2 142.5 -39t56.5 -114q0 -35 -11.5 -68t-46.5 -65.5t-91 -46.5zM362 618h-107l-40 -225h107zM532 519q0 51 -33.5 74
t-83.5 25l-40 -225q84 2 120.5 38.5t36.5 87.5zM160 77h107l43 244h-107zM328 77q89 0 129.5 43.5t40.5 98.5q0 51 -33 76.5t-84 25.5h-18l-43 -244h8z" />
    <glyph glyph-name="Wgrave" unicode="&#x1e80;" horiz-adv-x="912" 
d="M593 753h-80l-123 108h94zM150 0l-44 710h95l22 -572q1 -18 -1 -39h3q5 17 15 39l247 572h96l45 -572q2 -25 1 -39h3q4 14 13 39l224 572h99l-294 -710h-116l-40 554q-1 16 0 33h-4q-3 -11 -12 -33l-236 -554h-116z" />
    <glyph glyph-name="wgrave" unicode="&#x1e81;" horiz-adv-x="732" 
d="M464 580h-78l-143 143h104zM122 0l-53 500h79l27 -362q1 -18 1 -59h2q7 22 23 59l154 362h100l28 -362q3 -54 3 -59h2q11 36 21 59l153 362h89l-229 -500h-94l-31 366q-1 16 -1 56h-2q-5 -20 -21 -56l-158 -366h-93z" />
    <glyph glyph-name="Wacute" unicode="&#x1e82;" horiz-adv-x="912" 
d="M505 753l109 108h94l-123 -108h-80zM150 0l-44 710h95l22 -572q1 -18 -1 -39h3q5 17 15 39l247 572h96l45 -572q2 -25 1 -39h3q4 14 13 39l224 572h99l-294 -710h-116l-40 554q-1 16 0 33h-4q-3 -11 -12 -33l-236 -554h-116z" />
    <glyph glyph-name="wacute" unicode="&#x1e83;" horiz-adv-x="732" 
d="M382 580l117 143h104l-143 -143h-78zM122 0l-53 500h79l27 -362q1 -18 1 -59h2q7 22 23 59l154 362h100l28 -362q3 -54 3 -59h2q11 36 21 59l153 362h89l-229 -500h-94l-31 366q-1 16 -1 56h-2q-5 -20 -21 -56l-158 -366h-93z" />
    <glyph glyph-name="Wdieresis" unicode="&#x1e84;" horiz-adv-x="912" 
d="M385 753l17 98h97l-17 -98h-97zM608 753l17 98h97l-17 -98h-97zM150 0l-44 710h95l22 -572q1 -18 -1 -39h3q5 17 15 39l247 572h96l45 -572q2 -25 1 -39h3q4 14 13 39l224 572h99l-294 -710h-116l-40 554q-1 16 0 33h-4q-3 -11 -12 -33l-236 -554h-116z" />
    <glyph glyph-name="wdieresis" unicode="&#x1e85;" horiz-adv-x="732" 
d="M272 596l18 103h97l-18 -103h-97zM475 596l18 103h97l-18 -103h-97zM122 0l-53 500h79l27 -362q1 -18 1 -59h2q7 22 23 59l154 362h100l28 -362q3 -54 3 -59h2q11 36 21 59l153 362h89l-229 -500h-94l-31 366q-1 16 -1 56h-2q-5 -20 -21 -56l-158 -366h-93z" />
    <glyph glyph-name="Ygrave" unicode="&#x1ef2;" horiz-adv-x="578" 
d="M426 753h-80l-123 108h94zM197 0l50 283l-166 427h102l110 -301q7 -20 12 -41h2q4 9 26 41l216 301h110l-316 -427l-50 -283h-96z" />
    <glyph glyph-name="ygrave" unicode="&#x1ef3;" horiz-adv-x="486" 
d="M348 580h-78l-143 143h104zM29 -201q-34 0 -63 8l13 77q23 -8 54 -8q67 0 106 81l24 49l-109 494h91l66 -348q4 -22 7 -59h2q8 23 27 59l177 348h96l-302 -562q-48 -88 -88 -113.5t-101 -25.5z" />
    <glyph glyph-name="uni2002" unicode="&#x2002;" horiz-adv-x="500" 
 />
    <glyph glyph-name="uni2003" unicode="&#x2003;" horiz-adv-x="1000" 
 />
    <glyph glyph-name="uni2004" unicode="&#x2004;" horiz-adv-x="0" 
 />
    <glyph glyph-name="uni2005" unicode="&#x2005;" horiz-adv-x="250" 
 />
    <glyph glyph-name="uni2009" unicode="&#x2009;" horiz-adv-x="135" 
 />
    <glyph glyph-name="uni200A" unicode="&#x200a;" horiz-adv-x="75" 
 />
    <glyph glyph-name="endash" unicode="&#x2013;" horiz-adv-x="513" 
d="M61 310h412l-11 -64h-412z" />
    <glyph glyph-name="emdash" unicode="&#x2014;" horiz-adv-x="796" 
d="M61 310h695l-11 -64h-695z" />
    <glyph glyph-name="quoteleft" unicode="&#x2018;" horiz-adv-x="257" 
d="M244 722l15 -44q-61 -16 -75 -91l-1 -5h63l-21 -118h-117l20 111q12 70 42 102.5t74 44.5z" />
    <glyph glyph-name="quoteright" unicode="&#x2019;" horiz-adv-x="257" 
d="M132 452l-15 44q61 16 75 91l1 5h-63l21 118h117l-20 -111q-12 -70 -42 -102.5t-74 -44.5z" />
    <glyph glyph-name="quotesinglbase" unicode="&#x201a;" horiz-adv-x="257" 
d="M28 -140l-15 44q61 16 75 91l1 5h-63l21 118h117l-20 -111q-12 -70 -42 -102.5t-74 -44.5z" />
    <glyph glyph-name="quotedblleft" unicode="&#x201c;" horiz-adv-x="421" 
d="M244 723l15 -44q-61 -16 -75 -91l-1 -5h63l-21 -118h-117l20 111q12 70 42 102.5t74 44.5zM408 723l15 -44q-61 -16 -75 -91l-1 -5h63l-21 -118h-117l20 111q12 70 42 102.5t74 44.5z" />
    <glyph glyph-name="quotedblright" unicode="&#x201d;" horiz-adv-x="421" 
d="M132 452l-15 44q61 16 75 91l1 5h-63l21 118h117l-20 -111q-12 -70 -42 -102.5t-74 -44.5zM296 452l-15 44q61 16 75 91l1 5h-63l21 118h117l-20 -111q-12 -70 -42 -102.5t-74 -44.5z" />
    <glyph glyph-name="quotedblbase" unicode="&#x201e;" horiz-adv-x="421" 
d="M28 -140l-15 44q61 16 75 91l1 5h-63l21 118h117l-20 -111q-12 -70 -42 -102.5t-74 -44.5zM192 -140l-15 44q61 16 75 91l1 5h-63l21 118h117l-20 -111q-12 -70 -42 -102.5t-74 -44.5z" />
    <glyph glyph-name="dagger" unicode="&#x2020;" horiz-adv-x="488" 
d="M462 500l-12 -70h-132l-93 -530h-85l93 530h-131l12 70h131l39 220h85l-39 -220h132z" />
    <glyph glyph-name="daggerdbl" unicode="&#x2021;" horiz-adv-x="488" 
d="M450 430h-132l-43 -246h131l-12 -70h-131l-38 -214h-85l38 214h-132l12 70h132l43 246h-131l12 70h131l39 220h85l-39 -220h132z" />
    <glyph glyph-name="bullet" unicode="&#x2022;" horiz-adv-x="333" 
d="M183 253q-41 0 -67.5 25.5t-26.5 66.5q0 42 26.5 68.5t67.5 26.5q42 0 68.5 -26t26.5 -69q0 -41 -26.5 -66.5t-68.5 -25.5z" />
    <glyph glyph-name="ellipsis" unicode="&#x2026;" horiz-adv-x="822" 
d="M164 115l-21 -115h-117l21 115h117zM446 115l-21 -115h-117l21 115h117zM728 115l-21 -115h-117l21 115h117z" />
    <glyph glyph-name="perthousand" unicode="&#x2030;" horiz-adv-x="1177" 
d="M229 349q-67 0 -114 38t-47 114q0 34 10 69t30.5 67t58.5 52.5t87 20.5q67 0 114 -38t47 -114q0 -34 -10 -69t-30.5 -67t-58.5 -52.5t-87 -20.5zM94 -15l565 725h83l-565 -725h-83zM227 413q61 0 88 44.5t27 96.5q0 92 -86 92q-61 0 -88 -44.5t-27 -96.5q0 -92 86 -92z
M576 -26q-67 0 -114 38t-47 114q0 34 10 69t30.5 67t58.5 52.5t87 20.5q67 0 114 -38t47 -114q0 -34 -10 -69t-30.5 -67t-58.5 -52.5t-87 -20.5zM955 -26q-67 0 -114 38t-47 114q0 34 10 69t30.5 67t58.5 52.5t87 20.5q67 0 114 -38t47 -114q0 -34 -10 -69t-30.5 -67
t-58.5 -52.5t-87 -20.5zM574 38q61 0 88 44.5t27 96.5q0 92 -86 92q-61 0 -88 -44.5t-27 -96.5q0 -92 86 -92zM953 38q61 0 88 44.5t27 96.5q0 92 -86 92q-61 0 -88 -44.5t-27 -96.5q0 -92 86 -92z" />
    <glyph glyph-name="guilsinglleft" unicode="&#x2039;" horiz-adv-x="318" 
d="M168 67l-134 208l208 208h97l-213 -214l130 -202h-88z" />
    <glyph glyph-name="guilsinglright" unicode="&#x203a;" horiz-adv-x="319" 
d="M159 483l134 -208l-208 -208h-97l213 214l-130 202h88z" />
    <glyph glyph-name="fraction" unicode="&#x2044;" horiz-adv-x="185" 
d="M-207 -17l562 744h74l-561 -744h-75z" />
    <glyph glyph-name="uni20A9" unicode="&#x20a9;" horiz-adv-x="870" 
d="M934 695l-100 -238h53l-10 -56h-67l-35 -85h87l-10 -56h-101l-109 -260h-106l-19 260h-160l-112 -260h-107l-17 260h-101l10 56h87l-6 85h-66l10 56h53l-16 238h87l10 -238h175l102 238h85l20 -238h175l92 238h96zM450 475l-8 -18h61l-1 18q-4 54 0 137h-4
q-25 -84 -48 -137zM192 401l3 -85h108l37 85h-148zM381 316h132l-6 85h-89zM691 316l33 85h-149l8 -85h108zM244 178l35 82h-81l3 -78q3 -65 -1 -112h3q10 35 41 108zM639 182l30 78h-82l7 -82q5 -68 3 -108h3q16 54 39 112z" />
    <glyph glyph-name="Euro" unicode="&#x20ac;" horiz-adv-x="647" 
d="M351 64q41 0 72.5 8.5t55 26.5t36.5 32.5t31 39.5l59 -47q-2 -3 -7 -10q-19 -28 -33 -44t-43 -39t-70 -34.5t-95 -11.5q-51 0 -95.5 13.5t-84.5 43.5t-66.5 85t-32.5 131h-61l11 60h48q0 31 7 75h-42l10 60h45q34 114 118 185.5t220 71.5q180 0 246 -128l-81 -51
q-45 100 -167 100q-94 0 -152.5 -49.5t-86.5 -128.5h354l-10 -60h-360q-6 -32 -8 -75h355l-11 -60h-342q20 -194 180 -194z" />
    <glyph glyph-name="uni20B9" unicode="&#x20b9;" horiz-adv-x="611" 
d="M601 695l-11 -65h-182q53 -38 57 -111h105l-10 -60h-100q-15 -76 -82 -125.5t-199 -49.5l189 -284h-107l-191 296l10 57h112q152 0 178 106h-271l10 60h266q-4 57 -40 84t-84 27h-122l11 65h461z" />
    <glyph glyph-name="uni20BA" unicode="&#x20ba;" horiz-adv-x="556" 
d="M463 242l78 -19q-21 -100 -100 -161.5t-213 -61.5h-171l48 269l-75 -21l12 67l74 21l14 78l-74 -21l11 67l75 21l38 214h90l-33 -188l260 73l-12 -67l-260 -73l-14 -78l260 73l-12 -67l-260 -73l-38 -215h67q107 0 162.5 41t72.5 121z" />
    <glyph glyph-name="uni20BD" unicode="&#x20bd;" horiz-adv-x="598" 
d="M354 285h-132l-15 -84h167l-11 -60h-167l-25 -141h-90l25 141h-71l11 60h71l14 84h-69l10 65h71l61 345h195q60 0 107 -16.5t80 -61t33 -112.5q0 -41 -13.5 -77.5t-43 -70t-83 -53t-125.5 -19.5zM280 615l-47 -265h107q55 0 93.5 14t56.5 38t25.5 47.5t7.5 49.5
q0 116 -130 116h-113z" />
    <glyph glyph-name="uni2105" unicode="&#x2105;" horiz-adv-x="875" 
d="M77 -13l670 748h83l-670 -748h-83zM252 351q-67 0 -116 38.5t-49 126.5q0 38 10 74.5t31.5 69.5t61.5 53.5t92 20.5q67 0 110.5 -32.5t45.5 -98.5l-81 -15q-3 78 -75 78q-56 0 -81.5 -46t-25.5 -103q0 -52 23 -75t57 -23q67 0 86 80l78 -17q-15 -61 -57 -96t-110 -35z
M636 -12q-30 0 -56.5 7.5t-51 25t-39 51t-14.5 79.5q0 40 10.5 77t32.5 70t60.5 53t89.5 20q30 0 56.5 -7.5t51 -25t39 -51t14.5 -79.5q0 -40 -10.5 -77t-32.5 -70t-60.5 -53t-89.5 -20zM639 53q39 0 64 27.5t33 60t8 68.5q0 52 -22.5 74.5t-56.5 22.5q-39 0 -64 -27.5
t-33.5 -60.5t-8.5 -68q0 -52 23 -74.5t57 -22.5z" />
    <glyph glyph-name="uni2113" unicode="&#x2113;" horiz-adv-x="389" 
d="M211 260l-19 -107q-8 -43 6.5 -62.5t54.5 -19.5q19 0 51 7l-14 -78q-35 -9 -71 -9q-81 0 -103.5 40.5t-8.5 118.5l12 65q-50 -20 -95 -35l-18 64q86 34 127 54l50 284q13 76 56 112.5t98 36.5q103 0 103 -129q0 -212 -229 -342zM270 598l-43 -243q127 97 127 248
q0 30 -6.5 45t-25.5 15q-40 0 -52 -65z" />
    <glyph glyph-name="uni2116" unicode="&#x2116;" horiz-adv-x="1218" 
d="M56 0l125 710h113l205 -519q16 -40 33 -91h3q3 33 14 94l92 516h84l-125 -710h-112l-206 521q-25 62 -33 91h-3q-3 -42 -13 -94l-92 -518h-85zM959 173q-85 0 -144.5 49t-59.5 148q0 35 7.5 70.5t25.5 72t44.5 64.5t68 45.5t92.5 17.5q85 0 144.5 -49t59.5 -148
q0 -35 -7.5 -70.5t-25.5 -72t-44.5 -64.5t-68 -45.5t-92.5 -17.5zM957 241q45 0 77.5 19.5t49.5 51t24.5 63t7.5 63.5q0 74 -35 104t-86 30q-45 0 -77.5 -19.5t-49.5 -51t-24.5 -63t-7.5 -63.5q0 -74 35 -104t86 -30zM692 0l14 78h430l-14 -78h-430z" />
    <glyph glyph-name="trademark" unicode="&#x2122;" horiz-adv-x="858" 
d="M137 304l62 350h-123l10 56h321l-10 -56h-132l-62 -350h-66zM378 304l72 406h93l54 -299q6 -32 4 -51h2q4 17 22 51l158 299h96l-72 -406h-62l51 289q9 48 14 67h-1q-10 -22 -32 -65l-154 -291h-60l-50 291q-9 53 -10 65h-1q-4 -34 -10 -67l-51 -289h-63z" />
    <glyph glyph-name="uni2126" unicode="&#x2126;" horiz-adv-x="699" 
d="M569 0h-214l25 225q96 17 150.5 85.5t54.5 170.5q0 78 -43.5 122.5t-121.5 44.5q-106 0 -172 -69.5t-66 -182.5q0 -70 33.5 -114.5t96.5 -56.5l-55 -225h-214l14 79h144l25 97q-62 22 -96.5 79.5t-34.5 135.5q0 144 96.5 237.5t241.5 93.5q111 0 175 -63.5t64 -168.5
q0 -111 -61.5 -196.5t-162.5 -117.5l-9 -97h144z" />
    <glyph glyph-name="estimated" unicode="&#x212e;" horiz-adv-x="758" 
d="M349 -14q-128 0 -209.5 73t-81.5 218q0 104 35 189t94 138.5t132 82t152 28.5q148 0 220.5 -88.5t46.5 -234.5l-7 -40h-516l-41 -231q59 -72 186 -72q85 0 150 30t125 99l39 -35q-128 -157 -325 -157zM225 411h378l31 175q-52 74 -178 74q-115 0 -200 -75z" />
    <glyph glyph-name="uni2153" unicode="&#x2153;" horiz-adv-x="825" 
d="M59 -17l562 744h74l-561 -744h-75zM131 328l51 282q-27 -34 -77 -34h-22l11 65h19q72 0 99 68h59l-67 -381h-73zM615 -8q-65 0 -111 28.5t-46 95.5l75 5q-1 -41 21.5 -57.5t55.5 -16.5q40 0 59 19t19 48q0 28 -21.5 42t-53.5 14h-24l8 46h26q41 0 63.5 17t22.5 48
q0 29 -19.5 42t-49.5 13q-38 0 -58.5 -21t-22.5 -53l-71 7q5 56 44 88.5t112 32.5q54 0 98 -22t44 -75q0 -43 -29.5 -69.5t-79.5 -31.5q38 -4 62.5 -26t24.5 -59q0 -48 -36.5 -81.5t-112.5 -33.5z" />
    <glyph glyph-name="uni2154" unicode="&#x2154;" horiz-adv-x="925" 
d="M159 -17l562 744h74l-561 -744h-75zM47 328l9 52q144 75 191 113q66 53 66 106q0 62 -70 62q-45 0 -63.5 -26.5t-8.5 -70.5l-73 7q-9 65 30.5 106t120.5 41q61 0 101.5 -25.5t40.5 -84.5q0 -116 -230 -226h197l-9 -54h-302zM715 -8q-65 0 -111 28.5t-46 95.5l75 5
q-1 -41 21.5 -57.5t55.5 -16.5q40 0 59 19t19 48q0 28 -21.5 42t-53.5 14h-24l8 46h26q41 0 63.5 17t22.5 48q0 29 -19.5 42t-49.5 13q-38 0 -58.5 -21t-22.5 -53l-71 7q5 56 44 88.5t112 32.5q54 0 98 -22t44 -75q0 -43 -29.5 -69.5t-79.5 -31.5q38 -4 62.5 -26t24.5 -59
q0 -48 -36.5 -81.5t-112.5 -33.5z" />
    <glyph glyph-name="oneeighth" unicode="&#x215b;" horiz-adv-x="835" 
d="M621 727h74l-561 -744h-75zM182 610q-27 -34 -77 -34h-22l11 65h19q72 0 99 68h59l-67 -381h-73zM703 205q75 -27 75 -95q0 -53 -42 -85.5t-121 -32.5q-67 0 -113.5 24.5t-46.5 75.5q0 77 107 100q-64 26 -64 88q0 50 37.5 80t111.5 30q61 0 103.5 -22.5t42.5 -70.5
q0 -70 -90 -92zM647 341q-80 0 -80 -59q0 -46 63 -59l26 -6q67 20 67 70q0 54 -76 54zM617 44q45 0 65.5 19.5t20.5 46.5q0 45 -75 63l-23 6q-74 -20 -74 -78q0 -57 86 -57z" />
    <glyph glyph-name="threeeighths" unicode="&#x215c;" horiz-adv-x="943" 
d="M729 727h74l-561 -744h-75zM371 435q0 -48 -36.5 -81.5t-112.5 -33.5q-65 0 -111 28.5t-46 95.5l75 5q-1 -41 21.5 -57.5t55.5 -16.5q40 0 59 19t19 48q0 28 -21.5 42t-53.5 14h-24l8 46h26q41 0 63.5 17t22.5 48q0 29 -19.5 42t-49.5 13q-38 0 -58.5 -21t-22.5 -53
l-71 7q5 56 44 88.5t112 32.5q54 0 98 -22t44 -75q0 -43 -29.5 -69.5t-79.5 -31.5q38 -4 62.5 -26t24.5 -59zM811 205q75 -27 75 -95q0 -53 -42 -85.5t-121 -32.5q-67 0 -113.5 24.5t-46.5 75.5q0 77 107 100q-64 26 -64 88q0 50 37.5 80t111.5 30q61 0 103.5 -22.5
t42.5 -70.5q0 -70 -90 -92zM755 341q-80 0 -80 -59q0 -46 63 -59l26 -6q67 20 67 70q0 54 -76 54zM725 44q45 0 65.5 19.5t20.5 46.5q0 45 -75 63l-23 6q-74 -20 -74 -78q0 -57 86 -57z" />
    <glyph glyph-name="fiveeighths" unicode="&#x215d;" horiz-adv-x="939" 
d="M725 727h74l-561 -744h-75zM374 474q0 -59 -38.5 -106.5t-124.5 -47.5q-58 0 -99.5 25t-49.5 78l71 12q10 -60 78 -60q47 0 68 28.5t21 63.5q0 32 -19.5 51t-53.5 19q-58 0 -81 -55l-64 6l64 221h248l-9 -56h-198l-36 -120q28 54 102 54q50 0 85.5 -27.5t35.5 -85.5z
M807 205q75 -27 75 -95q0 -53 -42 -85.5t-121 -32.5q-67 0 -113.5 24.5t-46.5 75.5q0 77 107 100q-64 26 -64 88q0 50 37.5 80t111.5 30q61 0 103.5 -22.5t42.5 -70.5q0 -70 -90 -92zM751 341q-80 0 -80 -59q0 -46 63 -59l26 -6q67 20 67 70q0 54 -76 54zM721 44
q45 0 65.5 19.5t20.5 46.5q0 45 -75 63l-23 6q-74 -20 -74 -78q0 -57 86 -57z" />
    <glyph glyph-name="seveneighths" unicode="&#x215e;" horiz-adv-x="856" 
d="M642 727h74l-561 -744h-75zM110 338q9 90 64.5 173.5t144.5 138.5h-220l11 59h286l-10 -58q-175 -115 -197 -306l-2 -17h-78zM724 205q75 -27 75 -95q0 -53 -42 -85.5t-121 -32.5q-67 0 -113.5 24.5t-46.5 75.5q0 77 107 100q-64 26 -64 88q0 50 37.5 80t111.5 30
q61 0 103.5 -22.5t42.5 -70.5q0 -70 -90 -92zM668 341q-80 0 -80 -59q0 -46 63 -59l26 -6q67 20 67 70q0 54 -76 54zM638 44q45 0 65.5 19.5t20.5 46.5q0 45 -75 63l-23 6q-74 -20 -74 -78q0 -57 86 -57z" />
    <glyph glyph-name="arrowleft" unicode="&#x2190;" horiz-adv-x="1076" 
d="M985 302h-712l-17 -95l-142 123l186 123l-17 -95h712z" />
    <glyph glyph-name="arrowup" unicode="&#x2191;" horiz-adv-x="446" 
d="M144 -35l109 621h-94l152 164l94 -164h-94l-109 -621h-58z" />
    <glyph glyph-name="arrowright" unicode="&#x2192;" horiz-adv-x="1076" 
d="M119 358h712l17 95l142 -123l-186 -123l17 95h-712z" />
    <glyph glyph-name="arrowdown" unicode="&#x2193;" horiz-adv-x="446" 
d="M339 745l-109 -621h94l-152 -164l-94 164h94l109 621h58z" />
    <glyph glyph-name="arrowboth" unicode="&#x2194;" horiz-adv-x="1076" 
d="M821 302h-548l-17 -95l-142 123l186 123l-17 -95h548l17 95l142 -123l-186 -123z" />
    <glyph glyph-name="arrowupdn" unicode="&#x2195;" horiz-adv-x="446" 
d="M78 124h94l81 462h-94l152 164l94 -164h-94l-81 -462h94l-152 -164z" />
    <glyph glyph-name="uni2196" unicode="&#x2196;" horiz-adv-x="921" 
d="M239 588l-93 -80l35 202h201l-93 -80l493 -599l-49 -43z" />
    <glyph glyph-name="uni2197" unicode="&#x2197;" horiz-adv-x="752" 
d="M605 589l-494 -600l-49 43l493 599l-93 80h201l35 -202z" />
    <glyph glyph-name="uni2198" unicode="&#x2198;" horiz-adv-x="921" 
d="M721 133l93 80l-35 -202h-201l93 80l-493 599l49 43z" />
    <glyph glyph-name="uni2199" unicode="&#x2199;" horiz-adv-x="751" 
d="M186 133l494 600l49 -43l-493 -599l93 -80h-201l-35 202z" />
    <glyph glyph-name="uni21A9" unicode="&#x21a9;" horiz-adv-x="993" 
d="M256 207l-142 123l186 123l-17 -95h414q80 0 128 42.5t48 118.5q0 53 -33.5 81t-94.5 28h-223l10 56h234q80 0 126 -40.5t46 -115.5q0 -105 -67 -165.5t-173 -60.5h-425z" />
    <glyph glyph-name="uni21AA" unicode="&#x21aa;" horiz-adv-x="993" 
d="M721 207l17 95h-425q-80 0 -126 41t-46 115q0 105 66.5 165.5t173.5 60.5h234l-10 -56h-223q-80 0 -128 -42t-48 -118q0 -53 34 -81.5t94 -28.5h414l17 95l142 -123z" />
    <glyph glyph-name="uni21B0" unicode="&#x21b0;" horiz-adv-x="834" 
d="M631 0l101 572h-411l-17 -95l-142 123l185 123l-16 -95h470l-111 -628h-59z" />
    <glyph glyph-name="uni21B1" unicode="&#x21b1;" horiz-adv-x="834" 
d="M115 0h-59l111 628h470l16 95l143 -123l-186 -123l17 95h-411z" />
    <glyph glyph-name="uni21B2" unicode="&#x21b2;" horiz-adv-x="834" 
d="M756 710h59l-111 -628h-470l-16 -95l-143 123l186 123l-17 -95h411z" />
    <glyph glyph-name="uni21B3" unicode="&#x21b3;" horiz-adv-x="834" 
d="M240 710l-101 -572h411l17 95l142 -123l-185 -123l16 95h-470l111 628h59z" />
    <glyph glyph-name="uni21B4" unicode="&#x21b4;" horiz-adv-x="923" 
d="M811 710l-98 -558h93l-152 -164l-94 164h94l88 502h-571l10 56h630z" />
    <glyph glyph-name="uni21BB" unicode="&#x21bb;" horiz-adv-x="1021" 
d="M787 352l2 11q23 129 -49.5 211.5t-200.5 82.5q-145 0 -251.5 -99.5t-106.5 -253.5q0 -114 70 -184t181 -70q63 0 126.5 25t112.5 67l30 -49q-120 -104 -280 -104q-133 0 -219.5 84.5t-86.5 221.5q0 121 62 219.5t161 151t212 52.5q153 0 241 -100t60 -255l-2 -11h90
l-152 -164l-94 164h94z" />
    <glyph glyph-name="uni21C4" unicode="&#x21c4;" horiz-adv-x="1076" 
d="M943 418h-649l-17 -95l-142 123l185 123l-16 -95h649zM811 242l16 95l143 -123l-186 -123l17 95h-648l10 56h648z" />
    <glyph glyph-name="uni21C5" unicode="&#x21c5;" horiz-adv-x="678" 
d="M390 44l95 542h-94l152 164l94 -164h-94l-95 -542h-58zM172 -40l-94 164h94l95 542h58l-95 -542h94z" />
    <glyph glyph-name="partialdiff" unicode="&#x2202;" horiz-adv-x="606" 
d="M366 721q106 0 157 -69.5t51 -212.5q0 -200 -89.5 -328t-238.5 -128q-95 0 -147 53.5t-52 145.5q0 117 76.5 196t190.5 79q119 0 173 -75q1 14 1 45q0 112 -31.5 165.5t-105.5 53.5q-56 0 -127 -29l-20 68q84 36 162 36zM262 56q83 0 137 61t76 167q-43 100 -158 100
q-81 0 -132 -54t-51 -139q0 -65 33 -100t95 -35z" />
    <glyph glyph-name="emptyset" unicode="&#x2205;" horiz-adv-x="548" 
d="M549 513l-76 -69q37 -50 37 -125q0 -101 -61 -171.5t-167 -70.5q-93 0 -155 51l-76 -69l-33 36l76 69q-36 51 -36 123q0 101 61 171.5t167 70.5q91 0 154 -50l76 70zM137 287q0 -42 14 -70l234 212q-38 29 -93 29q-80 0 -117.5 -50.5t-37.5 -120.5zM431 319q0 40 -15 72
l-235 -213q37 -30 95 -30q80 0 117.5 50.5t37.5 120.5z" />
    <glyph glyph-name="uni2206" unicode="&#x2206;" horiz-adv-x="590" 
d="M-36 0l364 710h99l111 -710h-574zM359 610l-272 -535h349z" />
    <glyph glyph-name="product" unicode="&#x220f;" horiz-adv-x="668" 
d="M427 -88l126 713h-306l-126 -713h-86l140 793h478l-140 -793h-86z" />
    <glyph glyph-name="summation" unicode="&#x2211;" horiz-adv-x="717" 
d="M51 -88l11 62l341 353l-209 317l10 61h470l-13 -77h-356l205 -301l-336 -338h386l-14 -77h-495z" />
    <glyph glyph-name="minus" unicode="&#x2212;" horiz-adv-x="570" 
d="M57 288l14 80h470l-14 -80h-470z" />
    <glyph glyph-name="radical" unicode="&#x221a;" horiz-adv-x="544" 
d="M22 302h135l31 -277l347 709h81l-409 -828h-79l-46 327h-72z" />
    <glyph glyph-name="infinity" unicode="&#x221e;" horiz-adv-x="625" 
d="M474 468q47 0 75 -31.5t28 -81.5q0 -61 -36 -114t-107 -53q-84 0 -119 78q-63 -78 -137 -78q-48 0 -75.5 31.5t-27.5 81.5q0 26 7.5 53t22.5 53.5t44.5 43.5t68.5 17q84 0 119 -78q63 78 137 78zM199 260q28 0 46.5 15t45.5 52q-14 37 -29 53t-42 16q-33 0 -53 -23.5
t-20 -58.5q0 -24 13.5 -39t38.5 -15zM432 260q33 0 52.5 23.5t19.5 58.5q0 24 -13 39t-38 15q-28 0 -46.5 -15t-45.5 -52q14 -37 29 -53t42 -16z" />
    <glyph glyph-name="integral" unicode="&#x222b;" horiz-adv-x="501" 
d="M22 -116q-19 0 -29 1l13 73q10 -1 29 -1q71 0 102 28.5t45 103.5l75 425q16 93 69.5 146t150.5 53q24 0 48 -3l-13 -73q-23 4 -48 4q-55 0 -83 -33.5t-40 -101.5l-75 -425q-17 -98 -75 -147.5t-169 -49.5z" />
    <glyph glyph-name="approxequal" unicode="&#x2248;" horiz-adv-x="662" 
d="M462 364q-39 0 -110 25t-101 25q-74 0 -133 -40l14 80q23 17 61 28.5t72 11.5q46 0 113.5 -25t97.5 -25q74 0 131 40l-14 -80q-21 -17 -58.5 -28.5t-72.5 -11.5zM429 174q-39 0 -110.5 25t-101.5 25q-74 0 -133 -40l15 80q23 17 61 28.5t72 11.5q46 0 113.5 -25t97.5 -25
q74 0 131 40l-14 -80q-21 -17 -58.5 -28.5t-72.5 -11.5z" />
    <glyph glyph-name="notequal" unicode="&#x2260;" horiz-adv-x="668" 
d="M593 384h-184l-63 -110h227l-14 -80h-258l-74 -131h-56l74 131h-156l14 80h187l63 110h-230l14 80h261l72 127h56l-72 -127h153z" />
    <glyph glyph-name="lessequal" unicode="&#x2264;" horiz-adv-x="670" 
d="M547 131l-429 205l13 72l501 205l-14 -86l-399 -161l342 -161zM69 75h460l-13 -75h-460z" />
    <glyph glyph-name="greaterequal" unicode="&#x2265;" horiz-adv-x="670" 
d="M167 613l429 -205l-13 -72l-501 -205l14 86l399 161l-342 161zM73 75h460l-13 -75h-460z" />
    <glyph glyph-name="uni2460" unicode="&#x2460;" horiz-adv-x="850" 
d="M428 -18q-50 0 -99.5 10.5t-98 35.5t-85 62.5t-59 95.5t-22.5 130q0 57 12.5 112.5t42.5 110.5t74 96.5t113 67t153 25.5q50 0 99.5 -10.5t98 -35.5t85 -62.5t59 -95.5t22.5 -130q0 -57 -12.5 -112.5t-42.5 -110.5t-74 -96.5t-113 -67t-153 -25.5zM425 29
q91 0 160.5 34.5t108.5 90t58 116.5t19 123q0 73 -28 130.5t-73.5 90.5t-98.5 50t-109 17q-91 0 -160.5 -34.5t-108.5 -90t-58 -116.5t-19 -123q0 -73 28 -130.5t73.5 -90.5t98.5 -50t109 -17zM387 164l51 282q-27 -34 -77 -34h-22l11 65h19q72 0 99 68h59l-67 -381h-73z
" />
    <glyph glyph-name="uni2461" unicode="&#x2461;" horiz-adv-x="850" 
d="M428 -18q-50 0 -99.5 10.5t-98 35.5t-85 62.5t-59 95.5t-22.5 130q0 57 12.5 112.5t42.5 110.5t74 96.5t113 67t153 25.5q50 0 99.5 -10.5t98 -35.5t85 -62.5t59 -95.5t22.5 -130q0 -57 -12.5 -112.5t-42.5 -110.5t-74 -96.5t-113 -67t-153 -25.5zM425 29
q91 0 160.5 34.5t108.5 90t58 116.5t19 123q0 73 -28 130.5t-73.5 90.5t-98.5 50t-109 17q-91 0 -160.5 -34.5t-108.5 -90t-58 -116.5t-19 -123q0 -73 28 -130.5t73.5 -90.5t98.5 -50t109 -17zM268 177l9 52q144 75 191 113q65 53 66 106q0 62 -70 62q-45 0 -63.5 -26.5
t-8.5 -70.5l-73 7q-9 65 30.5 106t120.5 41q61 0 101.5 -25.5t40.5 -84.5q0 -116 -230 -226h197l-9 -54h-302z" />
    <glyph glyph-name="uni2462" unicode="&#x2462;" horiz-adv-x="850" 
d="M428 -18q-50 0 -99.5 10.5t-98 35.5t-85 62.5t-59 95.5t-22.5 130q0 57 12.5 112.5t42.5 110.5t74 96.5t113 67t153 25.5q50 0 99.5 -10.5t98 -35.5t85 -62.5t59 -95.5t22.5 -130q0 -57 -12.5 -112.5t-42.5 -110.5t-74 -96.5t-113 -67t-153 -25.5zM425 29
q91 0 160.5 34.5t108.5 90t58 116.5t19 123q0 73 -28 130.5t-73.5 90.5t-98.5 50t-109 17q-91 0 -160.5 -34.5t-108.5 -90t-58 -116.5t-19 -123q0 -73 28 -130.5t73.5 -90.5t98.5 -50t109 -17zM436 156q-65 0 -111 28.5t-46 95.5l75 5q-1 -41 21.5 -57.5t55.5 -16.5
q40 0 59 19t19 48q0 28 -21.5 42t-53.5 14h-24l8 46h26q41 0 63.5 17t22.5 48q0 29 -19.5 42t-49.5 13q-38 0 -58.5 -21t-22.5 -53l-71 7q5 56 44 88.5t112 32.5q54 0 98 -22t44 -75q0 -43 -29.5 -69.5t-79.5 -31.5q38 -4 62.5 -26t24.5 -59q0 -48 -36.5 -81.5t-112.5 -33.5
z" />
    <glyph glyph-name="uni2463" unicode="&#x2463;" horiz-adv-x="850" 
d="M428 -18q-50 0 -99.5 10.5t-98 35.5t-85 62.5t-59 95.5t-22.5 130q0 57 12.5 112.5t42.5 110.5t74 96.5t113 67t153 25.5q50 0 99.5 -10.5t98 -35.5t85 -62.5t59 -95.5t22.5 -130q0 -57 -12.5 -112.5t-42.5 -110.5t-74 -96.5t-113 -67t-153 -25.5zM425 29
q91 0 160.5 34.5t108.5 90t58 116.5t19 123q0 73 -28 130.5t-73.5 90.5t-98.5 50t-109 17q-91 0 -160.5 -34.5t-108.5 -90t-58 -116.5t-19 -123q0 -73 28 -130.5t73.5 -90.5t98.5 -50t109 -17zM572 258h-62l-16 -90h-73l16 90h-193l9 50l234 241h74l-43 -239h62zM487 489
l-169 -179h131z" />
    <glyph glyph-name="uni2464" unicode="&#x2464;" horiz-adv-x="850" 
d="M428 -18q-50 0 -99.5 10.5t-98 35.5t-85 62.5t-59 95.5t-22.5 130q0 57 12.5 112.5t42.5 110.5t74 96.5t113 67t153 25.5q50 0 99.5 -10.5t98 -35.5t85 -62.5t59 -95.5t22.5 -130q0 -57 -12.5 -112.5t-42.5 -110.5t-74 -96.5t-113 -67t-153 -25.5zM425 29
q91 0 160.5 34.5t108.5 90t58 116.5t19 123q0 73 -28 130.5t-73.5 90.5t-98.5 50t-109 17q-91 0 -160.5 -34.5t-108.5 -90t-58 -116.5t-19 -123q0 -73 28 -130.5t73.5 -90.5t98.5 -50t109 -17zM421 160q-58 0 -99.5 25t-49.5 78l71 12q10 -60 78 -60q47 0 68 28.5t21 63.5
q0 32 -19.5 51t-53.5 19q-58 0 -81 -55l-64 6l64 221h248l-9 -56h-198l-36 -120q28 54 102 54q50 0 85.5 -27.5t35.5 -85.5q0 -59 -38.5 -106.5t-124.5 -47.5z" />
    <glyph glyph-name="uni2465" unicode="&#x2465;" horiz-adv-x="850" 
d="M459 728q50 0 99.5 -10.5t98 -35.5t85 -62.5t59 -95.5t22.5 -130q0 -57 -12.5 -112.5t-42.5 -110.5t-74 -96.5t-113 -67t-153 -25.5q-50 0 -99.5 10.5t-98 35.5t-85 62.5t-59 95.5t-22.5 130q0 57 12.5 112.5t42.5 110.5t74 96.5t113 67t153 25.5zM425 29
q91 0 160.5 34.5t108.5 90t58 116.5t19 123q0 73 -28 130.5t-73.5 90.5t-98.5 50t-109 17q-91 0 -160.5 -34.5t-108.5 -90t-58 -116.5t-19 -123q0 -73 28 -130.5t73.5 -90.5t98.5 -50t109 -17zM458 500q-50 0 -78 -40t-37 -97q46 59 112 59q53 0 90.5 -27.5t37.5 -94.5
q0 -61 -41.5 -102.5t-115.5 -41.5q-64 0 -109 38t-45 126q0 104 47 169t145 65q124 0 135 -104l-68 -8q-10 58 -73 58zM433 372q-64 0 -93 -59q3 -104 83 -104q45 0 67.5 25t22.5 64q0 36 -23 55t-57 19z" />
    <glyph glyph-name="uni2466" unicode="&#x2466;" horiz-adv-x="850" 
d="M428 -18q-50 0 -99.5 10.5t-98 35.5t-85 62.5t-59 95.5t-22.5 130q0 57 12.5 112.5t42.5 110.5t74 96.5t113 67t153 25.5q50 0 99.5 -10.5t98 -35.5t85 -62.5t59 -95.5t22.5 -130q0 -57 -12.5 -112.5t-42.5 -110.5t-74 -96.5t-113 -67t-153 -25.5zM425 29
q91 0 160.5 34.5t108.5 90t58 116.5t19 123q0 73 -28 130.5t-73.5 90.5t-98.5 50t-109 17q-91 0 -160.5 -34.5t-108.5 -90t-58 -116.5t-19 -123q0 -73 28 -130.5t73.5 -90.5t98.5 -50t109 -17zM333 164l1 10q9 90 64.5 173.5t144.5 138.5h-220l11 59h286l-10 -58
q-175 -115 -197 -306l-2 -17h-78z" />
    <glyph glyph-name="uni2467" unicode="&#x2467;" horiz-adv-x="850" 
d="M459 728q50 0 99.5 -10.5t98 -35.5t85 -62.5t59 -95.5t22.5 -130q0 -57 -12.5 -112.5t-42.5 -110.5t-74 -96.5t-113 -67t-153 -25.5q-50 0 -99.5 10.5t-98 35.5t-85 62.5t-59 95.5t-22.5 130q0 57 12.5 112.5t42.5 110.5t74 96.5t113 67t153 25.5zM425 29
q91 0 160.5 34.5t108.5 90t58 116.5t19 123q0 73 -28 130.5t-73.5 90.5t-98.5 50t-109 17q-91 0 -160.5 -34.5t-108.5 -90t-58 -116.5t-19 -123q0 -73 28 -130.5t73.5 -90.5t98.5 -50t109 -17zM604 461q0 -70 -90 -92q75 -27 75 -95q0 -53 -42 -85.5t-121 -32.5
q-67 0 -113.5 24.5t-46.5 75.5q0 77 107 100q-64 26 -64 88q0 50 37.5 80t111.5 30q61 0 103.5 -22.5t42.5 -70.5zM467 381q67 20 67 70q0 54 -76 54q-80 0 -80 -59q0 -46 63 -59zM428 208q45 0 65.5 19.5t20.5 46.5q0 45 -75 63l-23 6q-74 -20 -74 -78q0 -57 86 -57z" />
    <glyph glyph-name="uni2468" unicode="&#x2468;" horiz-adv-x="850" 
d="M459 728q50 0 99.5 -10.5t98 -35.5t85 -62.5t59 -95.5t22.5 -130q0 -57 -12.5 -112.5t-42.5 -110.5t-74 -96.5t-113 -67t-153 -25.5q-50 0 -99.5 10.5t-98 35.5t-85 62.5t-59 95.5t-22.5 130q0 57 12.5 112.5t42.5 110.5t74 96.5t113 67t153 25.5zM425 29
q91 0 160.5 34.5t108.5 90t58 116.5t19 123q0 73 -28 130.5t-73.5 90.5t-98.5 50t-109 17q-91 0 -160.5 -34.5t-108.5 -90t-58 -116.5t-19 -123q0 -73 28 -130.5t73.5 -90.5t98.5 -50t109 -17zM457 554q156 0 156 -166q0 -27 -3 -53t-15 -60t-31 -59t-54.5 -42.5
t-83.5 -17.5q-54 0 -96 23t-47 78l68 8q1 -30 25.5 -43t54.5 -13q96 0 112 144q-39 -55 -105 -55q-51 0 -94 30t-43 92q0 52 36.5 93t119.5 41zM450 348q64 0 95 54q-4 101 -86 101q-47 0 -68 -24.5t-21 -58.5q0 -36 23.5 -54t56.5 -18z" />
    <glyph glyph-name="uni24EA" unicode="&#x24ea;" horiz-adv-x="850" 
d="M428 -18q-50 0 -99.5 10.5t-98 35.5t-85 62.5t-59 95.5t-22.5 130q0 57 12.5 112.5t42.5 110.5t74 96.5t113 67t153 25.5q50 0 99.5 -10.5t98 -35.5t85 -62.5t59 -95.5t22.5 -130q0 -57 -12.5 -112.5t-42.5 -110.5t-74 -96.5t-113 -67t-153 -25.5zM425 29
q91 0 160.5 34.5t108.5 90t58 116.5t19 123q0 73 -28 130.5t-73.5 90.5t-98.5 50t-109 17q-91 0 -160.5 -34.5t-108.5 -90t-58 -116.5t-19 -123q0 -73 28 -130.5t73.5 -90.5t98.5 -50t109 -17zM425 156q-29 0 -54 7t-49 24t-38 51t-14 82q0 40 9.5 78.5t30 75t59.5 58.5
t92 22q29 0 54 -7.5t49 -24.5t38 -51.5t14 -82.5q0 -41 -9.5 -79t-30 -73.5t-59.5 -57.5t-92 -22zM425 211q41 0 69 33t38 72t10 78q0 104 -80 104q-31 0 -55.5 -18.5t-37 -48t-18.5 -59t-6 -57.5q0 -104 80 -104z" />
    <glyph glyph-name="uni24FF" unicode="&#x24ff;" horiz-adv-x="837" 
d="M408 -18q-70 0 -131 20.5t-109 60.5t-75.5 105t-27.5 147q0 73 20 141.5t63 131.5t123 101.5t188 38.5q67 0 127 -19t111.5 -57t82 -104.5t30.5 -152.5q0 -59 -12.5 -115t-43 -111t-75.5 -96t-115 -66t-156 -25zM420 156q53 0 93 22t60.5 57.5t30 74t9.5 78.5
q0 49 -14.5 83.5t-39 51.5t-50 24.5t-54.5 7.5q-53 0 -93 -22t-60.5 -58t-30 -74t-9.5 -79q0 -49 14.5 -83.5t39 -51.5t50 -24t54.5 -7zM419 216q-76 0 -76 100q0 38 9.5 76t36.5 70.5t67 32.5q76 0 76 -101q0 -37 -9.5 -75t-36.5 -70.5t-67 -32.5z" />
    <glyph glyph-name="lozenge" unicode="&#x25ca;" horiz-adv-x="658" 
d="M319 -17h-76l-136 372l267 372h76l139 -372zM398 644l-203 -289l101 -289l206 289z" />
    <glyph glyph-name="circle" unicode="&#x25cb;" horiz-adv-x="850" 
d="M428 -18q-50 0 -99.5 10.5t-98 35.5t-85 62.5t-59 95.5t-22.5 130q0 57 12.5 112.5t42.5 110.5t74 96.5t113 67t153 25.5q50 0 99.5 -10.5t98 -35.5t85 -62.5t59 -95.5t22.5 -130q0 -57 -12.5 -112.5t-42.5 -110.5t-74 -96.5t-113 -67t-153 -25.5zM425 29
q91 0 160.5 34.5t108.5 90t58 116.5t19 123q0 73 -28 130.5t-73.5 90.5t-98.5 50t-109 17q-91 0 -160.5 -34.5t-108.5 -90t-58 -116.5t-19 -123q0 -73 28 -130.5t73.5 -90.5t98.5 -50t109 -17z" />
    <glyph glyph-name="uni2776" unicode="&#x2776;" horiz-adv-x="837" 
d="M408 -18q-70 0 -131 20.5t-109 60.5t-75.5 105t-27.5 147q0 73 20 141.5t63 131.5t123 101.5t188 38.5q67 0 127 -19t111.5 -57t82 -104.5t30.5 -152.5q0 -59 -12.5 -115t-43 -111t-75.5 -96t-115 -66t-156 -25zM384 164h79l68 382h-64q-28 -67 -100 -67h-19l-12 -71h23
q49 0 75 33z" />
    <glyph glyph-name="uni2777" unicode="&#x2777;" horiz-adv-x="837" 
d="M408 -18q-70 0 -131 20.5t-109 60.5t-75.5 105t-27.5 147q0 73 20 141.5t63 131.5t123 101.5t188 38.5q67 0 127 -19t111.5 -57t82 -104.5t30.5 -152.5q0 -59 -12.5 -115t-43 -111t-75.5 -96t-115 -66t-156 -25zM266 177h306l10 59h-192q225 106 225 221q0 60 -41.5 85.5
t-103.5 25.5q-83 0 -122.5 -41t-31.5 -107l79 -7q-9 43 8.5 68.5t60.5 25.5q66 0 66 -60q0 -21 -9 -40.5t-30.5 -39.5t-39.5 -34.5t-55.5 -35.5t-56.5 -31t-64 -33z" />
    <glyph glyph-name="uni2778" unicode="&#x2778;" horiz-adv-x="837" 
d="M408 -18q-70 0 -131 20.5t-109 60.5t-75.5 105t-27.5 147q0 73 20 141.5t63 131.5t123 101.5t188 38.5q67 0 127 -19t111.5 -57t82 -104.5t30.5 -152.5q0 -59 -12.5 -115t-43 -111t-75.5 -96t-115 -66t-156 -25zM436 156q77 0 114.5 33.5t37.5 81.5q0 37 -24.5 59
t-63.5 26q49 5 79.5 31.5t30.5 70.5q0 29 -14.5 49t-38 30t-46 14t-46.5 4q-74 0 -113.5 -32.5t-45.5 -89.5l78 -7q2 31 21.5 51t55.5 20q28 0 46.5 -13t18.5 -40q0 -62 -83 -62h-25l-9 -50h23q31 0 52 -13t21 -40t-18 -45.5t-56 -18.5q-31 0 -52.5 16.5t-20.5 55.5l-81 -6
q0 -67 46.5 -96t112.5 -29z" />
    <glyph glyph-name="uni2779" unicode="&#x2779;" horiz-adv-x="837" 
d="M408 -18q-70 0 -131 20.5t-109 60.5t-75.5 105t-27.5 147q0 73 20 141.5t63 131.5t123 101.5t188 38.5q67 0 127 -19t111.5 -57t82 -104.5t30.5 -152.5q0 -59 -12.5 -115t-43 -111t-75.5 -96t-115 -66t-156 -25zM419 168h79l16 88h61l9 57h-61l42 237h-80l-233 -239
l-9 -55h192zM322 313l163 173l-37 -173h-126z" />
    <glyph glyph-name="uni277A" unicode="&#x277a;" horiz-adv-x="837" 
d="M408 -18q-70 0 -131 20.5t-109 60.5t-75.5 105t-27.5 147q0 73 20 141.5t63 131.5t123 101.5t188 38.5q67 0 127 -19t111.5 -57t82 -104.5t30.5 -152.5q0 -59 -12.5 -115t-43 -111t-75.5 -96t-115 -66t-156 -25zM421 160q46 0 80.5 15t51.5 39.5t25 49.5t8 51
q0 58 -36 85.5t-85 27.5q-73 0 -101 -52l35 114h197l10 60h-252l-64 -222l69 -6q23 52 77 52q33 0 51.5 -18.5t18.5 -48.5q0 -33 -20 -60.5t-65 -27.5q-65 0 -74 58l-77 -13q8 -54 50 -79t101 -25z" />
    <glyph glyph-name="uni277B" unicode="&#x277b;" horiz-adv-x="837" 
d="M408 -18q-70 0 -131 20.5t-109 60.5t-75.5 105t-27.5 147q0 73 20 141.5t63 131.5t123 101.5t188 38.5q67 0 127 -19t111.5 -57t82 -104.5t30.5 -152.5q0 -59 -12.5 -115t-43 -111t-75.5 -96t-115 -66t-156 -25zM424 156q74 0 116.5 42t42.5 103q0 68 -38 95t-90 27
q-63 0 -110 -55q10 53 37 90.5t74 38.5q60 0 69 -55l74 8q-11 105 -137 105q-99 0 -146.5 -64.5t-47.5 -169.5q0 -88 45.5 -126.5t110.5 -38.5zM420 213q-76 0 -79 100q29 56 90 56q33 0 54.5 -18t21.5 -52q0 -38 -22 -62t-65 -24z" />
    <glyph glyph-name="uni277C" unicode="&#x277c;" horiz-adv-x="837" 
d="M408 -18q-70 0 -131 20.5t-109 60.5t-75.5 105t-27.5 147q0 73 20 141.5t63 131.5t123 101.5t188 38.5q67 0 127 -19t111.5 -57t82 -104.5t30.5 -152.5q0 -59 -12.5 -115t-43 -111t-75.5 -96t-115 -66t-156 -25zM330 164h85l2 17q22 190 195 303l11 62h-290l-11 -63h217
q-88 -55 -143.5 -137.5t-64.5 -171.5z" />
    <glyph glyph-name="uni277D" unicode="&#x277d;" horiz-adv-x="837" 
d="M408 -18q-70 0 -131 20.5t-109 60.5t-75.5 105t-27.5 147q0 73 20 141.5t63 131.5t123 101.5t188 38.5q67 0 127 -19t111.5 -57t82 -104.5t30.5 -152.5q0 -59 -12.5 -115t-43 -111t-75.5 -96t-115 -66t-156 -25zM429 156q81 0 123.5 33t42.5 87q0 67 -73 95q88 21 88 90
q0 49 -43.5 71.5t-105.5 22.5q-75 0 -113.5 -30.5t-38.5 -80.5q0 -63 62 -89q-105 -22 -105 -98q0 -51 47 -76t116 -25zM472 384l-25 5q-31 7 -47 19.5t-16 37.5q0 57 77 57q73 0 73 -53q0 -47 -62 -66zM431 212q-33 0 -57.5 12.5t-24.5 42.5q0 55 69 75l22 -6
q35 -8 54.5 -21.5t19.5 -39.5t-20 -44.5t-63 -18.5z" />
    <glyph glyph-name="uni277E" unicode="&#x277e;" horiz-adv-x="837" 
d="M408 -18q-70 0 -131 20.5t-109 60.5t-75.5 105t-27.5 147q0 73 20 141.5t63 131.5t123 101.5t188 38.5q67 0 127 -19t111.5 -57t82 -104.5t30.5 -152.5q0 -59 -12.5 -115t-43 -111t-75.5 -96t-115 -66t-156 -25zM422 156q48 0 84 17.5t55.5 42.5t31.5 59.5t15 60.5t3 53
q0 166 -158 166q-58 0 -95.5 -23t-50 -51t-12.5 -60q0 -33 13.5 -58.5t35 -38.5t44 -19.5t45.5 -6.5q63 0 102 50q-7 -56 -32.5 -95.5t-75.5 -39.5q-28 0 -51.5 12.5t-24.5 40.5l-74 -8q6 -56 48 -79t97 -23zM446 352q-32 0 -54 17.5t-22 51.5q0 32 20 55.5t65 23.5
q80 0 83 -98q-30 -50 -92 -50z" />
    <glyph glyph-name="uniE000" unicode="&#xe000;" horiz-adv-x="930" 
d="M281 710h630l-10 -56h-571l-95 -502h94l-153 -164l-93 164h93z" />
    <glyph glyph-name="i.loclTRK" horiz-adv-x="265" 
d="M142 593l19 107h97l-19 -107h-97zM46 0l88 500h85l-88 -500h-85z" />
    <glyph glyph-name="dollar.tf" 
d="M392 394q79 -24 122 -70t43 -133q0 -41 -12 -75.5t-39.5 -65t-78.5 -48t-122 -17.5h-4l-16 -92h-60l17 96q-90 12 -143 62.5t-60 139.5l98 14q9 -117 119 -139l45 259l-11 3q-158 45 -158 189q0 80 56 136.5t176 56.5h5l16 90h60l-17 -95q160 -28 176 -180l-92 -20
q-9 103 -97 124l-41 -230zM226 524q0 -46 24 -70t67 -38l39 219q-130 -2 -130 -111zM315 61q148 0 148 121q0 58 -28.5 85t-76.5 43z" />
    <glyph glyph-name="cent.tf" 
d="M317 56q97 4 123 112l83 -16q-18 -75 -72 -119.5t-144 -44.5h-1l-14 -77h-60l15 83q-71 14 -114.5 66.5t-43.5 149.5q0 51 13.5 100.5t41 95.5t78 75t116.5 31l14 82h60l-15 -86q67 -11 109 -52.5t42 -114.5l-80 -11q-5 94 -83 110zM175 209q0 -116 84 -145l66 377
q-43 -6 -74 -30.5t-46.5 -60t-22.5 -70.5t-7 -71z" />
    <glyph glyph-name="sterling.tf" 
d="M377 69q53 0 75 26.5t33 75.5l78 -16q-15 -71 -63.5 -120.5t-128.5 -49.5q-28 0 -80.5 13t-103.5 13q-81 0 -181 -19l-8 63q92 24 137.5 81.5t45.5 180.5v15h-109l11 63h97v35q0 280 225 280q86 0 136 -39t58 -112l-92 -22q-12 98 -107 98q-41 0 -67 -15.5t-38 -47
t-16 -65t-4 -84.5v-28h172l-11 -63h-161q0 -113 -31.5 -168t-107.5 -85q45 7 88 7q40 0 86.5 -8.5t66.5 -8.5z" />
    <glyph glyph-name="florin.tf" 
d="M531 710q36 0 69 -10l-15 -74q-26 9 -54 9q-46 0 -69.5 -25t-41.5 -84l-30 -98h126l-12 -66h-135l-158 -512h-86l159 512h-115l12 66h123l24 76q14 44 22.5 68.5t25.5 55t36 45.5t49 26t70 11z" />
    <glyph glyph-name="yen.tf" 
d="M651 695l-281 -361h186l-11 -60h-186l-12 -71h186l-11 -60h-186l-25 -143h-90l25 143h-186l11 60h186l12 71h-186l11 60h186l-155 361h99l92 -229q14 -35 18 -64h2q17 34 40 64l173 229h102z" />
    <glyph glyph-name="Euro.tf" 
d="M341 64q43 0 77.5 18.5t50 38t34.5 50.5l59 -47q-37 -59 -58 -81q-60 -58 -159 -58q-48 0 -89.5 13.5t-79 43.5t-61.5 85t-29 131h-87l11 60h75q2 42 7 75h-69l10 60h72q31 114 107.5 185.5t198.5 71.5q169 0 226 -128l-81 -51q-40 100 -148 100q-150 0 -207 -178h283
l-10 -60h-288q-7 -43 -8 -75h283l-11 -60h-271q15 -194 162 -194z" />
    <glyph glyph-name="perthousand.tf" 
d="M211 428q-47 0 -83 28.5t-36 90.5q0 58 32.5 110.5t97.5 52.5q47 0 83 -28.5t36 -90.5q0 -58 -32.5 -110.5t-97.5 -52.5zM227 655q-37 0 -54 -34.5t-17 -72.5q0 -65 50 -65q37 0 54 34.5t17 72.5q0 65 -50 65zM55 286l574 270l-13 -64l-575 -270zM460 270q47 0 83 -28.5
t36 -90.5q0 -58 -32.5 -110.5t-97.5 -52.5q-59 0 -92 42q-32 -42 -86 -42q-47 0 -83 28.5t-36 90.5q0 58 32.5 110.5t97.5 52.5q59 0 92 -42q32 42 86 42zM266 43q37 0 54 34.5t17 72.5q0 65 -50 65q-37 0 -54 -34.5t-17 -72.5q0 -65 50 -65zM444 43q37 0 54 34.5t17 72.5
q0 65 -50 65q-37 0 -54 -34.5t-17 -72.5q0 -65 50 -65z" />
    <glyph glyph-name="zero.zero" horiz-adv-x="652" 
d="M384 710q107 0 172.5 -67.5t65.5 -217.5q0 -55 -8.5 -110.5t-31.5 -116.5t-57.5 -107t-92.5 -76t-130 -30q-107 0 -172.5 67.5t-65.5 217.5q0 55 8.5 111t31.5 116.5t57.5 106.5t92.5 76t130 30zM381 635q-64 0 -110.5 -35.5t-70.5 -93.5t-34.5 -118.5t-10.5 -125.5
q0 -46 7 -75l336 389q-39 59 -117 59zM305 60q64 0 110.5 35.5t70.5 93.5t34.5 118.5t10.5 125.5q0 39 -6 70l-334 -388q39 -55 114 -55z" />
    <glyph glyph-name="zero.tf" 
d="M286 -15q-103 0 -165.5 67t-62.5 218q0 55 8.5 111t30.5 116.5t55.5 106.5t89.5 76t126 30q103 0 165.5 -67t62.5 -218q0 -55 -8.5 -110.5t-30.5 -116.5t-55.5 -107t-89.5 -76t-126 -30zM289 60q61 0 105.5 35.5t67 93.5t33 118.5t10.5 125.5q0 109 -39.5 155.5
t-100.5 46.5t-105.5 -35.5t-67 -93.5t-33 -118.5t-10.5 -125.5q0 -109 39.5 -155.5t100.5 -46.5z" />
    <glyph glyph-name="one.tf" 
d="M333 81h171l-14 -81h-441l14 81h185l83 471q-52 -52 -160 -52h-34l14 81h29q136 0 191 114h71z" />
    <glyph glyph-name="two.tf" 
d="M33 0l13 74q139 88 261 178q35 26 59 47t53 54t44 72.5t15 83.5q0 69 -35.5 96t-86.5 27q-71 0 -105.5 -42t-34.5 -108q0 -21 2 -39l-88 9q-3 18 -3 42q0 91 60 153.5t176 62.5q40 0 75 -9t67 -29t50.5 -58.5t18.5 -91.5q0 -95 -54 -168.5t-162 -155.5q-76 -58 -174 -117
h319l-14 -81h-456z" />
    <glyph glyph-name="three.tf" 
d="M304 -15q-34 0 -64.5 5.5t-63.5 20t-57 37.5t-41 61.5t-20 88.5l90 11q17 -149 158 -149q80 0 113 39t33 97q0 71 -40 99.5t-96 28.5h-39l13 74h55q75 0 107.5 38t32.5 91q0 108 -124 108q-145 0 -157 -159l-81 18q7 98 70 157t172 59q38 0 73 -8t68 -26t52.5 -52.5
t19.5 -81.5q0 -67 -40 -117t-119 -64q125 -31 125 -163q0 -88 -60.5 -150.5t-179.5 -62.5z" />
    <glyph glyph-name="four.tf" 
d="M319 0l31 176h-316l11 61l385 458h97l-80 -449h114l-12 -70h-114l-31 -176h-85zM135 246h227l46 257q12 63 20 101h-1q-24 -43 -69 -96l-164 -197q-41 -49 -59 -65z" />
    <glyph glyph-name="five.tf" 
d="M288 -15q-88 0 -152 44t-73 141l93 11q19 -119 135 -119q47 0 81.5 17t52 46t25.5 60.5t8 67.5q0 146 -126 146q-65 0 -101.5 -34t-51.5 -82l-83 9l112 403h379l-14 -78h-316l-68 -238q20 40 62.5 67.5t106.5 27.5q27 0 52 -5t51 -19.5t45.5 -37t31.5 -60t12 -85.5
q0 -118 -67.5 -200t-194.5 -82z" />
    <glyph glyph-name="six.tf" 
d="M353 464q82 0 140.5 -56.5t58.5 -162.5q0 -67 -23.5 -124t-79.5 -96.5t-136 -39.5q-49 0 -88.5 15t-73.5 47.5t-53 93t-19 144.5q0 57 8.5 113t30 113.5t54 100.5t86 70.5t120.5 27.5q81 0 140 -42t70 -130l-87 -20q-21 117 -124 117q-182 0 -205 -283q25 56 74.5 84
t106.5 28zM317 60q41 0 71 17.5t45 46t21.5 57.5t6.5 60q0 81 -39 114.5t-91 33.5q-54 0 -97 -31t-66 -91l-1 -19q-3 -98 40.5 -143t109.5 -45z" />
    <glyph glyph-name="seven.tf" 
d="M157 0l3 22q21 157 108.5 312.5t236.5 277.5h-358l15 83h460l-13 -70q-155 -124 -243 -279t-106 -311l-4 -35h-99z" />
    <glyph glyph-name="eight.tf" 
d="M430 370q110 -54 110 -177q0 -88 -62 -148t-180 -60q-102 0 -172 47.5t-70 144.5q0 74 44.5 126t128.5 67q-86 52 -86 151q0 77 53.5 133t162.5 56q93 0 155 -43.5t62 -128.5q0 -61 -35.5 -106t-110.5 -62zM357 642q-38 0 -64 -12t-37.5 -31.5t-16 -36.5t-4.5 -35
q0 -84 89 -118l39 -13q122 32 122 129q0 62 -36.5 89.5t-91.5 27.5zM303 57q75 0 110 37t35 93q0 97 -89 132l-58 20q-151 -30 -151 -150q0 -72 44.5 -102t108.5 -30z" />
    <glyph glyph-name="nine.tf" 
d="M340 710q232 0 232 -312q0 -33 -2 -65.5t-9.5 -75t-19.5 -79t-34 -73t-51 -62.5t-72 -42t-96 -16q-90 0 -154.5 44.5t-70.5 137.5l87 20q17 -127 142 -127q177 0 190 291q-51 -90 -165 -90q-91 0 -151.5 56t-60.5 154q0 44 12.5 84.5t39 76t73.5 57t110 21.5zM337 336
q46 0 86.5 27t61.5 87q2 100 -39 142.5t-107 42.5q-34 0 -60 -10.5t-41.5 -26.5t-25 -38t-13 -42t-3.5 -41q0 -73 39.5 -107t101.5 -34z" />
    <glyph glyph-name="gcommaaccent.ss01" horiz-adv-x="586" 
d="M405 771l13 -38q-31 -10 -42 -23t-16 -40h51l-16 -90h-96l14 80q7 43 27.5 69.5t64.5 41.5zM211 -207q-90 0 -138.5 38.5t-55.5 122.5h87q8 -52 37 -70.5t74 -18.5q44 0 73.5 12.5t45 37.5t22 45.5t12.5 53.5l14 79q-25 -52 -67.5 -78.5t-93.5 -26.5q-70 0 -123.5 56
t-53.5 165q0 53 14 104.5t42 97t76 73.5t110 28q52 0 95 -22t62 -72l34 82h62l-87 -498q-18 -99 -72.5 -154t-168.5 -55zM252 63q121 0 155 154l6 27q21 97 -16.5 145t-102.5 48q-45 0 -78 -22t-49.5 -57.5t-24 -70.5t-7.5 -71q0 -82 35 -117.5t82 -35.5z" />
    <glyph glyph-name="gdotaccent.ss01" horiz-adv-x="586" 
d="M304 593l19 107h97l-19 -107h-97zM211 -207q-90 0 -138.5 38.5t-55.5 122.5h87q8 -52 37 -70.5t74 -18.5q44 0 73.5 12.5t45 37.5t22 45.5t12.5 53.5l14 79q-25 -52 -67.5 -78.5t-93.5 -26.5q-70 0 -123.5 56t-53.5 165q0 53 14 104.5t42 97t76 73.5t110 28q52 0 95 -22
t62 -72l34 82h62l-87 -498q-18 -99 -72.5 -154t-168.5 -55zM252 63q121 0 155 154l6 27q21 97 -16.5 145t-102.5 48q-45 0 -78 -22t-49.5 -57.5t-24 -70.5t-7.5 -71q0 -82 35 -117.5t82 -35.5z" />
    <glyph glyph-name="Iacute_J.loclNLD" horiz-adv-x="691" 
d="M200 753l79 108h88l-93 -108h-74zM610 753l79 108h88l-93 -108h-74zM151 0h-95l125 710h95zM591 174q-34 -191 -219 -191q-56 0 -102 14l17 87q46 -11 80 -11q112 0 134 120l91 517h95z" />
    <glyph glyph-name="iacute_j.loclNLD" horiz-adv-x="529" 
d="M154 580l87 143h94l-103 -143h-78zM418 580l87 143h94l-103 -143h-78zM46 0l88 500h85l-88 -500h-85zM241 -202q-38 0 -69 11l13 74q28 -8 47 -8q30 0 45 15.5t21 50.5l99 559h86l-101 -568q-13 -69 -44 -101.5t-97 -32.5z" />
    <glyph glyph-name="g.ss01" horiz-adv-x="586" 
d="M211 -207q-90 0 -138.5 38.5t-55.5 122.5h87q8 -52 37 -70.5t74 -18.5q44 0 73.5 12.5t45 37.5t22 45.5t12.5 53.5l14 79q-25 -52 -67.5 -78.5t-93.5 -26.5q-70 0 -123.5 56t-53.5 165q0 53 14 104.5t42 97t76 73.5t110 28q52 0 95 -22t62 -72l34 82h62l-87 -498
q-18 -99 -72.5 -154t-168.5 -55zM252 63q121 0 155 154l6 27q21 97 -16.5 145t-102.5 48q-45 0 -78 -22t-49.5 -57.5t-24 -70.5t-7.5 -71q0 -82 35 -117.5t82 -35.5z" />
    <glyph glyph-name="gbreve.ss01" horiz-adv-x="586" 
d="M300 723q-6 -42 12.5 -64.5t57.5 -22.5q33 0 58 20t28 67h72q-15 -148 -164 -148q-69 0 -108 37t-28 111h72zM211 -207q-90 0 -138.5 38.5t-55.5 122.5h87q8 -52 37 -70.5t74 -18.5q44 0 73.5 12.5t45 37.5t22 45.5t12.5 53.5l14 79q-25 -52 -67.5 -78.5t-93.5 -26.5
q-70 0 -123.5 56t-53.5 165q0 53 14 104.5t42 97t76 73.5t110 28q52 0 95 -22t62 -72l34 82h62l-87 -498q-18 -99 -72.5 -154t-168.5 -55zM252 63q121 0 155 154l6 27q21 97 -16.5 145t-102.5 48q-45 0 -78 -22t-49.5 -57.5t-24 -70.5t-7.5 -71q0 -82 35 -117.5t82 -35.5z
" />
    <glyph glyph-name="gcircumflex.ss01" horiz-adv-x="586" 
d="M505 580h-76l-55 100l-91 -100h-82l133 143h88zM211 -207q-90 0 -138.5 38.5t-55.5 122.5h87q8 -52 37 -70.5t74 -18.5q44 0 73.5 12.5t45 37.5t22 45.5t12.5 53.5l14 79q-25 -52 -67.5 -78.5t-93.5 -26.5q-70 0 -123.5 56t-53.5 165q0 53 14 104.5t42 97t76 73.5t110 28
q52 0 95 -22t62 -72l34 82h62l-87 -498q-18 -99 -72.5 -154t-168.5 -55zM252 63q121 0 155 154l6 27q21 97 -16.5 145t-102.5 48q-45 0 -78 -22t-49.5 -57.5t-24 -70.5t-7.5 -71q0 -82 35 -117.5t82 -35.5z" />
    <glyph glyph-name="g.sups.ss01" horiz-adv-x="467" 
d="M222 159q-146 0 -158 115h75q11 -64 86 -64q54 0 77.5 25.5t33.5 75.5l12 49q-42 -53 -124 -53q-56 0 -97.5 38t-41.5 119q0 37 10 73.5t30.5 70.5t57.5 55t85 21q45 0 77.5 -21.5t44.5 -61.5l21 74h65l-64 -360q-13 -77 -55.5 -116.5t-134.5 -39.5zM252 359q48 0 77 32
t36 79l4 25q11 64 -12.5 98.5t-71.5 34.5q-61 0 -90.5 -50t-29.5 -112q0 -58 26 -82.5t61 -24.5z" />
    <glyph glyph-name="a.sups" horiz-adv-x="440" 
d="M204 301q-54 0 -87.5 26.5t-33.5 75.5q0 61 43 87t125 32l108 8l2 14q7 46 -10 66.5t-60 20.5q-82 0 -94 -72h-75q8 59 50 92t119 33q169 0 142 -160l-16 -97q-12 -68 -10 -117h-75q0 40 6 70q-37 -79 -134 -79zM231 353q45 0 78 29t40 78l4 29l-84 -6q-106 -7 -106 -72
q0 -30 19 -44t49 -14z" />
    <glyph glyph-name="b.sups" horiz-adv-x="473" 
d="M293 301q-97 0 -124 68l-18 -59h-65l93 529h77l-40 -220q45 65 122 65q55 0 96 -36t41 -117q0 -38 -10 -76t-30.5 -73.5t-57.5 -58t-84 -22.5zM276 358q43 0 71.5 30.5t38 66.5t9.5 73q0 99 -85 99q-44 0 -75 -30.5t-38 -74.5l-5 -30q-10 -58 10.5 -96t73.5 -38z" />
    <glyph glyph-name="c.sups" horiz-adv-x="421" 
d="M253 301q-69 0 -118.5 38.5t-49.5 125.5q0 38 10.5 74.5t33 70t63 54t94.5 20.5q68 0 112 -33t45 -98l-72 -12q-3 84 -85 84q-64 0 -93 -49t-29 -110q0 -56 26.5 -81t65.5 -25q76 0 97 86l70 -14q-15 -62 -58 -96.5t-112 -34.5z" />
    <glyph glyph-name="d.sups" horiz-adv-x="474" 
d="M220 301q-55 0 -95.5 37t-40.5 117q0 39 10 77.5t30.5 73.5t57.5 56.5t84 21.5q44 0 76.5 -17.5t44.5 -51.5l39 224h77l-94 -529h-72l11 61q-41 -70 -128 -70zM250 358q48 0 76 32.5t37 79.5l5 24q13 64 -13 98.5t-73 34.5q-60 0 -89 -52t-29 -114q0 -57 25 -80t61 -23z
" />
    <glyph glyph-name="e.sups" horiz-adv-x="427" 
d="M440 538q0 -32 -10 -62h-271q1 -61 26 -89t75 -28q69 0 100 72l56 -26q-42 -104 -161 -104q-70 0 -120 38t-50 126q0 39 11 76.5t33.5 70t62.5 52.5t91 20q71 0 114 -37t43 -109zM366 524q3 10 3 26q0 40 -23.5 60.5t-63.5 20.5q-50 0 -80 -30t-39 -77h203z" />
    <glyph glyph-name="f.sups" horiz-adv-x="296" 
d="M353 675l-10 -54h-98l-54 -311h-73l55 311h-66l9 54h67l9 55q18 114 125 114q37 0 64 -11l-10 -56q-21 7 -42 7q-55 0 -65 -58l-9 -51h98z" />
    <glyph glyph-name="g.sups" horiz-adv-x="428" 
d="M467 736q15 0 33 -4l-10 -60q-13 6 -37 6q-40 0 -54 -30q30 -30 30 -75q0 -54 -39.5 -94t-121.5 -40q-46 0 -84 15q-35 -10 -35 -36q0 -17 14 -24t48 -8l76 -2q62 -2 97 -21.5t35 -73.5q0 -24 -8.5 -44.5t-29.5 -41t-65 -32.5t-107 -12q-170 0 -170 90q0 58 84 80
q-43 18 -43 59q0 57 79 81q-39 28 -39 81q0 54 39.5 94t122.5 40q51 0 88 -17q23 69 97 69zM272 487q40 0 60 24t20 58q0 67 -73 67q-41 0 -61 -24t-20 -58q0 -67 74 -67zM276 315l-76 1q-25 0 -48 5q-44 -18 -44 -54q0 -56 111 -56q124 0 124 61q0 25 -17 33.5t-50 9.5z
" />
    <glyph glyph-name="h.sups" horiz-adv-x="457" 
d="M86 310l94 529h76l-39 -227q39 72 128 72q49 0 80.5 -26.5t31.5 -85.5q0 -20 -5 -50l-37 -212h-76l38 214q3 27 3 31q0 69 -71 69q-92 0 -112 -119l-34 -195h-77z" />
    <glyph glyph-name="i.sups" horiz-adv-x="229" 
d="M171 733l16 95h81l-17 -95h-80zM98 310l66 365h75l-66 -365h-75z" />
    <glyph glyph-name="j.sups" horiz-adv-x="235" 
d="M173 733l17 95h80l-16 -95h-81zM46 163q-33 0 -57 8l10 58q20 -7 38 -7q25 0 38 13.5t18 42.5l71 397h76l-72 -404q-9 -53 -36.5 -80.5t-85.5 -27.5z" />
    <glyph glyph-name="k.sups" horiz-adv-x="431" 
d="M481 675l-168 -148l111 -217h-81l-84 177l-77 -65l-20 -112h-76l93 529h77l-59 -330l194 166h90z" />
    <glyph glyph-name="l.sups" horiz-adv-x="226" 
d="M255 839l-94 -529h-75l93 529h76z" />
    <glyph glyph-name="m.sups" horiz-adv-x="652" 
d="M77 310l65 365h72l-11 -63q36 73 116 73q38 0 68 -17t36 -56q38 73 120 73q44 0 76.5 -25.5t32.5 -85.5q0 -12 -4 -44l-39 -220h-76l38 211q3 18 3 34q0 69 -64 69q-76 0 -94 -113l-35 -201h-75l38 213q2 13 2 34q0 67 -61 67q-77 0 -97 -117l-34 -197h-77z" />
    <glyph glyph-name="n.sups" horiz-adv-x="447" 
d="M77 310l64 365h72l-12 -67q42 76 129 76q49 0 82 -26t33 -91q0 -25 -4 -49l-36 -208h-76l36 205q4 26 4 35q0 73 -73 73q-90 0 -110 -122l-33 -191h-76z" />
    <glyph glyph-name="o.sups" horiz-adv-x="454" 
d="M253 301q-70 0 -119 37.5t-49 124.5q0 55 18.5 102.5t66 83t118.5 35.5q69 0 118 -37.5t49 -124.5q0 -40 -11 -77t-33.5 -70.5t-63 -53.5t-94.5 -20zM256 358q63 0 92 51.5t29 113.5q0 56 -26.5 80t-65.5 24q-44 0 -73.5 -28.5t-39.5 -63.5t-10 -73q0 -56 27 -80t67 -24z
" />
    <glyph glyph-name="p.sups" horiz-adv-x="465" 
d="M52 168l90 507h72l-11 -65q38 74 128 74q53 0 94.5 -36t41.5 -117q0 -52 -17 -102t-60 -89t-105 -39q-98 0 -122 65l-35 -198h-76zM265 358q34 0 59 17.5t38 45t19 54.5t6 53q0 55 -25 77t-60 22q-48 0 -78 -35t-38 -80l-5 -28q-9 -54 13 -90t71 -36z" />
    <glyph glyph-name="q.sups" horiz-adv-x="465" 
d="M308 168l37 200q-33 -67 -124 -67q-56 0 -96.5 37t-40.5 118q0 54 16.5 103t60 87t107.5 38q43 0 75.5 -17.5t44.5 -50.5l22 59h64l-90 -507h-76zM250 358q48 0 76 32.5t37 79.5l5 24q13 64 -13 98.5t-73 34.5q-60 0 -89 -52t-29 -114q0 -57 25.5 -80t60.5 -23z" />
    <glyph glyph-name="r.sups" horiz-adv-x="288" 
d="M196 583q36 101 126 101q16 0 25 -3l-13 -73q-9 4 -28 4q-38 0 -65 -21q-43 -33 -57 -111l-31 -170h-76l65 365h71z" />
    <glyph glyph-name="s.sups" horiz-adv-x="392" 
d="M239 301q-138 0 -166 105l61 32q22 -76 111 -76q74 0 74 52q0 19 -13 29t-47 17l-33 6q-109 21 -109 102q0 50 38 83t114 33q122 0 155 -92l-59 -35q-21 68 -101 68q-71 0 -71 -48q0 -18 12.5 -28.5t46.5 -18.5l37 -9q57 -13 81 -36.5t24 -63.5q0 -51 -37 -85.5
t-118 -34.5z" />
    <glyph glyph-name="t.sups" horiz-adv-x="293" 
d="M86 622l8 53h68l16 93l80 30l-21 -123h95l-9 -53h-96l-33 -188q-12 -67 52 -67q17 0 32 4l-10 -61q-25 -7 -52 -7q-52 0 -80.5 30.5t-15.5 103.5l33 185h-67z" />
    <glyph glyph-name="u.sups" horiz-adv-x="443" 
d="M201 301q-47 0 -80.5 25.5t-33.5 88.5q0 20 5 52l36 208h76l-36 -205q-4 -28 -4 -37q0 -71 72 -71q84 0 106 122l33 191h77l-64 -365h-73l13 68q-36 -77 -127 -77z" />
    <glyph glyph-name="v.sups" horiz-adv-x="419" 
d="M179 310l-73 365h77l41 -246q3 -21 5 -51h2q11 29 23 51l128 246h81l-201 -365h-83z" />
    <glyph glyph-name="w.sups" horiz-adv-x="607" 
d="M158 310l-42 365h70l21 -254q1 -12 1 -40h1q5 19 16 40l115 254h72l26 -254q2 -22 2 -40h1q7 23 15 40l111 254h74l-170 -365h-75l-28 252q-1 10 -1 36l-1 1q-7 -19 -14 -36l-117 -253h-77z" />
    <glyph glyph-name="x.sups" horiz-adv-x="437" 
d="M47 310l173 191l-99 174h82l48 -91q14 -25 18 -41h1l32 41l77 91h86l-158 -176l105 -189h-82l-56 104q-10 18 -16 39h-1q-16 -23 -32 -40l-89 -103h-89z" />
    <glyph glyph-name="y.sups" horiz-adv-x="421" 
d="M93 163q-27 0 -55 8l10 59q19 -8 46 -8q25 0 44 13t37 49l13 26l-82 365h79l45 -246q6 -36 6 -50h2q8 20 23 50l124 246h80l-214 -398q-39 -71 -73 -92.5t-85 -21.5z" />
    <glyph glyph-name="z.sups" horiz-adv-x="372" 
d="M66 359l253 260h-197l9 56h285l-8 -47l-250 -261h214l-11 -57h-303z" />
    <glyph glyph-name="g_g.liga.ss01" horiz-adv-x="1172" 
d="M211 -207q-90 0 -138.5 38.5t-55.5 122.5h87q8 -52 37 -70.5t74 -18.5q44 0 73.5 12.5t45 37.5t22 45.5t12.5 53.5l14 79q-25 -52 -67.5 -78.5t-93.5 -26.5q-70 0 -123.5 56t-53.5 165q0 53 14 104.5t42 97t76 73.5t110 28q52 0 95 -22t62 -72l34 82h62l-87 -498
q-18 -99 -72.5 -154t-168.5 -55zM797 -207q-90 0 -138.5 38.5t-55.5 122.5h87q8 -52 37 -70.5t74 -18.5q44 0 73.5 12.5t45 37.5t22 45.5t12.5 53.5l14 79q-25 -52 -67.5 -78.5t-93.5 -26.5q-70 0 -123.5 56t-53.5 165q0 53 14 104.5t42 97t76 73.5t110 28q52 0 95 -22
t62 -72l34 82h62l-87 -498q-18 -99 -72.5 -154t-168.5 -55zM252 63q121 0 155 154l6 27q21 97 -16.5 145t-102.5 48q-45 0 -78 -22t-49.5 -57.5t-24 -70.5t-7.5 -71q0 -82 35 -117.5t82 -35.5zM838 63q121 0 155 154l6 27q21 97 -16.5 145t-102.5 48q-45 0 -78 -22
t-49.5 -57.5t-24 -70.5t-7.5 -71q0 -82 35 -117.5t82 -35.5z" />
    <glyph glyph-name="zero.case" horiz-adv-x="652" 
d="M302 -15q-107 0 -172 68.5t-65 222.5q0 56 9 113.5t32 119.5t58 109.5t93 78t130 30.5q107 0 172 -69t65 -223q0 -56 -9 -113t-32 -119t-58 -109.5t-93 -78t-130 -30.5zM305 60q64 0 110.5 36.5t71 96t35.5 122t11 128.5q0 113 -42 161t-107 48q-64 0 -110.5 -36.5
t-71 -96.5t-35.5 -122.5t-11 -128.5q0 -113 42 -160.5t107 -47.5z" />
    <glyph glyph-name="one.case" horiz-adv-x="395" 
d="M141 0l98 559q-36 -46 -121 -46h-36l14 81h22q63 0 104 31.5t58 84.5h76l-125 -710h-90z" />
    <glyph glyph-name="two.case" horiz-adv-x="541" 
d="M-9 0l13 74q159 106 262 184q36 27 59 48.5t53 55.5t45 74t15 85q0 71 -35 99.5t-86 28.5q-72 0 -106.5 -44t-34.5 -112q0 -21 2 -39l-88 9q-3 17 -3 42q0 93 60.5 157.5t176.5 64.5q40 0 75 -9t66.5 -30t50 -60.5t18.5 -93.5q0 -96 -54 -170.5t-163 -159.5
q-88 -69 -175 -123h319l-14 -81h-456z" />
    <glyph glyph-name="three.case" horiz-adv-x="575" 
d="M272 -15q-34 0 -64.5 5.5t-63.5 20.5t-57 38.5t-40.5 63t-19.5 90.5l90 11q16 -154 157 -154q80 0 113.5 40t33.5 100q0 73 -40 102.5t-96 29.5h-39l14 75h55q75 0 107.5 38.5t32.5 94.5q0 112 -123 112q-146 0 -158 -164l-81 18q7 100 70.5 160.5t172.5 60.5
q38 0 73 -8.5t67.5 -26.5t52 -53.5t19.5 -83.5q0 -69 -40.5 -120.5t-119.5 -65.5q125 -31 125 -167q0 -90 -61 -153.5t-180 -63.5z" />
    <glyph glyph-name="four.case" horiz-adv-x="550" 
d="M523 180h-114l-32 -180h-85l32 180h-326l11 62l402 468h92l-82 -459h114zM390 525q4 21 8 42.5t6.5 35t6.5 29.5h-2q-21 -37 -66 -92l-160 -197q-47 -58 -82 -92h235z" />
    <glyph glyph-name="five.case" horiz-adv-x="571" 
d="M261 -15q-56 0 -102 16.5t-81 60.5t-41 112l93 11q18 -123 134 -123q47 0 81.5 17.5t52.5 47t26 62.5t8 70q0 150 -125 150q-65 0 -102 -35t-52 -85l-83 9l114 412h384l-15 -78h-321l-69 -246q20 42 63 70t107 28q35 0 65.5 -9.5t60.5 -31.5t47.5 -65.5t17.5 -104.5
q0 -121 -68 -204.5t-195 -83.5z" />
    <glyph glyph-name="six.case" horiz-adv-x="585" 
d="M338 475q84 0 143 -58t59 -166q0 -68 -24 -126.5t-81 -99t-139 -40.5q-103 0 -168 70.5t-65 235.5q0 59 8.5 116.5t30.5 116.5t55 103t86.5 72t120.5 28q86 0 147 -43t72 -134l-87 -20q-23 122 -133 122q-94 0 -145.5 -77t-61.5 -216q25 58 75 87t107 29zM300 60
q42 0 73 18t46.5 47.5t22.5 59.5t7 62q0 44 -12.5 75.5t-33 47.5t-42 22.5t-45.5 6.5q-53 0 -96 -31t-67 -92q3 -216 147 -216z" />
    <glyph glyph-name="seven.case" horiz-adv-x="491" 
d="M86 0l3 23q21 159 110.5 318.5t239.5 285.5h-348l16 83h450l-14 -70q-156 -128 -246 -286.5t-108 -317.5l-4 -36h-99z" />
    <glyph glyph-name="eight.case" horiz-adv-x="590" 
d="M416 378q121 -56 121 -181q0 -90 -65.5 -151t-189.5 -61q-106 0 -178.5 48t-72.5 148q0 76 47 129t134 68q-93 54 -93 155q0 79 56.5 136.5t170.5 57.5q96 0 161 -44.5t65 -131.5q0 -62 -38.5 -108.5t-117.5 -64.5zM344 659q-41 0 -69.5 -12.5t-41 -33t-17.5 -38.5
t-5 -36q0 -87 98 -121l40 -14q132 33 132 134q0 64 -39 92.5t-98 28.5zM287 57q81 0 119.5 38t38.5 96q0 101 -101 136l-57 20q-162 -28 -162 -154q0 -74 47 -105t115 -31z" />
    <glyph glyph-name="nine.case" horiz-adv-x="593" 
d="M327 727q236 0 236 -319q0 -34 -2.5 -67t-10 -76.5t-20 -81t-35 -75t-52 -64t-74 -43t-97.5 -16.5q-92 0 -157.5 45t-71.5 141l87 20q17 -131 146 -131q54 0 93 28t60.5 76.5t31.5 98t13 106.5q-26 -47 -65 -74.5t-107 -27.5q-93 0 -154.5 57t-61.5 158q0 45 13 86.5
t40 78t75.5 58.5t112.5 22zM322 342q53 0 91.5 33.5t61.5 88.5q-11 188 -149 188q-43 0 -74 -16t-46.5 -42t-22 -52t-6.5 -54q0 -76 40.5 -111t104.5 -35z" />
    <glyph glyph-name="one.ss02.case" horiz-adv-x="497" 
d="M281 81h171l-14 -81h-441l14 81h185l86 486q-52 -52 -160 -52h-34l14 81h29q136 0 191 114h71z" />
    <glyph glyph-name="zero.tf.case" 
d="M286 -15q-103 0 -165 68.5t-62 222.5q0 56 8.5 113.5t31 119.5t56.5 109.5t90 78t126 30.5q103 0 165 -69t62 -223q0 -56 -8.5 -113t-31 -119t-56.5 -109.5t-90 -78t-126 -30.5zM289 60q61 0 105.5 36.5t68 96t34 122t10.5 128.5q0 113 -39 161t-100 48t-105.5 -36.5
t-68 -96.5t-34 -122.5t-10.5 -128.5q0 -113 39 -160.5t100 -47.5z" />
    <glyph glyph-name="one.tf.case" 
d="M333 81h171l-14 -81h-441l14 81h185l85 485q-52 -54 -160 -54h-34l14 81h29q134 0 192 117h71z" />
    <glyph glyph-name="two.tf.case" 
d="M33 0l13 74q159 106 262 184q36 27 59 48.5t53 55.5t45 74t15 85q0 71 -35 99.5t-86 28.5q-72 0 -106.5 -44t-34.5 -112q0 -21 2 -39l-88 9q-3 17 -3 42q0 93 60.5 157.5t176.5 64.5q40 0 75 -9t66.5 -30t50 -60.5t18.5 -93.5q0 -96 -54 -170.5t-163 -159.5
q-88 -69 -175 -123h319l-14 -81h-456z" />
    <glyph glyph-name="three.tf.case" 
d="M304 -15q-34 0 -64.5 5.5t-63.5 20.5t-57 38.5t-40.5 63t-19.5 90.5l90 11q16 -154 157 -154q80 0 113.5 40t33.5 100q0 73 -40 102.5t-96 29.5h-39l14 75h55q75 0 107.5 38.5t32.5 94.5q0 112 -123 112q-146 0 -158 -164l-81 18q7 100 70.5 160.5t172.5 60.5
q38 0 73 -8.5t67.5 -26.5t52 -53.5t19.5 -83.5q0 -69 -40.5 -120.5t-119.5 -65.5q125 -31 125 -167q0 -90 -61 -153.5t-180 -63.5z" />
    <glyph glyph-name="four.tf.case" 
d="M319 0l32 180h-316l11 62l387 468h97l-82 -459h114l-12 -71h-114l-32 -180h-85zM136 251h227l47 265q11 60 20 103h-1q-24 -43 -69 -98l-165 -203q-43 -52 -59 -67z" />
    <glyph glyph-name="five.tf.case" 
d="M288 -15q-56 0 -102 16.5t-81 60.5t-41 112l93 11q18 -123 134 -123q47 0 81.5 17.5t52.5 47t26 62.5t8 70q0 150 -125 150q-65 0 -102 -35t-52 -85l-83 9l114 412h379l-15 -78h-316l-69 -246q20 42 63 70t107 28q35 0 65.5 -9.5t60.5 -31.5t47.5 -65.5t17.5 -104.5
q0 -121 -68 -204.5t-195 -83.5z" />
    <glyph glyph-name="six.tf.case" 
d="M353 475q84 0 143 -58t59 -166q0 -68 -24 -126.5t-81 -99t-139 -40.5q-103 0 -168 70.5t-65 235.5q0 59 8.5 116.5t30.5 116.5t55 103t86.5 72t120.5 28q82 0 140 -43t69 -134l-87 -20q-21 122 -123 122q-94 0 -145.5 -77t-61.5 -216q25 58 75 87t107 29zM315 60
q42 0 73 18t46.5 47.5t22.5 59.5t7 62q0 44 -12.5 75.5t-33 47.5t-42 22.5t-45.5 6.5q-53 0 -96 -31t-67 -92q3 -216 147 -216z" />
    <glyph glyph-name="seven.tf.case" 
d="M157 0l3 23q21 160 109 319.5t238 284.5h-358l16 83h460l-14 -70q-155 -127 -244 -286t-107 -318l-4 -36h-99z" />
    <glyph glyph-name="eight.tf.case" 
d="M431 379q110 -53 110 -182q0 -90 -62.5 -151t-180.5 -61q-102 0 -171.5 48t-69.5 148q0 76 45 129t129 68q-86 54 -86 155q0 79 54 136.5t163 57.5q92 0 154 -44.5t62 -131.5q0 -62 -36 -108t-111 -64zM360 659q-38 0 -64 -12.5t-38 -33t-16.5 -38.5t-4.5 -36
q0 -50 27 -79.5t61 -41.5l38 -14q124 33 124 134q0 64 -36 92.5t-91 28.5zM303 57q75 0 110.5 38t35.5 96q0 102 -88 135l-58 21q-152 -30 -152 -154q0 -74 44.5 -105t107.5 -31z" />
    <glyph glyph-name="nine.tf.case" 
d="M343 727q232 0 232 -319q0 -34 -2.5 -67t-10 -76.5t-20 -81t-35 -75t-52 -64t-74 -43t-97.5 -16.5q-87 0 -150 45t-69 141l87 20q16 -131 136 -131q54 0 93 28t60 76.5t31.5 97.5t13.5 106q-26 -47 -64 -74t-104 -27q-91 0 -150.5 57t-59.5 158q0 45 12.5 86.5t39 78
t73.5 58.5t110 22zM338 342q51 0 89 33t60 88q-10 189 -145 189q-41 0 -71 -16t-44.5 -42t-21 -52t-6.5 -54q0 -76 39 -111t100 -35z" />
    <glyph glyph-name="zero.zero.case" horiz-adv-x="652" 
d="M387 727q107 0 172 -69t65 -223q0 -56 -9 -113t-32 -119t-58 -109.5t-93 -78t-130 -30.5q-107 0 -172 68.5t-65 222.5q0 56 9 113.5t32 119.5t58 109.5t93 78t130 30.5zM384 652q-64 0 -110.5 -36.5t-71 -96.5t-35.5 -122.5t-11 -128.5q0 -47 7 -79l341 395
q-37 68 -120 68zM305 60q64 0 110.5 36.5t71 96t35.5 122t11 128.5q0 32 -5 65l-337 -391q38 -57 114 -57z" />
    <glyph glyph-name="zero.tf.zero.case" 
d="M372 727q103 0 165 -69t62 -223q0 -56 -8.5 -113t-31 -119t-56.5 -109.5t-90 -78t-126 -30.5q-103 0 -165 68.5t-62 222.5q0 56 8.5 113.5t31 119.5t56.5 109.5t90 78t126 30.5zM369 652q-61 0 -105.5 -36.5t-68 -96.5t-34 -122.5t-10.5 -128.5q0 -36 5 -71l336 361
q-32 94 -123 94zM290 60q61 0 105.5 36.5t68 96t34 122t10.5 128.5q0 19 -2 47l-331 -356q34 -74 115 -74z" />
    <glyph glyph-name="zero.osf" horiz-adv-x="616" 
d="M284 -15q-47 0 -87 11.5t-75 37.5t-55 74t-20 114q0 45 9 89t31 88t54 77t83 53.5t114 20.5q47 0 87 -11.5t75 -37.5t55 -74t20 -114q0 -45 -9 -89t-31 -88t-54 -77t-83 -53.5t-114 -20.5zM289 59q46 0 81.5 17t57 43t35.5 60t19 65.5t5 62.5q0 92 -43.5 130.5
t-110.5 38.5q-46 0 -81.5 -17t-57 -43t-35.5 -60t-19 -65.5t-5 -62.5q0 -92 43.5 -130.5t110.5 -38.5z" />
    <glyph glyph-name="one.osf" horiz-adv-x="547" 
d="M302 77h174l-14 -77h-441l14 77h182l58 323q-23 -23 -70 -39.5t-97 -16.5h-25l14 81h16q66 0 120 33t79 77h71z" />
    <glyph glyph-name="two.osf" horiz-adv-x="566" 
d="M0 52q135 66 240 131q92 58 132 102t40 97q0 93 -110 93q-72 0 -101.5 -34.5t-29.5 -82.5q0 -21 3 -42l-89 11q-3 18 -3 35q0 75 55 131.5t167 56.5q88 0 144 -40t56 -122q0 -57 -28.5 -100.5t-88.5 -86.5q-56 -43 -207 -124h300l-14 -77h-475z" />
    <glyph glyph-name="three.osf" horiz-adv-x="577" 
d="M247 -165q-44 0 -84 9.5t-79 31.5t-62.5 66t-22.5 106l90 11q1 -38 12.5 -66.5t28 -43.5t39.5 -24.5t41 -12t39 -2.5q79 0 112.5 38t33.5 93q0 123 -136 123h-39l13 74h55q75 0 107.5 38t32.5 91q0 108 -124 108q-145 0 -157 -159l-81 18q7 98 70 157t172 59q38 0 73 -8
t68 -26t52.5 -52.5t19.5 -81.5q0 -67 -40 -117t-119 -64q125 -31 125 -158q0 -85 -60.5 -146.5t-179.5 -61.5z" />
    <glyph glyph-name="four.osf" horiz-adv-x="550" 
d="M265 -150l32 181h-326l11 61l389 443h100l-77 -434h114l-12 -70h-114l-32 -181h-85zM72 101h237l42 236q2 12 8 50.5t11 60.5h-2q-22 -38 -63 -85l-169 -196q-44 -49 -64 -66z" />
    <glyph glyph-name="five.osf" horiz-adv-x="574" 
d="M233 -165q-88 0 -152 42t-73 133l93 11q20 -109 135 -109q48 0 82.5 16t53 43.5t26.5 57.5t8 64q0 146 -129 146q-65 0 -101.5 -32.5t-51.5 -78.5l-83 9l112 398h384l-14 -78h-318l-68 -238q20 40 62 67.5t104 27.5q35 0 66.5 -9.5t62 -30.5t48.5 -64t18 -103
q0 -114 -68.5 -193t-196.5 -79z" />
    <glyph glyph-name="six.osf" horiz-adv-x="585" 
d="M336 464q84 0 143.5 -56.5t59.5 -162.5q0 -67 -24 -124t-80.5 -96.5t-138.5 -39.5q-49 0 -88.5 15t-73.5 47.5t-53 93t-19 144.5q0 57 8.5 113t30 113.5t54 100.5t86 70.5t120.5 27.5q85 0 146.5 -42t73.5 -130l-87 -20q-22 117 -134 117q-175 0 -203 -277q26 54 74.5 80
t104.5 26zM300 60q42 0 73 17.5t46 46t22 57.5t7 60q0 43 -12.5 74t-33.5 46t-42.5 21.5t-45.5 6.5q-53 0 -95.5 -30t-66.5 -89q-3 -113 39.5 -161.5t108.5 -48.5z" />
    <glyph glyph-name="seven.osf" horiz-adv-x="501" 
d="M70 -150l2 10q71 360 347 592h-358l15 83h460l-13 -70q-155 -127 -236 -266.5t-115 -331.5l-3 -17h-99z" />
    <glyph glyph-name="eight.osf" horiz-adv-x="589" 
d="M417 370q119 -55 119 -177q0 -88 -65 -148t-189 -60q-106 0 -179 47.5t-73 144.5q0 75 46.5 126.5t133.5 66.5q-93 52 -93 151q0 77 56 133t170 56q97 0 162 -43.5t65 -128.5q0 -61 -37.5 -106t-115.5 -62zM341 642q-41 0 -69 -12t-40.5 -32t-17.5 -36.5t-5 -34.5
q0 -84 99 -118l40 -14q72 18 101.5 51t29.5 79q0 62 -39.5 89.5t-98.5 27.5zM287 57q81 0 119 37t38 93q0 97 -101 132l-58 20q-161 -28 -161 -150q0 -72 47.5 -102t115.5 -30z" />
    <glyph glyph-name="nine.osf" horiz-adv-x="590" 
d="M295 550q237 0 237 -312q0 -46 -5.5 -92.5t-25 -105t-50.5 -102t-87.5 -73.5t-130.5 -30q-84 0 -144 39.5t-66 122.5l87 20q16 -107 127 -107q56 0 97.5 25.5t63 69.5t32.5 90.5t13 102.5q-27 -45 -65.5 -71t-105.5 -26q-93 0 -155 56t-62 154q0 44 13 84.5t39.5 76
t75 57t112.5 21.5zM292 176q103 0 153 120q1 97 -41.5 138t-109.5 41q-43 0 -74 -15t-46 -40.5t-21.5 -50.5t-6.5 -52q0 -74 41 -107.5t105 -33.5z" />
    <glyph glyph-name="one.ss02" horiz-adv-x="497" 
d="M281 81h171l-14 -81h-441l14 81h185l83 471q-52 -52 -160 -52h-34l14 81h29q136 0 191 114h71z" />
    <glyph glyph-name="zero.tosf" 
d="M286 -15q-46 0 -85 11.5t-73 37.5t-53.5 74t-19.5 114q0 45 9 89t30 88t53 77t81.5 53.5t111.5 20.5q46 0 85 -11.5t73 -37.5t53.5 -74t19.5 -114q0 -45 -9 -89t-30 -88t-53 -77t-81.5 -53.5t-111.5 -20.5zM291 59q55 0 94.5 24.5t59.5 64.5t29 79.5t9 79.5
q0 92 -42 130.5t-106 38.5q-55 0 -94.5 -24.5t-59.5 -64.5t-29 -79.5t-9 -79.5q0 -92 42 -130.5t106 -38.5z" />
    <glyph glyph-name="one.tosf" 
d="M346 77h171l-14 -77h-441l14 77h184l58 323q-20 -22 -66 -39t-91 -17h-38l14 81h26q63 0 117 33t75 77h72z" />
    <glyph glyph-name="two.tosf" 
d="M33 52q135 66 240 131q92 58 132 102t40 97q0 93 -110 93q-72 0 -101.5 -34.5t-29.5 -82.5q0 -21 3 -42l-89 11q-3 18 -3 35q0 75 55 131.5t167 56.5q88 0 144 -40t56 -122q0 -57 -28.5 -100.5t-88.5 -86.5q-56 -43 -207 -124h300l-14 -77h-475z" />
    <glyph glyph-name="three.tosf" 
d="M279 -165q-44 0 -84 9.5t-79 31.5t-62.5 66t-22.5 106l90 11q1 -38 12.5 -66.5t28 -43.5t39.5 -24.5t41 -12t39 -2.5q79 0 112.5 38t33.5 93q0 123 -136 123h-39l13 74h55q75 0 107.5 38t32.5 91q0 108 -124 108q-145 0 -157 -159l-81 18q7 98 70 157t172 59q38 0 73 -8
t68 -26t52.5 -52.5t19.5 -81.5q0 -67 -40 -117t-119 -64q125 -31 125 -158q0 -85 -60.5 -146.5t-179.5 -61.5z" />
    <glyph glyph-name="four.tosf" 
d="M302 -150l32 181h-326l11 61l389 443h100l-77 -434h114l-12 -70h-114l-32 -181h-85zM109 101h237l45 253q14 76 19 95h-2q-24 -37 -66 -86l-169 -196q-44 -49 -64 -66z" />
    <glyph glyph-name="five.tosf" 
d="M260 -165q-88 0 -152 42t-73 133l93 11q20 -109 135 -109q48 0 82.5 16t53 43.5t26.5 57.5t8 64q0 146 -129 146q-65 0 -101.5 -32.5t-51.5 -78.5l-83 9l112 398h384l-14 -78h-318l-68 -238q20 40 62 67.5t104 27.5q35 0 66.5 -9.5t62 -30.5t48.5 -64t18 -103
q0 -114 -68.5 -193t-196.5 -79z" />
    <glyph glyph-name="six.tosf" 
d="M353 464q82 0 140.5 -56.5t58.5 -162.5q0 -67 -23.5 -124t-79.5 -96.5t-136 -39.5q-49 0 -88.5 15t-73.5 47.5t-53 93t-19 144.5q0 57 8.5 113t30 113.5t54 100.5t86 70.5t120.5 27.5q81 0 140 -42t70 -130l-87 -20q-21 117 -124 117q-182 0 -205 -283q25 56 74.5 84
t106.5 28zM317 60q41 0 71 17.5t45 46t21.5 57.5t6.5 60q0 81 -39 114.5t-91 33.5q-54 0 -97 -31t-66 -91l-1 -19q-3 -98 40.5 -143t109.5 -45z" />
    <glyph glyph-name="seven.tosf" 
d="M128 -150l2 10q71 360 347 592h-358l15 83h460l-13 -70q-155 -127 -236 -266.5t-115 -331.5l-3 -17h-99z" />
    <glyph glyph-name="eight.tosf" 
d="M430 370q110 -54 110 -177q0 -88 -62 -148t-180 -60q-102 0 -172 47.5t-70 144.5q0 74 44.5 126t128.5 67q-86 52 -86 151q0 77 53.5 133t162.5 56q93 0 155 -43.5t62 -128.5q0 -61 -35.5 -106t-110.5 -62zM357 642q-38 0 -64 -12t-37.5 -31.5t-16 -36.5t-4.5 -35
q0 -84 89 -118l39 -13q122 32 122 129q0 62 -36.5 89.5t-91.5 27.5zM303 57q75 0 110 37t35 93q0 97 -89 132l-58 20q-151 -30 -151 -150q0 -72 44.5 -102t108.5 -30z" />
    <glyph glyph-name="nine.tosf" 
d="M316 550q237 0 237 -312q0 -46 -5.5 -92.5t-25 -105t-50.5 -102t-87.5 -73.5t-130.5 -30q-83 0 -143.5 42t-66.5 130l87 20q16 -117 127 -117q57 0 98 25.5t63 69.5t32.5 91t12.5 102q-27 -45 -65.5 -71t-105.5 -26q-93 0 -155 56t-62 154q0 44 13 84.5t39.5 76t75 57
t112.5 21.5zM313 176q103 0 153 120q1 97 -41.5 138t-109.5 41q-43 0 -74 -15t-46 -40.5t-21.5 -50.5t-6.5 -52q0 -74 41 -107.5t105 -33.5z" />
    <glyph glyph-name="zero.osf.zero" horiz-adv-x="616" 
d="M338 550q47 0 87 -11.5t75 -37.5t55 -74t20 -114q0 -45 -9 -89t-31 -88t-54 -77t-83 -53.5t-114 -20.5q-47 0 -87 11.5t-75 37.5t-55 74t-20 114q0 45 9 89t31 88t54 77t83 53.5t114 20.5zM333 476q-46 0 -81.5 -17t-57 -43t-35.5 -60t-19 -65.5t-5 -62.5q0 -58 19 -96
l287 308q-39 36 -108 36zM289 59q46 0 81.5 17t57 43t35.5 60t19 65.5t5 62.5q0 55 -18 94l-286 -307q39 -35 106 -35z" />
    <glyph glyph-name="zero.tf.zero" 
d="M368 710q103 0 165.5 -67t62.5 -218q0 -55 -8.5 -110.5t-30.5 -116.5t-55.5 -107t-89.5 -76t-126 -30q-103 0 -165.5 67t-62.5 218q0 55 8.5 111t30.5 116.5t55.5 106.5t89.5 76t126 30zM365 635q-61 0 -105.5 -35.5t-67 -93.5t-33 -118.5t-10.5 -125.5q0 -37 4 -61
l331 356q-34 78 -119 78zM289 60q61 0 105.5 35.5t67 93.5t33 118.5t10.5 125.5q0 36 -4 60l-331 -356q35 -77 119 -77z" />
    <glyph glyph-name="zero.tosf.zero" 
d="M340 550q46 0 85 -11.5t73 -37.5t53.5 -74t19.5 -114q0 -45 -9 -89t-30 -88t-53 -77t-81.5 -53.5t-111.5 -20.5q-46 0 -85 11.5t-73 37.5t-53.5 74t-19.5 114q0 45 9 89t30 88t53 77t81.5 53.5t111.5 20.5zM335 476q-55 0 -94.5 -24.5t-59.5 -64.5t-29 -79.5t-9 -79.5
q0 -57 17 -94l282 303q-39 39 -107 39zM291 59q55 0 94.5 24.5t59.5 64.5t29 79.5t9 79.5q0 50 -15 88l-280 -300q37 -36 103 -36z" />
    <glyph glyph-name="zero.subs" horiz-adv-x="519" 
d="M209 -151q-38 0 -70 10.5t-59.5 33.5t-43.5 66t-16 103q0 53 11.5 104t37.5 101t76.5 80.5t118.5 30.5q81 0 134.5 -49t53.5 -164q0 -41 -6.5 -81.5t-24 -84t-44 -76t-70 -53.5t-98.5 -21zM209 -86q45 0 78 25t50 66t25 83t8 85q0 141 -107 141q-45 0 -78 -25.5t-50 -66
t-25 -82.5t-8 -84q0 -142 107 -142z" />
    <glyph glyph-name="one.subs" horiz-adv-x="325" 
d="M83 -140l68 390q-29 -38 -95 -38h-27l12 70h19q95 0 126 85h61l-89 -507h-75z" />
    <glyph glyph-name="two.subs" horiz-adv-x="445" 
d="M-29 -140l10 59q80 45 130 76t100.5 71.5t74.5 80t24 81.5q0 88 -92 88q-58 0 -84.5 -39t-16.5 -96l-76 6q-16 84 36.5 137.5t146.5 53.5q72 0 121 -32t49 -108q0 -88 -80 -164t-218 -150h248l-10 -64h-363z" />
    <glyph glyph-name="three.subs" horiz-adv-x="464" 
d="M187 -151q-35 0 -65.5 7.5t-60 24t-47.5 49.5t-19 79l78 8q7 -107 112 -107q57 0 82 27.5t25 69.5q0 82 -123 82h-30l12 62h38q128 0 128 90q0 77 -92 77q-104 0 -113 -109l-73 10q6 74 54.5 116.5t135.5 42.5q41 0 76.5 -9t64.5 -38.5t29 -76.5q0 -53 -33.5 -89
t-95.5 -44q44 -8 73.5 -36.5t29.5 -81.5q0 -64 -46.5 -109t-139.5 -45z" />
    <glyph glyph-name="four.subs" horiz-adv-x="453" 
d="M380 -15h-84l-21 -125h-76l22 125h-248l10 53l302 329h79l-58 -324h83zM283 292l-220 -249h169z" />
    <glyph glyph-name="five.subs" horiz-adv-x="460" 
d="M176 -151q-70 0 -120 33t-58 104l75 10q13 -85 105 -85q66 0 94.5 40t28.5 94q0 51 -26 76.5t-71 25.5q-81 0 -112 -81l-69 7l82 294h303l-11 -62h-248l-50 -171q17 33 51.5 52t79.5 19q28 0 52.5 -7.5t47 -23.5t36 -47t13.5 -73q0 -38 -11 -73t-34 -65.5t-64 -48.5
t-94 -18z" />
    <glyph glyph-name="six.subs" horiz-adv-x="474" 
d="M237 201q65 0 111.5 -39.5t46.5 -121.5q0 -79 -49 -135t-141 -56q-81 0 -133.5 51t-52.5 168q0 46 7 89t24.5 84t44 71t67 48t91.5 18q65 0 113 -30.5t56 -99.5l-74 -13q-14 83 -99 83q-69 0 -107 -55.5t-46 -144.5q44 83 141 83zM205 -90q59 0 86.5 37.5t27.5 89.5
q0 55 -30.5 80t-72.5 25q-85 0 -123 -86q3 -146 112 -146z" />
    <glyph glyph-name="seven.subs" horiz-adv-x="404" 
d="M44 -140l2 15q15 117 84 230t183 196h-273l11 66h353l-11 -60q-231 -171 -261 -422l-3 -25h-85z" />
    <glyph glyph-name="eight.subs" horiz-adv-x="477" 
d="M296 131q95 -38 95 -128q0 -67 -51 -110.5t-148 -43.5q-82 0 -139 34t-57 104q0 50 33.5 86.5t102.5 49.5q-75 40 -75 114q0 61 44.5 101t134.5 40q75 0 127 -30.5t52 -93.5q0 -97 -119 -123zM236 324q-58 0 -80.5 -25t-22.5 -58q0 -60 79 -84l29 -9q97 25 97 95
q0 81 -102 81zM196 -93q60 0 88.5 27t28.5 66q0 66 -87 92l-40 12q-109 -24 -109 -108q0 -48 35.5 -68.5t83.5 -20.5z" />
    <glyph glyph-name="nine.subs" horiz-adv-x="479" 
d="M224 378q188 0 188 -223q0 -36 -4 -70t-18 -79t-37 -78t-66.5 -56t-101.5 -23q-69 0 -121 31.5t-57 102.5l73 12q5 -46 36.5 -66t71.5 -20t69.5 19.5t45.5 53t23.5 67t10.5 72.5q-51 -75 -134 -75q-68 0 -118.5 40.5t-50.5 116.5q0 32 9.5 61t30 55.5t59.5 42.5t91 16z
M219 104q41 0 71.5 23t47.5 60q-6 132 -114 132q-62 0 -88 -34t-26 -80q0 -52 31.5 -76.5t77.5 -24.5z" />
    <glyph glyph-name="zero.dnom" horiz-adv-x="416" 
d="M179 -8q-29 0 -54 7t-49 24t-38 51t-14 82q0 40 9.5 78.5t30 75t59.5 58.5t92 22q29 0 54 -7.5t49 -24.5t38 -51.5t14 -82.5q0 -41 -9.5 -79t-30 -73.5t-59.5 -57.5t-92 -22zM179 47q41 0 69 33t38 72t10 78q0 104 -80 104q-31 0 -55.5 -18.5t-37 -48t-18.5 -59t-6 -57.5
q0 -104 80 -104z" />
    <glyph glyph-name="one.dnom" horiz-adv-x="266" 
d="M73 0l51 282q-27 -34 -77 -34h-22l11 65h19q72 0 99 68h59l-67 -381h-73z" />
    <glyph glyph-name="two.dnom" horiz-adv-x="366" 
d="M-11 0l9 52q144 75 191 113q65 53 66 106q0 62 -70 62q-45 0 -63.5 -26.5t-8.5 -70.5l-73 7q-9 65 30.5 106t120.5 41q61 0 101.5 -25.5t40.5 -84.5q0 -116 -230 -226h197l-9 -54h-302z" />
    <glyph glyph-name="three.dnom" horiz-adv-x="374" 
d="M164 -8q-65 0 -111 28.5t-46 95.5l75 5q-1 -41 21.5 -57.5t55.5 -16.5q40 0 59 19t19 48q0 28 -21.5 42t-53.5 14h-24l8 46h26q41 0 63.5 17t22.5 48q0 29 -19.5 42t-49.5 13q-38 0 -58.5 -21t-22.5 -53l-71 7q5 56 44 88.5t112 32.5q54 0 98 -22t44 -75
q0 -43 -29.5 -69.5t-79.5 -31.5q38 -4 62.5 -26t24.5 -59q0 -48 -36.5 -81.5t-112.5 -33.5z" />
    <glyph glyph-name="four.dnom" horiz-adv-x="378" 
d="M320 90h-62l-16 -90h-73l16 90h-193l9 50l234 241h74l-43 -239h62zM235 321l-169 -179h131z" />
    <glyph glyph-name="five.dnom" horiz-adv-x="370" 
d="M153 -8q-58 0 -99.5 25t-49.5 78l71 12q10 -60 78 -60q47 0 68 28.5t21 63.5q0 32 -19.5 51t-53.5 19q-58 0 -81 -55l-64 6l64 221h248l-9 -56h-198l-36 -120q28 54 102 54q50 0 85.5 -27.5t35.5 -85.5q0 -59 -38.5 -106.5t-124.5 -47.5z" />
    <glyph glyph-name="six.dnom" horiz-adv-x="389" 
d="M207 258q53 0 90.5 -27.5t37.5 -94.5q0 -61 -41.5 -102.5t-115.5 -41.5q-64 0 -109 38t-45 126q0 104 47 169t145 65q124 0 135 -104l-68 -8q-10 58 -73 58q-50 0 -78 -40t-37 -97q46 59 112 59zM175 45q45 0 67.5 25t22.5 64q0 36 -23 55t-57 19q-64 0 -93 -59
q3 -104 83 -104z" />
    <glyph glyph-name="seven.dnom" horiz-adv-x="337" 
d="M51 0l1 10q9 90 64.5 173.5t144.5 138.5h-220l11 59h286l-10 -58q-175 -115 -197 -306l-2 -17h-78z" />
    <glyph glyph-name="eight.dnom" horiz-adv-x="384" 
d="M252 205q75 -27 75 -95q0 -53 -42 -85.5t-121 -32.5q-67 0 -113.5 24.5t-46.5 75.5q0 77 107 100q-64 26 -64 88q0 50 37.5 80t111.5 30q61 0 103.5 -22.5t42.5 -70.5q0 -70 -90 -92zM196 341q-80 0 -80 -59q0 -46 63 -59l26 -6q67 20 67 70q0 54 -76 54zM166 44
q45 0 65.5 19.5t20.5 46.5q0 45 -75 63l-23 6q-74 -20 -74 -78q0 -57 86 -57z" />
    <glyph glyph-name="nine.dnom" horiz-adv-x="391" 
d="M190 390q156 0 156 -166q0 -27 -3 -53t-15 -60t-31 -59t-54.5 -42.5t-83.5 -17.5q-54 0 -96 23t-47 78l68 8q1 -30 25.5 -43t54.5 -13q96 0 112 144q-39 -55 -105 -55q-51 0 -94 30t-43 92q0 52 36.5 93t119.5 41zM183 184q64 0 95 54q-4 101 -86 101q-47 0 -68 -24.5
t-21 -58.5q0 -36 23.5 -54t56.5 -18z" />
    <glyph glyph-name="zero.numr" horiz-adv-x="416" 
d="M237 320q-29 0 -54 7t-49 24t-38 51t-14 82q0 40 9.5 78.5t30 75t59.5 58.5t92 22q29 0 54 -7.5t49 -24.5t38 -51.5t14 -82.5q0 -41 -9.5 -79t-30 -73.5t-59.5 -57.5t-92 -22zM237 375q41 0 69 33t38 72t10 78q0 104 -80 104q-31 0 -55.5 -18.5t-37 -48t-18.5 -59
t-6 -57.5q0 -104 80 -104z" />
    <glyph glyph-name="one.numr" horiz-adv-x="266" 
d="M131 328l51 282q-27 -34 -77 -34h-22l11 65h19q72 0 99 68h59l-67 -381h-73z" />
    <glyph glyph-name="two.numr" horiz-adv-x="366" 
d="M47 328l9 52q144 75 191 113q66 53 66 106q0 62 -70 62q-45 0 -63.5 -26.5t-8.5 -70.5l-73 7q-9 65 30.5 106t120.5 41q61 0 101.5 -25.5t40.5 -84.5q0 -116 -230 -226h197l-9 -54h-302z" />
    <glyph glyph-name="three.numr" horiz-adv-x="374" 
d="M222 320q-65 0 -111 28.5t-46 95.5l75 5q-1 -41 21.5 -57.5t55.5 -16.5q40 0 59 19t19 48q0 28 -21.5 42t-53.5 14h-24l8 46h26q41 0 63.5 17t22.5 48q0 29 -19.5 42t-49.5 13q-38 0 -58.5 -21t-22.5 -53l-71 7q5 56 44 88.5t112 32.5q54 0 98 -22t44 -75
q0 -43 -29.5 -69.5t-79.5 -31.5q38 -4 62.5 -26t24.5 -59q0 -48 -36.5 -81.5t-112.5 -33.5z" />
    <glyph glyph-name="four.numr" horiz-adv-x="378" 
d="M378 418h-62l-16 -90h-73l16 90h-193l9 50l234 241h74l-43 -239h62zM293 649l-169 -179h131z" />
    <glyph glyph-name="five.numr" horiz-adv-x="370" 
d="M211 320q-58 0 -99.5 25t-49.5 78l71 12q10 -60 78 -60q47 0 68 28.5t21 63.5q0 32 -19.5 51t-53.5 19q-58 0 -81 -55l-64 6l64 221h248l-9 -56h-198l-36 -120q28 54 102 54q50 0 85.5 -27.5t35.5 -85.5q0 -59 -38.5 -106.5t-124.5 -47.5z" />
    <glyph glyph-name="six.numr" horiz-adv-x="389" 
d="M265 586q53 0 90.5 -27.5t37.5 -94.5q0 -61 -41.5 -102.5t-115.5 -41.5q-64 0 -109 38t-45 126q0 104 47 169t145 65q124 0 135 -104l-68 -8q-10 58 -73 58q-50 0 -78 -40t-37 -97q46 59 112 59zM233 373q45 0 67.5 25t22.5 64q0 36 -23 55t-57 19q-64 0 -93 -59
q3 -104 83 -104z" />
    <glyph glyph-name="seven.numr" horiz-adv-x="337" 
d="M109 328l1 10q9 90 64.5 173.5t144.5 138.5h-220l11 59h286l-10 -58q-175 -115 -197 -306l-2 -17h-78z" />
    <glyph glyph-name="eight.numr" horiz-adv-x="384" 
d="M310 533q75 -27 75 -95q0 -53 -42 -85.5t-121 -32.5q-67 0 -113.5 24.5t-46.5 75.5q0 77 107 100q-64 26 -64 88q0 50 37.5 80t111.5 30q61 0 103.5 -22.5t42.5 -70.5q0 -70 -90 -92zM254 669q-80 0 -80 -59q0 -46 63 -59l26 -6q67 20 67 70q0 54 -76 54zM224 372
q45 0 65.5 19.5t20.5 46.5q0 45 -75 63l-23 6q-74 -20 -74 -78q0 -57 86 -57z" />
    <glyph glyph-name="nine.numr" horiz-adv-x="391" 
d="M248 718q156 0 156 -166q0 -27 -3 -53t-15 -60t-31 -59t-54.5 -42.5t-83.5 -17.5q-54 0 -96 23t-47 78l68 8q1 -30 25.5 -43t54.5 -13q96 0 112 144q-39 -55 -105 -55q-51 0 -94 30t-43 92q0 52 36.5 93t119.5 41zM241 512q64 0 95 54q-4 101 -86 101q-47 0 -68 -24.5
t-21 -58.5q0 -36 23.5 -54t56.5 -18z" />
    <glyph glyph-name="zero.sups" horiz-adv-x="519" 
d="M288 299q-38 0 -70 10.5t-59.5 33.5t-43.5 66t-16 103q0 53 11.5 104t37.5 101t76.5 80.5t118.5 30.5q81 0 134.5 -49t53.5 -164q0 -41 -6.5 -81.5t-24 -84t-44 -76t-70 -53.5t-98.5 -21zM288 364q45 0 78 25t50 66t25 83t8 85q0 141 -107 141q-45 0 -78 -25.5t-50 -66
t-25 -82.5t-8 -84q0 -142 107 -142z" />
    <glyph glyph-name="one.sups" horiz-adv-x="325" 
d="M162 310l68 390q-29 -38 -95 -38h-27l12 70h19q95 0 126 85h61l-89 -507h-75z" />
    <glyph glyph-name="two.sups" horiz-adv-x="445" 
d="M50 310l10 59q80 45 130 76t100.5 71.5t74.5 80t24 81.5q0 88 -92 88q-58 0 -84.5 -39t-16.5 -96l-76 6q-16 84 36.5 137.5t146.5 53.5q72 0 121 -32t49 -108q0 -88 -80 -164t-218 -150h248l-10 -64h-363z" />
    <glyph glyph-name="three.sups" horiz-adv-x="464" 
d="M266 299q-35 0 -65.5 7.5t-60 24t-47.5 49.5t-19 79l78 8q7 -107 112 -107q57 0 82 27.5t25 69.5q0 82 -123 82h-30l12 62h38q128 0 128 90q0 77 -92 77q-104 0 -113 -109l-73 10q6 74 54.5 116.5t135.5 42.5q41 0 76.5 -9t64.5 -38.5t29 -76.5q0 -53 -33.5 -89
t-95.5 -44q44 -8 73.5 -36.5t29.5 -81.5q0 -64 -46.5 -109t-139.5 -45z" />
    <glyph glyph-name="four.sups" horiz-adv-x="453" 
d="M459 435h-84l-21 -125h-76l22 125h-248l10 53l302 329h79l-58 -324h83zM362 742l-220 -249h169z" />
    <glyph glyph-name="five.sups" horiz-adv-x="460" 
d="M255 299q-70 0 -120 33t-58 104l75 10q13 -85 105 -85q66 0 94.5 40t28.5 94q0 51 -26 76.5t-71 25.5q-81 0 -112 -81l-69 7l82 294h303l-11 -62h-248l-50 -171q36 71 131 71q28 0 52.5 -7.5t47 -23.5t36 -47t13.5 -73q0 -38 -11 -73t-34 -65.5t-64 -48.5t-94 -18z" />
    <glyph glyph-name="six.sups" horiz-adv-x="474" 
d="M316 651q65 0 111.5 -39.5t46.5 -121.5q0 -79 -49 -135t-141 -56q-81 0 -133.5 51t-52.5 168q0 46 7 89t24.5 84t44 71t67 48t91.5 18q65 0 113 -30.5t56 -99.5l-74 -13q-14 83 -99 83q-69 0 -107 -55.5t-46 -144.5q44 83 141 83zM284 360q59 0 86.5 37.5t27.5 89.5
q0 55 -30.5 80t-72.5 25q-85 0 -123 -86q3 -146 112 -146z" />
    <glyph glyph-name="seven.sups" horiz-adv-x="404" 
d="M123 310l2 15q15 117 84 230t183 196h-273l11 66h353l-11 -60q-231 -171 -261 -422l-3 -25h-85z" />
    <glyph glyph-name="eight.sups" horiz-adv-x="477" 
d="M375 581q95 -38 95 -128q0 -67 -51 -110.5t-148 -43.5q-82 0 -139 34t-57 104q0 50 33.5 86.5t102.5 49.5q-75 40 -75 114q0 61 44.5 101t134.5 40q75 0 127 -30.5t52 -93.5q0 -97 -119 -123zM315 774q-58 0 -80.5 -25t-22.5 -58q0 -60 79 -84l29 -9q97 25 97 95
q0 81 -102 81zM275 357q60 0 88.5 27t28.5 66q0 66 -87 92l-40 12q-109 -24 -109 -108q0 -48 35.5 -68.5t83.5 -20.5z" />
    <glyph glyph-name="nine.sups" horiz-adv-x="479" 
d="M303 828q188 0 188 -223q0 -36 -4 -70t-18 -79t-37 -78t-66.5 -56t-101.5 -23q-69 0 -121 31.5t-57 102.5l73 12q5 -46 36.5 -66t71.5 -20t69.5 19.5t45.5 53t23.5 67t10.5 72.5q-51 -75 -134 -75q-68 0 -118.5 40.5t-50.5 116.5q0 32 9.5 61t30 55.5t59.5 42.5t91 16z
M298 554q41 0 71.5 23t47.5 60q-6 132 -114 132q-62 0 -88 -34t-26 -80q0 -52 31.5 -76.5t77.5 -24.5z" />
    <glyph glyph-name="backslash.case" horiz-adv-x="760" 
d="M577 -87l-437 877h79l437 -877h-79z" />
    <glyph glyph-name="periodcentered.case" horiz-adv-x="257" 
d="M217 419l-21 -118h-117l21 118h117z" />
    <glyph glyph-name="bullet.case" horiz-adv-x="332" 
d="M186 273q-41 0 -67.5 25.5t-26.5 66.5q0 42 26.5 68.5t67.5 26.5q42 0 68.5 -26t26.5 -69q0 -41 -26.5 -66.5t-68.5 -25.5z" />
    <glyph glyph-name="colon.case" horiz-adv-x="257" 
d="M235 520l-21 -118h-117l21 118h117zM164 118l-21 -118h-117l21 118h117z" />
    <glyph glyph-name="exclamdown.case" horiz-adv-x="310" 
d="M167 619l19 106h106l-19 -106h-106zM237 543l-71 -543h-110l121 543h60z" />
    <glyph glyph-name="questiondown.case" horiz-adv-x="479" 
d="M380 720l-18 -106h-105l18 106h105zM338 534l-6 -39q-8 -50 -27 -84.5t-62 -60.5l-53 -32q-49 -30 -70 -62.5t-21 -77.5q0 -117 123 -117q43 0 73.5 15t45 39.5t20.5 49t6 51.5q0 24 -3 43l89 -11q3 -14 3 -52q0 -25 -6 -51t-23 -56t-42.5 -53t-68.5 -38t-97 -15
q-94 0 -155 44t-61 134q0 124 136 208l54 33q28 17 39.5 42t17.5 65l4 25h84z" />
    <glyph glyph-name="semicolon.case" horiz-adv-x="266" 
d="M235 520l-21 -118h-117l21 118h117zM37 -140l-15 44q61 16 75 91l1 5h-63l21 118h117l-20 -111q-12 -70 -42 -102.5t-74 -44.5z" />
    <glyph glyph-name="slash.case" horiz-adv-x="452" 
d="M65 -87h-79l437 877h79z" />
    <glyph glyph-name="underscore.case" horiz-adv-x="427" 
d="M-47 -17h427l-11 -60h-427z" />
    <glyph glyph-name="asterisk.ss04" horiz-adv-x="295" 
d="M229 710l-47 -93h-97l69 -57l-47 -93l89 57l69 -57l-14 93l89 57h-97z" />
    <glyph glyph-name="braceleft.case" horiz-adv-x="354" 
d="M219 -86q-28 0 -51 7t-43.5 25t-26 49t0.5 80l25 140q5 32 6.5 56t-12.5 38.5t-45 15.5l12 68q45 1 61.5 25t26.5 81l28 160q5 28 13 49t25.5 44.5t51 36t80.5 12.5h37l-11 -61h-16q-53 0 -73.5 -25t-28.5 -67l-25 -139q-11 -61 -33 -98t-65 -51q67 -30 44 -156l-25 -138
q-9 -50 11.5 -70.5t51.5 -20.5h27l-10 -61h-36z" />
    <glyph glyph-name="braceright.case" horiz-adv-x="354" 
d="M173 801q28 0 51 -7t43.5 -25t26 -49t-0.5 -80l-25 -140q-5 -32 -6.5 -56t12.5 -38.5t45 -15.5l-12 -68q-45 -1 -61.5 -25t-26.5 -81l-28 -160q-5 -28 -13 -49t-25.5 -44.5t-51 -36t-80.5 -12.5h-37l11 61h16q53 0 73.5 25t28.5 67l25 139q11 61 33 98t65 51
q-67 30 -44 156l25 138q9 50 -11.5 70.5t-51.5 20.5h-27l10 61h36z" />
    <glyph glyph-name="bracketleft.case" horiz-adv-x="334" 
d="M42 -80l154 871h193l-13 -70h-117l-129 -731h117l-12 -70h-193z" />
    <glyph glyph-name="bracketright.case" horiz-adv-x="334" 
d="M329 791l-154 -871h-193l13 70h117l129 731h-117l12 70h193z" />
    <glyph glyph-name="parenleft.case" horiz-adv-x="319" 
d="M191 -106q-112 192 -112 403q0 96 22 178.5t63 146t80 107t91 87.5l60 -39q-57 -55 -93 -97.5t-70.5 -101t-51 -128t-16.5 -154.5q0 -95 20 -177.5t69 -185.5z" />
    <glyph glyph-name="parenright.case" horiz-adv-x="319" 
d="M165 816q112 -192 112 -403q0 -96 -22 -178.5t-63 -146t-80 -107t-91 -87.5l-60 39q57 55 93 97.5t70.5 101t51 128t16.5 154.5q0 95 -20 177.5t-69 185.5z" />
    <glyph glyph-name="parenleft.subs" horiz-adv-x="273" 
d="M121 -239q-81 136 -81 282q0 132 52.5 221.5t138.5 162.5l56 -34q-85 -78 -129 -155.5t-44 -192.5t67 -256z" />
    <glyph glyph-name="parenright.subs" horiz-adv-x="273" 
d="M97 428q81 -136 81 -282q0 -132 -52.5 -221.5t-138.5 -162.5l-56 34q85 78 129 155.5t44 192.5t-67 256z" />
    <glyph glyph-name="parenleft.sups" horiz-adv-x="273" 
d="M200 211q-81 136 -81 282q0 132 52.5 221.5t138.5 162.5l56 -34q-85 -78 -129 -155.5t-44 -192.5t67 -256z" />
    <glyph glyph-name="parenright.sups" horiz-adv-x="273" 
d="M177 878q81 -136 81 -282q0 -132 -52.5 -221.5t-138.5 -162.5l-56 34q85 78 129 155.5t44 192.5t-67 256z" />
    <glyph glyph-name="emdash.case" horiz-adv-x="795" 
d="M74 385h695l-11 -64h-695z" />
    <glyph glyph-name="endash.case" horiz-adv-x="512" 
d="M74 385h412l-11 -64h-412z" />
    <glyph glyph-name="hyphen.case" horiz-adv-x="389" 
d="M75 393h289l-14 -80h-289z" />
    <glyph glyph-name="guillemotleft.case" horiz-adv-x="511" 
d="M182 142l-134 208l208 208h97l-213 -214l130 -202h-88zM374 142l-134 208l208 208h97l-213 -214l130 -202h-88z" />
    <glyph glyph-name="guillemotright.case" horiz-adv-x="510" 
d="M172 558l134 -208l-208 -208h-97l213 214l-130 202h88zM364 558l134 -208l-208 -208h-97l213 214l-130 202h88z" />
    <glyph glyph-name="guilsinglleft.case" horiz-adv-x="319" 
d="M182 142l-134 208l208 208h97l-213 -214l130 -202h-88z" />
    <glyph glyph-name="guilsinglright.case" horiz-adv-x="318" 
d="M172 558l134 -208l-208 -208h-97l213 214l-130 202h88z" />
    <glyph glyph-name="currency.case" horiz-adv-x="572" 
d="M497 495q37 -51 37 -126q0 -109 -67 -178l40 -55l-46 -36l-42 55q-48 -28 -113 -28q-96 0 -157 53l-67 -61l-33 36l67 61q-34 50 -34 121q0 106 64 175l-44 60l47 36l44 -58q53 29 117 29q90 0 152 -48l65 58l33 -36zM300 198q80 0 117.5 50.5t37.5 120.5q0 71 -39.5 105
t-99.5 34q-80 0 -117.5 -50.5t-37.5 -120.5q0 -71 39.5 -105t99.5 -34z" />
    <glyph glyph-name="dollar.case" horiz-adv-x="612" 
d="M383 394q84 -25 129.5 -70.5t45.5 -132.5q0 -41 -12.5 -75.5t-41 -65t-81.5 -48t-127 -17.5h-4l-16 -92h-60l17 96q-95 12 -150.5 62t-62.5 140l98 14q9 -118 128 -139l46 259l-11 3q-168 47 -168 189q0 80 58.5 136.5t183.5 56.5h5l16 90h60l-17 -95q80 -12 128.5 -57.5
t57.5 -122.5l-92 -20q-10 105 -107 125l-41 -231zM207 524q0 -46 26 -70t75 -39l39 220q-42 -1 -71.5 -11.5t-43.5 -28t-19.5 -34.5t-5.5 -37zM306 61q158 0 158 121q0 58 -31.5 86t-83.5 42z" />
    <glyph glyph-name="Euro.case" horiz-adv-x="647" 
d="M351 64q41 0 72.5 8.5t55 26.5t36.5 32.5t31 39.5l59 -47q-2 -3 -7 -10q-19 -28 -33 -44t-43 -39t-70 -34.5t-95 -11.5q-51 0 -95.5 13.5t-84.5 43.5t-66.5 85t-32.5 131h-61l11 60h48q0 31 7 75h-42l10 60h45q34 114 118 185.5t220 71.5q180 0 246 -128l-81 -51
q-45 100 -167 100q-94 0 -152.5 -49.5t-86.5 -128.5h354l-10 -60h-360q-6 -32 -8 -75h355l-11 -60h-342q20 -194 180 -194z" />
    <glyph glyph-name="sterling.case" horiz-adv-x="608" 
d="M387 69q30 0 51.5 8.5t34 25t19 31.5t11.5 37l78 -16q-15 -71 -67.5 -120.5t-129.5 -49.5q-39 0 -98 13t-106 13q-86 0 -186 -19l-8 63q86 21 134.5 78.5t48.5 173.5v25h-109l11 63h97v39q0 60 11.5 107.5t37.5 86.5t72 60.5t109 21.5q186 0 204 -151l-92 -22
q-12 98 -112 98q-44 0 -72 -15.5t-41.5 -47t-17.5 -65t-4 -84.5v-28h191l-11 -63h-180q0 -113 -31.5 -168t-107.5 -85q45 7 84 7q48 0 101 -8.5t78 -8.5z" />
    <glyph glyph-name="currency.tf.case" 
d="M521 495q37 -51 37 -126q0 -109 -67 -178l40 -55l-46 -36l-42 55q-48 -28 -113 -28q-96 0 -157 53l-67 -61l-33 36l67 61q-34 50 -34 121q0 106 64 175l-44 60l47 36l44 -58q53 29 117 29q90 0 152 -48l65 58l33 -36zM324 198q80 0 117.5 50.5t37.5 120.5q0 71 -39.5 105
t-99.5 34q-80 0 -117.5 -50.5t-37.5 -120.5q0 -71 39.5 -105t99.5 -34z" />
    <glyph glyph-name="dollar.tf.case" 
d="M392 394q79 -24 122 -70t43 -133q0 -41 -12 -75.5t-39.5 -65t-78.5 -48t-122 -17.5h-4l-16 -92h-60l17 96q-90 12 -143 62.5t-60 139.5l98 14q9 -117 119 -139l45 259l-11 3q-158 45 -158 189q0 80 56 136.5t176 56.5h5l16 90h60l-17 -95q160 -28 176 -180l-92 -20
q-9 103 -97 124l-41 -230zM226 524q0 -46 24 -70t67 -38l39 219q-130 -2 -130 -111zM315 61q148 0 148 121q0 58 -28.5 85t-76.5 43z" />
    <glyph glyph-name="Euro.tf.case" 
d="M360 64q43 0 77.5 18.5t50 38t34.5 50.5l59 -47q-37 -59 -58 -81q-60 -58 -159 -58q-48 0 -89.5 13.5t-79 43.5t-61.5 85t-29 131h-87l11 60h75q2 42 7 75h-69l10 60h72q31 114 107.5 185.5t198.5 71.5q169 0 226 -128l-81 -51q-40 100 -148 100q-150 0 -207 -178h283
l-10 -60h-288q-7 -43 -8 -75h283l-11 -60h-271q15 -194 162 -194z" />
    <glyph glyph-name="sterling.tf.case" 
d="M381 69q53 0 75 26.5t33 75.5l78 -16q-15 -71 -63.5 -120.5t-128.5 -49.5q-28 0 -80.5 13t-103.5 13q-81 0 -181 -19l-8 63q92 24 137.5 81.5t45.5 180.5v15h-109l11 63h97v35q0 280 225 280q86 0 136 -39t58 -112l-92 -22q-12 98 -107 98q-41 0 -67 -15.5t-38 -47
t-16 -65t-4 -84.5v-28h172l-11 -63h-161q0 -113 -31.5 -168t-107.5 -85q45 7 88 7q40 0 87 -8.5t66 -8.5z" />
    <glyph glyph-name="yen.tf.case" 
d="M651 695l-281 -361h186l-11 -60h-186l-12 -71h186l-11 -60h-186l-25 -143h-90l25 143h-186l11 60h186l12 71h-186l11 60h186l-155 361h99l92 -229q14 -35 18 -64h2q17 34 40 64l173 229h102z" />
    <glyph glyph-name="yen.case" horiz-adv-x="525" 
d="M603 695l-276 -354h172l-11 -60h-175l-9 -48h176l-11 -60h-175l-31 -173h-91l31 173h-175l11 60h174l9 48h-175l11 60h170l-150 354h96l78 -195q24 -62 31 -95h3q19 34 65 95l147 195h105z" />
    <glyph glyph-name="currency.tf" 
d="M512 445q37 -51 37 -126q0 -109 -67 -178l40 -55l-46 -36l-42 55q-48 -28 -113 -28q-96 0 -157 53l-67 -61l-33 36l67 61q-34 50 -34 121q0 106 64 175l-44 60l47 36l44 -58q53 29 117 29q90 0 152 -48l65 58l33 -36zM315 148q80 0 117.5 50.5t37.5 120.5q0 71 -39.5 105
t-99.5 34q-80 0 -117.5 -50.5t-37.5 -120.5q0 -71 39.5 -105t99.5 -34z" />
    <glyph glyph-name="plus.case" horiz-adv-x="570" 
d="M547 401l-13 -73h-193l-36 -202h-85l36 202h-192l13 73h191l34 190h85l-34 -190h194z" />
    <glyph glyph-name="minus.case" horiz-adv-x="570" 
d="M63 323l14 80h470l-14 -80h-470z" />
    <glyph glyph-name="multiply.case" horiz-adv-x="685" 
d="M638 553l-218 -186l153 -185l-67 -58l-153 186l-219 -186l-47 57l218 186l-153 186l68 57l153 -186l218 186z" />
    <glyph glyph-name="divide.case" horiz-adv-x="570" 
d="M331 497q-23 0 -37.5 14.5t-14.5 37.5t14.5 37.5t37.5 14.5t37.5 -14t14.5 -38q0 -23 -14.5 -37.5t-37.5 -14.5zM63 323l13 76h470l-13 -76h-470zM272 121q-23 0 -37.5 14.5t-14.5 37.5t14.5 37.5t37.5 14.5t37.5 -14t14.5 -38q0 -23 -14.5 -37.5t-37.5 -14.5z" />
    <glyph glyph-name="equal.case" horiz-adv-x="570" 
d="M80 419l14 80h470l-14 -80h-470zM46 229l14 80h470l-14 -80h-470z" />
    <glyph glyph-name="notequal.case" horiz-adv-x="668" 
d="M599 419h-184l-63 -110h227l-14 -80h-258l-74 -131h-56l74 131h-156l14 80h187l63 110h-230l14 80h261l72 127h56l-72 -127h153z" />
    <glyph glyph-name="greater.case" horiz-adv-x="669" 
d="M125 602l429 -205l-13 -72l-501 -205l14 86l399 161l-342 161z" />
    <glyph glyph-name="less.case" horiz-adv-x="669" 
d="M543 120l-429 205l13 72l501 205l-14 -86l-399 -161l342 -161z" />
    <glyph glyph-name="greaterequal.case" horiz-adv-x="670" 
d="M177 668l429 -205l-13 -72l-501 -205l14 86l399 161l-342 161zM80 130h460l-13 -75h-460z" />
    <glyph glyph-name="lessequal.case" horiz-adv-x="670" 
d="M556 186l-429 205l13 72l501 205l-14 -86l-399 -161l342 -161zM84 130h460l-13 -75h-460z" />
    <glyph glyph-name="plusminus.case" horiz-adv-x="684" 
d="M413 420h194l-13 -73h-194l-28 -160h-85l28 160h-191l13 73h191l28 161h85zM73 55l14 80h470l-14 -80h-470z" />
    <glyph glyph-name="approxequal.case" horiz-adv-x="662" 
d="M467 399q-39 0 -110 25t-101 25q-74 0 -133 -40l14 80q23 17 61 28.5t72 11.5q46 0 113.5 -25t97.5 -25q73 0 132 40l-15 -80q-21 -17 -58.5 -28.5t-72.5 -11.5zM434 209q-39 0 -110 25t-101 25q-74 0 -133 -40l14 80q23 17 61 28.5t72 11.5q46 0 113.5 -25t97.5 -25
q74 0 131 40l-14 -80q-21 -17 -58.5 -28.5t-72.5 -11.5z" />
    <glyph glyph-name="asciitilde.case" horiz-adv-x="621" 
d="M412 272q-43 0 -74 20t-55.5 39.5t-51.5 19.5q-32 0 -55 -14.5t-45 -53.5l-66 12q25 60 74.5 94.5t104.5 34.5q43 0 74 -20t55.5 -39.5t51.5 -19.5q32 0 55 14.5t45 53.5l66 -12q-26 -60 -75 -94.5t-104 -34.5z" />
    <glyph glyph-name="logicalnot.case" horiz-adv-x="663" 
d="M131 429h465l-43 -243h-80l29 163h-385z" />
    <glyph glyph-name="infinity.case" horiz-adv-x="625" 
d="M480 503q47 0 75 -31.5t28 -81.5q0 -38 -13 -74t-47 -64.5t-83 -28.5q-84 0 -119 78q-63 -78 -137 -78q-48 0 -75.5 31.5t-27.5 81.5q0 26 7.5 53t22.5 53.5t44.5 43.5t68.5 17q84 0 119 -78q63 78 137 78zM205 295q28 0 46.5 15t45.5 52q-14 37 -29 53t-42 16
q-33 0 -53 -23.5t-20 -58.5q0 -24 13.5 -39t38.5 -15zM438 295q33 0 52.5 23.5t19.5 58.5q0 24 -13 39t-38 15q-28 0 -46.5 -15t-45.5 -52q14 -37 29 -53t42 -16z" />
    <glyph glyph-name="emptyset.case" horiz-adv-x="548" 
d="M557 559l-76 -69q37 -50 37 -125q0 -101 -61 -171.5t-167 -70.5q-93 0 -155 51l-76 -69l-33 36l76 69q-36 51 -36 123q0 101 61 171.5t167 70.5q91 0 154 -50l76 70zM145 333q0 -42 14 -70l234 212q-38 29 -93 29q-80 0 -117.5 -50.5t-37.5 -120.5zM439 365q0 40 -15 72
l-235 -213q37 -30 95 -30q80 0 117.5 50.5t37.5 120.5z" />
    <glyph glyph-name="plus.tf.case" 
d="M572 401l-13 -73h-193l-36 -202h-85l36 202h-192l13 73h191l34 190h85l-34 -190h194z" />
    <glyph glyph-name="minus.tf.case" 
d="M87 323l14 80h470l-14 -80h-470z" />
    <glyph glyph-name="divide.tf.case" 
d="M355 497q-23 0 -37.5 14.5t-14.5 37.5t14.5 37.5t37.5 14.5t37.5 -14t14.5 -38q0 -23 -14.5 -37.5t-37.5 -14.5zM87 323l13 76h470l-13 -76h-470zM296 121q-23 0 -37.5 14.5t-14.5 37.5t14.5 37.5t37.5 14.5t37.5 -14t14.5 -38q0 -23 -14.5 -37.5t-37.5 -14.5z" />
    <glyph glyph-name="equal.tf.case" 
d="M87 419l14 80h470l-14 -80h-470zM53 229l14 80h470l-14 -80h-470z" />
    <glyph glyph-name="emptyset.tf.case" 
d="M595 559l-76 -69q37 -50 37 -125q0 -101 -61 -171.5t-167 -70.5q-93 0 -155 51l-76 -69l-33 36l76 69q-36 51 -36 123q0 101 61 171.5t167 70.5q91 0 154 -50l76 70zM183 333q0 -42 14 -70l234 212q-38 29 -93 29q-80 0 -117.5 -50.5t-37.5 -120.5zM477 365q0 40 -15 72
l-235 -213q37 -30 95 -30q80 0 117.5 50.5t37.5 120.5z" />
    <glyph glyph-name="plus.subs" horiz-adv-x="446" 
d="M379 128l-10 -56h-147l-26 -147h-62l26 147h-146l10 56h146l24 139h62l-24 -139h147z" />
    <glyph glyph-name="minus.subs" horiz-adv-x="446" 
d="M14 71l10 58h355l-10 -58h-355z" />
    <glyph glyph-name="multiply.subs" horiz-adv-x="533" 
d="M447 235l-164 -136l116 -135l-50 -44l-117 137l-164 -137l-36 43l164 136l-116 136l51 42l116 -136l164 136z" />
    <glyph glyph-name="divide.subs" horiz-adv-x="446" 
d="M215 195q-18 0 -30 11t-12 29t11.5 29t29.5 11t29.5 -11t11.5 -29t-11.5 -29t-28.5 -11zM14 71l10 56h355l-10 -56h-355zM173 -76q-18 0 -29.5 11t-11.5 29q0 19 11.5 30t29.5 11q17 0 28.5 -11.5t11.5 -29.5q0 -17 -11.5 -28.5t-28.5 -11.5z" />
    <glyph glyph-name="plus.sups" horiz-adv-x="446" 
d="M459 578l-10 -56h-147l-26 -147h-62l26 147h-146l10 56h146l24 139h62l-24 -139h147z" />
    <glyph glyph-name="minus.sups" horiz-adv-x="446" 
d="M94 521l10 58h355l-10 -58h-355z" />
    <glyph glyph-name="multiply.sups" horiz-adv-x="533" 
d="M527 685l-164 -136l116 -135l-50 -44l-117 137l-164 -137l-36 43l164 136l-116 136l51 42l116 -136l164 136z" />
    <glyph glyph-name="divide.sups" horiz-adv-x="446" 
d="M295 645q-18 0 -30 11t-12 29t11.5 29t29.5 11t29.5 -11t11.5 -29t-11.5 -29t-28.5 -11zM94 521l10 56h355l-10 -56h-355zM253 374q-18 0 -29.5 11t-11.5 29q0 19 11.5 30t29.5 11q17 0 28.5 -11.5t11.5 -29.5q0 -17 -11.5 -28.5t-28.5 -11.5z" />
    <glyph glyph-name="plus.tf" 
d="M560 366l-13 -73h-193l-36 -202h-85l36 202h-192l13 73h191l34 190h85l-34 -190h194z" />
    <glyph glyph-name="minus.tf" 
d="M75 288l14 80h470l-14 -80h-470z" />
    </font>
</defs>
</svg>
